<svg version="1.1" xmlns="http://www.w3.org/2000/svg" xmlns:xlink="http://www.w3.org/1999/xlink" width="1133.1962890625"
  height="491">
  <defs />
  <g>
    <g transform="translate(-126,-230) scale(1,1)">
      <rect fill="#C0C0C0" stroke="none" x="257" y="247" width="885" height="471" opacity="0.2" />
    </g>
    <g transform="translate(-126,-230) scale(1,1)">
      <rect fill="#ffffff" stroke="none" x="250" y="240" width="885" height="471" />
    </g>
    <g transform="translate(-126,-230) scale(1,1)">
      <path fill="none" stroke="#000000" d="M 250 240 L 1135 240 L 1135 711 L 250 711 L 250 240 Z Z"
        stroke-miterlimit="10" />
    </g>
    <g transform="translate(-126,-230) scale(1,1)">
      <rect fill="#ffffff" stroke="none" x="240" y="247" width="20" height="10" />
    </g>
    <g transform="translate(-126,-230) scale(1,1)">
      <path fill="none" stroke="#000000" d="M 240 247 L 260 247 L 260 257 L 240 257 L 240 247 Z Z"
        stroke-miterlimit="10" />
    </g>
    <g transform="translate(-126,-230) scale(1,1)">
      <rect fill="#ffffff" stroke="none" x="240" y="267" width="20" height="10" />
    </g>
    <g transform="translate(-126,-230) scale(1,1)">
      <path fill="none" stroke="#000000" d="M 240 267 L 260 267 L 260 277 L 240 277 L 240 267 Z Z"
        stroke-miterlimit="10" />
    </g>
    <g transform="translate(-126,-230) scale(1,1)">
      <g>
        <path fill="none" stroke="none" /><text fill="#000000" stroke="none" font-family="Arial" font-size="13px"
          font-style="normal" font-weight="bold" text-decoration="none" x="657.754150390625"
          y="259.5">Eventcatering</text>
        <path fill="none" stroke="#000000" d="M 740.486328125 259.5 L 654.513671875 259.5" stroke-miterlimit="10" />
      </g>
    </g>
    <g transform="translate(-126,-230) scale(1,1)">
      <rect fill="#C0C0C0" stroke="none" x="385" y="607" width="261" height="87" opacity="0.2" />
    </g>
    <g transform="translate(-126,-230) scale(1,1)">
      <rect fill="#ffffff" stroke="none" x="378" y="600" width="261" height="87" />
    </g>
    <g transform="translate(-126,-230) scale(1,1)">
      <path fill="none" stroke="#000000" d="M 378 600 L 639 600 L 639 687 L 378 687 L 378 600 Z Z"
        stroke-miterlimit="10" />
    </g>
    <g transform="translate(-126,-230) scale(1,1)">
      <rect fill="#ffffff" stroke="none" x="368" y="607" width="20" height="10" />
    </g>
    <g transform="translate(-126,-230) scale(1,1)">
      <path fill="none" stroke="#000000" d="M 368 607 L 388 607 L 388 617 L 368 617 L 368 607 Z Z"
        stroke-miterlimit="10" />
    </g>
    <g transform="translate(-126,-230) scale(1,1)">
      <rect fill="#ffffff" stroke="none" x="368" y="627" width="20" height="10" />
    </g>
    <g transform="translate(-126,-230) scale(1,1)">
      <path fill="none" stroke="#000000" d="M 368 627 L 388 627 L 388 637 L 368 637 L 368 627 Z Z"
        stroke-miterlimit="10" />
    </g>
    <g transform="translate(-126,-230) scale(1,1)">
      <g>
        <path fill="none" stroke="none" /><text fill="#000000" stroke="none" font-family="Arial" font-size="13px"
          font-style="normal" font-weight="bold" text-decoration="none" x="482.425048828125" y="619.5">SalesPoint</text>
        <path fill="none" stroke="#000000" d="M 546.733154296875 619.5 L 480.266845703125 619.5"
          stroke-miterlimit="10" />
      </g>
    </g>
    <g transform="translate(-126,-230) scale(1,1)">
      <rect fill="#C0C0C0" stroke="none" x="753" y="607" width="237" height="87" opacity="0.2" />
    </g>
    <g transform="translate(-126,-230) scale(1,1)">
      <rect fill="#ffffff" stroke="none" x="746" y="600" width="237" height="87" />
    </g>
    <g transform="translate(-126,-230) scale(1,1)">
      <path fill="none" stroke="#000000" d="M 746 600 L 983 600 L 983 687 L 746 687 L 746 600 Z Z"
        stroke-miterlimit="10" />
    </g>
    <g transform="translate(-126,-230) scale(1,1)">
      <rect fill="#ffffff" stroke="none" x="736" y="607" width="20" height="10" />
    </g>
    <g transform="translate(-126,-230) scale(1,1)">
      <path fill="none" stroke="#000000" d="M 736 607 L 756 607 L 756 617 L 736 617 L 736 607 Z Z"
        stroke-miterlimit="10" />
    </g>
    <g transform="translate(-126,-230) scale(1,1)">
      <rect fill="#ffffff" stroke="none" x="736" y="627" width="20" height="10" />
    </g>
    <g transform="translate(-126,-230) scale(1,1)">
      <path fill="none" stroke="#000000" d="M 736 627 L 756 627 L 756 637 L 736 637 L 736 627 Z Z"
        stroke-miterlimit="10" />
    </g>
    <g transform="translate(-126,-230) scale(1,1)">
      <g>
        <path fill="none" stroke="none" /><text fill="#000000" stroke="none" font-family="Arial" font-size="13px"
          font-style="normal" font-weight="bold" text-decoration="none" x="827.23095703125"
          y="619.5">SpringSecurity</text>
        <path fill="none" stroke="#000000" d="M 915.733154296875 619.5 L 823.266845703125 619.5"
          stroke-miterlimit="10" />
      </g>
    </g>
    <g transform="translate(-126,-230) scale(1,1)">
      <rect fill="#ffffff" stroke="none" x="240" y="320" width="24" height="24" />
    </g>
    <g transform="translate(-126,-230) scale(1,1)">
      <path fill="none" stroke="#000000" d="M 240 320 L 264 320 L 264 344 L 240 344 L 240 320 Z Z"
        stroke-miterlimit="10" />
    </g>
    <g transform="translate(-126,-230) scale(1,1)">
      <rect fill="#ffffff" stroke="none" x="240" y="456" width="24" height="24" />
    </g>
    <g transform="translate(-126,-230) scale(1,1)">
      <path fill="none" stroke="#000000" d="M 240 456 L 264 456 L 264 480 L 240 480 L 240 456 Z Z"
        stroke-miterlimit="10" />
    </g>
    <g transform="translate(-126,-230) scale(1,1)">
      <rect fill="#ffffff" stroke="none" x="1120" y="312" width="24" height="24" />
    </g>
    <g transform="translate(-126,-230) scale(1,1)">
      <path fill="none" stroke="#000000" d="M 1120 312 L 1144 312 L 1144 336 L 1120 336 L 1120 312 Z Z"
        stroke-miterlimit="10" />
    </g>
    <g transform="translate(-126,-230) scale(1,1)">
      <g>
        <path fill="none" stroke="none" /><text fill="#000000" stroke="none" font-family="Arial" font-size="13px"
          font-style="normal" font-weight="normal" text-decoration="none" x="141" y="338">unregistrierter</text><text
          fill="#000000" stroke="none" font-family="Arial" font-size="13px" font-style="normal" font-weight="normal"
          text-decoration="none" x="141" y="351">Nutzer</text></g>
    </g>
    <g transform="translate(-126,-230) scale(1,1)">
      <g>
        <path fill="none" stroke="none" /><text fill="#000000" stroke="none" font-family="Arial" font-size="13px"
          font-style="normal" font-weight="normal" text-decoration="none" x="141" y="474">Nutzer</text></g>
    </g>
    <g transform="translate(-126,-230) scale(1,1)">
      <g>
        <path fill="none" stroke="none" /><text fill="#000000" stroke="none" font-family="Arial" font-size="13px"
          font-style="normal" font-weight="normal" text-decoration="none" x="1165" y="330">Administrator</text></g>
    </g>
  </g>
</svg>