<svg version="1.1" xmlns="http://www.w3.org/2000/svg" xmlns:xlink="http://www.w3.org/1999/xlink" width="1548" height="756"><defs/><g><g transform="translate(-166,-198) scale(1,1)"><path fill="none" stroke="#000000" d="M 176 208 L 1704 208 L 1704 944 L 176 944 L 176 208" stroke-miterlimit="10"/></g><g transform="translate(-166,-198) scale(1,1)"><path fill="#ffffff" stroke="none" d="M 176 208 L 176 230 L 319.88623046875 230 L 330.88623046875 219 L 330.88623046875 208 L 176 208"/></g><g transform="translate(-166,-198) scale(1,1)"><path fill="none" stroke="#000000" d="M 176 208 L 176 230 L 319.88623046875 230 L 330.88623046875 219 L 330.88623046875 208 L 176 208 L 176 208" stroke-miterlimit="10"/></g><g transform="translate(-166,-198) scale(1,1)"><g><path fill="none" stroke="none"/><text fill="#000000" stroke="none" font-family="Arial" font-size="13px" font-style="normal" font-weight="normal" text-decoration="none" x="187" y="225.5">pkg Mampf [inventory]</text></g></g><g transform="translate(-166,-198) scale(1,1)"><g><path fill="none" stroke="none"/><text fill="#000000" stroke="none" font-family="Arial" font-size="13px" font-style="normal" font-weight="bold" text-decoration="none" x="181" y="225.5"></text></g></g><g transform="translate(-166,-198) scale(1,1)"><rect fill="#C0C0C0" stroke="none" x="479" y="255" width="336" height="15" opacity="0.2"/></g><g transform="translate(-166,-198) scale(1,1)"><rect fill="#C0C0C0" stroke="none" x="479" y="269" width="840" height="114" opacity="0.2"/></g><g transform="translate(-166,-198) scale(1,1)"><rect fill="#ffffff" stroke="none" x="472" y="263" width="840" height="113"/></g><g transform="translate(-166,-198) scale(1,1)"><path fill="none" stroke="#000000" d="M 472 263 L 1312 263 L 1312 376 L 472 376 L 472 263 Z Z" stroke-miterlimit="10"/></g><g transform="translate(-166,-198) scale(1,1)"><rect fill="#ffffff" stroke="none" x="472" y="248" width="336" height="15"/></g><g transform="translate(-166,-198) scale(1,1)"><path fill="none" stroke="#000000" d="M 472 248 L 808 248 L 808 263 L 472 263 L 472 248 Z Z" stroke-miterlimit="10"/></g><g transform="translate(-166,-198) scale(1,1)"><rect fill="#ffffff" stroke="none" x="472" y="262" width="840" height="114"/></g><g transform="translate(-166,-198) scale(1,1)"><path fill="none" stroke="#000000" d="M 472 262 L 1312 262 L 1312 376 L 472 376 L 472 262 Z Z" stroke-miterlimit="10"/></g><g transform="translate(-166,-198) scale(1,1)"><g><path fill="none" stroke="none"/><text fill="#000000" stroke="none" font-family="Arial" font-size="13px" font-style="normal" font-weight="bold" text-decoration="none" x="861.6455078125" y="282.5">Salespoint</text></g></g><g transform="translate(-166,-198) scale(1,1)"><rect fill="#C0C0C0" stroke="none" x="519" y="319" width="95.7236328125" height="40" opacity="0.2"/></g><g transform="translate(-166,-198) scale(1,1)"><rect fill="#ffffff" stroke="none" x="512" y="312" width="95.7236328125" height="40"/></g><g transform="translate(-166,-198) scale(1,1)"><path fill="none" stroke="#000000" d="M 512 312 L 607.7236328125 312 L 607.7236328125 352 L 512 352 L 512 312 Z Z" stroke-miterlimit="10"/></g><g transform="translate(-166,-198) scale(1,1)"><g><path fill="none" stroke="none"/><text fill="#000000" stroke="none" font-family="Arial" font-size="13px" font-style="normal" font-weight="bold" text-decoration="none" x="535.655029296875" y="331.5">Quantity</text></g></g><g transform="translate(-166,-198) scale(1,1)"><rect fill="#C0C0C0" stroke="none" x="231" y="519" width="576" height="15" opacity="0.2"/></g><g transform="translate(-166,-198) scale(1,1)"><rect fill="#C0C0C0" stroke="none" x="231" y="533" width="1440" height="266" opacity="0.2"/></g><g transform="translate(-166,-198) scale(1,1)"><rect fill="#ffffff" stroke="none" x="224" y="527" width="1440" height="265"/></g><g transform="translate(-166,-198) scale(1,1)"><path fill="none" stroke="#000000" d="M 224 527 L 1664 527 L 1664 792 L 224 792 L 224 527 Z Z" stroke-miterlimit="10"/></g><g transform="translate(-166,-198) scale(1,1)"><rect fill="#ffffff" stroke="none" x="224" y="512" width="576" height="15"/></g><g transform="translate(-166,-198) scale(1,1)"><path fill="none" stroke="#000000" d="M 224 512 L 800 512 L 800 527 L 224 527 L 224 512 Z Z" stroke-miterlimit="10"/></g><g transform="translate(-166,-198) scale(1,1)"><rect fill="#ffffff" stroke="none" x="224" y="526" width="1440" height="266"/></g><g transform="translate(-166,-198) scale(1,1)"><path fill="none" stroke="#000000" d="M 224 526 L 1664 526 L 1664 792 L 224 792 L 224 526 Z Z" stroke-miterlimit="10"/></g><g transform="translate(-166,-198) scale(1,1)"><g><path fill="none" stroke="none"/><text fill="#000000" stroke="none" font-family="Arial" font-size="13px" font-style="normal" font-weight="bold" text-decoration="none" x="895.95458984375" y="546.5">mampf.inventory</text></g></g><g transform="translate(-166,-198) scale(1,1)"><rect fill="#C0C0C0" stroke="none" x="1359" y="255" width="73.59999999999991" height="15" opacity="0.2"/></g><g transform="translate(-166,-198) scale(1,1)"><rect fill="#C0C0C0" stroke="none" x="1359" y="269" width="184" height="106" opacity="0.2"/></g><g transform="translate(-166,-198) scale(1,1)"><rect fill="#ffffff" stroke="none" x="1352" y="263" width="184" height="105"/></g><g transform="translate(-166,-198) scale(1,1)"><path fill="none" stroke="#000000" d="M 1352 263 L 1536 263 L 1536 368 L 1352 368 L 1352 263 Z Z" stroke-miterlimit="10"/></g><g transform="translate(-166,-198) scale(1,1)"><rect fill="#ffffff" stroke="none" x="1352" y="248" width="73.59999999999991" height="15"/></g><g transform="translate(-166,-198) scale(1,1)"><path fill="none" stroke="#000000" d="M 1352 248 L 1425.6 248 L 1425.6 263 L 1352 263 L 1352 248 Z Z" stroke-miterlimit="10"/></g><g transform="translate(-166,-198) scale(1,1)"><rect fill="#ffffff" stroke="none" x="1352" y="262" width="184" height="106"/></g><g transform="translate(-166,-198) scale(1,1)"><path fill="none" stroke="#000000" d="M 1352 262 L 1536 262 L 1536 368 L 1352 368 L 1352 262 Z Z" stroke-miterlimit="10"/></g><g transform="translate(-166,-198) scale(1,1)"><g><path fill="none" stroke="none"/><text fill="#000000" stroke="none" font-family="Arial" font-size="13px" font-style="normal" font-weight="bold" text-decoration="none" x="1401.369140625" y="282.5">mampf.catalog</text></g></g><g transform="translate(-166,-198) scale(1,1)"><rect fill="#C0C0C0" stroke="none" x="295" y="263" width="64" height="15" opacity="0.2"/></g><g transform="translate(-166,-198) scale(1,1)"><rect fill="#C0C0C0" stroke="none" x="295" y="277" width="160" height="162" opacity="0.2"/></g><g transform="translate(-166,-198) scale(1,1)"><rect fill="#ffffff" stroke="none" x="288" y="271" width="160" height="161"/></g><g transform="translate(-166,-198) scale(1,1)"><path fill="none" stroke="#000000" d="M 288 271 L 448 271 L 448 432 L 288 432 L 288 271 Z Z" stroke-miterlimit="10"/></g><g transform="translate(-166,-198) scale(1,1)"><rect fill="#ffffff" stroke="none" x="288" y="256" width="64" height="15"/></g><g transform="translate(-166,-198) scale(1,1)"><path fill="none" stroke="#000000" d="M 288 256 L 352 256 L 352 271 L 288 271 L 288 256 Z Z" stroke-miterlimit="10"/></g><g transform="translate(-166,-198) scale(1,1)"><rect fill="#ffffff" stroke="none" x="288" y="270" width="160" height="162"/></g><g transform="translate(-166,-198) scale(1,1)"><path fill="none" stroke="#000000" d="M 288 270 L 448 270 L 448 432 L 288 432 L 288 270 Z Z" stroke-miterlimit="10"/></g><g transform="translate(-166,-198) scale(1,1)"><g><path fill="none" stroke="none"/><text fill="#000000" stroke="none" font-family="Arial" font-size="13px" font-style="normal" font-weight="bold" text-decoration="none" x="349.2109375" y="290.5">Spring</text></g></g><g transform="translate(-166,-198) scale(1,1)"><rect fill="#C0C0C0" stroke="none" x="303" y="319" width="80.552734375" height="48" opacity="0.2"/></g><g transform="translate(-166,-198) scale(1,1)"><rect fill="#ffffff" stroke="none" x="296" y="312" width="80.552734375" height="48"/></g><g transform="translate(-166,-198) scale(1,1)"><path fill="none" stroke="#000000" d="M 296 312 L 376.552734375 312 L 376.552734375 360 L 296 360 L 296 312 Z Z" stroke-miterlimit="10"/></g><g transform="translate(-166,-198) scale(1,1)"><path fill="#ffffff" stroke="none" d="M 350.552734375 329 C 350.552734375 324.0294368 354.582171175 320 359.552734375 320 C 364.523297575 320 368.552734375 324.0294368 368.552734375 329 C 368.552734375 333.9705632 364.523297575 338 359.552734375 338 C 354.582171175 338 350.552734375 333.9705632 350.552734375 329 Z"/></g><g transform="translate(-166,-198) scale(1,1)"><path fill="none" stroke="#000000" d="M 350.552734375 329 C 350.552734375 324.0294368 354.582171175 320 359.552734375 320 C 364.523297575 320 368.552734375 324.0294368 368.552734375 329 C 368.552734375 333.9705632 364.523297575 338 359.552734375 338 C 354.582171175 338 350.552734375 333.9705632 350.552734375 329 Z" stroke-miterlimit="10"/></g><g transform="translate(-166,-198) scale(1,1)"><g><path fill="none" stroke="none"/><text fill="#000000" stroke="none" font-family="Arial" font-size="13px" font-style="normal" font-weight="bold" text-decoration="none" x="306.57275390625" y="331.5">Model</text></g></g><g transform="translate(-166,-198) scale(1,1)"><path fill="none" stroke="#000000" d="M 328 616 L 328 360" stroke-miterlimit="10" stroke-dasharray="3"/></g><g transform="translate(-166,-198) scale(1,1)"><path fill="none" stroke="#000000" d="M 332.209517756016 370.16267485762415 L 328 360 L 323.790482243984 370.16267485762415" stroke-miterlimit="10"/></g><g transform="translate(-166,-198) scale(1,1)"><path fill="none" stroke="#000000" d="M 712 568 L 712 480 L 574 480 L 574 352" stroke-miterlimit="10" stroke-dasharray="3"/></g><g transform="translate(-166,-198) scale(1,1)"><path fill="none" stroke="#000000" d="M 578.209517756016 362.16267485762415 L 574 352 L 569.790482243984 362.16267485762415" stroke-miterlimit="10"/></g><g transform="translate(-166,-198) scale(1,1)"><g><path fill="none" stroke="none"/><text fill="#000000" stroke="none" font-family="Arial" font-size="13px" font-style="normal" font-weight="normal" text-decoration="none" x="587.2958984375" y="403.5">«use»</text></g></g><g transform="translate(-166,-198) scale(1,1)"><path fill="none" stroke="#000000" d="M 744 568 L 744 356" stroke-miterlimit="10" stroke-dasharray="3"/></g><g transform="translate(-166,-198) scale(1,1)"><path fill="none" stroke="#000000" d="M 748.209517756016 366.16267485762415 L 744 356 L 739.790482243984 366.16267485762415" stroke-miterlimit="10"/></g><g transform="translate(-166,-198) scale(1,1)"><g><path fill="none" stroke="none"/><text fill="#000000" stroke="none" font-family="Arial" font-size="13px" font-style="normal" font-weight="normal" text-decoration="none" x="697.2958984375" y="399.5">«use»</text></g></g><g transform="translate(-166,-198) scale(1,1)"><path fill="none" stroke="#000000" d="M 1441 608 L 1441 352" stroke-miterlimit="10"/></g><g transform="translate(-166,-198) scale(1,1)"><path fill="none" stroke="#000000" d="M 1445.2095177560159 362.16267485762415 L 1441 352 L 1436.7904822439841 362.16267485762415" stroke-miterlimit="10"/></g><g transform="translate(-166,-198) scale(1,1)"><g><path fill="none" stroke="none"/><text fill="#000000" stroke="none" font-family="Arial" font-size="13px" font-style="normal" font-weight="normal" text-decoration="none" x="1451.13134765625" y="489.5">-catalog</text></g></g><g transform="translate(-166,-198) scale(1,1)"><g><path fill="none" stroke="none"/><text fill="#000000" stroke="none" font-family="Arial" font-size="13px" font-style="normal" font-weight="normal" text-decoration="none" x="1447.5" y="369.5">1</text></g></g><g transform="translate(-166,-198) scale(1,1)"><rect fill="#C0C0C0" stroke="none" x="1071" y="615" width="573.08837890625" height="100" opacity="0.2"/></g><g transform="translate(-166,-198) scale(1,1)"><rect fill="#ffffff" stroke="none" x="1064" y="608" width="573.08837890625" height="100"/></g><g transform="translate(-166,-198) scale(1,1)"><path fill="none" stroke="#000000" d="M 1064 608 L 1637.08837890625 608 L 1637.08837890625 708 L 1064 708 L 1064 608 Z Z" stroke-miterlimit="10"/></g><g transform="translate(-166,-198) scale(1,1)"><path fill="none" stroke="#000000" d="M 1064 633 L 1637.08837890625 633" stroke-miterlimit="10"/></g><g transform="translate(-166,-198) scale(1,1)"><path fill="none" stroke="#000000" d="M 1064 671 L 1637.08837890625 671" stroke-miterlimit="10"/></g><g transform="translate(-166,-198) scale(1,1)"><g><path fill="none" stroke="none"/><text fill="#000000" stroke="none" font-family="Arial" font-size="13px" font-style="normal" font-weight="bold" text-decoration="none" x="1298.16015625" y="627.5">InventoryInitializer</text></g></g><g transform="translate(-166,-198) scale(1,1)"><g><path fill="none" stroke="none"/><text fill="#000000" stroke="none" font-family="Arial" font-size="13px" font-style="normal" font-weight="normal" text-decoration="none" x="1069" y="650.5">-inventory: UniqueInventory</text></g></g><g transform="translate(-166,-198) scale(1,1)"><g><path fill="none" stroke="none"/><text fill="#000000" stroke="none" font-family="Arial" font-size="13px" font-style="normal" font-weight="normal" text-decoration="none" x="1069" y="665.5">-catalog: MampfCatalog</text></g></g><g transform="translate(-166,-198) scale(1,1)"><g><path fill="none" stroke="none"/><text fill="#000000" stroke="none" font-family="Arial" font-size="13px" font-style="normal" font-weight="normal" text-decoration="none" x="1069" y="688.5">+InventoryInitializer(inventory: UniqueInventory&lt;UniqueInventoryItem&gt;, catalog MampfCatalog)</text></g></g><g transform="translate(-166,-198) scale(1,1)"><g><path fill="none" stroke="none"/><text fill="#000000" stroke="none" font-family="Arial" font-size="13px" font-style="normal" font-weight="normal" text-decoration="none" x="1069" y="703.5">+initialize(): void</text></g></g><g transform="translate(-166,-198) scale(1,1)"><rect fill="#C0C0C0" stroke="none" x="247" y="623" width="406.76953125" height="100" opacity="0.2"/></g><g transform="translate(-166,-198) scale(1,1)"><rect fill="#ffffff" stroke="none" x="240" y="616" width="406.76953125" height="100"/></g><g transform="translate(-166,-198) scale(1,1)"><path fill="none" stroke="#000000" d="M 240 616 L 646.76953125 616 L 646.76953125 716 L 240 716 L 240 616 Z Z" stroke-miterlimit="10"/></g><g transform="translate(-166,-198) scale(1,1)"><path fill="none" stroke="#000000" d="M 240 641 L 646.76953125 641" stroke-miterlimit="10"/></g><g transform="translate(-166,-198) scale(1,1)"><path fill="none" stroke="#000000" d="M 240 664 L 646.76953125 664" stroke-miterlimit="10"/></g><g transform="translate(-166,-198) scale(1,1)"><g><path fill="none" stroke="none"/><text fill="#000000" stroke="none" font-family="Arial" font-size="13px" font-style="normal" font-weight="bold" text-decoration="none" x="388.47119140625" y="635.5">InventoryController</text></g></g><g transform="translate(-166,-198) scale(1,1)"><g><path fill="none" stroke="none"/><text fill="#000000" stroke="none" font-family="Arial" font-size="13px" font-style="normal" font-weight="normal" text-decoration="none" x="245" y="658.5">+inventory: UniqueInventory&lt;UniqueInventoryItem&gt;</text></g></g><g transform="translate(-166,-198) scale(1,1)"><g><path fill="none" stroke="none"/><text fill="#000000" stroke="none" font-family="Arial" font-size="13px" font-style="normal" font-weight="normal" text-decoration="none" x="245" y="681.5">+InventoryController(inventory: UniqueInventory)</text></g></g><g transform="translate(-166,-198) scale(1,1)"><g><path fill="none" stroke="none"/><text fill="#000000" stroke="none" font-family="Arial" font-size="13px" font-style="normal" font-weight="normal" text-decoration="none" x="245" y="696.5">+inventory(model Model): String</text></g></g><g transform="translate(-166,-198) scale(1,1)"><g><path fill="none" stroke="none"/><text fill="#000000" stroke="none" font-family="Arial" font-size="13px" font-style="normal" font-weight="normal" text-decoration="none" x="245" y="711.5">+nullCategory(UniqueInventoryItem item): String</text></g></g><g transform="translate(-166,-198) scale(1,1)"><path fill="none" stroke="#000000" d="M 1358 608 L 1358 432 L 943 432 L 943 354" stroke-miterlimit="10"/></g><g transform="translate(-166,-198) scale(1,1)"><path fill="none" stroke="#000000" d="M 947.209517756016 364.16267485762415 L 943 354 L 938.790482243984 364.16267485762415" stroke-miterlimit="10"/></g><g transform="translate(-166,-198) scale(1,1)"><g><path fill="none" stroke="none"/><text fill="#000000" stroke="none" font-family="Arial" font-size="13px" font-style="normal" font-weight="normal" text-decoration="none" x="952.13134765625" y="426.5">-inventory</text></g></g><g transform="translate(-166,-198) scale(1,1)"><g><path fill="none" stroke="none"/><text fill="#000000" stroke="none" font-family="Arial" font-size="13px" font-style="normal" font-weight="normal" text-decoration="none" x="951.5" y="371.5">1</text></g></g><g transform="translate(-166,-198) scale(1,1)"><path fill="none" stroke="#000000" d="M 1112 608 L 1112 440 L 775 440 L 775 356" stroke-miterlimit="10" stroke-dasharray="3"/></g><g transform="translate(-166,-198) scale(1,1)"><path fill="none" stroke="#000000" d="M 779.209517756016 366.16267485762415 L 775 356 L 770.790482243984 366.16267485762415" stroke-miterlimit="10"/></g><g transform="translate(-166,-198) scale(1,1)"><g><path fill="none" stroke="none"/><text fill="#000000" stroke="none" font-family="Arial" font-size="13px" font-style="normal" font-weight="normal" text-decoration="none" x="787.2958984375" y="403.5">«use»</text></g></g><g transform="translate(-166,-198) scale(1,1)"><path fill="none" stroke="#000000" d="M 1130 608 L 1130 352" stroke-miterlimit="10" stroke-dasharray="3"/></g><g transform="translate(-166,-198) scale(1,1)"><path fill="none" stroke="#000000" d="M 1134.2095177560159 362.16267485762415 L 1130 352 L 1125.7904822439841 362.16267485762415" stroke-miterlimit="10"/></g><g transform="translate(-166,-198) scale(1,1)"><g><path fill="none" stroke="none"/><text fill="#000000" stroke="none" font-family="Arial" font-size="13px" font-style="normal" font-weight="normal" text-decoration="none" x="1139.2958984375" y="404.5">«use»</text></g></g><g transform="translate(-166,-198) scale(1,1)"><rect fill="#C0C0C0" stroke="none" x="847" y="313" width="165.5654296875" height="48" opacity="0.2"/></g><g transform="translate(-166,-198) scale(1,1)"><rect fill="#C0C0C0" stroke="none" x="892.61376953125" y="295" width="128.95166015625" height="22" opacity="0.2"/></g><g transform="translate(-166,-198) scale(1,1)"><rect fill="#ffffff" stroke="none" x="840" y="306" width="165.5654296875" height="48"/></g><g transform="translate(-166,-198) scale(1,1)"><path fill="none" stroke="#000000" d="M 840 306 L 1005.5654296875 306 L 1005.5654296875 354 L 840 354 L 840 306 Z Z" stroke-miterlimit="10"/></g><g transform="translate(-166,-198) scale(1,1)"><path fill="#ffffff" stroke="none" d="M 979.5654296875 323 C 979.5654296875 318.0294368 983.5948664875 314 988.5654296875 314 C 993.5359928875 314 997.5654296875 318.0294368 997.5654296875 323 C 997.5654296875 327.9705632 993.5359928875 332 988.5654296875 332 C 983.5948664875 332 979.5654296875 327.9705632 979.5654296875 323 Z"/></g><g transform="translate(-166,-198) scale(1,1)"><path fill="none" stroke="#000000" d="M 979.5654296875 323 C 979.5654296875 318.0294368 983.5948664875 314 988.5654296875 314 C 993.5359928875 314 997.5654296875 318.0294368 997.5654296875 323 C 997.5654296875 327.9705632 993.5359928875 332 988.5654296875 332 C 983.5948664875 332 979.5654296875 327.9705632 979.5654296875 323 Z" stroke-miterlimit="10"/></g><g transform="translate(-166,-198) scale(1,1)"><g><path fill="none" stroke="none"/><text fill="#000000" stroke="none" font-family="Arial" font-size="13px" font-style="normal" font-weight="bold" text-decoration="none" x="868.4482421875" y="325.5">UniqueInventory</text></g></g><g transform="translate(-166,-198) scale(1,1)"><rect fill="#ffffff" stroke="none" x="885.61376953125" y="288" width="128.95166015625" height="22"/></g><g transform="translate(-166,-198) scale(1,1)"><path fill="none" stroke="#000000" d="M 885.61376953125 288 L 1014.5654296875 288 L 1014.5654296875 310 L 885.61376953125 310 L 885.61376953125 288 Z Z" stroke-miterlimit="10" stroke-dasharray="3"/></g><g transform="translate(-166,-198) scale(1,1)"><g><path fill="none" stroke="none"/><text fill="#000000" stroke="none" font-family="Arial" font-size="13px" font-style="normal" font-weight="normal" text-decoration="none" x="890.61376953125" y="305.5">UniqueInventoryItem</text></g></g><g transform="translate(-166,-198) scale(1,1)"><rect fill="#C0C0C0" stroke="none" x="671" y="319" width="138.29541015625" height="44" opacity="0.2"/></g><g transform="translate(-166,-198) scale(1,1)"><rect fill="#ffffff" stroke="none" x="664" y="312" width="138.29541015625" height="44"/></g><g transform="translate(-166,-198) scale(1,1)"><path fill="none" stroke="#000000" d="M 664 312 L 802.29541015625 312 L 802.29541015625 356 L 664 356 L 664 312 Z Z" stroke-miterlimit="10"/></g><g transform="translate(-166,-198) scale(1,1)"><g><path fill="none" stroke="none"/><text fill="#000000" stroke="none" font-family="Arial" font-size="13px" font-style="normal" font-weight="bold" text-decoration="none" x="673.171875" y="331.5">UniqueInventoryItem</text></g></g><g transform="translate(-166,-198) scale(1,1)"><rect fill="#C0C0C0" stroke="none" x="1055" y="311" width="127.525390625" height="48" opacity="0.2"/></g><g transform="translate(-166,-198) scale(1,1)"><rect fill="#ffffff" stroke="none" x="1048" y="304" width="127.525390625" height="48"/></g><g transform="translate(-166,-198) scale(1,1)"><path fill="none" stroke="#000000" d="M 1048 304 L 1175.525390625 304 L 1175.525390625 352 L 1048 352 L 1048 304 Z Z" stroke-miterlimit="10"/></g><g transform="translate(-166,-198) scale(1,1)"><path fill="#ffffff" stroke="none" d="M 1149.525390625 321 C 1149.525390625 316.0294368 1153.554827425 312 1158.525390625 312 C 1163.495953825 312 1167.525390625 316.0294368 1167.525390625 321 C 1167.525390625 325.9705632 1163.495953825 330 1158.525390625 330 C 1153.554827425 330 1149.525390625 325.9705632 1149.525390625 321 Z"/></g><g transform="translate(-166,-198) scale(1,1)"><path fill="none" stroke="#000000" d="M 1149.525390625 321 C 1149.525390625 316.0294368 1153.554827425 312 1158.525390625 312 C 1163.495953825 312 1167.525390625 316.0294368 1167.525390625 321 C 1167.525390625 325.9705632 1163.495953825 330 1158.525390625 330 C 1153.554827425 330 1149.525390625 325.9705632 1149.525390625 321 Z" stroke-miterlimit="10"/></g><g transform="translate(-166,-198) scale(1,1)"><g><path fill="none" stroke="none"/><text fill="#000000" stroke="none" font-family="Arial" font-size="13px" font-style="normal" font-weight="bold" text-decoration="none" x="1060.385009765625" y="323.5">DataInitializer</text></g></g><g transform="translate(-166,-198) scale(1,1)"><rect fill="#C0C0C0" stroke="none" x="1399" y="311" width="98.55908203125" height="48" opacity="0.2"/></g><g transform="translate(-166,-198) scale(1,1)"><rect fill="#ffffff" stroke="none" x="1392" y="304" width="98.55908203125" height="48"/></g><g transform="translate(-166,-198) scale(1,1)"><path fill="none" stroke="#000000" d="M 1392 304 L 1490.55908203125 304 L 1490.55908203125 352 L 1392 352 L 1392 304 Z Z" stroke-miterlimit="10"/></g><g transform="translate(-166,-198) scale(1,1)"><path fill="#ffffff" stroke="none" d="M 1464.55908203125 321 C 1464.55908203125 316.0294368 1468.58851883125 312 1473.55908203125 312 C 1478.52964523125 312 1482.55908203125 316.0294368 1482.55908203125 321 C 1482.55908203125 325.9705632 1478.52964523125 330 1473.55908203125 330 C 1468.58851883125 330 1464.55908203125 325.9705632 1464.55908203125 321 Z"/></g><g transform="translate(-166,-198) scale(1,1)"><path fill="none" stroke="#000000" d="M 1464.55908203125 321 C 1464.55908203125 316.0294368 1468.58851883125 312 1473.55908203125 312 C 1478.52964523125 312 1482.55908203125 316.0294368 1482.55908203125 321 C 1482.55908203125 325.9705632 1478.52964523125 330 1473.55908203125 330 C 1468.58851883125 330 1464.55908203125 325.9705632 1464.55908203125 321 Z" stroke-miterlimit="10"/></g><g transform="translate(-166,-198) scale(1,1)"><g><path fill="none" stroke="none"/><text fill="#000000" stroke="none" font-family="Arial" font-size="13px" font-style="normal" font-weight="bold" text-decoration="none" x="1406.87548828125" y="323.5">Catalog</text></g></g><g transform="translate(-166,-198) scale(1,1)"><path fill="none" stroke="#000000" d="M 1080 608 L 1080 464 L 559 464 L 559 352" stroke-miterlimit="10" stroke-dasharray="3"/></g><g transform="translate(-166,-198) scale(1,1)"><path fill="none" stroke="#000000" d="M 563.209517756016 362.16267485762415 L 559 352 L 554.790482243984 362.16267485762415" stroke-miterlimit="10"/></g><g transform="translate(-166,-198) scale(1,1)"><g><path fill="none" stroke="none"/><text fill="#000000" stroke="none" font-family="Arial" font-size="13px" font-style="normal" font-weight="normal" text-decoration="none" x="523.2958984375" y="402.5">«use»</text></g></g><g transform="translate(-166,-198) scale(1,1)"><rect fill="#C0C0C0" stroke="none" x="359" y="383" width="83.46630859375" height="40" opacity="0.2"/></g><g transform="translate(-166,-198) scale(1,1)"><rect fill="#ffffff" stroke="none" x="352" y="376" width="83.46630859375" height="40"/></g><g transform="translate(-166,-198) scale(1,1)"><path fill="none" stroke="#000000" d="M 352 376 L 435.46630859375 376 L 435.46630859375 416 L 352 416 L 352 376 Z Z" stroke-miterlimit="10"/></g><g transform="translate(-166,-198) scale(1,1)"><g><path fill="none" stroke="none"/><text fill="#000000" stroke="none" font-family="Arial" font-size="13px" font-style="normal" font-weight="bold" text-decoration="none" x="375.312255859375" y="395.5">Assert</text></g></g><g transform="translate(-166,-198) scale(1,1)"><path fill="none" stroke="#000000" d="M 1096 608 L 1096 504 L 385 504 L 385 416" stroke-miterlimit="10" stroke-dasharray="3"/></g><g transform="translate(-166,-198) scale(1,1)"><path fill="none" stroke="#000000" d="M 389.209517756016 426.16267485762415 L 385 416 L 380.790482243984 426.16267485762415" stroke-miterlimit="10"/></g><g transform="translate(-166,-198) scale(1,1)"><g><path fill="none" stroke="none"/><text fill="#000000" stroke="none" font-family="Arial" font-size="13px" font-style="normal" font-weight="normal" text-decoration="none" x="451.2958984375" y="499.5">«use»</text></g></g><g transform="translate(-166,-198) scale(1,1)"><path fill="none" stroke="#000000" d="M 544 616 L 544 456 L 848 456 L 848 354" stroke-miterlimit="10"/></g><g transform="translate(-166,-198) scale(1,1)"><path fill="none" stroke="#000000" d="M 852.209517756016 364.16267485762415 L 848 354 L 843.790482243984 364.16267485762415" stroke-miterlimit="10"/></g><g transform="translate(-166,-198) scale(1,1)"><g><path fill="none" stroke="none"/><text fill="#000000" stroke="none" font-family="Arial" font-size="13px" font-style="normal" font-weight="normal" text-decoration="none" x="656.13134765625" y="446.5">-inventory</text></g></g><g transform="translate(-166,-198) scale(1,1)"><g><path fill="none" stroke="none"/><text fill="#000000" stroke="none" font-family="Arial" font-size="13px" font-style="normal" font-weight="normal" text-decoration="none" x="856.5" y="371.5">1</text></g></g><g transform="translate(-166,-198) scale(1,1)"><rect fill="#C0C0C0" stroke="none" x="1583" y="367" width="41.200000000000045" height="15" opacity="0.2"/></g><g transform="translate(-166,-198) scale(1,1)"><rect fill="#C0C0C0" stroke="none" x="1583" y="381" width="103" height="89" opacity="0.2"/></g><g transform="translate(-166,-198) scale(1,1)"><rect fill="#ffffff" stroke="none" x="1576" y="375" width="103" height="88"/></g><g transform="translate(-166,-198) scale(1,1)"><path fill="none" stroke="#000000" d="M 1576 375 L 1679 375 L 1679 463 L 1576 463 L 1576 375 Z Z" stroke-miterlimit="10"/></g><g transform="translate(-166,-198) scale(1,1)"><rect fill="#ffffff" stroke="none" x="1576" y="360" width="41.200000000000045" height="15"/></g><g transform="translate(-166,-198) scale(1,1)"><path fill="none" stroke="#000000" d="M 1576 360 L 1617.2 360 L 1617.2 375 L 1576 375 L 1576 360 Z Z" stroke-miterlimit="10"/></g><g transform="translate(-166,-198) scale(1,1)"><rect fill="#ffffff" stroke="none" x="1576" y="374" width="103" height="89"/></g><g transform="translate(-166,-198) scale(1,1)"><path fill="none" stroke="#000000" d="M 1576 374 L 1679 374 L 1679 463 L 1576 463 L 1576 374 Z Z" stroke-miterlimit="10"/></g><g transform="translate(-166,-198) scale(1,1)"><g><path fill="none" stroke="none"/><text fill="#000000" stroke="none" font-family="Arial" font-size="13px" font-style="normal" font-weight="bold" text-decoration="none" x="1592.45458984375" y="394.5">Java.Money</text></g></g><g transform="translate(-166,-198) scale(1,1)"><rect fill="#C0C0C0" stroke="none" x="1607" y="407" width="50.919921875" height="44" opacity="0.2"/></g><g transform="translate(-166,-198) scale(1,1)"><rect fill="#ffffff" stroke="none" x="1600" y="400" width="50.919921875" height="44"/></g><g transform="translate(-166,-198) scale(1,1)"><path fill="none" stroke="#000000" d="M 1600 400 L 1650.919921875 400 L 1650.919921875 444 L 1600 444 L 1600 400 Z Z" stroke-miterlimit="10"/></g><g transform="translate(-166,-198) scale(1,1)"><g><path fill="none" stroke="none"/><text fill="#000000" stroke="none" font-family="Arial" font-size="13px" font-style="normal" font-weight="bold" text-decoration="none" x="1605.950439453125" y="419.5">Money</text></g></g><g transform="translate(-166,-198) scale(1,1)"><path fill="none" stroke="#000000" d="M 1624 608 L 1624 444" stroke-miterlimit="10" stroke-dasharray="3"/></g><g transform="translate(-166,-198) scale(1,1)"><path fill="none" stroke="#000000" d="M 1628.2095177560159 454.16267485762415 L 1624 444 L 1619.7904822439841 454.16267485762415" stroke-miterlimit="10"/></g><g transform="translate(-166,-198) scale(1,1)"><g><path fill="none" stroke="none"/><text fill="#000000" stroke="none" font-family="Arial" font-size="13px" font-style="normal" font-weight="normal" text-decoration="none" x="1579.2958984375" y="507.5">«use»</text></g></g><g transform="translate(-166,-198) scale(1,1)"><rect fill="#C0C0C0" stroke="none" x="1215" y="311" width="58.11181640625" height="44" opacity="0.2"/></g><g transform="translate(-166,-198) scale(1,1)"><rect fill="#ffffff" stroke="none" x="1208" y="304" width="58.11181640625" height="44"/></g><g transform="translate(-166,-198) scale(1,1)"><path fill="none" stroke="#000000" d="M 1208 304 L 1266.11181640625 304 L 1266.11181640625 348 L 1208 348 L 1208 304 Z Z" stroke-miterlimit="10"/></g><g transform="translate(-166,-198) scale(1,1)"><g><path fill="none" stroke="none"/><text fill="#000000" stroke="none" font-family="Arial" font-size="13px" font-style="normal" font-weight="bold" text-decoration="none" x="1214.655029296875" y="323.5">Product</text></g></g><g transform="translate(-166,-198) scale(1,1)"><path fill="none" stroke="#000000" d="M 768 568 L 768 488 L 1232 488 L 1232 348" stroke-miterlimit="10" stroke-dasharray="3"/></g><g transform="translate(-166,-198) scale(1,1)"><path fill="none" stroke="#000000" d="M 1236.2095177560159 358.16267485762415 L 1232 348 L 1227.7904822439841 358.16267485762415" stroke-miterlimit="10"/></g><g transform="translate(-166,-198) scale(1,1)"><g><path fill="none" stroke="none"/><text fill="#000000" stroke="none" font-family="Arial" font-size="13px" font-style="normal" font-weight="normal" text-decoration="none" x="1223.2958984375" y="404.5">«use»</text></g></g><g transform="translate(-166,-198) scale(1,1)"><rect fill="#C0C0C0" stroke="none" x="639" y="815" width="233.60000000000002" height="15" opacity="0.2"/></g><g transform="translate(-166,-198) scale(1,1)"><rect fill="#C0C0C0" stroke="none" x="639" y="829" width="584" height="106" opacity="0.2"/></g><g transform="translate(-166,-198) scale(1,1)"><rect fill="#ffffff" stroke="none" x="632" y="823" width="584" height="105"/></g><g transform="translate(-166,-198) scale(1,1)"><path fill="none" stroke="#000000" d="M 632 823 L 1216 823 L 1216 928 L 632 928 L 632 823 Z Z" stroke-miterlimit="10"/></g><g transform="translate(-166,-198) scale(1,1)"><rect fill="#ffffff" stroke="none" x="632" y="808" width="233.60000000000002" height="15"/></g><g transform="translate(-166,-198) scale(1,1)"><path fill="none" stroke="#000000" d="M 632 808 L 865.6 808 L 865.6 823 L 632 823 L 632 808 Z Z" stroke-miterlimit="10"/></g><g transform="translate(-166,-198) scale(1,1)"><rect fill="#ffffff" stroke="none" x="632" y="822" width="584" height="106"/></g><g transform="translate(-166,-198) scale(1,1)"><path fill="none" stroke="#000000" d="M 632 822 L 1216 822 L 1216 928 L 632 928 L 632 822 Z Z" stroke-miterlimit="10"/></g><g transform="translate(-166,-198) scale(1,1)"><g><path fill="none" stroke="none"/><text fill="#000000" stroke="none" font-family="Arial" font-size="13px" font-style="normal" font-weight="bold" text-decoration="none" x="901.9609375" y="842.5">java.util</text></g></g><g transform="translate(-166,-198) scale(1,1)"><rect fill="#C0C0C0" stroke="none" x="735" y="879" width="50.919921875" height="44" opacity="0.2"/></g><g transform="translate(-166,-198) scale(1,1)"><rect fill="#ffffff" stroke="none" x="728" y="872" width="50.919921875" height="44"/></g><g transform="translate(-166,-198) scale(1,1)"><path fill="none" stroke="#000000" d="M 728 872 L 778.919921875 872 L 778.919921875 916 L 728 916 L 728 872 Z Z" stroke-miterlimit="10"/></g><g transform="translate(-166,-198) scale(1,1)"><g><path fill="none" stroke="none"/><text fill="#000000" stroke="none" font-family="Arial" font-size="13px" font-style="normal" font-weight="bold" text-decoration="none" x="743.344970703125" y="891.5">List</text></g></g><g transform="translate(-166,-198) scale(1,1)"><path fill="none" stroke="#000000" d="M 744 654 L 744 872" stroke-miterlimit="10" stroke-dasharray="3"/></g><g transform="translate(-166,-198) scale(1,1)"><path fill="none" stroke="#000000" d="M 739.790482243984 861.8373251423759 L 744 872 L 748.209517756016 861.8373251423759" stroke-miterlimit="10"/></g><g transform="translate(-166,-198) scale(1,1)"><g><path fill="none" stroke="none"/><text fill="#000000" stroke="none" font-family="Arial" font-size="13px" font-style="normal" font-weight="normal" text-decoration="none" x="747.2958984375" y="859.5">«use»</text></g></g><g transform="translate(-166,-198) scale(1,1)"><path fill="none" stroke="#000000" d="M 696 654 L 696 872" stroke-miterlimit="10" stroke-dasharray="3"/></g><g transform="translate(-166,-198) scale(1,1)"><path fill="none" stroke="#000000" d="M 691.790482243984 861.8373251423759 L 696 872 L 700.209517756016 861.8373251423759" stroke-miterlimit="10"/></g><g transform="translate(-166,-198) scale(1,1)"><g><path fill="none" stroke="none"/><text fill="#000000" stroke="none" font-family="Arial" font-size="13px" font-style="normal" font-weight="normal" text-decoration="none" x="699.2958984375" y="859.5">«use»</text></g></g><g transform="translate(-166,-198) scale(1,1)"><path fill="none" stroke="#000000" d="M 880 568 L 880 354" stroke-miterlimit="10"/></g><g transform="translate(-166,-198) scale(1,1)"><path fill="#FFFFFF" stroke="none" d="M 888.419035512032 374.3253497152483 L 880 354 L 871.580964487968 374.3253497152483"/></g><g transform="translate(-166,-198) scale(1,1)"><path fill="none" stroke="#000000" d="M 888.419035512032 374.3253497152483 L 880 354 L 871.580964487968 374.3253497152483 L 888.419035512032 374.3253497152483" stroke-miterlimit="10"/></g><g transform="translate(-166,-198) scale(1,1)"><rect fill="#C0C0C0" stroke="none" x="663" y="575" width="360.53955078125" height="86" opacity="0.2"/></g><g transform="translate(-166,-198) scale(1,1)"><rect fill="#ffffff" stroke="none" x="656" y="568" width="360.53955078125" height="86"/></g><g transform="translate(-166,-198) scale(1,1)"><path fill="none" stroke="#000000" d="M 656 568 L 1016.53955078125 568 L 1016.53955078125 654 L 656 654 L 656 568 Z Z" stroke-miterlimit="10"/></g><g transform="translate(-166,-198) scale(1,1)"><path fill="#ffffff" stroke="none" d="M 990.53955078125 585 C 990.53955078125 580.0294368 994.56898758125 576 999.53955078125 576 C 1004.51011398125 576 1008.53955078125 580.0294368 1008.53955078125 585 C 1008.53955078125 589.9705632 1004.51011398125 594 999.53955078125 594 C 994.56898758125 594 990.53955078125 589.9705632 990.53955078125 585 Z"/></g><g transform="translate(-166,-198) scale(1,1)"><path fill="none" stroke="#000000" d="M 990.53955078125 585 C 990.53955078125 580.0294368 994.56898758125 576 999.53955078125 576 C 1004.51011398125 576 1008.53955078125 580.0294368 1008.53955078125 585 C 1008.53955078125 589.9705632 1004.51011398125 594 999.53955078125 594 C 994.56898758125 594 990.53955078125 589.9705632 990.53955078125 585 Z" stroke-miterlimit="10"/></g><g transform="translate(-166,-198) scale(1,1)"><path fill="none" stroke="#000000" d="M 656 602 L 1016.53955078125 602" stroke-miterlimit="10"/></g><g transform="translate(-166,-198) scale(1,1)"><g><path fill="none" stroke="none"/><text fill="#000000" stroke="none" font-family="Arial" font-size="13px" font-style="normal" font-weight="bold" text-decoration="none" x="797.533447265625" y="587.5">Inventory</text></g></g><g transform="translate(-166,-198) scale(1,1)"><g><path fill="none" stroke="none"/><text fill="#000000" stroke="none" font-family="Arial" font-size="13px" font-style="normal" font-weight="normal" text-decoration="none" x="661" y="619.5">+reduceAmount(product: Product, amount: Quantity): void</text></g></g><g transform="translate(-166,-198) scale(1,1)"><g><path fill="none" stroke="none"/><text fill="#000000" stroke="none" font-family="Arial" font-size="13px" font-style="normal" font-weight="normal" text-decoration="none" x="661" y="634.5">+findAllAndSort(): List&lt;UniqueInventoryItem&gt;</text></g></g><g transform="translate(-166,-198) scale(1,1)"><g><path fill="none" stroke="none"/><text fill="#000000" stroke="none" font-family="Arial" font-size="13px" font-style="normal" font-weight="normal" text-decoration="none" x="661" y="649.5">+findByName(name: String): Optional&lt;UniqueInventoryItem&gt;</text></g></g><g transform="translate(-166,-198) scale(1,1)"><rect fill="#C0C0C0" stroke="none" x="663" y="879" width="61.71728515625" height="44" opacity="0.2"/></g><g transform="translate(-166,-198) scale(1,1)"><rect fill="#ffffff" stroke="none" x="656" y="872" width="61.71728515625" height="44"/></g><g transform="translate(-166,-198) scale(1,1)"><path fill="none" stroke="#000000" d="M 656 872 L 717.71728515625 872 L 717.71728515625 916 L 656 916 L 656 872 Z Z" stroke-miterlimit="10"/></g><g transform="translate(-166,-198) scale(1,1)"><g><path fill="none" stroke="none"/><text fill="#000000" stroke="none" font-family="Arial" font-size="13px" font-style="normal" font-weight="bold" text-decoration="none" x="662.648681640625" y="891.5">Optional</text></g></g><g transform="translate(-166,-198) scale(1,1)"><rect fill="#C0C0C0" stroke="none" x="799" y="897" width="149.6689453125" height="26" opacity="0.2"/></g><g transform="translate(-166,-198) scale(1,1)"><rect fill="#C0C0C0" stroke="none" x="828.71728515625" y="879" width="128.95166015625" height="22" opacity="0.2"/></g><g transform="translate(-166,-198) scale(1,1)"><rect fill="#ffffff" stroke="none" x="792" y="890" width="149.6689453125" height="26"/></g><g transform="translate(-166,-198) scale(1,1)"><path fill="none" stroke="#000000" d="M 792 890 L 941.6689453125 890 L 941.6689453125 916 L 792 916 L 792 890 Z Z" stroke-miterlimit="10"/></g><g transform="translate(-166,-198) scale(1,1)"><g><path fill="none" stroke="none"/><text fill="#000000" stroke="none" font-family="Arial" font-size="13px" font-style="normal" font-weight="bold" text-decoration="none" x="832.515869140625" y="909.5">Comparator</text></g></g><g transform="translate(-166,-198) scale(1,1)"><rect fill="#ffffff" stroke="none" x="821.71728515625" y="872" width="128.95166015625" height="22"/></g><g transform="translate(-166,-198) scale(1,1)"><path fill="none" stroke="#000000" d="M 821.71728515625 872 L 950.6689453125 872 L 950.6689453125 894 L 821.71728515625 894 L 821.71728515625 872 Z Z" stroke-miterlimit="10" stroke-dasharray="3"/></g><g transform="translate(-166,-198) scale(1,1)"><g><path fill="none" stroke="none"/><text fill="#000000" stroke="none" font-family="Arial" font-size="13px" font-style="normal" font-weight="normal" text-decoration="none" x="826.71728515625" y="889.5">UniqueInventoryItem</text></g></g><g transform="translate(-166,-198) scale(1,1)"><path fill="none" stroke="#000000" d="M 824 775 L 824 872" stroke-miterlimit="10" stroke-dasharray="3"/></g><g transform="translate(-166,-198) scale(1,1)"><path fill="none" stroke="#000000" d="M 819.790482243984 861.8373251423759 L 824 872 L 828.209517756016 861.8373251423759" stroke-miterlimit="10"/></g><g transform="translate(-166,-198) scale(1,1)"><g><path fill="none" stroke="none"/><text fill="#000000" stroke="none" font-family="Arial" font-size="13px" font-style="normal" font-weight="normal" text-decoration="none" x="827.2958984375" y="859.5">«use»</text></g></g><g transform="translate(-166,-198) scale(1,1)"><rect fill="#C0C0C0" stroke="none" x="967" y="879" width="79.0654296875" height="44" opacity="0.2"/></g><g transform="translate(-166,-198) scale(1,1)"><rect fill="#ffffff" stroke="none" x="960" y="872" width="79.0654296875" height="44"/></g><g transform="translate(-166,-198) scale(1,1)"><path fill="none" stroke="#000000" d="M 960 872 L 1039.0654296875 872 L 1039.0654296875 916 L 960 916 L 960 872 Z Z" stroke-miterlimit="10"/></g><g transform="translate(-166,-198) scale(1,1)"><g><path fill="none" stroke="none"/><text fill="#000000" stroke="none" font-family="Arial" font-size="13px" font-style="normal" font-weight="bold" text-decoration="none" x="967.740478515625" y="891.5">Collections</text></g></g><g transform="translate(-166,-198) scale(1,1)"><path fill="none" stroke="#000000" d="M 976 654 L 976 872" stroke-miterlimit="10" stroke-dasharray="3"/></g><g transform="translate(-166,-198) scale(1,1)"><path fill="none" stroke="#000000" d="M 971.790482243984 861.8373251423759 L 976 872 L 980.209517756016 861.8373251423759" stroke-miterlimit="10"/></g><g transform="translate(-166,-198) scale(1,1)"><g><path fill="none" stroke="none"/><text fill="#000000" stroke="none" font-family="Arial" font-size="13px" font-style="normal" font-weight="normal" text-decoration="none" x="987.2958984375" y="859.5">«use»</text></g></g><g transform="translate(-166,-198) scale(1,1)"><path fill="none" stroke="#000000" d="M 1017 640 L 1048 640 L 1048 872 L 1080 872" stroke-miterlimit="10" stroke-dasharray="3"/></g><g transform="translate(-166,-198) scale(1,1)"><path fill="none" stroke="#000000" d="M 1069.837325142376 876.209517756016 L 1080 872 L 1069.837325142376 867.790482243984" stroke-miterlimit="10"/></g><g transform="translate(-166,-198) scale(1,1)"><g><path fill="none" stroke="none"/><text fill="#000000" stroke="none" font-family="Arial" font-size="13px" font-style="normal" font-weight="normal" text-decoration="none" x="1059.2958984375" y="852.5">«use»</text></g></g><g transform="translate(-166,-198) scale(1,1)"><path fill="none" stroke="#000000" d="M 520 616 L 520 352" stroke-miterlimit="10" stroke-dasharray="3"/></g><g transform="translate(-166,-198) scale(1,1)"><path fill="none" stroke="#000000" d="M 524.209517756016 362.16267485762415 L 520 352 L 515.790482243984 362.16267485762415" stroke-miterlimit="10"/></g><g transform="translate(-166,-198) scale(1,1)"><g><path fill="none" stroke="none"/><text fill="#000000" stroke="none" font-family="Arial" font-size="13px" font-style="normal" font-weight="normal" text-decoration="none" x="485.9033203125" y="562.5">«use»</text></g></g><g transform="translate(-166,-198) scale(1,1)"><path fill="none" stroke="#000000" d="M 616 616 L 616 416 L 680 416 L 680 356" stroke-miterlimit="10" stroke-dasharray="3"/></g><g transform="translate(-166,-198) scale(1,1)"><path fill="none" stroke="#000000" d="M 684.209517756016 366.16267485762415 L 680 356 L 675.790482243984 366.16267485762415" stroke-miterlimit="10"/></g><g transform="translate(-166,-198) scale(1,1)"><g><path fill="none" stroke="none"/><text fill="#000000" stroke="none" font-family="Arial" font-size="13px" font-style="normal" font-weight="normal" text-decoration="none" x="630.2958984375" y="407.5">«use»</text></g></g><g transform="translate(-166,-198) scale(1,1)"><rect fill="#C0C0C0" stroke="none" x="679" y="711" width="365.59228515625" height="71" opacity="0.2"/></g><g transform="translate(-166,-198) scale(1,1)"><rect fill="#ffffff" stroke="none" x="672" y="704" width="365.59228515625" height="71"/></g><g transform="translate(-166,-198) scale(1,1)"><path fill="none" stroke="#000000" d="M 672 704 L 1037.59228515625 704 L 1037.59228515625 775 L 672 775 L 672 704 Z Z" stroke-miterlimit="10"/></g><g transform="translate(-166,-198) scale(1,1)"><path fill="none" stroke="#000000" d="M 672 729 L 1037.59228515625 729" stroke-miterlimit="10"/></g><g transform="translate(-166,-198) scale(1,1)"><path fill="none" stroke="#000000" d="M 672 739 L 1037.59228515625 739" stroke-miterlimit="10"/></g><g transform="translate(-166,-198) scale(1,1)"><g><path fill="none" stroke="none"/><text fill="#000000" stroke="none" font-family="Arial" font-size="13px" font-style="normal" font-weight="bold" text-decoration="none" x="817.951171875" y="723.5">SortByName</text></g></g><g transform="translate(-166,-198) scale(1,1)"><g><path fill="none" stroke="none"/><text fill="#000000" stroke="none" font-family="Arial" font-size="13px" font-style="normal" font-weight="normal" text-decoration="none" x="677" y="756.5">+compare(UniqueInventoryItem a, UniqueInventoryItem b): int</text></g></g><g transform="translate(-166,-198) scale(1,1)"><path fill="none" stroke="#000000" d="M 869 704 L 869 654" stroke-miterlimit="10"/></g><g transform="translate(-166,-198) scale(1,1)"><path fill="#FFFFFF" stroke="none" d="M 862 661 C 862 657.1340064 865.1340064 654 869 654 C 872.8659936 654 876 657.1340064 876 661 C 876 664.8659936 872.8659936 668 869 668 C 865.1340064 668 862 664.8659936 862 661 Z"/></g><g transform="translate(-166,-198) scale(1,1)"><path fill="none" stroke="#000000" d="M 862 661 C 862 657.1340064 865.1340064 654 869 654 C 872.8659936 654 876 657.1340064 876 661 C 876 664.8659936 872.8659936 668 869 668 C 865.1340064 668 862 664.8659936 862 661 Z" stroke-miterlimit="10"/></g><g transform="translate(-166,-198) scale(1,1)"><path fill="none" stroke="#000000" d="M 869 668 L 869 654" stroke-miterlimit="10"/></g><g transform="translate(-166,-198) scale(1,1)"><path fill="none" stroke="#000000" d="M 876 661 L 862 661" stroke-miterlimit="10"/></g><g transform="translate(-166,-198) scale(1,1)"><rect fill="#C0C0C0" stroke="none" x="1087" y="863" width="66.078125" height="44" opacity="0.2"/></g><g transform="translate(-166,-198) scale(1,1)"><rect fill="#ffffff" stroke="none" x="1080" y="856" width="66.078125" height="44"/></g><g transform="translate(-166,-198) scale(1,1)"><path fill="none" stroke="#000000" d="M 1080 856 L 1146.078125 856 L 1146.078125 900 L 1080 900 L 1080 856 Z Z" stroke-miterlimit="10"/></g><g transform="translate(-166,-198) scale(1,1)"><g><path fill="none" stroke="none"/><text fill="#000000" stroke="none" font-family="Arial" font-size="13px" font-style="normal" font-weight="bold" text-decoration="none" x="1087.39453125" y="875.5">ArrayList</text></g></g></g></svg>