<svg version="1.1" xmlns="http://www.w3.org/2000/svg" xmlns:xlink="http://www.w3.org/1999/xlink" width="1996" height="996"><defs/><g><g transform="translate(-38,-46) scale(1,1)"><path fill="none" stroke="#000000" d="M 48 56 L 2024 56 L 2024 1032 L 48 1032 L 48 56" stroke-miterlimit="10"/></g><g transform="translate(-38,-46) scale(1,1)"><path fill="#ffffff" stroke="none" d="M 48 56 L 48 78 L 189.00439453125 78 L 200.00439453125 67 L 200.00439453125 56 L 48 56"/></g><g transform="translate(-38,-46) scale(1,1)"><path fill="none" stroke="#000000" d="M 48 56 L 48 78 L 189.00439453125 78 L 200.00439453125 67 L 200.00439453125 56 L 48 56 L 48 56" stroke-miterlimit="10"/></g><g transform="translate(-38,-46) scale(1,1)"><g><path fill="none" stroke="none"/><text fill="#000000" stroke="none" font-family="Arial" font-size="13px" font-style="normal" font-weight="normal" text-decoration="none" x="108.14990234375" y="73.5">Mampf [user]</text></g></g><g transform="translate(-38,-46) scale(1,1)"><g><path fill="none" stroke="none"/><text fill="#000000" stroke="none" font-family="Arial" font-size="13px" font-style="normal" font-weight="bold" text-decoration="none" x="53" y="73.5">package</text></g></g><g transform="translate(-38,-46) scale(1,1)"><rect fill="#C0C0C0" stroke="none" x="103" y="119" width="755.2" height="15" opacity="0.2"/></g><g transform="translate(-38,-46) scale(1,1)"><rect fill="#C0C0C0" stroke="none" x="103" y="133" width="1888" height="402" opacity="0.2"/></g><g transform="translate(-38,-46) scale(1,1)"><rect fill="#ffffff" stroke="none" x="96" y="127" width="1888" height="401"/></g><g transform="translate(-38,-46) scale(1,1)"><path fill="none" stroke="#000000" d="M 96 127 L 1984 127 L 1984 528 L 96 528 L 96 127 Z Z" stroke-miterlimit="10"/></g><g transform="translate(-38,-46) scale(1,1)"><rect fill="#ffffff" stroke="none" x="96" y="112" width="755.2" height="15"/></g><g transform="translate(-38,-46) scale(1,1)"><path fill="none" stroke="#000000" d="M 96 112 L 851.2 112 L 851.2 127 L 96 127 L 96 112 Z Z" stroke-miterlimit="10"/></g><g transform="translate(-38,-46) scale(1,1)"><rect fill="#ffffff" stroke="none" x="96" y="126" width="1888" height="402"/></g><g transform="translate(-38,-46) scale(1,1)"><path fill="none" stroke="#000000" d="M 96 126 L 1984 126 L 1984 528 L 96 528 L 96 126 Z Z" stroke-miterlimit="10"/></g><g transform="translate(-38,-46) scale(1,1)"><g><path fill="none" stroke="none"/><text fill="#000000" stroke="none" font-family="Arial" font-size="13px" font-style="normal" font-weight="bold" text-decoration="none" x="1004.60546875" y="146.5">Mampf.User</text></g></g><g transform="translate(-38,-46) scale(1,1)"><rect fill="#C0C0C0" stroke="none" x="719" y="159" width="127" height="105" opacity="0.2"/></g><g transform="translate(-38,-46) scale(1,1)"><rect fill="#ffffff" stroke="none" x="712" y="152" width="127" height="105"/></g><g transform="translate(-38,-46) scale(1,1)"><path fill="none" stroke="#000000" d="M 712 152 L 839 152 L 839 257 L 712 257 L 712 152 Z Z" stroke-miterlimit="10"/></g><g transform="translate(-38,-46) scale(1,1)"><path fill="none" stroke="#000000" d="M 712 190 L 839 190" stroke-miterlimit="10"/></g><g transform="translate(-38,-46) scale(1,1)"><g><path fill="none" stroke="none"/><text fill="#000000" stroke="none" font-family="Arial" font-size="13px" font-style="normal" font-weight="normal" text-decoration="none" x="732.135986328125" y="169.5">«enumeration»</text></g></g><g transform="translate(-38,-46) scale(1,1)"><g><path fill="none" stroke="none"/><text fill="#000000" stroke="none" font-family="Arial" font-size="13px" font-style="normal" font-weight="bold" text-decoration="none" x="748.408203125" y="184.5">UserRole</text></g></g><g transform="translate(-38,-46) scale(1,1)"><g><path fill="none" stroke="none"/><text fill="#000000" stroke="none" font-family="Arial" font-size="13px" font-style="normal" font-weight="normal" text-decoration="none" x="717" y="207.5">BOSS</text></g></g><g transform="translate(-38,-46) scale(1,1)"><g><path fill="none" stroke="none"/><text fill="#000000" stroke="none" font-family="Arial" font-size="13px" font-style="normal" font-weight="normal" text-decoration="none" x="717" y="222.5">INDIVIDUAL</text></g></g><g transform="translate(-38,-46) scale(1,1)"><g><path fill="none" stroke="none"/><text fill="#000000" stroke="none" font-family="Arial" font-size="13px" font-style="normal" font-weight="normal" text-decoration="none" x="717" y="237.5">COMPANY</text></g></g><g transform="translate(-38,-46) scale(1,1)"><g><path fill="none" stroke="none"/><text fill="#000000" stroke="none" font-family="Arial" font-size="13px" font-style="normal" font-weight="normal" text-decoration="none" x="717" y="252.5">EMPLOYEE</text></g></g><g transform="translate(-38,-46) scale(1,1)"><rect fill="#C0C0C0" stroke="none" x="175" y="167" width="457.31591796875" height="175" opacity="0.2"/></g><g transform="translate(-38,-46) scale(1,1)"><rect fill="#ffffff" stroke="none" x="168" y="160" width="457.31591796875" height="175"/></g><g transform="translate(-38,-46) scale(1,1)"><path fill="none" stroke="#000000" d="M 168 160 L 625.31591796875 160 L 625.31591796875 335 L 168 335 L 168 160 Z Z" stroke-miterlimit="10"/></g><g transform="translate(-38,-46) scale(1,1)"><path fill="none" stroke="#000000" d="M 168 185 L 625.31591796875 185" stroke-miterlimit="10"/></g><g transform="translate(-38,-46) scale(1,1)"><path fill="none" stroke="#000000" d="M 168 223 L 625.31591796875 223" stroke-miterlimit="10"/></g><g transform="translate(-38,-46) scale(1,1)"><g><path fill="none" stroke="none"/><text fill="#000000" stroke="none" font-family="Arial" font-size="13px" font-style="normal" font-weight="bold" text-decoration="none" x="382.934326171875" y="179.5">User</text></g></g><g transform="translate(-38,-46) scale(1,1)"><g><path fill="none" stroke="none"/><text fill="#000000" stroke="none" font-family="Arial" font-size="13px" font-style="normal" font-weight="normal" text-decoration="none" x="173" y="202.5">-Id: long</text></g></g><g transform="translate(-38,-46) scale(1,1)"><g><path fill="none" stroke="none"/><text fill="#000000" stroke="none" font-family="Arial" font-size="13px" font-style="normal" font-weight="normal" text-decoration="none" x="173" y="217.5">-address</text></g></g><g transform="translate(-38,-46) scale(1,1)"><g><path fill="none" stroke="none"/><text fill="#000000" stroke="none" font-family="Arial" font-size="13px" font-style="normal" font-weight="normal" text-decoration="none" x="173" y="240.5">+User(userAccount: UserAccount, name: String, role: UserRole)</text></g></g><g transform="translate(-38,-46) scale(1,1)"><g><path fill="none" stroke="none"/><text fill="#000000" stroke="none" font-family="Arial" font-size="13px" font-style="normal" font-weight="normal" text-decoration="none" x="173" y="255.5">+getId()</text></g></g><g transform="translate(-38,-46) scale(1,1)"><g><path fill="none" stroke="none"/><text fill="#000000" stroke="none" font-family="Arial" font-size="13px" font-style="normal" font-weight="normal" text-decoration="none" x="173" y="270.5">+getUserAccount(): UserAccount</text></g></g><g transform="translate(-38,-46) scale(1,1)"><g><path fill="none" stroke="none"/><text fill="#000000" stroke="none" font-family="Arial" font-size="13px" font-style="normal" font-weight="normal" text-decoration="none" x="173" y="285.5">+getAddress(): String</text></g></g><g transform="translate(-38,-46) scale(1,1)"><g><path fill="none" stroke="none"/><text fill="#000000" stroke="none" font-family="Arial" font-size="13px" font-style="normal" font-weight="normal" text-decoration="none" x="173" y="300.5">+setAddress(address: String)</text></g></g><g transform="translate(-38,-46) scale(1,1)"><g><path fill="none" stroke="none"/><text fill="#000000" stroke="none" font-family="Arial" font-size="13px" font-style="normal" font-weight="normal" text-decoration="none" x="173" y="315.5">+getCompany(): Optional&lt;Company&gt;</text></g></g><g transform="translate(-38,-46) scale(1,1)"><g><path fill="none" stroke="none"/><text fill="#000000" stroke="none" font-family="Arial" font-size="13px" font-style="normal" font-weight="normal" text-decoration="none" x="173" y="330.5">+setCompany(company: Company)</text></g></g><g transform="translate(-38,-46) scale(1,1)"><rect fill="#C0C0C0" stroke="none" x="111" y="567" width="393.6" height="15" opacity="0.2"/></g><g transform="translate(-38,-46) scale(1,1)"><rect fill="#C0C0C0" stroke="none" x="111" y="581" width="984" height="241" opacity="0.2"/></g><g transform="translate(-38,-46) scale(1,1)"><rect fill="#ffffff" stroke="none" x="104" y="575" width="984" height="240"/></g><g transform="translate(-38,-46) scale(1,1)"><path fill="none" stroke="#000000" d="M 104 575 L 1088 575 L 1088 815 L 104 815 L 104 575 Z Z" stroke-miterlimit="10"/></g><g transform="translate(-38,-46) scale(1,1)"><rect fill="#ffffff" stroke="none" x="104" y="560" width="393.6" height="15"/></g><g transform="translate(-38,-46) scale(1,1)"><path fill="none" stroke="#000000" d="M 104 560 L 497.6 560 L 497.6 575 L 104 575 L 104 560 Z Z" stroke-miterlimit="10"/></g><g transform="translate(-38,-46) scale(1,1)"><rect fill="#ffffff" stroke="none" x="104" y="574" width="984" height="241"/></g><g transform="translate(-38,-46) scale(1,1)"><path fill="none" stroke="#000000" d="M 104 574 L 1088 574 L 1088 815 L 104 815 L 104 574 Z Z" stroke-miterlimit="10"/></g><g transform="translate(-38,-46) scale(1,1)"><g><path fill="none" stroke="none"/><text fill="#000000" stroke="none" font-family="Arial" font-size="13px" font-style="normal" font-weight="bold" text-decoration="none" x="565.6455078125" y="594.5">Salespoint</text></g></g><g transform="translate(-38,-46) scale(1,1)"><path fill="none" stroke="#000000" d="M 136 696 L 64 696 L 64 232 L 168 232" stroke-miterlimit="10" stroke-dasharray="3"/></g><g transform="translate(-38,-46) scale(1,1)"><path fill="none" stroke="#000000" d="M 157.83732514237585 236.209517756016 L 168 232 L 157.83732514237585 227.790482243984" stroke-miterlimit="10"/></g><g transform="translate(-38,-46) scale(1,1)"><rect fill="#C0C0C0" stroke="none" x="175" y="383" width="510.07763671875" height="72" opacity="0.2"/></g><g transform="translate(-38,-46) scale(1,1)"><rect fill="#ffffff" stroke="none" x="168" y="376" width="510.07763671875" height="72"/></g><g transform="translate(-38,-46) scale(1,1)"><path fill="none" stroke="#000000" d="M 168 376 L 678.07763671875 376 L 678.07763671875 448 L 168 448 L 168 376 Z Z" stroke-miterlimit="10"/></g><g transform="translate(-38,-46) scale(1,1)"><path fill="none" stroke="#000000" d="M 168 401 L 678.07763671875 401" stroke-miterlimit="10"/></g><g transform="translate(-38,-46) scale(1,1)"><path fill="none" stroke="#000000" d="M 168 411 L 678.07763671875 411" stroke-miterlimit="10"/></g><g transform="translate(-38,-46) scale(1,1)"><g><path fill="none" stroke="none"/><text fill="#000000" stroke="none" font-family="Arial" font-size="13px" font-style="normal" font-weight="bold" text-decoration="none" x="369.9375" y="395.5">UserDataInitializer</text></g></g><g transform="translate(-38,-46) scale(1,1)"><g><path fill="none" stroke="none"/><text fill="#000000" stroke="none" font-family="Arial" font-size="13px" font-style="normal" font-weight="normal" text-decoration="none" x="173" y="428.5">+UserDataInitializer(userAccountManager: UserAccountManager, customerRepository)</text></g></g><g transform="translate(-38,-46) scale(1,1)"><g><path fill="none" stroke="none"/><text fill="#000000" stroke="none" font-family="Arial" font-size="13px" font-style="normal" font-weight="normal" text-decoration="none" x="173" y="443.5">+initialize(): void</text></g></g><g transform="translate(-38,-46) scale(1,1)"><path fill="none" stroke="#000000" d="M 512 448 L 512 472 L 736 472" stroke-miterlimit="10"/></g><g transform="translate(-38,-46) scale(1,1)"><path fill="none" stroke="#000000" d="M 725.8373251423759 476.209517756016 L 736 472 L 725.8373251423758 467.790482243984" stroke-miterlimit="10"/></g><g transform="translate(-38,-46) scale(1,1)"><g><path fill="none" stroke="none"/><text fill="#000000" stroke="none" font-family="Arial" font-size="13px" font-style="normal" font-weight="normal" text-decoration="none" x="607.216796875" y="467.5">-userRepository</text></g></g><g transform="translate(-38,-46) scale(1,1)"><g><path fill="none" stroke="none"/><text fill="#000000" stroke="none" font-family="Arial" font-size="13px" font-style="normal" font-weight="normal" text-decoration="none" x="710.5" y="490.5">1</text></g></g><g transform="translate(-38,-46) scale(1,1)"><rect fill="#C0C0C0" stroke="none" x="1007" y="167" width="423.83837890625" height="147" opacity="0.2"/></g><g transform="translate(-38,-46) scale(1,1)"><rect fill="#ffffff" stroke="none" x="1000" y="160" width="423.83837890625" height="147"/></g><g transform="translate(-38,-46) scale(1,1)"><path fill="none" stroke="#000000" d="M 1000 160 L 1423.83837890625 160 L 1423.83837890625 307 L 1000 307 L 1000 160 Z Z" stroke-miterlimit="10"/></g><g transform="translate(-38,-46) scale(1,1)"><path fill="none" stroke="#000000" d="M 1000 185 L 1423.83837890625 185" stroke-miterlimit="10"/></g><g transform="translate(-38,-46) scale(1,1)"><path fill="none" stroke="#000000" d="M 1000 195 L 1423.83837890625 195" stroke-miterlimit="10"/></g><g transform="translate(-38,-46) scale(1,1)"><g><path fill="none" stroke="none"/><text fill="#000000" stroke="none" font-family="Arial" font-size="13px" font-style="normal" font-weight="bold" text-decoration="none" x="1160.255615234375" y="179.5">UserManagement</text></g></g><g transform="translate(-38,-46) scale(1,1)"><g><path fill="none" stroke="none"/><text fill="#000000" stroke="none" font-family="Arial" font-size="13px" font-style="normal" font-weight="normal" text-decoration="none" x="1005" y="212.5">+UserManagement(users: UserRepository, userAccounts: UserAccount)</text></g></g><g transform="translate(-38,-46) scale(1,1)"><g><path fill="none" stroke="none"/><text fill="#000000" stroke="none" font-family="Arial" font-size="13px" font-style="normal" font-weight="normal" text-decoration="none" x="1005" y="227.5">+createUser(form: RegistrationForm): User</text></g></g><g transform="translate(-38,-46) scale(1,1)"><g><path fill="none" stroke="none"/><text fill="#000000" stroke="none" font-family="Arial" font-size="13px" font-style="normal" font-weight="normal" text-decoration="none" x="1005" y="242.5">+findAll(): Streamable</text></g></g><g transform="translate(-38,-46) scale(1,1)"><g><path fill="none" stroke="none"/><text fill="#000000" stroke="none" font-family="Arial" font-size="13px" font-style="normal" font-weight="normal" text-decoration="none" x="1005" y="257.5">+findUserById(userId: long): Optional&lt;User&gt;</text></g></g><g transform="translate(-38,-46) scale(1,1)"><g><path fill="none" stroke="none"/><text fill="#000000" stroke="none" font-family="Arial" font-size="13px" font-style="normal" font-weight="normal" text-decoration="none" x="1005" y="272.5">+findCompany(accessCode: String): Optional&lt;Company&gt;</text></g></g><g transform="translate(-38,-46) scale(1,1)"><g><path fill="none" stroke="none"/><text fill="#000000" stroke="none" font-family="Arial" font-size="13px" font-style="normal" font-weight="normal" text-decoration="none" x="1005" y="287.5">+findUserByUsername(username: String): Optional&lt;User&gt;</text></g></g><g transform="translate(-38,-46) scale(1,1)"><g><path fill="none" stroke="none"/><text fill="#000000" stroke="none" font-family="Arial" font-size="13px" font-style="normal" font-weight="normal" text-decoration="none" x="1005" y="302.5">+denyAuthenticationById(userId: long)</text></g></g><g transform="translate(-38,-46) scale(1,1)"><path fill="none" stroke="#000000" d="M 1000 218 L 960 218 L 960 448" stroke-miterlimit="10"/></g><g transform="translate(-38,-46) scale(1,1)"><path fill="none" stroke="#000000" d="M 955.790482243984 437.83732514237585 L 960 448 L 964.209517756016 437.83732514237585" stroke-miterlimit="10"/></g><g transform="translate(-38,-46) scale(1,1)"><g><path fill="none" stroke="none"/><text fill="#000000" stroke="none" font-family="Arial" font-size="13px" font-style="normal" font-weight="normal" text-decoration="none" x="961.13134765625" y="274.5">-users</text></g></g><g transform="translate(-38,-46) scale(1,1)"><rect fill="#C0C0C0" stroke="none" x="1111" y="343" width="319" height="176" opacity="0.2"/></g><g transform="translate(-38,-46) scale(1,1)"><rect fill="#ffffff" stroke="none" x="1104" y="336" width="319" height="176"/></g><g transform="translate(-38,-46) scale(1,1)"><path fill="none" stroke="#000000" d="M 1104 336 L 1423 336 L 1423 512 L 1104 512 L 1104 336 Z Z" stroke-miterlimit="10"/></g><g transform="translate(-38,-46) scale(1,1)"><path fill="#ffffff" stroke="none" d="M 1397 353 C 1397 348.0294368 1401.0294368 344 1406 344 C 1410.9705632 344 1415 348.0294368 1415 353 C 1415 357.9705632 1410.9705632 362 1406 362 C 1401.0294368 362 1397 357.9705632 1397 353 Z"/></g><g transform="translate(-38,-46) scale(1,1)"><path fill="none" stroke="#000000" d="M 1397 353 C 1397 348.0294368 1401.0294368 344 1406 344 C 1410.9705632 344 1415 348.0294368 1415 353 C 1415 357.9705632 1410.9705632 362 1406 362 C 1401.0294368 362 1397 357.9705632 1397 353 Z" stroke-miterlimit="10"/></g><g transform="translate(-38,-46) scale(1,1)"><path fill="none" stroke="#000000" d="M 1104 370 L 1423 370" stroke-miterlimit="10"/></g><g transform="translate(-38,-46) scale(1,1)"><g><path fill="none" stroke="none"/><text fill="#000000" stroke="none" font-family="Arial" font-size="13px" font-style="normal" font-weight="bold" text-decoration="none" x="1201.65185546875" y="355.5">RegistrationForm</text></g></g><g transform="translate(-38,-46) scale(1,1)"><g><path fill="none" stroke="none"/><text fill="#000000" stroke="none" font-family="Arial" font-size="13px" font-style="normal" font-weight="normal" text-decoration="none" x="1109" y="387.5">+getUsername(): String</text></g></g><g transform="translate(-38,-46) scale(1,1)"><g><path fill="none" stroke="none"/><text fill="#000000" stroke="none" font-family="Arial" font-size="13px" font-style="normal" font-weight="normal" text-decoration="none" x="1109" y="402.5">+getPassword()</text></g></g><g transform="translate(-38,-46) scale(1,1)"><g><path fill="none" stroke="none"/><text fill="#000000" stroke="none" font-family="Arial" font-size="13px" font-style="normal" font-weight="normal" text-decoration="none" x="1109" y="417.5">+getAddress(): String</text></g></g><g transform="translate(-38,-46) scale(1,1)"><g><path fill="none" stroke="none"/><text fill="#000000" stroke="none" font-family="Arial" font-size="13px" font-style="normal" font-weight="normal" text-decoration="none" x="1109" y="432.5">+getRole(): String</text></g></g><g transform="translate(-38,-46) scale(1,1)"><g><path fill="none" stroke="none"/><text fill="#000000" stroke="none" font-family="Arial" font-size="13px" font-style="normal" font-weight="normal" text-decoration="none" x="1109" y="447.5">+getEmail(): String</text></g></g><g transform="translate(-38,-46) scale(1,1)"><g><path fill="none" stroke="none"/><text fill="#000000" stroke="none" font-family="Arial" font-size="13px" font-style="normal" font-weight="normal" text-decoration="none" x="1109" y="462.5">+getCompanyName(): String</text></g></g><g transform="translate(-38,-46) scale(1,1)"><g><path fill="none" stroke="none"/><text fill="#000000" stroke="none" font-family="Arial" font-size="13px" font-style="normal" font-weight="normal" text-decoration="none" x="1109" y="477.5">+getAccessCode(): String</text></g></g><g transform="translate(-38,-46) scale(1,1)"><g><path fill="none" stroke="none"/><text fill="#000000" stroke="none" font-family="Arial" font-size="13px" font-style="normal" font-weight="normal" text-decoration="none" x="1109" y="492.5">+getFirstname(): String</text></g></g><g transform="translate(-38,-46) scale(1,1)"><g><path fill="none" stroke="none"/><text fill="#000000" stroke="none" font-family="Arial" font-size="13px" font-style="normal" font-weight="normal" text-decoration="none" x="1109" y="507.5">+getLastname(): String</text></g></g><g transform="translate(-38,-46) scale(1,1)"><path fill="none" stroke="#000000" d="M 1137 307 L 1137 336" stroke-miterlimit="10" stroke-dasharray="3"/></g><g transform="translate(-38,-46) scale(1,1)"><path fill="none" stroke="#000000" d="M 1132.7904822439841 325.83732514237585 L 1137 336 L 1141.2095177560159 325.83732514237585" stroke-miterlimit="10"/></g><g transform="translate(-38,-46) scale(1,1)"><rect fill="#C0C0C0" stroke="none" x="143" y="623" width="231" height="24" opacity="0.2"/></g><g transform="translate(-38,-46) scale(1,1)"><rect fill="#ffffff" stroke="none" x="136" y="616" width="231" height="24"/></g><g transform="translate(-38,-46) scale(1,1)"><path fill="none" stroke="#000000" d="M 136 616 L 367 616 L 367 640 L 136 640 L 136 616 Z Z" stroke-miterlimit="10"/></g><g transform="translate(-38,-46) scale(1,1)"><g><path fill="none" stroke="none"/><text fill="#000000" stroke="none" font-family="Arial" font-size="13px" font-style="normal" font-weight="bold" text-decoration="none" x="214.2900390625" y="635.5">UserAccount</text></g></g><g transform="translate(-38,-46) scale(1,1)"><rect fill="#C0C0C0" stroke="none" x="863" y="615" width="199" height="33" opacity="0.2"/></g><g transform="translate(-38,-46) scale(1,1)"><rect fill="#ffffff" stroke="none" x="856" y="608" width="199" height="33"/></g><g transform="translate(-38,-46) scale(1,1)"><path fill="none" stroke="#000000" d="M 856 608 L 1055 608 L 1055 641 L 856 641 L 856 608 Z Z" stroke-miterlimit="10"/></g><g transform="translate(-38,-46) scale(1,1)"><path fill="#ffffff" stroke="none" d="M 1029 625 C 1029 620.0294368 1033.0294368 616 1038 616 C 1042.9705632 616 1047 620.0294368 1047 625 C 1047 629.9705632 1042.9705632 634 1038 634 C 1033.0294368 634 1029 629.9705632 1029 625 Z"/></g><g transform="translate(-38,-46) scale(1,1)"><path fill="none" stroke="#000000" d="M 1029 625 C 1029 620.0294368 1033.0294368 616 1038 616 C 1042.9705632 616 1047 620.0294368 1047 625 C 1047 629.9705632 1042.9705632 634 1038 634 C 1033.0294368 634 1029 629.9705632 1029 625 Z" stroke-miterlimit="10"/></g><g transform="translate(-38,-46) scale(1,1)"><g><path fill="none" stroke="none"/><text fill="#000000" stroke="none" font-family="Arial" font-size="13px" font-style="normal" font-weight="bold" text-decoration="none" x="880.635986328125" y="627.5">UserAccountManager</text></g></g><g transform="translate(-38,-46) scale(1,1)"><path fill="none" stroke="#000000" d="M 1000 307 L 1000 608" stroke-miterlimit="10"/></g><g transform="translate(-38,-46) scale(1,1)"><path fill="none" stroke="#000000" d="M 995.790482243984 597.8373251423759 L 1000 608 L 1004.209517756016 597.8373251423759" stroke-miterlimit="10"/></g><g transform="translate(-38,-46) scale(1,1)"><g><path fill="none" stroke="none"/><text fill="#000000" stroke="none" font-family="Arial" font-size="13px" font-style="normal" font-weight="normal" text-decoration="none" x="999.13134765625" y="595.5">-userAccounts</text></g></g><g transform="translate(-38,-46) scale(1,1)"><g><path fill="none" stroke="none"/><text fill="#000000" stroke="none" font-family="Arial" font-size="13px" font-style="normal" font-weight="normal" text-decoration="none" x="983.5" y="592.5">1</text></g></g><g transform="translate(-38,-46) scale(1,1)"><rect fill="#C0C0C0" stroke="none" x="143" y="679" width="247" height="40" opacity="0.2"/></g><g transform="translate(-38,-46) scale(1,1)"><rect fill="#ffffff" stroke="none" x="136" y="672" width="247" height="40"/></g><g transform="translate(-38,-46) scale(1,1)"><path fill="none" stroke="#000000" d="M 136 672 L 383 672 L 383 712 L 136 712 L 136 672 Z Z" stroke-miterlimit="10"/></g><g transform="translate(-38,-46) scale(1,1)"><g><path fill="none" stroke="none"/><text fill="#000000" stroke="none" font-family="Arial" font-size="13px" font-style="normal" font-weight="bold" text-decoration="none" x="246.1318359375" y="691.5">Role</text></g></g><g transform="translate(-38,-46) scale(1,1)"><path fill="none" stroke="#000000" d="M 168 319 L 144 319 L 144 616" stroke-miterlimit="10"/></g><g transform="translate(-38,-46) scale(1,1)"><path fill="none" stroke="#000000" d="M 139.790482243984 605.8373251423759 L 144 616 L 148.209517756016 605.8373251423759" stroke-miterlimit="10"/></g><g transform="translate(-38,-46) scale(1,1)"><g><path fill="none" stroke="none"/><text fill="#000000" stroke="none" font-family="Arial" font-size="13px" font-style="normal" font-weight="normal" text-decoration="none" x="161.13134765625" y="595.5">-userAccount</text></g></g><g transform="translate(-38,-46) scale(1,1)"><g><path fill="none" stroke="none"/><text fill="#000000" stroke="none" font-family="Arial" font-size="13px" font-style="normal" font-weight="normal" text-decoration="none" x="127.5" y="600.5">1</text></g></g><g transform="translate(-38,-46) scale(1,1)"><path fill="none" stroke="#000000" d="M 625 221 L 712 221" stroke-miterlimit="10" stroke-dasharray="3"/></g><g transform="translate(-38,-46) scale(1,1)"><path fill="none" stroke="#000000" d="M 701.8373251423759 225.209517756016 L 712 221 L 701.8373251423758 216.790482243984" stroke-miterlimit="10"/></g><g transform="translate(-38,-46) scale(1,1)"><rect fill="#C0C0C0" stroke="none" x="1591" y="167" width="383.6767578125" height="303" opacity="0.2"/></g><g transform="translate(-38,-46) scale(1,1)"><rect fill="#ffffff" stroke="none" x="1584" y="160" width="383.6767578125" height="303"/></g><g transform="translate(-38,-46) scale(1,1)"><path fill="none" stroke="#000000" d="M 1584 160 L 1967.6767578125 160 L 1967.6767578125 463 L 1584 463 L 1584 160 Z Z" stroke-miterlimit="10"/></g><g transform="translate(-38,-46) scale(1,1)"><path fill="none" stroke="#000000" d="M 1584 185 L 1967.6767578125 185" stroke-miterlimit="10"/></g><g transform="translate(-38,-46) scale(1,1)"><path fill="none" stroke="#000000" d="M 1584 195 L 1967.6767578125 195" stroke-miterlimit="10"/></g><g transform="translate(-38,-46) scale(1,1)"><g><path fill="none" stroke="none"/><text fill="#000000" stroke="none" font-family="Arial" font-size="13px" font-style="normal" font-weight="bold" text-decoration="none" x="1733.9375" y="179.5">UserController</text></g></g><g transform="translate(-38,-46) scale(1,1)"><g><path fill="none" stroke="none"/><text fill="#000000" stroke="none" font-family="Arial" font-size="13px" font-style="normal" font-weight="normal" text-decoration="none" x="1589" y="212.5">+UserController(userManagement: UserManagement)</text></g></g><g transform="translate(-38,-46) scale(1,1)"><g><path fill="none" stroke="none"/><text fill="#000000" stroke="none" font-family="Arial" font-size="13px" font-style="normal" font-weight="normal" text-decoration="none" x="1589" y="227.5">+registerNew(form: RegistrationForm, result: Errors): String</text></g></g><g transform="translate(-38,-46) scale(1,1)"><g><path fill="none" stroke="none"/><text fill="#000000" stroke="none" font-family="Arial" font-size="13px" font-style="normal" font-weight="normal" text-decoration="none" x="1589" y="242.5">+register(model: Model, form: RegistrationForm): String</text></g></g><g transform="translate(-38,-46) scale(1,1)"><g><path fill="none" stroke="none"/><text fill="#000000" stroke="none" font-family="Arial" font-size="13px" font-style="normal" font-weight="normal" text-decoration="none" x="1589" y="257.5">+users(model: Model): String</text></g></g><g transform="translate(-38,-46) scale(1,1)"><g><path fill="none" stroke="none"/><text fill="#000000" stroke="none" font-family="Arial" font-size="13px" font-style="normal" font-weight="normal" text-decoration="none" x="1589" y="272.5">+userDetails(model: Model, Authentication authentication): String</text></g></g><g transform="translate(-38,-46) scale(1,1)"><g><path fill="none" stroke="none"/><text fill="#000000" stroke="none" font-family="Arial" font-size="13px" font-style="normal" font-weight="normal" text-decoration="none" x="1589" y="287.5">+userDetailsAsBoss(userId: long, model: Model): String</text></g></g><g transform="translate(-38,-46) scale(1,1)"><g><path fill="none" stroke="none"/><text fill="#000000" stroke="none" font-family="Arial" font-size="13px" font-style="normal" font-weight="normal" text-decoration="none" x="1589" y="302.5">+denyAuthentication(userId: long): String</text></g></g><g transform="translate(-38,-46) scale(1,1)"><rect fill="#C0C0C0" stroke="none" x="1135" y="567" width="342.4000000000001" height="15" opacity="0.2"/></g><g transform="translate(-38,-46) scale(1,1)"><rect fill="#C0C0C0" stroke="none" x="1135" y="581" width="856" height="281" opacity="0.2"/></g><g transform="translate(-38,-46) scale(1,1)"><rect fill="#ffffff" stroke="none" x="1128" y="575" width="856" height="280"/></g><g transform="translate(-38,-46) scale(1,1)"><path fill="none" stroke="#000000" d="M 1128 575 L 1984 575 L 1984 855 L 1128 855 L 1128 575 Z Z" stroke-miterlimit="10"/></g><g transform="translate(-38,-46) scale(1,1)"><rect fill="#ffffff" stroke="none" x="1128" y="560" width="342.4000000000001" height="15"/></g><g transform="translate(-38,-46) scale(1,1)"><path fill="none" stroke="#000000" d="M 1128 560 L 1470.4 560 L 1470.4 575 L 1128 575 L 1128 560 Z Z" stroke-miterlimit="10"/></g><g transform="translate(-38,-46) scale(1,1)"><rect fill="#ffffff" stroke="none" x="1128" y="574" width="856" height="281"/></g><g transform="translate(-38,-46) scale(1,1)"><path fill="none" stroke="#000000" d="M 1128 574 L 1984 574 L 1984 855 L 1128 855 L 1128 574 Z Z" stroke-miterlimit="10"/></g><g transform="translate(-38,-46) scale(1,1)"><g><path fill="none" stroke="none"/><text fill="#000000" stroke="none" font-family="Arial" font-size="13px" font-style="normal" font-weight="bold" text-decoration="none" x="1537.2109375" y="594.5">Spring</text></g></g><g transform="translate(-38,-46) scale(1,1)"><path fill="none" stroke="#000000" d="M 1915 463 L 1915 608" stroke-miterlimit="10" stroke-dasharray="3"/></g><g transform="translate(-38,-46) scale(1,1)"><path fill="none" stroke="#000000" d="M 1910.7904822439841 597.8373251423759 L 1915 608 L 1919.2095177560159 597.8373251423759" stroke-miterlimit="10"/></g><g transform="translate(-38,-46) scale(1,1)"><rect fill="#C0C0C0" stroke="none" x="719" y="279" width="236.2587890625" height="145" opacity="0.2"/></g><g transform="translate(-38,-46) scale(1,1)"><rect fill="#ffffff" stroke="none" x="712" y="272" width="236.2587890625" height="145"/></g><g transform="translate(-38,-46) scale(1,1)"><path fill="none" stroke="#000000" d="M 712 272 L 948.2587890625 272 L 948.2587890625 417 L 712 417 L 712 272 Z Z" stroke-miterlimit="10"/></g><g transform="translate(-38,-46) scale(1,1)"><path fill="none" stroke="#000000" d="M 712 297 L 948.2587890625 297" stroke-miterlimit="10"/></g><g transform="translate(-38,-46) scale(1,1)"><path fill="none" stroke="#000000" d="M 712 335 L 948.2587890625 335" stroke-miterlimit="10"/></g><g transform="translate(-38,-46) scale(1,1)"><g><path fill="none" stroke="none"/><text fill="#000000" stroke="none" font-family="Arial" font-size="13px" font-style="normal" font-weight="bold" text-decoration="none" x="802.310791015625" y="291.5">Company</text></g></g><g transform="translate(-38,-46) scale(1,1)"><g><path fill="none" stroke="none"/><text fill="#000000" stroke="none" font-family="Arial" font-size="13px" font-style="normal" font-weight="normal" text-decoration="none" x="717" y="314.5">-name</text></g></g><g transform="translate(-38,-46) scale(1,1)"><g><path fill="none" stroke="none"/><text fill="#000000" stroke="none" font-family="Arial" font-size="13px" font-style="normal" font-weight="normal" text-decoration="none" x="717" y="329.5">-accessCode</text></g></g><g transform="translate(-38,-46) scale(1,1)"><g><path fill="none" stroke="none"/><text fill="#000000" stroke="none" font-family="Arial" font-size="13px" font-style="normal" font-weight="normal" text-decoration="none" x="717" y="352.5">+addEmployee(employee: User)</text></g></g><g transform="translate(-38,-46) scale(1,1)"><g><path fill="none" stroke="none"/><text fill="#000000" stroke="none" font-family="Arial" font-size="13px" font-style="normal" font-weight="normal" text-decoration="none" x="717" y="367.5">+removeEmployee(employee: User)</text></g></g><g transform="translate(-38,-46) scale(1,1)"><g><path fill="none" stroke="none"/><text fill="#000000" stroke="none" font-family="Arial" font-size="13px" font-style="normal" font-weight="normal" text-decoration="none" x="717" y="382.5">+getAcessCode(): String</text></g></g><g transform="translate(-38,-46) scale(1,1)"><g><path fill="none" stroke="none"/><text fill="#000000" stroke="none" font-family="Arial" font-size="13px" font-style="normal" font-weight="normal" text-decoration="none" x="717" y="397.5">+getEmployees(): List&lt;Employees&gt;</text></g></g><g transform="translate(-38,-46) scale(1,1)"><g><path fill="none" stroke="none"/><text fill="#000000" stroke="none" font-family="Arial" font-size="13px" font-style="normal" font-weight="normal" text-decoration="none" x="717" y="412.5">+getName(): String</text></g></g><g transform="translate(-38,-46) scale(1,1)"><path fill="none" stroke="#000000" d="M 1240 608 L 1240 544 L 944 544 L 944 481" stroke-miterlimit="10" stroke-dasharray="3"/></g><g transform="translate(-38,-46) scale(1,1)"><path fill="none" stroke="#000000" d="M 948.209517756016 491.16267485762415 L 944 481 L 939.790482243984 491.16267485762415" stroke-miterlimit="10"/></g><g transform="translate(-38,-46) scale(1,1)"><g><path fill="none" stroke="none"/><text fill="#000000" stroke="none" font-family="Arial" font-size="13px" font-style="normal" font-weight="normal" text-decoration="none" x="1237.2958984375" y="555.5">&lt;T -&gt; User, ID -&gt; long&gt;</text></g></g><g transform="translate(-38,-46) scale(1,1)"><g><path fill="none" stroke="none"/><text fill="#000000" stroke="none" font-family="Arial" font-size="13px" font-style="normal" font-weight="normal" text-decoration="none" x="1239.5" y="540.5">«bind»</text></g></g><g transform="translate(-38,-46) scale(1,1)"><path fill="none" stroke="#000000" d="M 1712 672 L 1680 672 L 1680 463" stroke-miterlimit="10" stroke-dasharray="3"/></g><g transform="translate(-38,-46) scale(1,1)"><path fill="none" stroke="#000000" d="M 1684.2095177560159 473.16267485762415 L 1680 463 L 1675.7904822439841 473.16267485762415" stroke-miterlimit="10"/></g><g transform="translate(-38,-46) scale(1,1)"><path fill="none" stroke="#000000" d="M 1520 640 L 1520 272 L 1424 272" stroke-miterlimit="10" stroke-dasharray="3"/></g><g transform="translate(-38,-46) scale(1,1)"><path fill="none" stroke="#000000" d="M 1434.162674857624 267.790482243984 L 1424 272 L 1434.162674857624 276.209517756016" stroke-miterlimit="10"/></g><g transform="translate(-38,-46) scale(1,1)"><path fill="none" stroke="#000000" d="M 625 288 L 712 288" stroke-miterlimit="10"/></g><g transform="translate(-38,-46) scale(1,1)"><path fill="none" stroke="#000000" d="M 701.8373251423759 292.209517756016 L 712 288 L 701.8373251423758 283.790482243984" stroke-miterlimit="10"/></g><g transform="translate(-38,-46) scale(1,1)"><g><path fill="none" stroke="none"/><text fill="#000000" stroke="none" font-family="Arial" font-size="13px" font-style="normal" font-weight="normal" text-decoration="none" x="638.13134765625" y="283.5">-company</text></g></g><g transform="translate(-38,-46) scale(1,1)"><g><path fill="none" stroke="none"/><text fill="#000000" stroke="none" font-family="Arial" font-size="13px" font-style="normal" font-weight="normal" text-decoration="none" x="686.5" y="306.5">1</text></g></g><g transform="translate(-38,-46) scale(1,1)"><path fill="none" stroke="#000000" d="M 712 328 L 625 328" stroke-miterlimit="10"/></g><g transform="translate(-38,-46) scale(1,1)"><path fill="none" stroke="#000000" d="M 635.1626748576241 323.790482243984 L 625 328 L 635.1626748576241 332.209517756016" stroke-miterlimit="10"/></g><g transform="translate(-38,-46) scale(1,1)"><g><path fill="none" stroke="none"/><text fill="#000000" stroke="none" font-family="Arial" font-size="13px" font-style="normal" font-weight="normal" text-decoration="none" x="640.13134765625" y="339.5">-employees</text></g></g><g transform="translate(-38,-46) scale(1,1)"><g><path fill="none" stroke="none"/><text fill="#000000" stroke="none" font-family="Arial" font-size="13px" font-style="normal" font-weight="normal" text-decoration="none" x="642.5" y="321.5">n</text></g></g><g transform="translate(-38,-46) scale(1,1)"><rect fill="#C0C0C0" stroke="none" x="743" y="455" width="255" height="33" opacity="0.2"/></g><g transform="translate(-38,-46) scale(1,1)"><rect fill="#ffffff" stroke="none" x="736" y="448" width="255" height="33"/></g><g transform="translate(-38,-46) scale(1,1)"><path fill="none" stroke="#000000" d="M 736 448 L 991 448 L 991 481 L 736 481 L 736 448 Z Z" stroke-miterlimit="10"/></g><g transform="translate(-38,-46) scale(1,1)"><path fill="#ffffff" stroke="none" d="M 965 465 C 965 460.0294368 969.0294368 456 974 456 C 978.9705632 456 983 460.0294368 983 465 C 983 469.9705632 978.9705632 474 974 474 C 969.0294368 474 965 469.9705632 965 465 Z"/></g><g transform="translate(-38,-46) scale(1,1)"><path fill="none" stroke="#000000" d="M 965 465 C 965 460.0294368 969.0294368 456 974 456 C 978.9705632 456 983 460.0294368 983 465 C 983 469.9705632 978.9705632 474 974 474 C 969.0294368 474 965 469.9705632 965 465 Z" stroke-miterlimit="10"/></g><g transform="translate(-38,-46) scale(1,1)"><g><path fill="none" stroke="none"/><text fill="#000000" stroke="none" font-family="Arial" font-size="13px" font-style="normal" font-weight="bold" text-decoration="none" x="806.707763671875" y="467.5">UserRepository</text></g></g><g transform="translate(-38,-46) scale(1,1)"><path fill="none" stroke="#000000" d="M 1584 216 L 1424 216" stroke-miterlimit="10"/></g><g transform="translate(-38,-46) scale(1,1)"><path fill="none" stroke="#000000" d="M 1434.162674857624 211.790482243984 L 1424 216 L 1434.162674857624 220.209517756016" stroke-miterlimit="10"/></g><g transform="translate(-38,-46) scale(1,1)"><g><path fill="none" stroke="none"/><text fill="#000000" stroke="none" font-family="Arial" font-size="13px" font-style="normal" font-weight="normal" text-decoration="none" x="1464.13134765625" y="235.5">-userManagement</text></g></g><g transform="translate(-38,-46) scale(1,1)"><g><path fill="none" stroke="none"/><text fill="#000000" stroke="none" font-family="Arial" font-size="13px" font-style="normal" font-weight="normal" text-decoration="none" x="1441.5" y="209.5">1</text></g></g><g transform="translate(-38,-46) scale(1,1)"><rect fill="#C0C0C0" stroke="none" x="1311" y="815" width="247" height="24" opacity="0.2"/></g><g transform="translate(-38,-46) scale(1,1)"><rect fill="#ffffff" stroke="none" x="1304" y="808" width="247" height="24"/></g><g transform="translate(-38,-46) scale(1,1)"><path fill="none" stroke="#000000" d="M 1304 808 L 1551 808 L 1551 832 L 1304 832 L 1304 808 Z Z" stroke-miterlimit="10"/></g><g transform="translate(-38,-46) scale(1,1)"><g><path fill="none" stroke="none"/><text fill="#000000" stroke="none" font-family="Arial" font-size="13px" font-style="normal" font-weight="bold" text-decoration="none" x="1409.0791015625" y="827.5">Assert</text></g></g><g transform="translate(-38,-46) scale(1,1)"><rect fill="#C0C0C0" stroke="none" x="415" y="623" width="264" height="33" opacity="0.2"/></g><g transform="translate(-38,-46) scale(1,1)"><rect fill="#ffffff" stroke="none" x="408" y="616" width="264" height="33"/></g><g transform="translate(-38,-46) scale(1,1)"><path fill="none" stroke="#000000" d="M 408 616 L 672 616 L 672 649 L 408 649 L 408 616 Z Z" stroke-miterlimit="10"/></g><g transform="translate(-38,-46) scale(1,1)"><path fill="#ffffff" stroke="none" d="M 646 633 C 646 628.0294368 650.0294368 624 655 624 C 659.9705632 624 664 628.0294368 664 633 C 664 637.9705632 659.9705632 642 655 642 C 650.0294368 642 646 637.9705632 646 633 Z"/></g><g transform="translate(-38,-46) scale(1,1)"><path fill="none" stroke="#000000" d="M 646 633 C 646 628.0294368 650.0294368 624 655 624 C 659.9705632 624 664 628.0294368 664 633 C 664 637.9705632 659.9705632 642 655 642 C 650.0294368 642 646 637.9705632 646 633 Z" stroke-miterlimit="10"/></g><g transform="translate(-38,-46) scale(1,1)"><g><path fill="none" stroke="none"/><text fill="#000000" stroke="none" font-family="Arial" font-size="13px" font-style="normal" font-weight="bold" text-decoration="none" x="488.622314453125" y="635.5">DataInitializer</text></g></g><g transform="translate(-38,-46) scale(1,1)"><rect fill="#C0C0C0" stroke="none" x="1159" y="648" width="205" height="33" opacity="0.2"/></g><g transform="translate(-38,-46) scale(1,1)"><rect fill="#C0C0C0" stroke="none" x="1351" y="615" width="22" height="37" opacity="0.2"/></g><g transform="translate(-38,-46) scale(1,1)"><rect fill="#ffffff" stroke="none" x="1152" y="641" width="205" height="33"/></g><g transform="translate(-38,-46) scale(1,1)"><path fill="none" stroke="#000000" d="M 1152 641 L 1357 641 L 1357 674 L 1152 674 L 1152 641 Z Z" stroke-miterlimit="10"/></g><g transform="translate(-38,-46) scale(1,1)"><path fill="#ffffff" stroke="none" d="M 1331 658 C 1331 653.0294368 1335.0294368 649 1340 649 C 1344.9705632 649 1349 653.0294368 1349 658 C 1349 662.9705632 1344.9705632 667 1340 667 C 1335.0294368 667 1331 662.9705632 1331 658 Z"/></g><g transform="translate(-38,-46) scale(1,1)"><path fill="none" stroke="#000000" d="M 1331 658 C 1331 653.0294368 1335.0294368 649 1340 649 C 1344.9705632 649 1349 653.0294368 1349 658 C 1349 662.9705632 1344.9705632 667 1340 667 C 1335.0294368 667 1331 662.9705632 1331 658 Z" stroke-miterlimit="10"/></g><g transform="translate(-38,-46) scale(1,1)"><g><path fill="none" stroke="none"/><text fill="#000000" stroke="none" font-family="Arial" font-size="13px" font-style="normal" font-weight="bold" text-decoration="none" x="1202.3427734375" y="660.5">CrudRepository</text></g></g><g transform="translate(-38,-46) scale(1,1)"><rect fill="#ffffff" stroke="none" x="1344" y="608" width="22" height="37"/></g><g transform="translate(-38,-46) scale(1,1)"><path fill="none" stroke="#000000" d="M 1344 608 L 1366 608 L 1366 645 L 1344 645 L 1344 608 Z Z" stroke-miterlimit="10" stroke-dasharray="3"/></g><g transform="translate(-38,-46) scale(1,1)"><g><path fill="none" stroke="none"/><text fill="#000000" stroke="none" font-family="Arial" font-size="13px" font-style="normal" font-weight="normal" text-decoration="none" x="1349" y="625.5">T</text></g></g><g transform="translate(-38,-46) scale(1,1)"><g><path fill="none" stroke="none"/><text fill="#000000" stroke="none" font-family="Arial" font-size="13px" font-style="normal" font-weight="normal" text-decoration="none" x="1349" y="640.5">ID</text></g></g><g transform="translate(-38,-46) scale(1,1)"><rect fill="#C0C0C0" stroke="none" x="1719" y="615" width="247" height="33" opacity="0.2"/></g><g transform="translate(-38,-46) scale(1,1)"><rect fill="#ffffff" stroke="none" x="1712" y="608" width="247" height="33"/></g><g transform="translate(-38,-46) scale(1,1)"><path fill="none" stroke="#000000" d="M 1712 608 L 1959 608 L 1959 641 L 1712 641 L 1712 608 Z Z" stroke-miterlimit="10"/></g><g transform="translate(-38,-46) scale(1,1)"><path fill="#ffffff" stroke="none" d="M 1933 625 C 1933 620.0294368 1937.0294368 616 1942 616 C 1946.9705632 616 1951 620.0294368 1951 625 C 1951 629.9705632 1946.9705632 634 1942 634 C 1937.0294368 634 1933 629.9705632 1933 625 Z"/></g><g transform="translate(-38,-46) scale(1,1)"><path fill="none" stroke="#000000" d="M 1933 625 C 1933 620.0294368 1937.0294368 616 1942 616 C 1946.9705632 616 1951 620.0294368 1951 625 C 1951 629.9705632 1946.9705632 634 1942 634 C 1937.0294368 634 1933 629.9705632 1933 625 Z" stroke-miterlimit="10"/></g><g transform="translate(-38,-46) scale(1,1)"><g><path fill="none" stroke="none"/><text fill="#000000" stroke="none" font-family="Arial" font-size="13px" font-style="normal" font-weight="bold" text-decoration="none" x="1805.805908203125" y="627.5">Errors</text></g></g><g transform="translate(-38,-46) scale(1,1)"><rect fill="#C0C0C0" stroke="none" x="1719" y="663" width="231" height="33" opacity="0.2"/></g><g transform="translate(-38,-46) scale(1,1)"><rect fill="#ffffff" stroke="none" x="1712" y="656" width="231" height="33"/></g><g transform="translate(-38,-46) scale(1,1)"><path fill="none" stroke="#000000" d="M 1712 656 L 1943 656 L 1943 689 L 1712 689 L 1712 656 Z Z" stroke-miterlimit="10"/></g><g transform="translate(-38,-46) scale(1,1)"><path fill="#ffffff" stroke="none" d="M 1917 673 C 1917 668.0294368 1921.0294368 664 1926 664 C 1930.9705632 664 1935 668.0294368 1935 673 C 1935 677.9705632 1930.9705632 682 1926 682 C 1921.0294368 682 1917 677.9705632 1917 673 Z"/></g><g transform="translate(-38,-46) scale(1,1)"><path fill="none" stroke="#000000" d="M 1917 673 C 1917 668.0294368 1921.0294368 664 1926 664 C 1930.9705632 664 1935 668.0294368 1935 673 C 1935 677.9705632 1930.9705632 682 1926 682 C 1921.0294368 682 1917 677.9705632 1917 673 Z" stroke-miterlimit="10"/></g><g transform="translate(-38,-46) scale(1,1)"><g><path fill="none" stroke="none"/><text fill="#000000" stroke="none" font-family="Arial" font-size="13px" font-style="normal" font-weight="bold" text-decoration="none" x="1797.79638671875" y="675.5">Model</text></g></g><g transform="translate(-38,-46) scale(1,1)"><rect fill="#C0C0C0" stroke="none" x="1463" y="647" width="207" height="33" opacity="0.2"/></g><g transform="translate(-38,-46) scale(1,1)"><rect fill="#ffffff" stroke="none" x="1456" y="640" width="207" height="33"/></g><g transform="translate(-38,-46) scale(1,1)"><path fill="none" stroke="#000000" d="M 1456 640 L 1663 640 L 1663 673 L 1456 673 L 1456 640 Z Z" stroke-miterlimit="10"/></g><g transform="translate(-38,-46) scale(1,1)"><path fill="#ffffff" stroke="none" d="M 1637 657 C 1637 652.0294368 1641.0294368 648 1646 648 C 1650.9705632 648 1655 652.0294368 1655 657 C 1655 661.9705632 1650.9705632 666 1646 666 C 1641.0294368 666 1637 661.9705632 1637 657 Z"/></g><g transform="translate(-38,-46) scale(1,1)"><path fill="none" stroke="#000000" d="M 1637 657 C 1637 652.0294368 1641.0294368 648 1646 648 C 1650.9705632 648 1655 652.0294368 1655 657 C 1655 661.9705632 1650.9705632 666 1646 666 C 1641.0294368 666 1637 661.9705632 1637 657 Z" stroke-miterlimit="10"/></g><g transform="translate(-38,-46) scale(1,1)"><g><path fill="none" stroke="none"/><text fill="#000000" stroke="none" font-family="Arial" font-size="13px" font-style="normal" font-weight="bold" text-decoration="none" x="1514.260498046875" y="659.5">Streamable</text></g></g><g transform="translate(-38,-46) scale(1,1)"><path fill="none" stroke="#000000" d="M 443 448 L 443 616" stroke-miterlimit="10" stroke-dasharray="3"/></g><g transform="translate(-38,-46) scale(1,1)"><path fill="#FFFFFF" stroke="none" d="M 434.580964487968 595.6746502847517 L 443 616 L 451.419035512032 595.6746502847517"/></g><g transform="translate(-38,-46) scale(1,1)"><path fill="none" stroke="#000000" d="M 434.580964487968 595.6746502847517 L 443 616 L 451.419035512032 595.6746502847517 L 434.580964487968 595.6746502847517" stroke-miterlimit="10"/></g><g transform="translate(-38,-46) scale(1,1)"><path fill="none" stroke="#000000" d="M 168 416 L 80 416 L 80 820 L 1304 820" stroke-miterlimit="10" stroke-dasharray="3"/></g><g transform="translate(-38,-46) scale(1,1)"><path fill="none" stroke="#000000" d="M 1293.837325142376 824.209517756016 L 1304 820 L 1293.837325142376 815.790482243984" stroke-miterlimit="10"/></g><g transform="translate(-38,-46) scale(1,1)"><path fill="none" stroke="#000000" d="M 1670 463 L 1670 820 L 1551 820" stroke-miterlimit="10" stroke-dasharray="3"/></g><g transform="translate(-38,-46) scale(1,1)"><path fill="none" stroke="#000000" d="M 1561.162674857624 815.790482243984 L 1551 820 L 1561.162674857624 824.209517756016" stroke-miterlimit="10"/></g></g></svg>