<svg version="1.1" xmlns="http://www.w3.org/2000/svg" xmlns:xlink="http://www.w3.org/1999/xlink" width="852" height="692"><defs/><g><g transform="translate(-6,2) scale(1,1)"><rect fill="#C0C0C0" stroke="none" x="23" y="15" width="332.8" height="15" opacity="0.2"/></g><g transform="translate(-6,2) scale(1,1)"><rect fill="#C0C0C0" stroke="none" x="23" y="29" width="832" height="658" opacity="0.2"/></g><g transform="translate(-6,2) scale(1,1)"><rect fill="#ffffff" stroke="none" x="16" y="23" width="832" height="657"/></g><g transform="translate(-6,2) scale(1,1)"><path fill="none" stroke="#000000" d="M 16 23 L 848 23 L 848 680 L 16 680 L 16 23 Z Z" stroke-miterlimit="10"/></g><g transform="translate(-6,2) scale(1,1)"><rect fill="#ffffff" stroke="none" x="16" y="8" width="332.8" height="15"/></g><g transform="translate(-6,2) scale(1,1)"><path fill="none" stroke="#000000" d="M 16 8 L 348.8 8 L 348.8 23 L 16 23 L 16 8 Z Z" stroke-miterlimit="10"/></g><g transform="translate(-6,2) scale(1,1)"><rect fill="#ffffff" stroke="none" x="16" y="22" width="832" height="658"/></g><g transform="translate(-6,2) scale(1,1)"><path fill="none" stroke="#000000" d="M 16 22 L 848 22 L 848 680 L 16 680 L 16 22 Z Z" stroke-miterlimit="10"/></g><g transform="translate(-6,2) scale(1,1)"><g><path fill="none" stroke="none"/><text fill="#000000" stroke="none" font-family="Arial" font-size="13px" font-style="normal" font-weight="bold" text-decoration="none" x="415.385009765625" y="42.5">Order</text></g></g><g transform="translate(-6,2) scale(1,1)"><rect fill="#C0C0C0" stroke="none" x="127" y="519" width="268.8" height="15" opacity="0.2"/></g><g transform="translate(-6,2) scale(1,1)"><rect fill="#C0C0C0" stroke="none" x="127" y="533" width="672" height="105" opacity="0.2"/></g><g transform="translate(-6,2) scale(1,1)"><rect fill="#ffffff" stroke="none" x="120" y="527" width="672" height="104"/></g><g transform="translate(-6,2) scale(1,1)"><path fill="none" stroke="#000000" d="M 120 527 L 792 527 L 792 631 L 120 631 L 120 527 Z Z" stroke-miterlimit="10"/></g><g transform="translate(-6,2) scale(1,1)"><rect fill="#ffffff" stroke="none" x="120" y="512" width="268.8" height="15"/></g><g transform="translate(-6,2) scale(1,1)"><path fill="none" stroke="#000000" d="M 120 512 L 388.8 512 L 388.8 527 L 120 527 L 120 512 Z Z" stroke-miterlimit="10"/></g><g transform="translate(-6,2) scale(1,1)"><rect fill="#ffffff" stroke="none" x="120" y="526" width="672" height="105"/></g><g transform="translate(-6,2) scale(1,1)"><path fill="none" stroke="#000000" d="M 120 526 L 792 526 L 792 631 L 120 631 L 120 526 Z Z" stroke-miterlimit="10"/></g><g transform="translate(-6,2) scale(1,1)"><g><path fill="none" stroke="none"/><text fill="#000000" stroke="none" font-family="Arial" font-size="13px" font-style="normal" font-weight="bold" text-decoration="none" x="425.6455078125" y="546.5">Salespoint</text></g></g><g transform="translate(-6,2) scale(1,1)"><rect fill="#C0C0C0" stroke="none" x="39" y="71" width="195.2" height="15" opacity="0.2"/></g><g transform="translate(-6,2) scale(1,1)"><rect fill="#C0C0C0" stroke="none" x="39" y="85" width="488" height="306" opacity="0.2"/></g><g transform="translate(-6,2) scale(1,1)"><rect fill="#ffffff" stroke="none" x="32" y="79" width="488" height="305"/></g><g transform="translate(-6,2) scale(1,1)"><path fill="none" stroke="#000000" d="M 32 79 L 520 79 L 520 384 L 32 384 L 32 79 Z Z" stroke-miterlimit="10"/></g><g transform="translate(-6,2) scale(1,1)"><rect fill="#ffffff" stroke="none" x="32" y="64" width="195.2" height="15"/></g><g transform="translate(-6,2) scale(1,1)"><path fill="none" stroke="#000000" d="M 32 64 L 227.2 64 L 227.2 79 L 32 79 L 32 64 Z Z" stroke-miterlimit="10"/></g><g transform="translate(-6,2) scale(1,1)"><rect fill="#ffffff" stroke="none" x="32" y="78" width="488" height="306"/></g><g transform="translate(-6,2) scale(1,1)"><path fill="none" stroke="#000000" d="M 32 78 L 520 78 L 520 384 L 32 384 L 32 78 Z Z" stroke-miterlimit="10"/></g><g transform="translate(-6,2) scale(1,1)"><g><path fill="none" stroke="none"/><text fill="#000000" stroke="none" font-family="Arial" font-size="13px" font-style="normal" font-weight="bold" text-decoration="none" x="239.155029296875" y="98.5">mampf.order</text></g></g><g transform="translate(-6,2) scale(1,1)"><rect fill="#C0C0C0" stroke="none" x="207" y="119" width="301.97607421875" height="132" opacity="0.2"/></g><g transform="translate(-6,2) scale(1,1)"><rect fill="#ffffff" stroke="none" x="200" y="112" width="301.97607421875" height="132"/></g><g transform="translate(-6,2) scale(1,1)"><path fill="none" stroke="#000000" d="M 200 112 L 501.97607421875 112 L 501.97607421875 244 L 200 244 L 200 112 Z Z" stroke-miterlimit="10"/></g><g transform="translate(-6,2) scale(1,1)"><path fill="none" stroke="#000000" d="M 200 137 L 501.97607421875 137" stroke-miterlimit="10"/></g><g transform="translate(-6,2) scale(1,1)"><path fill="none" stroke="#000000" d="M 200 147 L 501.97607421875 147" stroke-miterlimit="10"/></g><g transform="translate(-6,2) scale(1,1)"><g><path fill="none" stroke="none"/><text fill="#000000" stroke="none" font-family="Arial" font-size="13px" font-style="normal" font-weight="bold" text-decoration="none" x="308.718994140625" y="131.5">OrderManager</text></g></g><g transform="translate(-6,2) scale(1,1)"><g><path fill="none" stroke="none"/><text fill="#000000" stroke="none" font-family="Arial" font-size="13px" font-style="normal" font-weight="normal" text-decoration="none" x="205" y="164.5">+OrderManager(orderManager: OrderManager)</text></g></g><g transform="translate(-6,2) scale(1,1)"><g><path fill="none" stroke="none"/><text fill="#000000" stroke="none" font-family="Arial" font-size="13px" font-style="normal" font-weight="normal" text-decoration="none" x="205" y="179.5">+addOrder()</text></g></g><g transform="translate(-6,2) scale(1,1)"><g><path fill="none" stroke="none"/><text fill="#000000" stroke="none" font-family="Arial" font-size="13px" font-style="normal" font-weight="normal" text-decoration="none" x="205" y="194.5">+validateOrder()</text></g></g><g transform="translate(-6,2) scale(1,1)"><g><path fill="none" stroke="none"/><text fill="#000000" stroke="none" font-family="Arial" font-size="13px" font-style="normal" font-weight="normal" text-decoration="none" x="205" y="209.5">+viewOrders()</text></g></g><g transform="translate(-6,2) scale(1,1)"><g><path fill="none" stroke="none"/><text fill="#000000" stroke="none" font-family="Arial" font-size="13px" font-style="normal" font-weight="normal" text-decoration="none" x="205" y="224.5">+findByUserAccount()</text></g></g><g transform="translate(-6,2) scale(1,1)"><g><path fill="none" stroke="none"/><text fill="#000000" stroke="none" font-family="Arial" font-size="13px" font-style="normal" font-weight="normal" text-decoration="none" x="205" y="239.5">+getOrdersByEmployee()</text></g></g><g transform="translate(-6,2) scale(1,1)"><rect fill="#C0C0C0" stroke="none" x="583" y="39" width="54.39999999999998" height="15" opacity="0.2"/></g><g transform="translate(-6,2) scale(1,1)"><rect fill="#C0C0C0" stroke="none" x="583" y="53" width="136" height="130" opacity="0.2"/></g><g transform="translate(-6,2) scale(1,1)"><rect fill="#ffffff" stroke="none" x="576" y="47" width="136" height="129"/></g><g transform="translate(-6,2) scale(1,1)"><path fill="none" stroke="#000000" d="M 576 47 L 712 47 L 712 176 L 576 176 L 576 47 Z Z" stroke-miterlimit="10"/></g><g transform="translate(-6,2) scale(1,1)"><rect fill="#ffffff" stroke="none" x="576" y="32" width="54.39999999999998" height="15"/></g><g transform="translate(-6,2) scale(1,1)"><path fill="none" stroke="#000000" d="M 576 32 L 630.4 32 L 630.4 47 L 576 47 L 576 32 Z Z" stroke-miterlimit="10"/></g><g transform="translate(-6,2) scale(1,1)"><rect fill="#ffffff" stroke="none" x="576" y="46" width="136" height="130"/></g><g transform="translate(-6,2) scale(1,1)"><path fill="none" stroke="#000000" d="M 576 46 L 712 46 L 712 176 L 576 176 L 576 46 Z Z" stroke-miterlimit="10"/></g><g transform="translate(-6,2) scale(1,1)"><g><path fill="none" stroke="none"/><text fill="#000000" stroke="none" font-family="Arial" font-size="13px" font-style="normal" font-weight="bold" text-decoration="none" x="625.2109375" y="66.5">Spring</text></g></g><g transform="translate(-6,2) scale(1,1)"><rect fill="#C0C0C0" stroke="none" x="591" y="79" width="83.46630859375" height="44" opacity="0.2"/></g><g transform="translate(-6,2) scale(1,1)"><rect fill="#ffffff" stroke="none" x="584" y="72" width="83.46630859375" height="44"/></g><g transform="translate(-6,2) scale(1,1)"><path fill="none" stroke="#000000" d="M 584 72 L 667.46630859375 72 L 667.46630859375 116 L 584 116 L 584 72 Z Z" stroke-miterlimit="10"/></g><g transform="translate(-6,2) scale(1,1)"><g><path fill="none" stroke="none"/><text fill="#000000" stroke="none" font-family="Arial" font-size="13px" font-style="normal" font-weight="bold" text-decoration="none" x="607.312255859375" y="91.5">Assert</text></g></g><g transform="translate(-6,2) scale(1,1)"><rect fill="#C0C0C0" stroke="none" x="591" y="127" width="107.32080078125" height="48" opacity="0.2"/></g><g transform="translate(-6,2) scale(1,1)"><rect fill="#ffffff" stroke="none" x="584" y="120" width="107.32080078125" height="48"/></g><g transform="translate(-6,2) scale(1,1)"><path fill="none" stroke="#000000" d="M 584 120 L 691.32080078125 120 L 691.32080078125 168 L 584 168 L 584 120 Z Z" stroke-miterlimit="10"/></g><g transform="translate(-6,2) scale(1,1)"><path fill="#ffffff" stroke="none" d="M 665.32080078125 137 C 665.32080078125 132.0294368 669.35023758125 128 674.32080078125 128 C 679.29136398125 128 683.32080078125 132.0294368 683.32080078125 137 C 683.32080078125 141.9705632 679.29136398125 146 674.32080078125 146 C 669.35023758125 146 665.32080078125 141.9705632 665.32080078125 137 Z"/></g><g transform="translate(-6,2) scale(1,1)"><path fill="none" stroke="#000000" d="M 665.32080078125 137 C 665.32080078125 132.0294368 669.35023758125 128 674.32080078125 128 C 679.29136398125 128 683.32080078125 132.0294368 683.32080078125 137 C 683.32080078125 141.9705632 679.29136398125 146 674.32080078125 146 C 669.35023758125 146 665.32080078125 141.9705632 665.32080078125 137 Z" stroke-miterlimit="10"/></g><g transform="translate(-6,2) scale(1,1)"><g><path fill="none" stroke="none"/><text fill="#000000" stroke="none" font-family="Arial" font-size="13px" font-style="normal" font-weight="bold" text-decoration="none" x="607.956787109375" y="139.5">Model</text></g></g><g transform="translate(-6,2) scale(1,1)"><path fill="none" stroke="#000000" d="M 346 245 L 325 559" stroke-miterlimit="10" stroke-dasharray="3"/></g><g transform="translate(-6,2) scale(1,1)"><path fill="none" stroke="#000000" d="M 321.47801934783746 548.5790762268505 L 325 559 L 329.87828946387015 549.1408777314259" stroke-miterlimit="10"/></g><g transform="translate(-6,2) scale(1,1)"><path fill="none" stroke="#000000" d="M 370 245 L 463 559" stroke-miterlimit="10" stroke-dasharray="3"/></g><g transform="translate(-6,2) scale(1,1)"><path fill="none" stroke="#000000" d="M 456.0777519577431 550.451170721001 L 463 559 L 464.15016662265117 548.0602963138786" stroke-miterlimit="10"/></g><g transform="translate(-6,2) scale(1,1)"><path fill="none" stroke="#000000" d="M 381 245 L 526 559" stroke-miterlimit="10" stroke-dasharray="3"/></g><g transform="translate(-6,2) scale(1,1)"><path fill="none" stroke="#000000" d="M 517.9176698890317 551.5383688125628 L 526 559 L 525.561099582096 548.0087595593963" stroke-miterlimit="10"/></g><g transform="translate(-6,2) scale(1,1)"><path fill="none" stroke="#000000" d="M 390 245 L 579 559" stroke-miterlimit="10" stroke-dasharray="3"/></g><g transform="translate(-6,2) scale(1,1)"><path fill="none" stroke="#000000" d="M 570.1525307155797 552.4637711743515 L 579 559 L 577.3657061986498 548.1220827466436" stroke-miterlimit="10"/></g><g transform="translate(-6,2) scale(1,1)"><path fill="none" stroke="#000000" d="M 390 245 L 579 559" stroke-miterlimit="10" stroke-dasharray="3"/></g><g transform="translate(-6,2) scale(1,1)"><path fill="none" stroke="#000000" d="M 570.1525307155797 552.4637711743515 L 579 559 L 577.3657061986498 548.1220827466436" stroke-miterlimit="10"/></g><g transform="translate(-6,2) scale(1,1)"><path fill="none" stroke="#000000" d="M 390 245 L 579 559" stroke-miterlimit="10" stroke-dasharray="3"/></g><g transform="translate(-6,2) scale(1,1)"><path fill="none" stroke="#000000" d="M 570.1525307155797 552.4637711743515 L 579 559 L 577.3657061986498 548.1220827466436" stroke-miterlimit="10"/></g><g transform="translate(-6,2) scale(1,1)"><path fill="none" stroke="#000000" d="M 400 245 L 636 559" stroke-miterlimit="10" stroke-dasharray="3"/></g><g transform="translate(-6,2) scale(1,1)"><path fill="none" stroke="#000000" d="M 626.5290786331867 553.4052123844028 L 636 559 L 633.259159539729 548.3469350151545" stroke-miterlimit="10"/></g><g transform="translate(-6,2) scale(1,1)"><path fill="none" stroke="#000000" d="M 414 245 L 712 559" stroke-miterlimit="10" stroke-dasharray="3"/></g><g transform="translate(-6,2) scale(1,1)"><path fill="none" stroke="#000000" d="M 701.9508116066129 554.5263200120913 L 712 559 L 708.0575201979236 548.7307812853061" stroke-miterlimit="10"/></g><g transform="translate(-6,2) scale(1,1)"><path fill="none" stroke="#000000" d="M 325 245 L 210 559" stroke-miterlimit="10"/></g><g transform="translate(-6,2) scale(1,1)"><path fill="none" stroke="#000000" d="M 209.54221715863397 548.0095298157836 L 210 559 L 217.44773464424725 550.9048626528712" stroke-miterlimit="10"/></g><g transform="translate(-6,2) scale(1,1)"><g><path fill="none" stroke="none"/><text fill="#000000" stroke="none" font-family="Arial" font-size="13px" font-style="normal" font-weight="normal" text-decoration="none" x="128.13134765625" y="491.5">-orderManager</text></g></g><g transform="translate(-6,2) scale(1,1)"><path fill="none" stroke="#000000" d="M 503 131 L 583 107" stroke-miterlimit="10" stroke-dasharray="3"/></g><g transform="translate(-6,2) scale(1,1)"><path fill="none" stroke="#000000" d="M 574.4755189196567 113.95220988685384 L 583 107 L 572.0563268667663 105.8882363772193" stroke-miterlimit="10"/></g><g transform="translate(-6,2) scale(1,1)"><path fill="none" stroke="#000000" d="M 503 160 L 583 150" stroke-miterlimit="10" stroke-dasharray="3"/></g><g transform="translate(-6,2) scale(1,1)"><path fill="none" stroke="#000000" d="M 573.4379289881614 155.43753601960987 L 583 150 L 572.3936761529293 147.0835133377538" stroke-miterlimit="10"/></g><g transform="translate(-6,2) scale(1,1)"><rect fill="#C0C0C0" stroke="none" x="143" y="567" width="131.86083984375" height="48" opacity="0.2"/></g><g transform="translate(-6,2) scale(1,1)"><rect fill="#ffffff" stroke="none" x="136" y="560" width="131.86083984375" height="48"/></g><g transform="translate(-6,2) scale(1,1)"><path fill="none" stroke="#000000" d="M 136 560 L 267.86083984375 560 L 267.86083984375 608 L 136 608 L 136 560 Z Z" stroke-miterlimit="10"/></g><g transform="translate(-6,2) scale(1,1)"><path fill="#ffffff" stroke="none" d="M 241.86083984375 577 C 241.86083984375 572.0294368 245.89027664375 568 250.86083984375 568 C 255.83140304375 568 259.86083984375 572.0294368 259.86083984375 577 C 259.86083984375 581.9705632 255.83140304375 586 250.86083984375 586 C 245.89027664375 586 241.86083984375 581.9705632 241.86083984375 577 Z"/></g><g transform="translate(-6,2) scale(1,1)"><path fill="none" stroke="#000000" d="M 241.86083984375 577 C 241.86083984375 572.0294368 245.89027664375 568 250.86083984375 568 C 255.83140304375 568 259.86083984375 572.0294368 259.86083984375 577 C 259.86083984375 581.9705632 255.83140304375 586 250.86083984375 586 C 245.89027664375 586 241.86083984375 581.9705632 241.86083984375 577 Z" stroke-miterlimit="10"/></g><g transform="translate(-6,2) scale(1,1)"><g><path fill="none" stroke="none"/><text fill="#000000" stroke="none" font-family="Arial" font-size="13px" font-style="normal" font-weight="bold" text-decoration="none" x="147.661376953125" y="579.5">OrderManager</text></g></g><g transform="translate(-6,2) scale(1,1)"><rect fill="#C0C0C0" stroke="none" x="287" y="567" width="89.9072265625" height="44" opacity="0.2"/></g><g transform="translate(-6,2) scale(1,1)"><rect fill="#ffffff" stroke="none" x="280" y="560" width="89.9072265625" height="44"/></g><g transform="translate(-6,2) scale(1,1)"><path fill="none" stroke="#000000" d="M 280 560 L 369.9072265625 560 L 369.9072265625 604 L 280 604 L 280 560 Z Z" stroke-miterlimit="10"/></g><g transform="translate(-6,2) scale(1,1)"><g><path fill="none" stroke="none"/><text fill="#000000" stroke="none" font-family="Arial" font-size="13px" font-style="normal" font-weight="bold" text-decoration="none" x="287.74365234375" y="579.5">UserAccount</text></g></g><g transform="translate(-6,2) scale(1,1)"><rect fill="#C0C0C0" stroke="none" x="391" y="567" width="50.919921875" height="44" opacity="0.2"/></g><g transform="translate(-6,2) scale(1,1)"><rect fill="#ffffff" stroke="none" x="384" y="560" width="50.919921875" height="44"/></g><g transform="translate(-6,2) scale(1,1)"><path fill="none" stroke="#000000" d="M 384 560 L 434.919921875 560 L 434.919921875 604 L 384 604 L 384 560 Z Z" stroke-miterlimit="10"/></g><g transform="translate(-6,2) scale(1,1)"><g><path fill="none" stroke="none"/><text fill="#000000" stroke="none" font-family="Arial" font-size="13px" font-style="normal" font-weight="bold" text-decoration="none" x="392.844970703125" y="579.5">Order</text></g></g><g transform="translate(-6,2) scale(1,1)"><rect fill="#C0C0C0" stroke="none" x="447" y="567" width="61.7236328125" height="44" opacity="0.2"/></g><g transform="translate(-6,2) scale(1,1)"><rect fill="#ffffff" stroke="none" x="440" y="560" width="61.7236328125" height="44"/></g><g transform="translate(-6,2) scale(1,1)"><path fill="none" stroke="#000000" d="M 440 560 L 501.7236328125 560 L 501.7236328125 604 L 440 604 L 440 560 Z Z" stroke-miterlimit="10"/></g><g transform="translate(-6,2) scale(1,1)"><g><path fill="none" stroke="none"/><text fill="#000000" stroke="none" font-family="Arial" font-size="13px" font-style="normal" font-weight="bold" text-decoration="none" x="446.655029296875" y="579.5">Quantity</text></g></g><g transform="translate(-6,2) scale(1,1)"><rect fill="#C0C0C0" stroke="none" x="519" y="567" width="50.919921875" height="44" opacity="0.2"/></g><g transform="translate(-6,2) scale(1,1)"><rect fill="#ffffff" stroke="none" x="512" y="560" width="50.919921875" height="44"/></g><g transform="translate(-6,2) scale(1,1)"><path fill="none" stroke="#000000" d="M 512 560 L 562.919921875 560 L 562.919921875 604 L 512 604 L 512 560 Z Z" stroke-miterlimit="10"/></g><g transform="translate(-6,2) scale(1,1)"><g><path fill="none" stroke="none"/><text fill="#000000" stroke="none" font-family="Arial" font-size="13px" font-style="normal" font-weight="bold" text-decoration="none" x="525.180419921875" y="579.5">Cart</text></g></g><g transform="translate(-6,2) scale(1,1)"><rect fill="#C0C0C0" stroke="none" x="575" y="567" width="50.919921875" height="44" opacity="0.2"/></g><g transform="translate(-6,2) scale(1,1)"><rect fill="#ffffff" stroke="none" x="568" y="560" width="50.919921875" height="44"/></g><g transform="translate(-6,2) scale(1,1)"><path fill="none" stroke="#000000" d="M 568 560 L 618.919921875 560 L 618.919921875 604 L 568 604 L 568 560 Z Z" stroke-miterlimit="10"/></g><g transform="translate(-6,2) scale(1,1)"><g><path fill="none" stroke="none"/><text fill="#000000" stroke="none" font-family="Arial" font-size="13px" font-style="normal" font-weight="bold" text-decoration="none" x="578.285888671875" y="579.5">Cash</text></g></g><g transform="translate(-6,2) scale(1,1)"><rect fill="#C0C0C0" stroke="none" x="631" y="567" width="58.11181640625" height="44" opacity="0.2"/></g><g transform="translate(-6,2) scale(1,1)"><rect fill="#ffffff" stroke="none" x="624" y="560" width="58.11181640625" height="44"/></g><g transform="translate(-6,2) scale(1,1)"><path fill="none" stroke="#000000" d="M 624 560 L 682.11181640625 560 L 682.11181640625 604 L 624 604 L 624 560 Z Z" stroke-miterlimit="10"/></g><g transform="translate(-6,2) scale(1,1)"><g><path fill="none" stroke="none"/><text fill="#000000" stroke="none" font-family="Arial" font-size="13px" font-style="normal" font-weight="bold" text-decoration="none" x="630.655029296875" y="579.5">Product</text></g></g><g transform="translate(-6,2) scale(1,1)"><rect fill="#C0C0C0" stroke="none" x="695" y="567" width="95.72802734375" height="47" opacity="0.2"/></g><g transform="translate(-6,2) scale(1,1)"><rect fill="#ffffff" stroke="none" x="688" y="560" width="95.72802734375" height="47"/></g><g transform="translate(-6,2) scale(1,1)"><path fill="none" stroke="#000000" d="M 688 560 L 783.72802734375 560 L 783.72802734375 607 L 688 607 L 688 560 Z Z" stroke-miterlimit="10"/></g><g transform="translate(-6,2) scale(1,1)"><path fill="none" stroke="#000000" d="M 688 598 L 783.72802734375 598" stroke-miterlimit="10"/></g><g transform="translate(-6,2) scale(1,1)"><g><path fill="none" stroke="none"/><text fill="#000000" stroke="none" font-family="Arial" font-size="13px" font-style="normal" font-weight="normal" text-decoration="none" x="692.5" y="577.5">«enumeration»</text></g></g><g transform="translate(-6,2) scale(1,1)"><g><path fill="none" stroke="none"/><text fill="#000000" stroke="none" font-family="Arial" font-size="13px" font-style="normal" font-weight="bold" text-decoration="none" x="700.82177734375" y="592.5">OrderStatus</text></g></g><g transform="translate(-6,2) scale(1,1)"><rect fill="#C0C0C0" stroke="none" x="47" y="119" width="114.1298828125" height="220" opacity="0.2"/></g><g transform="translate(-6,2) scale(1,1)"><rect fill="#ffffff" stroke="none" x="40" y="112" width="114.1298828125" height="220"/></g><g transform="translate(-6,2) scale(1,1)"><path fill="none" stroke="#000000" d="M 40 112 L 154.1298828125 112 L 154.1298828125 332 L 40 332 L 40 112 Z Z" stroke-miterlimit="10"/></g><g transform="translate(-6,2) scale(1,1)"><path fill="none" stroke="#000000" d="M 40 137 L 154.1298828125 137" stroke-miterlimit="10"/></g><g transform="translate(-6,2) scale(1,1)"><path fill="none" stroke="#000000" d="M 40 190 L 154.1298828125 190" stroke-miterlimit="10"/></g><g transform="translate(-6,2) scale(1,1)"><g><path fill="none" stroke="none"/><text fill="#000000" stroke="none" font-family="Arial" font-size="13px" font-style="normal" font-weight="bold" text-decoration="none" x="77.199951171875" y="131.5">Orders</text></g></g><g transform="translate(-6,2) scale(1,1)"><g><path fill="none" stroke="none"/><text fill="#000000" stroke="none" font-family="Arial" font-size="13px" font-style="normal" font-weight="normal" text-decoration="none" x="45" y="154.5">-date</text></g></g><g transform="translate(-6,2) scale(1,1)"><g><path fill="none" stroke="none"/><text fill="#000000" stroke="none" font-family="Arial" font-size="13px" font-style="normal" font-weight="normal" text-decoration="none" x="45" y="169.5">-adress</text></g></g><g transform="translate(-6,2) scale(1,1)"><g><path fill="none" stroke="none"/><text fill="#000000" stroke="none" font-family="Arial" font-size="13px" font-style="normal" font-weight="normal" text-decoration="none" x="45" y="184.5">-paymentmethod</text></g></g><g transform="translate(-6,2) scale(1,1)"><g><path fill="none" stroke="none"/><text fill="#000000" stroke="none" font-family="Arial" font-size="13px" font-style="normal" font-weight="normal" text-decoration="none" x="45" y="207.5">+setStatus()</text></g></g><g transform="translate(-6,2) scale(1,1)"><g><path fill="none" stroke="none"/><text fill="#000000" stroke="none" font-family="Arial" font-size="13px" font-style="normal" font-weight="normal" text-decoration="none" x="45" y="222.5">+getStatus()</text></g></g><g transform="translate(-6,2) scale(1,1)"><g><path fill="none" stroke="none"/><text fill="#000000" stroke="none" font-family="Arial" font-size="13px" font-style="normal" font-weight="normal" text-decoration="none" x="45" y="237.5">+getDate()</text></g></g><g transform="translate(-6,2) scale(1,1)"><g><path fill="none" stroke="none"/><text fill="#000000" stroke="none" font-family="Arial" font-size="13px" font-style="normal" font-weight="normal" text-decoration="none" x="45" y="252.5">+getAdress()</text></g></g><g transform="translate(-6,2) scale(1,1)"><g><path fill="none" stroke="none"/><text fill="#000000" stroke="none" font-family="Arial" font-size="13px" font-style="normal" font-weight="normal" text-decoration="none" x="45" y="267.5">+buy()</text></g></g><g transform="translate(-6,2) scale(1,1)"><g><path fill="none" stroke="none"/><text fill="#000000" stroke="none" font-family="Arial" font-size="13px" font-style="normal" font-weight="normal" text-decoration="none" x="45" y="282.5">+createBill()</text></g></g><g transform="translate(-6,2) scale(1,1)"><g><path fill="none" stroke="none"/><text fill="#000000" stroke="none" font-family="Arial" font-size="13px" font-style="normal" font-weight="normal" text-decoration="none" x="45" y="297.5">+getById()</text></g></g><g transform="translate(-6,2) scale(1,1)"><g><path fill="none" stroke="none"/><text fill="#000000" stroke="none" font-family="Arial" font-size="13px" font-style="normal" font-weight="normal" text-decoration="none" x="45" y="312.5">+findByCategory()</text></g></g><g transform="translate(-6,2) scale(1,1)"><g><path fill="none" stroke="none"/><text fill="#000000" stroke="none" font-family="Arial" font-size="13px" font-style="normal" font-weight="normal" text-decoration="none" x="45" y="327.5">+addEmployee()</text></g></g><g transform="translate(-6,2) scale(1,1)"><path fill="none" stroke="#000000" d="M 268 244 L 268 320 L 154 320" stroke-miterlimit="10"/></g><g transform="translate(-6,2) scale(1,1)"><path fill="none" stroke="#000000" d="M 164.16267485762415 315.790482243984 L 154 320 L 164.16267485762415 324.209517756016" stroke-miterlimit="10"/></g><g transform="translate(-6,2) scale(1,1)"><g><path fill="none" stroke="none"/><text fill="#000000" stroke="none" font-family="Arial" font-size="13px" font-style="normal" font-weight="normal" text-decoration="none" x="224.13134765625" y="315.5">-orderManager</text></g></g><g transform="translate(-6,2) scale(1,1)"><path fill="none" stroke="#000000" d="M 155 289 L 389 559" stroke-miterlimit="10" stroke-dasharray="3"/></g><g transform="translate(-6,2) scale(1,1)"><path fill="none" stroke="#000000" d="M 379.16306727169956 554.0771192885779 L 389 559 L 385.5252404957619 548.5632358277238" stroke-miterlimit="10"/></g></g></svg>