<svg version="1.1" xmlns="http://www.w3.org/2000/svg" xmlns:xlink="http://www.w3.org/1999/xlink" width="892" height="804"><defs/><g><g transform="translate(-126,-150) scale(1,1)"><path fill="none" stroke="#000000" d="M 136 160 L 1008 160 L 1008 944 L 136 944 L 136 160" stroke-miterlimit="10"/></g><g transform="translate(-126,-150) scale(1,1)"><path fill="#ffffff" stroke="none" d="M 136 160 L 136 182 L 208.3671875 182 L 219.3671875 171 L 219.3671875 160 L 136 160"/></g><g transform="translate(-126,-150) scale(1,1)"><path fill="none" stroke="#000000" d="M 136 160 L 136 182 L 208.3671875 182 L 219.3671875 171 L 219.3671875 160 L 136 160 L 136 160" stroke-miterlimit="10"/></g><g transform="translate(-126,-150) scale(1,1)"><g><path fill="none" stroke="none"/><text fill="#000000" stroke="none" font-family="Arial" font-size="13px" font-style="normal" font-weight="normal" text-decoration="none" x="167.9599609375" y="177.5">Model</text></g></g><g transform="translate(-126,-150) scale(1,1)"><g><path fill="none" stroke="none"/><text fill="#000000" stroke="none" font-family="Arial" font-size="13px" font-style="normal" font-weight="bold" text-decoration="none" x="141" y="177.5">pkg</text></g></g><g transform="translate(-126,-150) scale(1,1)"><rect fill="#C0C0C0" stroke="none" x="159" y="239" width="144" height="15" opacity="0.2"/></g><g transform="translate(-126,-150) scale(1,1)"><rect fill="#C0C0C0" stroke="none" x="159" y="253" width="360" height="290" opacity="0.2"/></g><g transform="translate(-126,-150) scale(1,1)"><rect fill="#ffffff" stroke="none" x="152" y="247" width="360" height="289"/></g><g transform="translate(-126,-150) scale(1,1)"><path fill="none" stroke="#000000" d="M 152 247 L 512 247 L 512 536 L 152 536 L 152 247 Z Z" stroke-miterlimit="10"/></g><g transform="translate(-126,-150) scale(1,1)"><rect fill="#ffffff" stroke="none" x="152" y="232" width="144" height="15"/></g><g transform="translate(-126,-150) scale(1,1)"><path fill="none" stroke="#000000" d="M 152 232 L 296 232 L 296 247 L 152 247 L 152 232 Z Z" stroke-miterlimit="10"/></g><g transform="translate(-126,-150) scale(1,1)"><rect fill="#ffffff" stroke="none" x="152" y="246" width="360" height="290"/></g><g transform="translate(-126,-150) scale(1,1)"><path fill="none" stroke="#000000" d="M 152 246 L 512 246 L 512 536 L 152 536 L 152 246 Z Z" stroke-miterlimit="10"/></g><g transform="translate(-126,-150) scale(1,1)"><g><path fill="none" stroke="none"/><text fill="#000000" stroke="none" font-family="Arial" font-size="13px" font-style="normal" font-weight="bold" text-decoration="none" x="295.155029296875" y="266.5">mampf.order</text></g></g><g transform="translate(-126,-150) scale(1,1)"><rect fill="#C0C0C0" stroke="none" x="175" y="279" width="114.1298828125" height="220" opacity="0.2"/></g><g transform="translate(-126,-150) scale(1,1)"><rect fill="#ffffff" stroke="none" x="168" y="272" width="114.1298828125" height="220"/></g><g transform="translate(-126,-150) scale(1,1)"><path fill="none" stroke="#000000" d="M 168 272 L 282.1298828125 272 L 282.1298828125 492 L 168 492 L 168 272 Z Z" stroke-miterlimit="10"/></g><g transform="translate(-126,-150) scale(1,1)"><path fill="none" stroke="#000000" d="M 168 297 L 282.1298828125 297" stroke-miterlimit="10"/></g><g transform="translate(-126,-150) scale(1,1)"><path fill="none" stroke="#000000" d="M 168 350 L 282.1298828125 350" stroke-miterlimit="10"/></g><g transform="translate(-126,-150) scale(1,1)"><g><path fill="none" stroke="none"/><text fill="#000000" stroke="none" font-family="Arial" font-size="13px" font-style="normal" font-weight="bold" text-decoration="none" x="205.199951171875" y="291.5">Orders</text></g></g><g transform="translate(-126,-150) scale(1,1)"><g><path fill="none" stroke="none"/><text fill="#000000" stroke="none" font-family="Arial" font-size="13px" font-style="normal" font-weight="normal" text-decoration="none" x="173" y="314.5">-date</text></g></g><g transform="translate(-126,-150) scale(1,1)"><g><path fill="none" stroke="none"/><text fill="#000000" stroke="none" font-family="Arial" font-size="13px" font-style="normal" font-weight="normal" text-decoration="none" x="173" y="329.5">-adress</text></g></g><g transform="translate(-126,-150) scale(1,1)"><g><path fill="none" stroke="none"/><text fill="#000000" stroke="none" font-family="Arial" font-size="13px" font-style="normal" font-weight="normal" text-decoration="none" x="173" y="344.5">-paymentmethod</text></g></g><g transform="translate(-126,-150) scale(1,1)"><g><path fill="none" stroke="none"/><text fill="#000000" stroke="none" font-family="Arial" font-size="13px" font-style="normal" font-weight="normal" text-decoration="none" x="173" y="367.5">+setStatus()</text></g></g><g transform="translate(-126,-150) scale(1,1)"><g><path fill="none" stroke="none"/><text fill="#000000" stroke="none" font-family="Arial" font-size="13px" font-style="normal" font-weight="normal" text-decoration="none" x="173" y="382.5">+getStatus()</text></g></g><g transform="translate(-126,-150) scale(1,1)"><g><path fill="none" stroke="none"/><text fill="#000000" stroke="none" font-family="Arial" font-size="13px" font-style="normal" font-weight="normal" text-decoration="none" x="173" y="397.5">+getDate()</text></g></g><g transform="translate(-126,-150) scale(1,1)"><g><path fill="none" stroke="none"/><text fill="#000000" stroke="none" font-family="Arial" font-size="13px" font-style="normal" font-weight="normal" text-decoration="none" x="173" y="412.5">+getAdress()</text></g></g><g transform="translate(-126,-150) scale(1,1)"><g><path fill="none" stroke="none"/><text fill="#000000" stroke="none" font-family="Arial" font-size="13px" font-style="normal" font-weight="normal" text-decoration="none" x="173" y="427.5">+buy()</text></g></g><g transform="translate(-126,-150) scale(1,1)"><g><path fill="none" stroke="none"/><text fill="#000000" stroke="none" font-family="Arial" font-size="13px" font-style="normal" font-weight="normal" text-decoration="none" x="173" y="442.5">+createBill()</text></g></g><g transform="translate(-126,-150) scale(1,1)"><g><path fill="none" stroke="none"/><text fill="#000000" stroke="none" font-family="Arial" font-size="13px" font-style="normal" font-weight="normal" text-decoration="none" x="173" y="457.5">+getById()</text></g></g><g transform="translate(-126,-150) scale(1,1)"><g><path fill="none" stroke="none"/><text fill="#000000" stroke="none" font-family="Arial" font-size="13px" font-style="normal" font-weight="normal" text-decoration="none" x="173" y="472.5">+findByCategory()</text></g></g><g transform="translate(-126,-150) scale(1,1)"><g><path fill="none" stroke="none"/><text fill="#000000" stroke="none" font-family="Arial" font-size="13px" font-style="normal" font-weight="normal" text-decoration="none" x="173" y="487.5">+addEmployee()</text></g></g><g transform="translate(-126,-150) scale(1,1)"><rect fill="#C0C0C0" stroke="none" x="327" y="303" width="156.03076171875" height="132" opacity="0.2"/></g><g transform="translate(-126,-150) scale(1,1)"><rect fill="#ffffff" stroke="none" x="320" y="296" width="156.03076171875" height="132"/></g><g transform="translate(-126,-150) scale(1,1)"><path fill="none" stroke="#000000" d="M 320 296 L 476.03076171875 296 L 476.03076171875 428 L 320 428 L 320 296 Z Z" stroke-miterlimit="10"/></g><g transform="translate(-126,-150) scale(1,1)"><path fill="none" stroke="#000000" d="M 320 321 L 476.03076171875 321" stroke-miterlimit="10"/></g><g transform="translate(-126,-150) scale(1,1)"><path fill="none" stroke="#000000" d="M 320 331 L 476.03076171875 331" stroke-miterlimit="10"/></g><g transform="translate(-126,-150) scale(1,1)"><g><path fill="none" stroke="none"/><text fill="#000000" stroke="none" font-family="Arial" font-size="13px" font-style="normal" font-weight="bold" text-decoration="none" x="355.746337890625" y="315.5">OrderManager</text></g></g><g transform="translate(-126,-150) scale(1,1)"><g><path fill="none" stroke="none"/><text fill="#000000" stroke="none" font-family="Arial" font-size="13px" font-style="normal" font-weight="normal" text-decoration="none" x="325" y="348.5">+OrderManager()</text></g></g><g transform="translate(-126,-150) scale(1,1)"><g><path fill="none" stroke="none"/><text fill="#000000" stroke="none" font-family="Arial" font-size="13px" font-style="normal" font-weight="normal" text-decoration="none" x="325" y="363.5">+addOrder()</text></g></g><g transform="translate(-126,-150) scale(1,1)"><g><path fill="none" stroke="none"/><text fill="#000000" stroke="none" font-family="Arial" font-size="13px" font-style="normal" font-weight="normal" text-decoration="none" x="325" y="378.5">+validateOrder()</text></g></g><g transform="translate(-126,-150) scale(1,1)"><g><path fill="none" stroke="none"/><text fill="#000000" stroke="none" font-family="Arial" font-size="13px" font-style="normal" font-weight="normal" text-decoration="none" x="325" y="393.5">+viewOrders()</text></g></g><g transform="translate(-126,-150) scale(1,1)"><g><path fill="none" stroke="none"/><text fill="#000000" stroke="none" font-family="Arial" font-size="13px" font-style="normal" font-weight="normal" text-decoration="none" x="325" y="408.5">+findByUserAccount()</text></g></g><g transform="translate(-126,-150) scale(1,1)"><g><path fill="none" stroke="none"/><text fill="#000000" stroke="none" font-family="Arial" font-size="13px" font-style="normal" font-weight="normal" text-decoration="none" x="325" y="423.5">+getOrdersByEmployee()</text></g></g><g transform="translate(-126,-150) scale(1,1)"><path fill="none" stroke="#000000" d="M 344 428 L 344 464 L 282 464" stroke-miterlimit="10"/></g><g transform="translate(-126,-150) scale(1,1)"><path fill="none" stroke="#000000" d="M 292.16267485762415 459.790482243984 L 282 464 L 292.16267485762415 468.209517756016" stroke-miterlimit="10"/></g><g transform="translate(-126,-150) scale(1,1)"><g><path fill="none" stroke="none"/><text fill="#000000" stroke="none" font-family="Arial" font-size="13px" font-style="normal" font-weight="normal" text-decoration="none" x="289.13134765625" y="484.5">-orderManager</text></g></g><g transform="translate(-126,-150) scale(1,1)"><rect fill="#C0C0C0" stroke="none" x="263" y="639" width="291.20000000000005" height="15" opacity="0.2"/></g><g transform="translate(-126,-150) scale(1,1)"><rect fill="#C0C0C0" stroke="none" x="263" y="653" width="728" height="154" opacity="0.2"/></g><g transform="translate(-126,-150) scale(1,1)"><rect fill="#ffffff" stroke="none" x="256" y="647" width="728" height="153"/></g><g transform="translate(-126,-150) scale(1,1)"><path fill="none" stroke="#000000" d="M 256 647 L 984 647 L 984 800 L 256 800 L 256 647 Z Z" stroke-miterlimit="10"/></g><g transform="translate(-126,-150) scale(1,1)"><rect fill="#ffffff" stroke="none" x="256" y="632" width="291.20000000000005" height="15"/></g><g transform="translate(-126,-150) scale(1,1)"><path fill="none" stroke="#000000" d="M 256 632 L 547.2 632 L 547.2 647 L 256 647 L 256 632 Z Z" stroke-miterlimit="10"/></g><g transform="translate(-126,-150) scale(1,1)"><rect fill="#ffffff" stroke="none" x="256" y="646" width="728" height="154"/></g><g transform="translate(-126,-150) scale(1,1)"><path fill="none" stroke="#000000" d="M 256 646 L 984 646 L 984 800 L 256 800 L 256 646 Z Z" stroke-miterlimit="10"/></g><g transform="translate(-126,-150) scale(1,1)"><g><path fill="none" stroke="none"/><text fill="#000000" stroke="none" font-family="Arial" font-size="13px" font-style="normal" font-weight="bold" text-decoration="none" x="589.6455078125" y="666.5">Salespoint</text></g></g><g transform="translate(-126,-150) scale(1,1)"><rect fill="#C0C0C0" stroke="none" x="287" y="711" width="131.86083984375" height="48" opacity="0.2"/></g><g transform="translate(-126,-150) scale(1,1)"><rect fill="#ffffff" stroke="none" x="280" y="704" width="131.86083984375" height="48"/></g><g transform="translate(-126,-150) scale(1,1)"><path fill="none" stroke="#000000" d="M 280 704 L 411.86083984375 704 L 411.86083984375 752 L 280 752 L 280 704 Z Z" stroke-miterlimit="10"/></g><g transform="translate(-126,-150) scale(1,1)"><path fill="#ffffff" stroke="none" d="M 385.86083984375 721 C 385.86083984375 716.0294368 389.89027664375 712 394.86083984375 712 C 399.83140304375 712 403.86083984375 716.0294368 403.86083984375 721 C 403.86083984375 725.9705632 399.83140304375 730 394.86083984375 730 C 389.89027664375 730 385.86083984375 725.9705632 385.86083984375 721 Z"/></g><g transform="translate(-126,-150) scale(1,1)"><path fill="none" stroke="#000000" d="M 385.86083984375 721 C 385.86083984375 716.0294368 389.89027664375 712 394.86083984375 712 C 399.83140304375 712 403.86083984375 716.0294368 403.86083984375 721 C 403.86083984375 725.9705632 399.83140304375 730 394.86083984375 730 C 389.89027664375 730 385.86083984375 725.9705632 385.86083984375 721 Z" stroke-miterlimit="10"/></g><g transform="translate(-126,-150) scale(1,1)"><g><path fill="none" stroke="none"/><text fill="#000000" stroke="none" font-family="Arial" font-size="13px" font-style="normal" font-weight="bold" text-decoration="none" x="291.661376953125" y="723.5">OrderManager</text></g></g><g transform="translate(-126,-150) scale(1,1)"><rect fill="#C0C0C0" stroke="none" x="431" y="711" width="89.9072265625" height="44" opacity="0.2"/></g><g transform="translate(-126,-150) scale(1,1)"><rect fill="#ffffff" stroke="none" x="424" y="704" width="89.9072265625" height="44"/></g><g transform="translate(-126,-150) scale(1,1)"><path fill="none" stroke="#000000" d="M 424 704 L 513.9072265625 704 L 513.9072265625 748 L 424 748 L 424 704 Z Z" stroke-miterlimit="10"/></g><g transform="translate(-126,-150) scale(1,1)"><g><path fill="none" stroke="none"/><text fill="#000000" stroke="none" font-family="Arial" font-size="13px" font-style="normal" font-weight="bold" text-decoration="none" x="431.74365234375" y="723.5">UserAccount</text></g></g><g transform="translate(-126,-150) scale(1,1)"><rect fill="#C0C0C0" stroke="none" x="527" y="711" width="50.919921875" height="44" opacity="0.2"/></g><g transform="translate(-126,-150) scale(1,1)"><rect fill="#ffffff" stroke="none" x="520" y="704" width="50.919921875" height="44"/></g><g transform="translate(-126,-150) scale(1,1)"><path fill="none" stroke="#000000" d="M 520 704 L 570.919921875 704 L 570.919921875 748 L 520 748 L 520 704 Z Z" stroke-miterlimit="10"/></g><g transform="translate(-126,-150) scale(1,1)"><g><path fill="none" stroke="none"/><text fill="#000000" stroke="none" font-family="Arial" font-size="13px" font-style="normal" font-weight="bold" text-decoration="none" x="528.844970703125" y="723.5">Order</text></g></g><g transform="translate(-126,-150) scale(1,1)"><rect fill="#C0C0C0" stroke="none" x="591" y="711" width="61.7236328125" height="44" opacity="0.2"/></g><g transform="translate(-126,-150) scale(1,1)"><rect fill="#ffffff" stroke="none" x="584" y="704" width="61.7236328125" height="44"/></g><g transform="translate(-126,-150) scale(1,1)"><path fill="none" stroke="#000000" d="M 584 704 L 645.7236328125 704 L 645.7236328125 748 L 584 748 L 584 704 Z Z" stroke-miterlimit="10"/></g><g transform="translate(-126,-150) scale(1,1)"><g><path fill="none" stroke="none"/><text fill="#000000" stroke="none" font-family="Arial" font-size="13px" font-style="normal" font-weight="bold" text-decoration="none" x="590.655029296875" y="723.5">Quantity</text></g></g><g transform="translate(-126,-150) scale(1,1)"><rect fill="#C0C0C0" stroke="none" x="655" y="711" width="50.919921875" height="44" opacity="0.2"/></g><g transform="translate(-126,-150) scale(1,1)"><rect fill="#ffffff" stroke="none" x="648" y="704" width="50.919921875" height="44"/></g><g transform="translate(-126,-150) scale(1,1)"><path fill="none" stroke="#000000" d="M 648 704 L 698.919921875 704 L 698.919921875 748 L 648 748 L 648 704 Z Z" stroke-miterlimit="10"/></g><g transform="translate(-126,-150) scale(1,1)"><g><path fill="none" stroke="none"/><text fill="#000000" stroke="none" font-family="Arial" font-size="13px" font-style="normal" font-weight="bold" text-decoration="none" x="661.180419921875" y="723.5">Cart</text></g></g><g transform="translate(-126,-150) scale(1,1)"><rect fill="#C0C0C0" stroke="none" x="719" y="711" width="50.919921875" height="44" opacity="0.2"/></g><g transform="translate(-126,-150) scale(1,1)"><rect fill="#ffffff" stroke="none" x="712" y="704" width="50.919921875" height="44"/></g><g transform="translate(-126,-150) scale(1,1)"><path fill="none" stroke="#000000" d="M 712 704 L 762.919921875 704 L 762.919921875 748 L 712 748 L 712 704 Z Z" stroke-miterlimit="10"/></g><g transform="translate(-126,-150) scale(1,1)"><g><path fill="none" stroke="none"/><text fill="#000000" stroke="none" font-family="Arial" font-size="13px" font-style="normal" font-weight="bold" text-decoration="none" x="722.285888671875" y="723.5">Cash</text></g></g><g transform="translate(-126,-150) scale(1,1)"><rect fill="#C0C0C0" stroke="none" x="783" y="711" width="58.11181640625" height="44" opacity="0.2"/></g><g transform="translate(-126,-150) scale(1,1)"><rect fill="#ffffff" stroke="none" x="776" y="704" width="58.11181640625" height="44"/></g><g transform="translate(-126,-150) scale(1,1)"><path fill="none" stroke="#000000" d="M 776 704 L 834.11181640625 704 L 834.11181640625 748 L 776 748 L 776 704 Z Z" stroke-miterlimit="10"/></g><g transform="translate(-126,-150) scale(1,1)"><g><path fill="none" stroke="none"/><text fill="#000000" stroke="none" font-family="Arial" font-size="13px" font-style="normal" font-weight="bold" text-decoration="none" x="782.655029296875" y="723.5">Product</text></g></g><g transform="translate(-126,-150) scale(1,1)"><rect fill="#C0C0C0" stroke="none" x="863" y="711" width="95.72802734375" height="57" opacity="0.2"/></g><g transform="translate(-126,-150) scale(1,1)"><rect fill="#ffffff" stroke="none" x="856" y="704" width="95.72802734375" height="57"/></g><g transform="translate(-126,-150) scale(1,1)"><path fill="none" stroke="#000000" d="M 856 704 L 951.72802734375 704 L 951.72802734375 761 L 856 761 L 856 704 Z Z" stroke-miterlimit="10"/></g><g transform="translate(-126,-150) scale(1,1)"><path fill="none" stroke="#000000" d="M 856 742 L 951.72802734375 742" stroke-miterlimit="10"/></g><g transform="translate(-126,-150) scale(1,1)"><g><path fill="none" stroke="none"/><text fill="#000000" stroke="none" font-family="Arial" font-size="13px" font-style="normal" font-weight="normal" text-decoration="none" x="860.5" y="721.5">«enumeration»</text></g></g><g transform="translate(-126,-150) scale(1,1)"><g><path fill="none" stroke="none"/><text fill="#000000" stroke="none" font-family="Arial" font-size="13px" font-style="normal" font-weight="bold" text-decoration="none" x="868.82177734375" y="736.5">OrderStatus</text></g></g><g transform="translate(-126,-150) scale(1,1)"><rect fill="#C0C0C0" stroke="none" x="703" y="303" width="54.39999999999998" height="15" opacity="0.2"/></g><g transform="translate(-126,-150) scale(1,1)"><rect fill="#C0C0C0" stroke="none" x="703" y="317" width="136" height="218" opacity="0.2"/></g><g transform="translate(-126,-150) scale(1,1)"><rect fill="#ffffff" stroke="none" x="696" y="311" width="136" height="217"/></g><g transform="translate(-126,-150) scale(1,1)"><path fill="none" stroke="#000000" d="M 696 311 L 832 311 L 832 528 L 696 528 L 696 311 Z Z" stroke-miterlimit="10"/></g><g transform="translate(-126,-150) scale(1,1)"><rect fill="#ffffff" stroke="none" x="696" y="296" width="54.39999999999998" height="15"/></g><g transform="translate(-126,-150) scale(1,1)"><path fill="none" stroke="#000000" d="M 696 296 L 750.4 296 L 750.4 311 L 696 311 L 696 296 Z Z" stroke-miterlimit="10"/></g><g transform="translate(-126,-150) scale(1,1)"><rect fill="#ffffff" stroke="none" x="696" y="310" width="136" height="218"/></g><g transform="translate(-126,-150) scale(1,1)"><path fill="none" stroke="#000000" d="M 696 310 L 832 310 L 832 528 L 696 528 L 696 310 Z Z" stroke-miterlimit="10"/></g><g transform="translate(-126,-150) scale(1,1)"><g><path fill="none" stroke="none"/><text fill="#000000" stroke="none" font-family="Arial" font-size="13px" font-style="normal" font-weight="bold" text-decoration="none" x="745.2109375" y="330.5">Spring</text></g></g><g transform="translate(-126,-150) scale(1,1)"><rect fill="#C0C0C0" stroke="none" x="719" y="367" width="50.919921875" height="44" opacity="0.2"/></g><g transform="translate(-126,-150) scale(1,1)"><rect fill="#ffffff" stroke="none" x="712" y="360" width="50.919921875" height="44"/></g><g transform="translate(-126,-150) scale(1,1)"><path fill="none" stroke="#000000" d="M 712 360 L 762.919921875 360 L 762.919921875 404 L 712 404 L 712 360 Z Z" stroke-miterlimit="10"/></g><g transform="translate(-126,-150) scale(1,1)"><g><path fill="none" stroke="none"/><text fill="#000000" stroke="none" font-family="Arial" font-size="13px" font-style="normal" font-weight="bold" text-decoration="none" x="719.0390625" y="379.5">Assert</text></g></g><g transform="translate(-126,-150) scale(1,1)"><rect fill="#C0C0C0" stroke="none" x="743" y="439" width="80.552734375" height="48" opacity="0.2"/></g><g transform="translate(-126,-150) scale(1,1)"><rect fill="#ffffff" stroke="none" x="736" y="432" width="80.552734375" height="48"/></g><g transform="translate(-126,-150) scale(1,1)"><path fill="none" stroke="#000000" d="M 736 432 L 816.552734375 432 L 816.552734375 480 L 736 480 L 736 432 Z Z" stroke-miterlimit="10"/></g><g transform="translate(-126,-150) scale(1,1)"><path fill="#ffffff" stroke="none" d="M 790.552734375 449 C 790.552734375 444.0294368 794.582171175 440 799.552734375 440 C 804.523297575 440 808.552734375 444.0294368 808.552734375 449 C 808.552734375 453.9705632 804.523297575 458 799.552734375 458 C 794.582171175 458 790.552734375 453.9705632 790.552734375 449 Z"/></g><g transform="translate(-126,-150) scale(1,1)"><path fill="none" stroke="#000000" d="M 790.552734375 449 C 790.552734375 444.0294368 794.582171175 440 799.552734375 440 C 804.523297575 440 808.552734375 444.0294368 808.552734375 449 C 808.552734375 453.9705632 804.523297575 458 799.552734375 458 C 794.582171175 458 790.552734375 453.9705632 790.552734375 449 Z" stroke-miterlimit="10"/></g><g transform="translate(-126,-150) scale(1,1)"><g><path fill="none" stroke="none"/><text fill="#000000" stroke="none" font-family="Arial" font-size="13px" font-style="normal" font-weight="bold" text-decoration="none" x="746.57275390625" y="451.5">Model</text></g></g><g transform="translate(-126,-150) scale(1,1)"><path fill="none" stroke="#000000" d="M 477 367 L 711 380" stroke-miterlimit="10" stroke-dasharray="3"/></g><g transform="translate(-126,-150) scale(1,1)"><path fill="none" stroke="#000000" d="M 700.6194700396172 383.6393128117264 L 711 380 L 701.0864741046723 375.2332396407341" stroke-miterlimit="10"/></g><g transform="translate(-126,-150) scale(1,1)"><path fill="none" stroke="#000000" d="M 477 382 L 735 446" stroke-miterlimit="10" stroke-dasharray="3"/></g><g transform="translate(-126,-150) scale(1,1)"><path fill="none" stroke="#000000" d="M 724.1227717143299 447.6388730339534 L 735 446 L 726.1497798828764 439.46749635450084" stroke-miterlimit="10"/></g><g transform="translate(-126,-150) scale(1,1)"><path fill="none" stroke="#000000" d="M 411 429 L 464 703" stroke-miterlimit="10" stroke-dasharray="3"/></g><g transform="translate(-126,-150) scale(1,1)"><path fill="none" stroke="#000000" d="M 457.9370909631051 693.8217030985951 L 464 703 L 466.20291188502125 692.2228399275675" stroke-miterlimit="10"/></g><g transform="translate(-126,-150) scale(1,1)"><path fill="none" stroke="#000000" d="M 425 429 L 536 703" stroke-miterlimit="10" stroke-dasharray="3"/></g><g transform="translate(-126,-150) scale(1,1)"><path fill="none" stroke="#000000" d="M 528.2826978347504 695.1614256850986 L 536 703 L 536.0857523593878 692.0003342535848" stroke-miterlimit="10"/></g><g transform="translate(-126,-150) scale(1,1)"><path fill="none" stroke="#000000" d="M 438 429 L 600 703" stroke-miterlimit="10" stroke-dasharray="3"/></g><g transform="translate(-126,-150) scale(1,1)"><path fill="none" stroke="#000000" d="M 591.2042394305981 696.3943512047827 L 600 703 L 598.4513571129177 692.1095589984478" stroke-miterlimit="10"/></g><g transform="translate(-126,-150) scale(1,1)"><path fill="none" stroke="#000000" d="M 449 429 L 656 703" stroke-miterlimit="10" stroke-dasharray="3"/></g><g transform="translate(-126,-150) scale(1,1)"><path fill="none" stroke="#000000" d="M 646.5152542974425 697.4286806806809 L 656 703 L 653.2327896667377 692.3537543250455" stroke-miterlimit="10"/></g><g transform="translate(-126,-150) scale(1,1)"><path fill="none" stroke="#000000" d="M 460 429 L 716 703" stroke-miterlimit="10" stroke-dasharray="3"/></g><g transform="translate(-126,-150) scale(1,1)"><path fill="none" stroke="#000000" d="M 705.9860634463677 698.4479592818357 L 716 703 L 712.137856416606 692.7002986965034" stroke-miterlimit="10"/></g><g transform="translate(-126,-150) scale(1,1)"><path fill="none" stroke="#000000" d="M 473 429 L 779 703" stroke-miterlimit="10" stroke-dasharray="3"/></g><g transform="translate(-126,-150) scale(1,1)"><path fill="none" stroke="#000000" d="M 768.6208609086304 699.3567223929538 L 779 703 L 774.2370266673017 693.0846540639267" stroke-miterlimit="10"/></g><g transform="translate(-126,-150) scale(1,1)"><path fill="none" stroke="#000000" d="M 477 420 L 863 703" stroke-miterlimit="10" stroke-dasharray="3"/></g><g transform="translate(-126,-150) scale(1,1)"><path fill="none" stroke="#000000" d="M 852.3151186981771 700.3859396399554 L 863 703 L 857.2930677823261 693.5962281682893" stroke-miterlimit="10"/></g><g transform="translate(-126,-150) scale(1,1)"><path fill="none" stroke="#000000" d="M 388 429 L 349 703" stroke-miterlimit="10"/></g><g transform="translate(-126,-150) scale(1,1)"><path fill="none" stroke="#000000" d="M 346.2645646547478 692.3455458388547 L 349 703 L 354.59959190506186 693.5319183306877" stroke-miterlimit="10"/></g><g transform="translate(-126,-150) scale(1,1)"><g><path fill="none" stroke="none"/><text fill="#000000" stroke="none" font-family="Arial" font-size="13px" font-style="normal" font-weight="normal" text-decoration="none" x="256.13134765625" y="691.5">-orderManager</text></g></g></g></svg>