<svg version="1.1" xmlns="http://www.w3.org/2000/svg" xmlns:xlink="http://www.w3.org/1999/xlink" width="900" height="724"><defs/><g><g transform="translate(-190,-286) scale(1,1)"><path fill="none" stroke="#000000" d="M 200 296 L 1080 296 L 1080 1000 L 200 1000 L 200 296" stroke-miterlimit="10"/></g><g transform="translate(-190,-286) scale(1,1)"><path fill="#ffffff" stroke="none" d="M 200 296 L 200 318 L 272.3671875 318 L 283.3671875 307 L 283.3671875 296 L 200 296"/></g><g transform="translate(-190,-286) scale(1,1)"><path fill="none" stroke="#000000" d="M 200 296 L 200 318 L 272.3671875 318 L 283.3671875 307 L 283.3671875 296 L 200 296 L 200 296" stroke-miterlimit="10"/></g><g transform="translate(-190,-286) scale(1,1)"><g><path fill="none" stroke="none"/><text fill="#000000" stroke="none" font-family="Arial" font-size="13px" font-style="normal" font-weight="normal" text-decoration="none" x="231.9599609375" y="313.5">Model</text></g></g><g transform="translate(-190,-286) scale(1,1)"><g><path fill="none" stroke="none"/><text fill="#000000" stroke="none" font-family="Arial" font-size="13px" font-style="normal" font-weight="bold" text-decoration="none" x="205" y="313.5">pkg</text></g></g><g transform="translate(-190,-286) scale(1,1)"><rect fill="#C0C0C0" stroke="none" x="236" y="841" width="196.39999999999998" height="15" opacity="0.2"/></g><g transform="translate(-190,-286) scale(1,1)"><rect fill="#C0C0C0" stroke="none" x="236" y="855" width="491" height="88" opacity="0.2"/></g><g transform="translate(-190,-286) scale(1,1)"><rect fill="#ffffff" stroke="none" x="229" y="849" width="491" height="87"/></g><g transform="translate(-190,-286) scale(1,1)"><path fill="none" stroke="#000000" d="M 229 849 L 720 849 L 720 936 L 229 936 L 229 849 Z Z" stroke-miterlimit="10"/></g><g transform="translate(-190,-286) scale(1,1)"><rect fill="#ffffff" stroke="none" x="229" y="834" width="196.39999999999998" height="15"/></g><g transform="translate(-190,-286) scale(1,1)"><path fill="none" stroke="#000000" d="M 229 834 L 425.4 834 L 425.4 849 L 229 849 L 229 834 Z Z" stroke-miterlimit="10"/></g><g transform="translate(-190,-286) scale(1,1)"><rect fill="#ffffff" stroke="none" x="229" y="848" width="491" height="88"/></g><g transform="translate(-190,-286) scale(1,1)"><path fill="none" stroke="#000000" d="M 229 848 L 720 848 L 720 936 L 229 936 L 229 848 Z Z" stroke-miterlimit="10"/></g><g transform="translate(-190,-286) scale(1,1)"><g><path fill="none" stroke="none"/><text fill="#000000" stroke="none" font-family="Arial" font-size="13px" font-style="normal" font-weight="bold" text-decoration="none" x="444.1455078125" y="868.5">Salespoint</text></g></g><g transform="translate(-190,-286) scale(1,1)"><rect fill="#C0C0C0" stroke="none" x="242" y="359" width="235.60000000000002" height="15" opacity="0.2"/></g><g transform="translate(-190,-286) scale(1,1)"><rect fill="#C0C0C0" stroke="none" x="242" y="373" width="589" height="370" opacity="0.2"/></g><g transform="translate(-190,-286) scale(1,1)"><rect fill="#ffffff" stroke="none" x="235" y="367" width="589" height="369"/></g><g transform="translate(-190,-286) scale(1,1)"><path fill="none" stroke="#000000" d="M 235 367 L 824 367 L 824 736 L 235 736 L 235 367 Z Z" stroke-miterlimit="10"/></g><g transform="translate(-190,-286) scale(1,1)"><rect fill="#ffffff" stroke="none" x="235" y="352" width="235.60000000000002" height="15"/></g><g transform="translate(-190,-286) scale(1,1)"><path fill="none" stroke="#000000" d="M 235 352 L 470.6 352 L 470.6 367 L 235 367 L 235 352 Z Z" stroke-miterlimit="10"/></g><g transform="translate(-190,-286) scale(1,1)"><rect fill="#ffffff" stroke="none" x="235" y="366" width="589" height="370"/></g><g transform="translate(-190,-286) scale(1,1)"><path fill="none" stroke="#000000" d="M 235 366 L 824 366 L 824 736 L 235 736 L 235 366 Z Z" stroke-miterlimit="10"/></g><g transform="translate(-190,-286) scale(1,1)"><g><path fill="none" stroke="none"/><text fill="#000000" stroke="none" font-family="Arial" font-size="13px" font-style="normal" font-weight="bold" text-decoration="none" x="492.655029296875" y="386.5">mampf.order</text></g></g><g transform="translate(-190,-286) scale(1,1)"><rect fill="#C0C0C0" stroke="none" x="586" y="392" width="234.0751953125" height="136" opacity="0.2"/></g><g transform="translate(-190,-286) scale(1,1)"><rect fill="#ffffff" stroke="none" x="579" y="385" width="234.0751953125" height="136"/></g><g transform="translate(-190,-286) scale(1,1)"><path fill="none" stroke="#000000" d="M 579 385 L 813.0751953125 385 L 813.0751953125 521 L 579 521 L 579 385 Z Z" stroke-miterlimit="10"/></g><g transform="translate(-190,-286) scale(1,1)"><path fill="none" stroke="#000000" d="M 579 410 L 813.0751953125 410" stroke-miterlimit="10"/></g><g transform="translate(-190,-286) scale(1,1)"><path fill="none" stroke="#000000" d="M 579 420 L 813.0751953125 420" stroke-miterlimit="10"/></g><g transform="translate(-190,-286) scale(1,1)"><g><path fill="none" stroke="none"/><text fill="#000000" stroke="none" font-family="Arial" font-size="13px" font-style="normal" font-weight="bold" text-decoration="none" x="659.5576171875" y="404.5">MampfOrder</text></g></g><g transform="translate(-190,-286) scale(1,1)"><g><path fill="none" stroke="none"/><text fill="#000000" stroke="none" font-family="Arial" font-size="13px" font-style="normal" font-weight="normal" text-decoration="none" x="584" y="439.5">+getById()</text></g></g><g transform="translate(-190,-286) scale(1,1)"><g><path fill="none" stroke="none"/><text fill="#000000" stroke="none" font-family="Arial" font-size="13px" font-style="normal" font-weight="normal" text-decoration="none" x="584" y="454.5">+findByCategory(Dpmain d): Iterable</text></g></g><g transform="translate(-190,-286) scale(1,1)"><g><path fill="none" stroke="none"/><text fill="#000000" stroke="none" font-family="Arial" font-size="13px" font-style="normal" font-weight="normal" text-decoration="none" x="584" y="469.5">+addEmployee(Item item, Employee e)</text></g></g><g transform="translate(-190,-286) scale(1,1)"><g><path fill="none" stroke="none"/><text fill="#000000" stroke="none" font-family="Arial" font-size="13px" font-style="normal" font-weight="normal" text-decoration="none" x="584" y="484.5">+getBill(): String</text></g></g><g transform="translate(-190,-286) scale(1,1)"><rect fill="#C0C0C0" stroke="none" x="258" y="392" width="285.3642578125" height="130" opacity="0.2"/></g><g transform="translate(-190,-286) scale(1,1)"><rect fill="#ffffff" stroke="none" x="251" y="385" width="285.3642578125" height="130"/></g><g transform="translate(-190,-286) scale(1,1)"><path fill="none" stroke="#000000" d="M 251 385 L 536.3642578125 385 L 536.3642578125 515 L 251 515 L 251 385 Z Z" stroke-miterlimit="10"/></g><g transform="translate(-190,-286) scale(1,1)"><path fill="none" stroke="#000000" d="M 251 410 L 536.3642578125 410" stroke-miterlimit="10"/></g><g transform="translate(-190,-286) scale(1,1)"><path fill="none" stroke="#000000" d="M 251 433 L 536.3642578125 433" stroke-miterlimit="10"/></g><g transform="translate(-190,-286) scale(1,1)"><g><path fill="none" stroke="none"/><text fill="#000000" stroke="none" font-family="Arial" font-size="13px" font-style="normal" font-weight="bold" text-decoration="none" x="348.889892578125" y="404.5">OrderController</text></g></g><g transform="translate(-190,-286) scale(1,1)"><g><path fill="none" stroke="none"/><text fill="#000000" stroke="none" font-family="Arial" font-size="13px" font-style="normal" font-weight="normal" text-decoration="none" x="256" y="427.5">-oM: MampfOrderManager</text></g></g><g transform="translate(-190,-286) scale(1,1)"><g><path fill="none" stroke="none"/><text fill="#000000" stroke="none" font-family="Arial" font-size="13px" font-style="normal" font-weight="normal" text-decoration="none" x="256" y="450.5">+OrderController(OrderManager oM)</text></g></g><g transform="translate(-190,-286) scale(1,1)"><g><path fill="none" stroke="none"/><text fill="#000000" stroke="none" font-family="Arial" font-size="13px" font-style="normal" font-weight="normal" text-decoration="none" x="256" y="465.5">+viewOrders(Model model): String</text></g></g><g transform="translate(-190,-286) scale(1,1)"><g><path fill="none" stroke="none"/><text fill="#000000" stroke="none" font-family="Arial" font-size="13px" font-style="normal" font-weight="normal" text-decoration="none" x="256" y="480.5">+detail(MampfOrder order, Model model): String</text></g></g><g transform="translate(-190,-286) scale(1,1)"><g><path fill="none" stroke="none"/><text fill="#000000" stroke="none" font-family="Arial" font-size="13px" font-style="normal" font-weight="normal" text-decoration="none" x="256" y="495.5">+printAll()</text></g></g><g transform="translate(-190,-286) scale(1,1)"><g><path fill="none" stroke="none"/><text fill="#000000" stroke="none" font-family="Arial" font-size="13px" font-style="normal" font-weight="normal" text-decoration="none" x="256" y="510.5">+print()</text></g></g><g transform="translate(-190,-286) scale(1,1)"><rect fill="#C0C0C0" stroke="none" x="263" y="567" width="263.69970703125" height="132" opacity="0.2"/></g><g transform="translate(-190,-286) scale(1,1)"><rect fill="#ffffff" stroke="none" x="256" y="560" width="263.69970703125" height="132"/></g><g transform="translate(-190,-286) scale(1,1)"><path fill="none" stroke="#000000" d="M 256 560 L 519.69970703125 560 L 519.69970703125 692 L 256 692 L 256 560 Z Z" stroke-miterlimit="10"/></g><g transform="translate(-190,-286) scale(1,1)"><path fill="none" stroke="#000000" d="M 256 585 L 519.69970703125 585" stroke-miterlimit="10"/></g><g transform="translate(-190,-286) scale(1,1)"><path fill="none" stroke="#000000" d="M 256 595 L 519.69970703125 595" stroke-miterlimit="10"/></g><g transform="translate(-190,-286) scale(1,1)"><g><path fill="none" stroke="none"/><text fill="#000000" stroke="none" font-family="Arial" font-size="13px" font-style="normal" font-weight="bold" text-decoration="none" x="325.7158203125" y="579.5">MampfOrderManager</text></g></g><g transform="translate(-190,-286) scale(1,1)"><g><path fill="none" stroke="none"/><text fill="#000000" stroke="none" font-family="Arial" font-size="13px" font-style="normal" font-weight="normal" text-decoration="none" x="261" y="612.5">+OrderManager()</text></g></g><g transform="translate(-190,-286) scale(1,1)"><g><path fill="none" stroke="none"/><text fill="#000000" stroke="none" font-family="Arial" font-size="13px" font-style="normal" font-weight="normal" text-decoration="none" x="261" y="627.5">+addOrder(MampfOrder order)</text></g></g><g transform="translate(-190,-286) scale(1,1)"><g><path fill="none" stroke="none"/><text fill="#000000" stroke="none" font-family="Arial" font-size="13px" font-style="normal" font-weight="normal" text-decoration="none" x="261" y="642.5">+viewOrders(): Iterable</text></g></g><g transform="translate(-190,-286) scale(1,1)"><g><path fill="none" stroke="none"/><text fill="#000000" stroke="none" font-family="Arial" font-size="13px" font-style="normal" font-weight="normal" text-decoration="none" x="261" y="657.5">+findByUserAccount(User: user)</text></g></g><g transform="translate(-190,-286) scale(1,1)"><g><path fill="none" stroke="none"/><text fill="#000000" stroke="none" font-family="Arial" font-size="13px" font-style="normal" font-weight="normal" text-decoration="none" x="261" y="672.5">+getOrdersByEmployee(Employee: e)</text></g></g><g transform="translate(-190,-286) scale(1,1)"><rect fill="#C0C0C0" stroke="none" x="655" y="647" width="113.0126953125" height="44" opacity="0.2"/></g><g transform="translate(-190,-286) scale(1,1)"><rect fill="#ffffff" stroke="none" x="648" y="640" width="113.0126953125" height="44"/></g><g transform="translate(-190,-286) scale(1,1)"><path fill="none" stroke="#000000" d="M 648 640 L 761.0126953125 640 L 761.0126953125 684 L 648 684 L 648 640 Z Z" stroke-miterlimit="10"/></g><g transform="translate(-190,-286) scale(1,1)"><path fill="none" stroke="#000000" d="M 648 665 L 761.0126953125 665" stroke-miterlimit="10"/></g><g transform="translate(-190,-286) scale(1,1)"><path fill="none" stroke="#000000" d="M 648 675 L 761.0126953125 675" stroke-miterlimit="10"/></g><g transform="translate(-190,-286) scale(1,1)"><g><path fill="none" stroke="none"/><text fill="#000000" stroke="none" font-family="Arial" font-size="13px" font-style="normal" font-weight="bold" text-decoration="none" x="655.7373046875" y="659.5">MampfOrderLine</text></g></g><g transform="translate(-190,-286) scale(1,1)"><path fill="none" stroke="#000000" d="M 520 568 L 592 568 L 592 521" stroke-miterlimit="10"/></g><g transform="translate(-190,-286) scale(1,1)"><path fill="none" stroke="#000000" d="M 596.209517756016 531.1626748576241 L 592 521 L 587.790482243984 531.1626748576241" stroke-miterlimit="10"/></g><g transform="translate(-190,-286) scale(1,1)"><g><path fill="none" stroke="none"/><text fill="#000000" stroke="none" font-family="Arial" font-size="13px" font-style="normal" font-weight="normal" text-decoration="none" x="556.535400390625" y="562.5">-orders</text></g></g><g transform="translate(-190,-286) scale(1,1)"><g><path fill="none" stroke="none"/><text fill="#000000" stroke="none" font-family="Arial" font-size="13px" font-style="normal" font-weight="normal" text-decoration="none" x="593.5" y="548.5">0..1</text></g></g><g transform="translate(-190,-286) scale(1,1)"><rect fill="#C0C0C0" stroke="none" x="244" y="891" width="177.86083984375" height="33" opacity="0.2"/></g><g transform="translate(-190,-286) scale(1,1)"><rect fill="#C0C0C0" stroke="none" x="327.9345703125" y="873" width="102.92626953125" height="22" opacity="0.2"/></g><g transform="translate(-190,-286) scale(1,1)"><rect fill="#ffffff" stroke="none" x="237" y="884" width="177.86083984375" height="33"/></g><g transform="translate(-190,-286) scale(1,1)"><path fill="none" stroke="#000000" d="M 237 884 L 414.86083984375 884 L 414.86083984375 917 L 237 917 L 237 884 Z Z" stroke-miterlimit="10"/></g><g transform="translate(-190,-286) scale(1,1)"><path fill="#ffffff" stroke="none" d="M 388.86083984375 901 C 388.86083984375 896.0294368 392.89027664375 892 397.86083984375 892 C 402.83140304375 892 406.86083984375 896.0294368 406.86083984375 901 C 406.86083984375 905.9705632 402.83140304375 910 397.86083984375 910 C 392.89027664375 910 388.86083984375 905.9705632 388.86083984375 901 Z"/></g><g transform="translate(-190,-286) scale(1,1)"><path fill="none" stroke="#000000" d="M 388.86083984375 901 C 388.86083984375 896.0294368 392.89027664375 892 397.86083984375 892 C 402.83140304375 892 406.86083984375 896.0294368 406.86083984375 901 C 406.86083984375 905.9705632 402.83140304375 910 397.86083984375 910 C 392.89027664375 910 388.86083984375 905.9705632 388.86083984375 901 Z" stroke-miterlimit="10"/></g><g transform="translate(-190,-286) scale(1,1)"><g><path fill="none" stroke="none"/><text fill="#000000" stroke="none" font-family="Arial" font-size="13px" font-style="normal" font-weight="bold" text-decoration="none" x="264.37548828125" y="903.5">OrderManagement</text></g></g><g transform="translate(-190,-286) scale(1,1)"><rect fill="#ffffff" stroke="none" x="320.9345703125" y="866" width="102.92626953125" height="22"/></g><g transform="translate(-190,-286) scale(1,1)"><path fill="none" stroke="#000000" d="M 320.9345703125 866 L 423.86083984375 866 L 423.86083984375 888 L 320.9345703125 888 L 320.9345703125 866 Z Z" stroke-miterlimit="10" stroke-dasharray="3"/></g><g transform="translate(-190,-286) scale(1,1)"><g><path fill="none" stroke="none"/><text fill="#000000" stroke="none" font-family="Arial" font-size="13px" font-style="normal" font-weight="normal" text-decoration="none" x="325.9345703125" y="883.5">T extends Order</text></g></g><g transform="translate(-190,-286) scale(1,1)"><rect fill="#C0C0C0" stroke="none" x="439" y="881" width="50.919921875" height="44" opacity="0.2"/></g><g transform="translate(-190,-286) scale(1,1)"><rect fill="#ffffff" stroke="none" x="432" y="874" width="50.919921875" height="44"/></g><g transform="translate(-190,-286) scale(1,1)"><path fill="none" stroke="#000000" d="M 432 874 L 482.919921875 874 L 482.919921875 918 L 432 918 L 432 874 Z Z" stroke-miterlimit="10"/></g><g transform="translate(-190,-286) scale(1,1)"><g><path fill="none" stroke="none"/><text fill="#000000" stroke="none" font-family="Arial" font-size="13px" font-style="normal" font-weight="bold" text-decoration="none" x="440.844970703125" y="893.5">Order</text></g></g><g transform="translate(-190,-286) scale(1,1)"><rect fill="#C0C0C0" stroke="none" x="495" y="887" width="71.12451171875" height="44" opacity="0.2"/></g><g transform="translate(-190,-286) scale(1,1)"><rect fill="#ffffff" stroke="none" x="488" y="880" width="71.12451171875" height="44"/></g><g transform="translate(-190,-286) scale(1,1)"><path fill="none" stroke="#000000" d="M 488 880 L 559.12451171875 880 L 559.12451171875 924 L 488 924 L 488 880 Z Z" stroke-miterlimit="10"/></g><g transform="translate(-190,-286) scale(1,1)"><path fill="none" stroke="#000000" d="M 488 905 L 559.12451171875 905" stroke-miterlimit="10"/></g><g transform="translate(-190,-286) scale(1,1)"><path fill="none" stroke="#000000" d="M 488 915 L 559.12451171875 915" stroke-miterlimit="10"/></g><g transform="translate(-190,-286) scale(1,1)"><g><path fill="none" stroke="none"/><text fill="#000000" stroke="none" font-family="Arial" font-size="13px" font-style="normal" font-weight="bold" text-decoration="none" x="494.658203125" y="899.5">OrderLine</text></g></g><g transform="translate(-190,-286) scale(1,1)"><rect fill="#C0C0C0" stroke="none" x="591" y="879" width="95.72802734375" height="57" opacity="0.2"/></g><g transform="translate(-190,-286) scale(1,1)"><rect fill="#ffffff" stroke="none" x="584" y="872" width="95.72802734375" height="57"/></g><g transform="translate(-190,-286) scale(1,1)"><path fill="none" stroke="#000000" d="M 584 872 L 679.72802734375 872 L 679.72802734375 929 L 584 929 L 584 872 Z Z" stroke-miterlimit="10"/></g><g transform="translate(-190,-286) scale(1,1)"><path fill="none" stroke="#000000" d="M 584 910 L 679.72802734375 910" stroke-miterlimit="10"/></g><g transform="translate(-190,-286) scale(1,1)"><g><path fill="none" stroke="none"/><text fill="#000000" stroke="none" font-family="Arial" font-size="13px" font-style="normal" font-weight="normal" text-decoration="none" x="588.5" y="889.5">«enumeration»</text></g></g><g transform="translate(-190,-286) scale(1,1)"><g><path fill="none" stroke="none"/><text fill="#000000" stroke="none" font-family="Arial" font-size="13px" font-style="normal" font-weight="bold" text-decoration="none" x="596.82177734375" y="904.5">OrderStatus</text></g></g><g transform="translate(-190,-286) scale(1,1)"><rect fill="#C0C0C0" stroke="none" x="759" y="839" width="48" height="15" opacity="0.2"/></g><g transform="translate(-190,-286) scale(1,1)"><rect fill="#C0C0C0" stroke="none" x="759" y="853" width="120" height="82" opacity="0.2"/></g><g transform="translate(-190,-286) scale(1,1)"><rect fill="#ffffff" stroke="none" x="752" y="847" width="120" height="81"/></g><g transform="translate(-190,-286) scale(1,1)"><path fill="none" stroke="#000000" d="M 752 847 L 872 847 L 872 928 L 752 928 L 752 847 Z Z" stroke-miterlimit="10"/></g><g transform="translate(-190,-286) scale(1,1)"><rect fill="#ffffff" stroke="none" x="752" y="832" width="48" height="15"/></g><g transform="translate(-190,-286) scale(1,1)"><path fill="none" stroke="#000000" d="M 752 832 L 800 832 L 800 847 L 752 847 L 752 832 Z Z" stroke-miterlimit="10"/></g><g transform="translate(-190,-286) scale(1,1)"><rect fill="#ffffff" stroke="none" x="752" y="846" width="120" height="82"/></g><g transform="translate(-190,-286) scale(1,1)"><path fill="none" stroke="#000000" d="M 752 846 L 872 846 L 872 928 L 752 928 L 752 846 Z Z" stroke-miterlimit="10"/></g><g transform="translate(-190,-286) scale(1,1)"><g><path fill="none" stroke="none"/><text fill="#000000" stroke="none" font-family="Arial" font-size="13px" font-style="normal" font-weight="bold" text-decoration="none" x="793.2109375" y="866.5">Spring</text></g></g><g transform="translate(-190,-286) scale(1,1)"><rect fill="#C0C0C0" stroke="none" x="775" y="879" width="80.552734375" height="48" opacity="0.2"/></g><g transform="translate(-190,-286) scale(1,1)"><rect fill="#ffffff" stroke="none" x="768" y="872" width="80.552734375" height="48"/></g><g transform="translate(-190,-286) scale(1,1)"><path fill="none" stroke="#000000" d="M 768 872 L 848.552734375 872 L 848.552734375 920 L 768 920 L 768 872 Z Z" stroke-miterlimit="10"/></g><g transform="translate(-190,-286) scale(1,1)"><path fill="#ffffff" stroke="none" d="M 822.552734375 889 C 822.552734375 884.0294368 826.582171175 880 831.552734375 880 C 836.523297575 880 840.552734375 884.0294368 840.552734375 889 C 840.552734375 893.9705632 836.523297575 898 831.552734375 898 C 826.582171175 898 822.552734375 893.9705632 822.552734375 889 Z"/></g><g transform="translate(-190,-286) scale(1,1)"><path fill="none" stroke="#000000" d="M 822.552734375 889 C 822.552734375 884.0294368 826.582171175 880 831.552734375 880 C 836.523297575 880 840.552734375 884.0294368 840.552734375 889 C 840.552734375 893.9705632 836.523297575 898 831.552734375 898 C 826.582171175 898 822.552734375 893.9705632 822.552734375 889 Z" stroke-miterlimit="10"/></g><g transform="translate(-190,-286) scale(1,1)"><g><path fill="none" stroke="none"/><text fill="#000000" stroke="none" font-family="Arial" font-size="13px" font-style="normal" font-weight="bold" text-decoration="none" x="778.57275390625" y="891.5">Model</text></g></g><g transform="translate(-190,-286) scale(1,1)"><rect fill="#C0C0C0" stroke="none" x="919" y="359" width="41.60000000000002" height="15" opacity="0.2"/></g><g transform="translate(-190,-286) scale(1,1)"><rect fill="#C0C0C0" stroke="none" x="919" y="373" width="104" height="82" opacity="0.2"/></g><g transform="translate(-190,-286) scale(1,1)"><rect fill="#ffffff" stroke="none" x="912" y="367" width="104" height="81"/></g><g transform="translate(-190,-286) scale(1,1)"><path fill="none" stroke="#000000" d="M 912 367 L 1016 367 L 1016 448 L 912 448 L 912 367 Z Z" stroke-miterlimit="10"/></g><g transform="translate(-190,-286) scale(1,1)"><rect fill="#ffffff" stroke="none" x="912" y="352" width="41.60000000000002" height="15"/></g><g transform="translate(-190,-286) scale(1,1)"><path fill="none" stroke="#000000" d="M 912 352 L 953.6 352 L 953.6 367 L 912 367 L 912 352 Z Z" stroke-miterlimit="10"/></g><g transform="translate(-190,-286) scale(1,1)"><rect fill="#ffffff" stroke="none" x="912" y="366" width="104" height="82"/></g><g transform="translate(-190,-286) scale(1,1)"><path fill="none" stroke="#000000" d="M 912 366 L 1016 366 L 1016 448 L 912 448 L 912 366 Z Z" stroke-miterlimit="10"/></g><g transform="translate(-190,-286) scale(1,1)"><g><path fill="none" stroke="none"/><text fill="#000000" stroke="none" font-family="Arial" font-size="13px" font-style="normal" font-weight="bold" text-decoration="none" x="928.60546875" y="386.5">mampf.User</text></g></g><g transform="translate(-190,-286) scale(1,1)"><rect fill="#C0C0C0" stroke="none" x="919" y="511" width="35.200000000000045" height="15" opacity="0.2"/></g><g transform="translate(-190,-286) scale(1,1)"><rect fill="#C0C0C0" stroke="none" x="919" y="525" width="88" height="106" opacity="0.2"/></g><g transform="translate(-190,-286) scale(1,1)"><rect fill="#ffffff" stroke="none" x="912" y="519" width="88" height="105"/></g><g transform="translate(-190,-286) scale(1,1)"><path fill="none" stroke="#000000" d="M 912 519 L 1000 519 L 1000 624 L 912 624 L 912 519 Z Z" stroke-miterlimit="10"/></g><g transform="translate(-190,-286) scale(1,1)"><rect fill="#ffffff" stroke="none" x="912" y="504" width="35.200000000000045" height="15"/></g><g transform="translate(-190,-286) scale(1,1)"><path fill="none" stroke="#000000" d="M 912 504 L 947.2 504 L 947.2 519 L 912 519 L 912 504 Z Z" stroke-miterlimit="10"/></g><g transform="translate(-190,-286) scale(1,1)"><rect fill="#ffffff" stroke="none" x="912" y="518" width="88" height="106"/></g><g transform="translate(-190,-286) scale(1,1)"><path fill="none" stroke="#000000" d="M 912 518 L 1000 518 L 1000 624 L 912 624 L 912 518 Z Z" stroke-miterlimit="10"/></g><g transform="translate(-190,-286) scale(1,1)"><g><path fill="none" stroke="none"/><text fill="#000000" stroke="none" font-family="Arial" font-size="13px" font-style="normal" font-weight="bold" text-decoration="none" x="923.49365234375" y="538.5">mampf.cart</text></g></g><g transform="translate(-190,-286) scale(1,1)"><path fill="none" stroke="#000000" d="M 251 496 L 216 496 L 216 952 L 800 952 L 800 920" stroke-miterlimit="10" stroke-dasharray="3"/></g><g transform="translate(-190,-286) scale(1,1)"><path fill="none" stroke="#000000" d="M 804.209517756016 930.1626748576241 L 800 920 L 795.790482243984 930.1626748576241" stroke-miterlimit="10"/></g><g transform="translate(-190,-286) scale(1,1)"><path fill="none" stroke="#000000" d="M 536 452 L 579 452" stroke-miterlimit="10" stroke-dasharray="3"/></g><g transform="translate(-190,-286) scale(1,1)"><path fill="none" stroke="#000000" d="M 568.8373251423759 456.209517756016 L 579 452 L 568.8373251423758 447.790482243984" stroke-miterlimit="10"/></g><g transform="translate(-190,-286) scale(1,1)"><path fill="none" stroke="#000000" d="M 421 515 L 421 560" stroke-miterlimit="10"/></g><g transform="translate(-190,-286) scale(1,1)"><path fill="none" stroke="#000000" d="M 416.790482243984 549.8373251423759 L 421 560 L 425.209517756016 549.8373251423759" stroke-miterlimit="10"/></g><g transform="translate(-190,-286) scale(1,1)"><g><path fill="none" stroke="none"/><text fill="#000000" stroke="none" font-family="Arial" font-size="13px" font-style="normal" font-weight="normal" text-decoration="none" x="424.5" y="546.5">-oM</text></g></g><g transform="translate(-190,-286) scale(1,1)"><g><path fill="none" stroke="none"/><text fill="#000000" stroke="none" font-family="Arial" font-size="13px" font-style="normal" font-weight="normal" text-decoration="none" x="404.5" y="542.5">1</text></g></g><g transform="translate(-190,-286) scale(1,1)"><rect fill="#C0C0C0" stroke="none" x="927" y="399" width="50.919921875" height="44" opacity="0.2"/></g><g transform="translate(-190,-286) scale(1,1)"><rect fill="#ffffff" stroke="none" x="920" y="392" width="50.919921875" height="44"/></g><g transform="translate(-190,-286) scale(1,1)"><path fill="none" stroke="#000000" d="M 920 392 L 970.919921875 392 L 970.919921875 436 L 920 436 L 920 392 Z Z" stroke-miterlimit="10"/></g><g transform="translate(-190,-286) scale(1,1)"><path fill="none" stroke="#000000" d="M 920 417 L 970.919921875 417" stroke-miterlimit="10"/></g><g transform="translate(-190,-286) scale(1,1)"><path fill="none" stroke="#000000" d="M 920 427 L 970.919921875 427" stroke-miterlimit="10"/></g><g transform="translate(-190,-286) scale(1,1)"><g><path fill="none" stroke="none"/><text fill="#000000" stroke="none" font-family="Arial" font-size="13px" font-style="normal" font-weight="bold" text-decoration="none" x="931.736328125" y="411.5">User</text></g></g><g transform="translate(-190,-286) scale(1,1)"><path fill="none" stroke="#000000" d="M 520 593 L 880 593 L 880 408 L 920 408" stroke-miterlimit="10" stroke-dasharray="3"/></g><g transform="translate(-190,-286) scale(1,1)"><path fill="none" stroke="#000000" d="M 909.8373251423759 412.209517756016 L 920 408 L 909.8373251423758 403.790482243984" stroke-miterlimit="10"/></g><g transform="translate(-190,-286) scale(1,1)"><rect fill="#C0C0C0" stroke="none" x="919" y="847" width="46.0810546875" height="15" opacity="0.2"/></g><g transform="translate(-190,-286) scale(1,1)"><rect fill="#C0C0C0" stroke="none" x="919" y="861" width="115.20263671875" height="82" opacity="0.2"/></g><g transform="translate(-190,-286) scale(1,1)"><rect fill="#ffffff" stroke="none" x="912" y="855" width="115.20263671875" height="81"/></g><g transform="translate(-190,-286) scale(1,1)"><path fill="none" stroke="#000000" d="M 912 855 L 1027.20263671875 855 L 1027.20263671875 936 L 912 936 L 912 855 Z Z" stroke-miterlimit="10"/></g><g transform="translate(-190,-286) scale(1,1)"><rect fill="#ffffff" stroke="none" x="912" y="840" width="46.0810546875" height="15"/></g><g transform="translate(-190,-286) scale(1,1)"><path fill="none" stroke="#000000" d="M 912 840 L 958.0810546875 840 L 958.0810546875 855 L 912 855 L 912 840 Z Z" stroke-miterlimit="10"/></g><g transform="translate(-190,-286) scale(1,1)"><rect fill="#ffffff" stroke="none" x="912" y="854" width="115.20263671875" height="82"/></g><g transform="translate(-190,-286) scale(1,1)"><path fill="none" stroke="#000000" d="M 912 854 L 1027.20263671875 854 L 1027.20263671875 936 L 912 936 L 912 854 Z Z" stroke-miterlimit="10"/></g><g transform="translate(-190,-286) scale(1,1)"><g><path fill="none" stroke="none"/><text fill="#000000" stroke="none" font-family="Arial" font-size="13px" font-style="normal" font-weight="bold" text-decoration="none" x="919.746826171875" y="874.5">mampf.employee</text></g></g><g transform="translate(-190,-286) scale(1,1)"><rect fill="#C0C0C0" stroke="none" x="927" y="887" width="70.41357421875" height="44" opacity="0.2"/></g><g transform="translate(-190,-286) scale(1,1)"><rect fill="#ffffff" stroke="none" x="920" y="880" width="70.41357421875" height="44"/></g><g transform="translate(-190,-286) scale(1,1)"><path fill="none" stroke="#000000" d="M 920 880 L 990.41357421875 880 L 990.41357421875 924 L 920 924 L 920 880 Z Z" stroke-miterlimit="10"/></g><g transform="translate(-190,-286) scale(1,1)"><path fill="none" stroke="#000000" d="M 920 905 L 990.41357421875 905" stroke-miterlimit="10"/></g><g transform="translate(-190,-286) scale(1,1)"><path fill="none" stroke="#000000" d="M 920 915 L 990.41357421875 915" stroke-miterlimit="10"/></g><g transform="translate(-190,-286) scale(1,1)"><g><path fill="none" stroke="none"/><text fill="#000000" stroke="none" font-family="Arial" font-size="13px" font-style="normal" font-weight="bold" text-decoration="none" x="926.302734375" y="899.5">Employee</text></g></g><g transform="translate(-190,-286) scale(1,1)"><path fill="none" stroke="#000000" d="M 387 692 L 387 824 L 880 824 L 880 880 L 920 880" stroke-miterlimit="10" stroke-dasharray="3"/></g><g transform="translate(-190,-286) scale(1,1)"><path fill="none" stroke="#000000" d="M 909.8373251423759 884.209517756016 L 920 880 L 909.8373251423758 875.790482243984" stroke-miterlimit="10"/></g><g transform="translate(-190,-286) scale(1,1)"><path fill="none" stroke="#000000" d="M 632 521 L 632 872" stroke-miterlimit="10"/></g><g transform="translate(-190,-286) scale(1,1)"><path fill="none" stroke="#000000" d="M 627.790482243984 861.8373251423759 L 632 872 L 636.209517756016 861.8373251423759" stroke-miterlimit="10"/></g><g transform="translate(-190,-286) scale(1,1)"><g><path fill="none" stroke="none"/><text fill="#000000" stroke="none" font-family="Arial" font-size="13px" font-style="normal" font-weight="normal" text-decoration="none" x="627.5" y="701.5">-status</text></g></g><g transform="translate(-190,-286) scale(1,1)"><g><path fill="none" stroke="none"/><text fill="#000000" stroke="none" font-family="Arial" font-size="13px" font-style="normal" font-weight="normal" text-decoration="none" x="615.5" y="856.5">1</text></g></g><g transform="translate(-190,-286) scale(1,1)"><path fill="none" stroke="#000000" d="M 656 684 L 656 792 L 536 792 L 536 880" stroke-miterlimit="10"/></g><g transform="translate(-190,-286) scale(1,1)"><path fill="#FFFFFF" stroke="none" d="M 527.580964487968 859.6746502847517 L 536 880 L 544.419035512032 859.6746502847517"/></g><g transform="translate(-190,-286) scale(1,1)"><path fill="none" stroke="#000000" d="M 527.580964487968 859.6746502847517 L 536 880 L 544.419035512032 859.6746502847517 L 527.580964487968 859.6746502847517" stroke-miterlimit="10"/></g><g transform="translate(-190,-286) scale(1,1)"><path fill="none" stroke="#000000" d="M 720 640 L 720 521" stroke-miterlimit="10"/></g><g transform="translate(-190,-286) scale(1,1)"><path fill="#FFFFFF" stroke="none" d="M 724.209517756016 531.1626748576241 L 720 521 L 715.790482243984 531.1626748576241 L 720 543"/></g><g transform="translate(-190,-286) scale(1,1)"><path fill="none" stroke="#000000" d="M 724.209517756016 531.1626748576241 L 720 521 L 715.790482243984 531.1626748576241 L 720 543 L 724.209517756016 531.1626748576241" stroke-miterlimit="10"/></g><g transform="translate(-190,-286) scale(1,1)"><g><path fill="none" stroke="none"/><text fill="#000000" stroke="none" font-family="Arial" font-size="13px" font-style="normal" font-weight="normal" text-decoration="none" x="674.5" y="585.5">-orderlines</text></g></g><g transform="translate(-190,-286) scale(1,1)"><g><path fill="none" stroke="none"/><text fill="#000000" stroke="none" font-family="Arial" font-size="13px" font-style="normal" font-weight="normal" text-decoration="none" x="722.5" y="624.5">0..*</text></g></g><g transform="translate(-190,-286) scale(1,1)"><rect fill="#C0C0C0" stroke="none" x="927" y="559" width="50.919921875" height="44" opacity="0.2"/></g><g transform="translate(-190,-286) scale(1,1)"><rect fill="#ffffff" stroke="none" x="920" y="552" width="50.919921875" height="44"/></g><g transform="translate(-190,-286) scale(1,1)"><path fill="none" stroke="#000000" d="M 920 552 L 970.919921875 552 L 970.919921875 596 L 920 596 L 920 552 Z Z" stroke-miterlimit="10"/></g><g transform="translate(-190,-286) scale(1,1)"><path fill="none" stroke="#000000" d="M 920 577 L 970.919921875 577" stroke-miterlimit="10"/></g><g transform="translate(-190,-286) scale(1,1)"><path fill="none" stroke="#000000" d="M 920 587 L 970.919921875 587" stroke-miterlimit="10"/></g><g transform="translate(-190,-286) scale(1,1)"><g><path fill="none" stroke="none"/><text fill="#000000" stroke="none" font-family="Arial" font-size="13px" font-style="normal" font-weight="bold" text-decoration="none" x="931.72998046875" y="571.5">Date</text></g></g><g transform="translate(-190,-286) scale(1,1)"><path fill="none" stroke="#000000" d="M 761 662 L 929 662 L 929 596" stroke-miterlimit="10"/></g><g transform="translate(-190,-286) scale(1,1)"><path fill="none" stroke="#000000" d="M 933.209517756016 606.1626748576241 L 929 596 L 924.790482243984 606.1626748576241" stroke-miterlimit="10"/></g><g transform="translate(-190,-286) scale(1,1)"><g><path fill="none" stroke="none"/><text fill="#000000" stroke="none" font-family="Arial" font-size="13px" font-style="normal" font-weight="normal" text-decoration="none" x="878.5" y="660.5">-date</text></g></g><g transform="translate(-190,-286) scale(1,1)"><g><path fill="none" stroke="none"/><text fill="#000000" stroke="none" font-family="Arial" font-size="13px" font-style="normal" font-weight="normal" text-decoration="none" x="937.5" y="623.5">1</text></g></g><g transform="translate(-190,-286) scale(1,1)"><path fill="none" stroke="#000000" d="M 280 692 L 280 866" stroke-miterlimit="10" stroke-dasharray="3"/></g><g transform="translate(-190,-286) scale(1,1)"><path fill="#FFFFFF" stroke="none" d="M 271.580964487968 845.6746502847517 L 280 866 L 288.419035512032 845.6746502847517"/></g><g transform="translate(-190,-286) scale(1,1)"><path fill="none" stroke="#000000" d="M 271.580964487968 845.6746502847517 L 280 866 L 288.419035512032 845.6746502847517 L 271.580964487968 845.6746502847517" stroke-miterlimit="10"/></g><g transform="translate(-190,-286) scale(1,1)"><g><path fill="none" stroke="none"/><text fill="#000000" stroke="none" font-family="Arial" font-size="13px" font-style="normal" font-weight="normal" text-decoration="none" x="245.5" y="784.5">T - MampfOrder </text></g></g><g transform="translate(-190,-286) scale(1,1)"><g><path fill="none" stroke="none"/><text fill="#000000" stroke="none" font-family="Arial" font-size="13px" font-style="normal" font-weight="normal" text-decoration="none" x="289.5" y="795.5">«bind»</text></g></g><g transform="translate(-190,-286) scale(1,1)"><path fill="none" stroke="#000000" d="M 608 521 L 608 768 L 457 768 L 457 874" stroke-miterlimit="10"/></g><g transform="translate(-190,-286) scale(1,1)"><path fill="#FFFFFF" stroke="none" d="M 448.580964487968 853.6746502847517 L 457 874 L 465.419035512032 853.6746502847517"/></g><g transform="translate(-190,-286) scale(1,1)"><path fill="none" stroke="#000000" d="M 448.580964487968 853.6746502847517 L 457 874 L 465.419035512032 853.6746502847517 L 448.580964487968 853.6746502847517" stroke-miterlimit="10"/></g><g transform="translate(-190,-286) scale(1,1)"><rect fill="#C0C0C0" stroke="none" x="919" y="679" width="48" height="15" opacity="0.2"/></g><g transform="translate(-190,-286) scale(1,1)"><rect fill="#C0C0C0" stroke="none" x="919" y="693" width="120" height="146" opacity="0.2"/></g><g transform="translate(-190,-286) scale(1,1)"><rect fill="#ffffff" stroke="none" x="912" y="687" width="120" height="145"/></g><g transform="translate(-190,-286) scale(1,1)"><path fill="none" stroke="#000000" d="M 912 687 L 1032 687 L 1032 832 L 912 832 L 912 687 Z Z" stroke-miterlimit="10"/></g><g transform="translate(-190,-286) scale(1,1)"><rect fill="#ffffff" stroke="none" x="912" y="672" width="48" height="15"/></g><g transform="translate(-190,-286) scale(1,1)"><path fill="none" stroke="#000000" d="M 912 672 L 960 672 L 960 687 L 912 687 L 912 672 Z Z" stroke-miterlimit="10"/></g><g transform="translate(-190,-286) scale(1,1)"><rect fill="#ffffff" stroke="none" x="912" y="686" width="120" height="146"/></g><g transform="translate(-190,-286) scale(1,1)"><path fill="none" stroke="#000000" d="M 912 686 L 1032 686 L 1032 832 L 912 832 L 912 686 Z Z" stroke-miterlimit="10"/></g><g transform="translate(-190,-286) scale(1,1)"><g><path fill="none" stroke="none"/><text fill="#000000" stroke="none" font-family="Arial" font-size="13px" font-style="normal" font-weight="bold" text-decoration="none" x="929.369140625" y="706.5">mampf.catalog</text></g></g><g transform="translate(-190,-286) scale(1,1)"><rect fill="#C0C0C0" stroke="none" x="943" y="719" width="50.919921875" height="44" opacity="0.2"/></g><g transform="translate(-190,-286) scale(1,1)"><rect fill="#ffffff" stroke="none" x="936" y="712" width="50.919921875" height="44"/></g><g transform="translate(-190,-286) scale(1,1)"><path fill="none" stroke="#000000" d="M 936 712 L 986.919921875 712 L 986.919921875 756 L 936 756 L 936 712 Z Z" stroke-miterlimit="10"/></g><g transform="translate(-190,-286) scale(1,1)"><path fill="none" stroke="#000000" d="M 936 737 L 986.919921875 737" stroke-miterlimit="10"/></g><g transform="translate(-190,-286) scale(1,1)"><path fill="none" stroke="#000000" d="M 936 747 L 986.919921875 747" stroke-miterlimit="10"/></g><g transform="translate(-190,-286) scale(1,1)"><g><path fill="none" stroke="none"/><text fill="#000000" stroke="none" font-family="Arial" font-size="13px" font-style="normal" font-weight="bold" text-decoration="none" x="948.818603515625" y="731.5">Item</text></g></g><g transform="translate(-190,-286) scale(1,1)"><path fill="none" stroke="#000000" d="M 787 521 L 787 714 L 936 714" stroke-miterlimit="10" stroke-dasharray="3"/></g><g transform="translate(-190,-286) scale(1,1)"><path fill="none" stroke="#000000" d="M 925.8373251423759 718.209517756016 L 936 714 L 925.8373251423758 709.790482243984" stroke-miterlimit="10"/></g><g transform="translate(-190,-286) scale(1,1)"><path fill="none" stroke="#000000" d="M 742 385 L 742 328 L 1040 328 L 1040 896 L 990 896" stroke-miterlimit="10" stroke-dasharray="3"/></g><g transform="translate(-190,-286) scale(1,1)"><path fill="none" stroke="#000000" d="M 1000.1626748576241 891.790482243984 L 990 896 L 1000.1626748576241 900.209517756016" stroke-miterlimit="10"/></g><g transform="translate(-190,-286) scale(1,1)"><rect fill="#C0C0C0" stroke="none" x="943" y="775" width="56.6708984375" height="44" opacity="0.2"/></g><g transform="translate(-190,-286) scale(1,1)"><rect fill="#ffffff" stroke="none" x="936" y="768" width="56.6708984375" height="44"/></g><g transform="translate(-190,-286) scale(1,1)"><path fill="none" stroke="#000000" d="M 936 768 L 992.6708984375 768 L 992.6708984375 812 L 936 812 L 936 768 Z Z" stroke-miterlimit="10"/></g><g transform="translate(-190,-286) scale(1,1)"><path fill="none" stroke="#000000" d="M 936 793 L 992.6708984375 793" stroke-miterlimit="10"/></g><g transform="translate(-190,-286) scale(1,1)"><path fill="none" stroke="#000000" d="M 936 803 L 992.6708984375 803" stroke-miterlimit="10"/></g><g transform="translate(-190,-286) scale(1,1)"><g><path fill="none" stroke="none"/><text fill="#000000" stroke="none" font-family="Arial" font-size="13px" font-style="normal" font-weight="bold" text-decoration="none" x="941.937744140625" y="787.5">Domain</text></g></g><g transform="translate(-190,-286) scale(1,1)"><path fill="none" stroke="#000000" d="M 772 521 L 772 806 L 936 806" stroke-miterlimit="10" stroke-dasharray="3"/></g><g transform="translate(-190,-286) scale(1,1)"><path fill="none" stroke="#000000" d="M 925.8373251423759 810.209517756016 L 936 806 L 925.8373251423758 801.790482243984" stroke-miterlimit="10"/></g><g transform="translate(-190,-286) scale(1,1)"><path fill="none" stroke="#000000" d="M 936 752 L 704 752 L 704 684" stroke-miterlimit="10"/></g><g transform="translate(-190,-286) scale(1,1)"><path fill="#FFFFFF" stroke="none" d="M 708.209517756016 694.1626748576241 L 704 684 L 699.790482243984 694.1626748576241 L 704 706"/></g><g transform="translate(-190,-286) scale(1,1)"><path fill="none" stroke="#000000" d="M 708.209517756016 694.1626748576241 L 704 684 L 699.790482243984 694.1626748576241 L 704 706 L 708.209517756016 694.1626748576241" stroke-miterlimit="10"/></g><g transform="translate(-190,-286) scale(1,1)"><g><path fill="none" stroke="none"/><text fill="#000000" stroke="none" font-family="Arial" font-size="13px" font-style="normal" font-weight="normal" text-decoration="none" x="674.5" y="757.5">-item</text></g></g><g transform="translate(-190,-286) scale(1,1)"><g><path fill="none" stroke="none"/><text fill="#000000" stroke="none" font-family="Arial" font-size="13px" font-style="normal" font-weight="normal" text-decoration="none" x="887.5" y="747.5">1</text></g></g></g></svg>