<svg version="1.1" xmlns="http://www.w3.org/2000/svg" xmlns:xlink="http://www.w3.org/1999/xlink" width="972" height="764"><defs/><g><g transform="translate(-126,-150) scale(1,1)"><path fill="none" stroke="#000000" d="M 136 160 L 1088 160 L 1088 904 L 136 904 L 136 160" stroke-miterlimit="10"/></g><g transform="translate(-126,-150) scale(1,1)"><path fill="#ffffff" stroke="none" d="M 136 160 L 136 182 L 208.3671875 182 L 219.3671875 171 L 219.3671875 160 L 136 160"/></g><g transform="translate(-126,-150) scale(1,1)"><path fill="none" stroke="#000000" d="M 136 160 L 136 182 L 208.3671875 182 L 219.3671875 171 L 219.3671875 160 L 136 160 L 136 160" stroke-miterlimit="10"/></g><g transform="translate(-126,-150) scale(1,1)"><g><path fill="none" stroke="none"/><text fill="#000000" stroke="none" font-family="Arial" font-size="13px" font-style="normal" font-weight="normal" text-decoration="none" x="167.9599609375" y="177.5">Model</text></g></g><g transform="translate(-126,-150) scale(1,1)"><g><path fill="none" stroke="none"/><text fill="#000000" stroke="none" font-family="Arial" font-size="13px" font-style="normal" font-weight="bold" text-decoration="none" x="141" y="177.5">pkg</text></g></g><g transform="translate(-126,-150) scale(1,1)"><rect fill="#C0C0C0" stroke="none" x="183" y="239" width="291.2" height="15" opacity="0.2"/></g><g transform="translate(-126,-150) scale(1,1)"><rect fill="#C0C0C0" stroke="none" x="183" y="253" width="728" height="338" opacity="0.2"/></g><g transform="translate(-126,-150) scale(1,1)"><rect fill="#ffffff" stroke="none" x="176" y="247" width="728" height="337"/></g><g transform="translate(-126,-150) scale(1,1)"><path fill="none" stroke="#000000" d="M 176 247 L 904 247 L 904 584 L 176 584 L 176 247 Z Z" stroke-miterlimit="10"/></g><g transform="translate(-126,-150) scale(1,1)"><rect fill="#ffffff" stroke="none" x="176" y="232" width="291.2" height="15"/></g><g transform="translate(-126,-150) scale(1,1)"><path fill="none" stroke="#000000" d="M 176 232 L 467.2 232 L 467.2 247 L 176 247 L 176 232 Z Z" stroke-miterlimit="10"/></g><g transform="translate(-126,-150) scale(1,1)"><rect fill="#ffffff" stroke="none" x="176" y="246" width="728" height="338"/></g><g transform="translate(-126,-150) scale(1,1)"><path fill="none" stroke="#000000" d="M 176 246 L 904 246 L 904 584 L 176 584 L 176 246 Z Z" stroke-miterlimit="10"/></g><g transform="translate(-126,-150) scale(1,1)"><g><path fill="none" stroke="none"/><text fill="#000000" stroke="none" font-family="Arial" font-size="13px" font-style="normal" font-weight="bold" text-decoration="none" x="503.155029296875" y="266.5">mampf.order</text></g></g><g transform="translate(-126,-150) scale(1,1)"><rect fill="#C0C0C0" stroke="none" x="167" y="647" width="281.6" height="15" opacity="0.2"/></g><g transform="translate(-126,-150) scale(1,1)"><rect fill="#C0C0C0" stroke="none" x="167" y="661" width="704" height="154" opacity="0.2"/></g><g transform="translate(-126,-150) scale(1,1)"><rect fill="#ffffff" stroke="none" x="160" y="655" width="704" height="153"/></g><g transform="translate(-126,-150) scale(1,1)"><path fill="none" stroke="#000000" d="M 160 655 L 864 655 L 864 808 L 160 808 L 160 655 Z Z" stroke-miterlimit="10"/></g><g transform="translate(-126,-150) scale(1,1)"><rect fill="#ffffff" stroke="none" x="160" y="640" width="281.6" height="15"/></g><g transform="translate(-126,-150) scale(1,1)"><path fill="none" stroke="#000000" d="M 160 640 L 441.6 640 L 441.6 655 L 160 655 L 160 640 Z Z" stroke-miterlimit="10"/></g><g transform="translate(-126,-150) scale(1,1)"><rect fill="#ffffff" stroke="none" x="160" y="654" width="704" height="154"/></g><g transform="translate(-126,-150) scale(1,1)"><path fill="none" stroke="#000000" d="M 160 654 L 864 654 L 864 808 L 160 808 L 160 654 Z Z" stroke-miterlimit="10"/></g><g transform="translate(-126,-150) scale(1,1)"><g><path fill="none" stroke="none"/><text fill="#000000" stroke="none" font-family="Arial" font-size="13px" font-style="normal" font-weight="bold" text-decoration="none" x="481.6455078125" y="674.5">Salespoint</text></g></g><g transform="translate(-126,-150) scale(1,1)"><rect fill="#C0C0C0" stroke="none" x="191" y="719" width="131.86083984375" height="48" opacity="0.2"/></g><g transform="translate(-126,-150) scale(1,1)"><rect fill="#ffffff" stroke="none" x="184" y="712" width="131.86083984375" height="48"/></g><g transform="translate(-126,-150) scale(1,1)"><path fill="none" stroke="#000000" d="M 184 712 L 315.86083984375 712 L 315.86083984375 760 L 184 760 L 184 712 Z Z" stroke-miterlimit="10"/></g><g transform="translate(-126,-150) scale(1,1)"><path fill="#ffffff" stroke="none" d="M 289.86083984375 729 C 289.86083984375 724.0294368 293.89027664375 720 298.86083984375 720 C 303.83140304375 720 307.86083984375 724.0294368 307.86083984375 729 C 307.86083984375 733.9705632 303.83140304375 738 298.86083984375 738 C 293.89027664375 738 289.86083984375 733.9705632 289.86083984375 729 Z"/></g><g transform="translate(-126,-150) scale(1,1)"><path fill="none" stroke="#000000" d="M 289.86083984375 729 C 289.86083984375 724.0294368 293.89027664375 720 298.86083984375 720 C 303.83140304375 720 307.86083984375 724.0294368 307.86083984375 729 C 307.86083984375 733.9705632 303.83140304375 738 298.86083984375 738 C 293.89027664375 738 289.86083984375 733.9705632 289.86083984375 729 Z" stroke-miterlimit="10"/></g><g transform="translate(-126,-150) scale(1,1)"><g><path fill="none" stroke="none"/><text fill="#000000" stroke="none" font-family="Arial" font-size="13px" font-style="normal" font-weight="bold" text-decoration="none" x="195.661376953125" y="731.5">OrderManager</text></g></g><g transform="translate(-126,-150) scale(1,1)"><rect fill="#C0C0C0" stroke="none" x="335" y="719" width="89.9072265625" height="44" opacity="0.2"/></g><g transform="translate(-126,-150) scale(1,1)"><rect fill="#ffffff" stroke="none" x="328" y="712" width="89.9072265625" height="44"/></g><g transform="translate(-126,-150) scale(1,1)"><path fill="none" stroke="#000000" d="M 328 712 L 417.9072265625 712 L 417.9072265625 756 L 328 756 L 328 712 Z Z" stroke-miterlimit="10"/></g><g transform="translate(-126,-150) scale(1,1)"><g><path fill="none" stroke="none"/><text fill="#000000" stroke="none" font-family="Arial" font-size="13px" font-style="normal" font-weight="bold" text-decoration="none" x="335.74365234375" y="731.5">UserAccount</text></g></g><g transform="translate(-126,-150) scale(1,1)"><rect fill="#C0C0C0" stroke="none" x="431" y="719" width="50.919921875" height="44" opacity="0.2"/></g><g transform="translate(-126,-150) scale(1,1)"><rect fill="#ffffff" stroke="none" x="424" y="712" width="50.919921875" height="44"/></g><g transform="translate(-126,-150) scale(1,1)"><path fill="none" stroke="#000000" d="M 424 712 L 474.919921875 712 L 474.919921875 756 L 424 756 L 424 712 Z Z" stroke-miterlimit="10"/></g><g transform="translate(-126,-150) scale(1,1)"><g><path fill="none" stroke="none"/><text fill="#000000" stroke="none" font-family="Arial" font-size="13px" font-style="normal" font-weight="bold" text-decoration="none" x="432.844970703125" y="731.5">Order</text></g></g><g transform="translate(-126,-150) scale(1,1)"><rect fill="#C0C0C0" stroke="none" x="495" y="719" width="61.7236328125" height="44" opacity="0.2"/></g><g transform="translate(-126,-150) scale(1,1)"><rect fill="#ffffff" stroke="none" x="488" y="712" width="61.7236328125" height="44"/></g><g transform="translate(-126,-150) scale(1,1)"><path fill="none" stroke="#000000" d="M 488 712 L 549.7236328125 712 L 549.7236328125 756 L 488 756 L 488 712 Z Z" stroke-miterlimit="10"/></g><g transform="translate(-126,-150) scale(1,1)"><g><path fill="none" stroke="none"/><text fill="#000000" stroke="none" font-family="Arial" font-size="13px" font-style="normal" font-weight="bold" text-decoration="none" x="494.655029296875" y="731.5">Quantity</text></g></g><g transform="translate(-126,-150) scale(1,1)"><rect fill="#C0C0C0" stroke="none" x="559" y="719" width="50.919921875" height="44" opacity="0.2"/></g><g transform="translate(-126,-150) scale(1,1)"><rect fill="#ffffff" stroke="none" x="552" y="712" width="50.919921875" height="44"/></g><g transform="translate(-126,-150) scale(1,1)"><path fill="none" stroke="#000000" d="M 552 712 L 602.919921875 712 L 602.919921875 756 L 552 756 L 552 712 Z Z" stroke-miterlimit="10"/></g><g transform="translate(-126,-150) scale(1,1)"><g><path fill="none" stroke="none"/><text fill="#000000" stroke="none" font-family="Arial" font-size="13px" font-style="normal" font-weight="bold" text-decoration="none" x="565.180419921875" y="731.5">Cart</text></g></g><g transform="translate(-126,-150) scale(1,1)"><rect fill="#C0C0C0" stroke="none" x="623" y="719" width="50.919921875" height="44" opacity="0.2"/></g><g transform="translate(-126,-150) scale(1,1)"><rect fill="#ffffff" stroke="none" x="616" y="712" width="50.919921875" height="44"/></g><g transform="translate(-126,-150) scale(1,1)"><path fill="none" stroke="#000000" d="M 616 712 L 666.919921875 712 L 666.919921875 756 L 616 756 L 616 712 Z Z" stroke-miterlimit="10"/></g><g transform="translate(-126,-150) scale(1,1)"><g><path fill="none" stroke="none"/><text fill="#000000" stroke="none" font-family="Arial" font-size="13px" font-style="normal" font-weight="bold" text-decoration="none" x="626.285888671875" y="731.5">Cash</text></g></g><g transform="translate(-126,-150) scale(1,1)"><rect fill="#C0C0C0" stroke="none" x="687" y="719" width="58.11181640625" height="44" opacity="0.2"/></g><g transform="translate(-126,-150) scale(1,1)"><rect fill="#ffffff" stroke="none" x="680" y="712" width="58.11181640625" height="44"/></g><g transform="translate(-126,-150) scale(1,1)"><path fill="none" stroke="#000000" d="M 680 712 L 738.11181640625 712 L 738.11181640625 756 L 680 756 L 680 712 Z Z" stroke-miterlimit="10"/></g><g transform="translate(-126,-150) scale(1,1)"><g><path fill="none" stroke="none"/><text fill="#000000" stroke="none" font-family="Arial" font-size="13px" font-style="normal" font-weight="bold" text-decoration="none" x="686.655029296875" y="731.5">Product</text></g></g><g transform="translate(-126,-150) scale(1,1)"><rect fill="#C0C0C0" stroke="none" x="751" y="711" width="95.72802734375" height="57" opacity="0.2"/></g><g transform="translate(-126,-150) scale(1,1)"><rect fill="#ffffff" stroke="none" x="744" y="704" width="95.72802734375" height="57"/></g><g transform="translate(-126,-150) scale(1,1)"><path fill="none" stroke="#000000" d="M 744 704 L 839.72802734375 704 L 839.72802734375 761 L 744 761 L 744 704 Z Z" stroke-miterlimit="10"/></g><g transform="translate(-126,-150) scale(1,1)"><path fill="none" stroke="#000000" d="M 744 742 L 839.72802734375 742" stroke-miterlimit="10"/></g><g transform="translate(-126,-150) scale(1,1)"><g><path fill="none" stroke="none"/><text fill="#000000" stroke="none" font-family="Arial" font-size="13px" font-style="normal" font-weight="normal" text-decoration="none" x="748.5" y="721.5">«enumeration»</text></g></g><g transform="translate(-126,-150) scale(1,1)"><g><path fill="none" stroke="none"/><text fill="#000000" stroke="none" font-family="Arial" font-size="13px" font-style="normal" font-weight="bold" text-decoration="none" x="756.82177734375" y="736.5">OrderStatus</text></g></g><g transform="translate(-126,-150) scale(1,1)"><rect fill="#C0C0C0" stroke="none" x="927" y="247" width="54.39999999999998" height="15" opacity="0.2"/></g><g transform="translate(-126,-150) scale(1,1)"><rect fill="#C0C0C0" stroke="none" x="927" y="261" width="136" height="218" opacity="0.2"/></g><g transform="translate(-126,-150) scale(1,1)"><rect fill="#ffffff" stroke="none" x="920" y="255" width="136" height="217"/></g><g transform="translate(-126,-150) scale(1,1)"><path fill="none" stroke="#000000" d="M 920 255 L 1056 255 L 1056 472 L 920 472 L 920 255 Z Z" stroke-miterlimit="10"/></g><g transform="translate(-126,-150) scale(1,1)"><rect fill="#ffffff" stroke="none" x="920" y="240" width="54.39999999999998" height="15"/></g><g transform="translate(-126,-150) scale(1,1)"><path fill="none" stroke="#000000" d="M 920 240 L 974.4 240 L 974.4 255 L 920 255 L 920 240 Z Z" stroke-miterlimit="10"/></g><g transform="translate(-126,-150) scale(1,1)"><rect fill="#ffffff" stroke="none" x="920" y="254" width="136" height="218"/></g><g transform="translate(-126,-150) scale(1,1)"><path fill="none" stroke="#000000" d="M 920 254 L 1056 254 L 1056 472 L 920 472 L 920 254 Z Z" stroke-miterlimit="10"/></g><g transform="translate(-126,-150) scale(1,1)"><g><path fill="none" stroke="none"/><text fill="#000000" stroke="none" font-family="Arial" font-size="13px" font-style="normal" font-weight="bold" text-decoration="none" x="969.2109375" y="274.5">Spring</text></g></g><g transform="translate(-126,-150) scale(1,1)"><rect fill="#C0C0C0" stroke="none" x="943" y="311" width="50.919921875" height="44" opacity="0.2"/></g><g transform="translate(-126,-150) scale(1,1)"><rect fill="#ffffff" stroke="none" x="936" y="304" width="50.919921875" height="44"/></g><g transform="translate(-126,-150) scale(1,1)"><path fill="none" stroke="#000000" d="M 936 304 L 986.919921875 304 L 986.919921875 348 L 936 348 L 936 304 Z Z" stroke-miterlimit="10"/></g><g transform="translate(-126,-150) scale(1,1)"><g><path fill="none" stroke="none"/><text fill="#000000" stroke="none" font-family="Arial" font-size="13px" font-style="normal" font-weight="bold" text-decoration="none" x="943.0390625" y="323.5">Assert</text></g></g><g transform="translate(-126,-150) scale(1,1)"><rect fill="#C0C0C0" stroke="none" x="967" y="383" width="80.552734375" height="48" opacity="0.2"/></g><g transform="translate(-126,-150) scale(1,1)"><rect fill="#ffffff" stroke="none" x="960" y="376" width="80.552734375" height="48"/></g><g transform="translate(-126,-150) scale(1,1)"><path fill="none" stroke="#000000" d="M 960 376 L 1040.552734375 376 L 1040.552734375 424 L 960 424 L 960 376 Z Z" stroke-miterlimit="10"/></g><g transform="translate(-126,-150) scale(1,1)"><path fill="#ffffff" stroke="none" d="M 1014.552734375 393 C 1014.552734375 388.0294368 1018.582171175 384 1023.552734375 384 C 1028.523297575 384 1032.552734375 388.0294368 1032.552734375 393 C 1032.552734375 397.9705632 1028.523297575 402 1023.552734375 402 C 1018.582171175 402 1014.552734375 397.9705632 1014.552734375 393 Z"/></g><g transform="translate(-126,-150) scale(1,1)"><path fill="none" stroke="#000000" d="M 1014.552734375 393 C 1014.552734375 388.0294368 1018.582171175 384 1023.552734375 384 C 1028.523297575 384 1032.552734375 388.0294368 1032.552734375 393 C 1032.552734375 397.9705632 1028.523297575 402 1023.552734375 402 C 1018.582171175 402 1014.552734375 397.9705632 1014.552734375 393 Z" stroke-miterlimit="10"/></g><g transform="translate(-126,-150) scale(1,1)"><g><path fill="none" stroke="none"/><text fill="#000000" stroke="none" font-family="Arial" font-size="13px" font-style="normal" font-weight="bold" text-decoration="none" x="970.57275390625" y="395.5">Model</text></g></g><g transform="translate(-126,-150) scale(1,1)"><path fill="none" stroke="#000000" d="M 333 272 L 333 208 L 961 208 L 961 304" stroke-miterlimit="10" stroke-dasharray="3"/></g><g transform="translate(-126,-150) scale(1,1)"><path fill="none" stroke="#000000" d="M 956.790482243984 293.83732514237585 L 961 304 L 965.209517756016 293.83732514237585" stroke-miterlimit="10"/></g><g transform="translate(-126,-150) scale(1,1)"><path fill="none" stroke="#000000" d="M 333 272 L 333 220 L 1000 220 L 1000 376" stroke-miterlimit="10" stroke-dasharray="3"/></g><g transform="translate(-126,-150) scale(1,1)"><path fill="none" stroke="#000000" d="M 995.790482243984 365.83732514237585 L 1000 376 L 1004.209517756016 365.83732514237585" stroke-miterlimit="10"/></g><g transform="translate(-126,-150) scale(1,1)"><path fill="none" stroke="#000000" d="M 628 513 L 399 711" stroke-miterlimit="10" stroke-dasharray="3"/></g><g transform="translate(-126,-150) scale(1,1)"><path fill="none" stroke="#000000" d="M 403.93433659605205 701.1688087010342 L 399 711 L 409.44080490236627 707.5374008330845" stroke-miterlimit="10"/></g><g transform="translate(-126,-150) scale(1,1)"><path fill="none" stroke="#000000" d="M 651 513 L 470 711" stroke-miterlimit="10" stroke-dasharray="3"/></g><g transform="translate(-126,-150) scale(1,1)"><path fill="none" stroke="#000000" d="M 473.7499017506007 700.6589054321681 L 470 711 L 479.96383905043837 706.3393228628278" stroke-miterlimit="10"/></g><g transform="translate(-126,-150) scale(1,1)"><path fill="none" stroke="#000000" d="M 672 513 L 534 711" stroke-miterlimit="10" stroke-dasharray="3"/></g><g transform="translate(-126,-150) scale(1,1)"><path fill="none" stroke="#000000" d="M 536.3574622566912 700.2555888151898 L 534 711 L 543.2644235567336 705.0695315394618" stroke-miterlimit="10"/></g><g transform="translate(-126,-150) scale(1,1)"><path fill="none" stroke="#000000" d="M 710 513 L 648 711" stroke-miterlimit="10" stroke-dasharray="3"/></g><g transform="translate(-126,-150) scale(1,1)"><path fill="none" stroke="#000000" d="M 647.0196714992277 700.043770902789 L 648 711 L 655.0540269601847 702.5595791784422" stroke-miterlimit="10"/></g><g transform="translate(-126,-150) scale(1,1)"><path fill="none" stroke="#000000" d="M 731 513 L 711 711" stroke-miterlimit="10" stroke-dasharray="3"/></g><g transform="translate(-126,-150) scale(1,1)"><path fill="none" stroke="#000000" d="M 707.8331299089916 700.4657257570027 L 711 711 L 716.2095414356132 701.311827931409" stroke-miterlimit="10"/></g><g transform="translate(-126,-150) scale(1,1)"><path fill="none" stroke="#000000" d="M 756 513 L 786 703" stroke-miterlimit="10" stroke-dasharray="3"/></g><g transform="translate(-126,-150) scale(1,1)"><path fill="none" stroke="#000000" d="M 780.2569973345478 693.6182133692665 L 786 703 L 788.5730088171232 692.3051589246494" stroke-miterlimit="10"/></g><g transform="translate(-126,-150) scale(1,1)"><path fill="none" stroke="#000000" d="M 591 513 L 287 711" stroke-miterlimit="10"/></g><g transform="translate(-126,-150) scale(1,1)"><path fill="none" stroke="#000000" d="M 293.2183063660789 701.9262650502903 L 287 711 L 297.81310611257896 708.9809070853207" stroke-miterlimit="10"/></g><g transform="translate(-126,-150) scale(1,1)"><g><path fill="none" stroke="none"/><text fill="#000000" stroke="none" font-family="Arial" font-size="13px" font-style="normal" font-weight="normal" text-decoration="none" x="384.13134765625" y="646.5">-orderManager</text></g></g><g transform="translate(-126,-150) scale(1,1)"><rect fill="#C0C0C0" stroke="none" x="927" y="655" width="54.39999999999998" height="15" opacity="0.2"/></g><g transform="translate(-126,-150) scale(1,1)"><rect fill="#C0C0C0" stroke="none" x="927" y="669" width="136" height="122" opacity="0.2"/></g><g transform="translate(-126,-150) scale(1,1)"><rect fill="#ffffff" stroke="none" x="920" y="663" width="136" height="121"/></g><g transform="translate(-126,-150) scale(1,1)"><path fill="none" stroke="#000000" d="M 920 663 L 1056 663 L 1056 784 L 920 784 L 920 663 Z Z" stroke-miterlimit="10"/></g><g transform="translate(-126,-150) scale(1,1)"><rect fill="#ffffff" stroke="none" x="920" y="648" width="54.39999999999998" height="15"/></g><g transform="translate(-126,-150) scale(1,1)"><path fill="none" stroke="#000000" d="M 920 648 L 974.4 648 L 974.4 663 L 920 663 L 920 648 Z Z" stroke-miterlimit="10"/></g><g transform="translate(-126,-150) scale(1,1)"><rect fill="#ffffff" stroke="none" x="920" y="662" width="136" height="122"/></g><g transform="translate(-126,-150) scale(1,1)"><path fill="none" stroke="#000000" d="M 920 662 L 1056 662 L 1056 784 L 920 784 L 920 662 Z Z" stroke-miterlimit="10"/></g><g transform="translate(-126,-150) scale(1,1)"><g><path fill="none" stroke="none"/><text fill="#000000" stroke="none" font-family="Arial" font-size="13px" font-style="normal" font-weight="bold" text-decoration="none" x="974.27001953125" y="682.5">Java</text></g></g><g transform="translate(-126,-150) scale(1,1)"><rect fill="#C0C0C0" stroke="none" x="975" y="695" width="66.078125" height="44" opacity="0.2"/></g><g transform="translate(-126,-150) scale(1,1)"><rect fill="#ffffff" stroke="none" x="968" y="688" width="66.078125" height="44"/></g><g transform="translate(-126,-150) scale(1,1)"><path fill="none" stroke="#000000" d="M 968 688 L 1034.078125 688 L 1034.078125 732 L 968 732 L 968 688 Z Z" stroke-miterlimit="10"/></g><g transform="translate(-126,-150) scale(1,1)"><path fill="none" stroke="#000000" d="M 968 713 L 1034.078125 713" stroke-miterlimit="10"/></g><g transform="translate(-126,-150) scale(1,1)"><path fill="none" stroke="#000000" d="M 968 723 L 1034.078125 723" stroke-miterlimit="10"/></g><g transform="translate(-126,-150) scale(1,1)"><g><path fill="none" stroke="none"/><text fill="#000000" stroke="none" font-family="Arial" font-size="13px" font-style="normal" font-weight="bold" text-decoration="none" x="975.39453125" y="707.5">ArrayList</text></g></g><g transform="translate(-126,-150) scale(1,1)"><rect fill="#C0C0C0" stroke="none" x="943" y="735" width="50.919921875" height="44" opacity="0.2"/></g><g transform="translate(-126,-150) scale(1,1)"><rect fill="#ffffff" stroke="none" x="936" y="728" width="50.919921875" height="44"/></g><g transform="translate(-126,-150) scale(1,1)"><path fill="none" stroke="#000000" d="M 936 728 L 986.919921875 728 L 986.919921875 772 L 936 772 L 936 728 Z Z" stroke-miterlimit="10"/></g><g transform="translate(-126,-150) scale(1,1)"><path fill="none" stroke="#000000" d="M 936 753 L 986.919921875 753" stroke-miterlimit="10"/></g><g transform="translate(-126,-150) scale(1,1)"><path fill="none" stroke="#000000" d="M 936 763 L 986.919921875 763" stroke-miterlimit="10"/></g><g transform="translate(-126,-150) scale(1,1)"><g><path fill="none" stroke="none"/><text fill="#000000" stroke="none" font-family="Arial" font-size="13px" font-style="normal" font-weight="bold" text-decoration="none" x="951.344970703125" y="747.5">List</text></g></g><g transform="translate(-126,-150) scale(1,1)"><path fill="none" stroke="#000000" d="M 804 513 L 946 727" stroke-miterlimit="10" stroke-dasharray="3"/></g><g transform="translate(-126,-150) scale(1,1)"><path fill="none" stroke="#000000" d="M 936.8734730100921 720.8594377209832 L 946 727 L 943.8886041045452 716.2045376489631" stroke-miterlimit="10"/></g><g transform="translate(-126,-150) scale(1,1)"><path fill="none" stroke="#000000" d="M 826 513 L 981 687" stroke-miterlimit="10" stroke-dasharray="3"/></g><g transform="translate(-126,-150) scale(1,1)"><path fill="none" stroke="#000000" d="M 971.0969283611643 682.2115584877658 L 981 687 L 977.3834103542191 676.6115314249871" stroke-miterlimit="10"/></g><g transform="translate(-126,-150) scale(1,1)"><rect fill="#C0C0C0" stroke="none" x="999" y="735" width="53.078125" height="44" opacity="0.2"/></g><g transform="translate(-126,-150) scale(1,1)"><rect fill="#ffffff" stroke="none" x="992" y="728" width="53.078125" height="44"/></g><g transform="translate(-126,-150) scale(1,1)"><path fill="none" stroke="#000000" d="M 992 728 L 1045.078125 728 L 1045.078125 772 L 992 772 L 992 728 Z Z" stroke-miterlimit="10"/></g><g transform="translate(-126,-150) scale(1,1)"><path fill="none" stroke="#000000" d="M 992 753 L 1045.078125 753" stroke-miterlimit="10"/></g><g transform="translate(-126,-150) scale(1,1)"><path fill="none" stroke="#000000" d="M 992 763 L 1045.078125 763" stroke-miterlimit="10"/></g><g transform="translate(-126,-150) scale(1,1)"><g><path fill="none" stroke="none"/><text fill="#000000" stroke="none" font-family="Arial" font-size="13px" font-style="normal" font-weight="bold" text-decoration="none" x="997.588623046875" y="747.5">Stream</text></g></g><g transform="translate(-126,-150) scale(1,1)"><path fill="none" stroke="#000000" d="M 821 513 L 999 727" stroke-miterlimit="10" stroke-dasharray="3"/></g><g transform="translate(-126,-150) scale(1,1)"><path fill="none" stroke="#000000" d="M 989.2648802419656 721.8787263989583 L 999 727 L 995.7375180950389 716.4949435118224" stroke-miterlimit="10"/></g><g transform="translate(-126,-150) scale(1,1)"><rect fill="#C0C0C0" stroke="none" x="583" y="327" width="328.73779296875" height="192" opacity="0.2"/></g><g transform="translate(-126,-150) scale(1,1)"><rect fill="#ffffff" stroke="none" x="576" y="320" width="328.73779296875" height="192"/></g><g transform="translate(-126,-150) scale(1,1)"><path fill="none" stroke="#000000" d="M 576 320 L 904.73779296875 320 L 904.73779296875 512 L 576 512 L 576 320 Z Z" stroke-miterlimit="10"/></g><g transform="translate(-126,-150) scale(1,1)"><path fill="none" stroke="#000000" d="M 576 345 L 904.73779296875 345" stroke-miterlimit="10"/></g><g transform="translate(-126,-150) scale(1,1)"><path fill="none" stroke="#000000" d="M 576 355 L 904.73779296875 355" stroke-miterlimit="10"/></g><g transform="translate(-126,-150) scale(1,1)"><g><path fill="none" stroke="none"/><text fill="#000000" stroke="none" font-family="Arial" font-size="13px" font-style="normal" font-weight="bold" text-decoration="none" x="678.23486328125" y="339.5">MampfOrderManager</text></g></g><g transform="translate(-126,-150) scale(1,1)"><g><path fill="none" stroke="none"/><text fill="#000000" stroke="none" font-family="Arial" font-size="13px" font-style="normal" font-weight="normal" text-decoration="none" x="581" y="372.5">+OrderManager(OrderManagement orderManagement)</text></g></g><g transform="translate(-126,-150) scale(1,1)"><g><path fill="none" stroke="none"/><text fill="#000000" stroke="none" font-family="Arial" font-size="13px" font-style="normal" font-weight="normal" text-decoration="none" x="581" y="387.5">+findOrderById(user: Useraccount)</text></g></g><g transform="translate(-126,-150) scale(1,1)"><g><path fill="none" stroke="none"/><text fill="#000000" stroke="none" font-family="Arial" font-size="13px" font-style="normal" font-weight="normal" text-decoration="none" x="581" y="402.5">+getOrdersByEmployee()</text></g></g><g transform="translate(-126,-150) scale(1,1)"><g><path fill="none" stroke="none"/><text fill="#000000" stroke="none" font-family="Arial" font-size="13px" font-style="normal" font-weight="normal" text-decoration="none" x="581" y="417.5">+save(order: MampfOrder): Order</text></g></g><g transform="translate(-126,-150) scale(1,1)"><g><path fill="none" stroke="none"/><text fill="#000000" stroke="none" font-family="Arial" font-size="13px" font-style="normal" font-weight="normal" text-decoration="none" x="581" y="432.5">+completeOrder(order: MampfOrder)</text></g></g><g transform="translate(-126,-150) scale(1,1)"><g><path fill="none" stroke="none"/><text fill="#000000" stroke="none" font-family="Arial" font-size="13px" font-style="normal" font-weight="normal" text-decoration="none" x="581" y="447.5">+payOrder(order: MampfOrder): boolean</text></g></g><g transform="translate(-126,-150) scale(1,1)"><g><path fill="none" stroke="none"/><text fill="#000000" stroke="none" font-family="Arial" font-size="13px" font-style="normal" font-weight="normal" text-decoration="none" x="581" y="462.5">+getOrderManagement(): OrderManagement</text></g></g><g transform="translate(-126,-150) scale(1,1)"><g><path fill="none" stroke="none"/><text fill="#000000" stroke="none" font-family="Arial" font-size="13px" font-style="normal" font-weight="normal" text-decoration="none" x="581" y="477.5">+findAll(): ArrayList</text></g></g><g transform="translate(-126,-150) scale(1,1)"><path fill="none" stroke="#000000" d="M 371 577 L 372 711" stroke-miterlimit="10" stroke-dasharray="3"/></g><g transform="translate(-126,-150) scale(1,1)"><path fill="none" stroke="#000000" d="M 367.714760711287 700.8690215557198 L 372 711 L 376.13356179794926 700.8061946819387" stroke-miterlimit="10"/></g><g transform="translate(-126,-150) scale(1,1)"><path fill="none" stroke="#000000" d="M 417 577 L 503 711" stroke-miterlimit="10" stroke-dasharray="3"/></g><g transform="translate(-126,-150) scale(1,1)"><path fill="none" stroke="#000000" d="M 493.968237074139 704.7208871286589 L 503 711 L 501.0535824802155 700.1735758978933" stroke-miterlimit="10"/></g><g transform="translate(-126,-150) scale(1,1)"><rect fill="#C0C0C0" stroke="none" x="447" y="759" width="71.12451171875" height="44" opacity="0.2"/></g><g transform="translate(-126,-150) scale(1,1)"><rect fill="#ffffff" stroke="none" x="440" y="752" width="71.12451171875" height="44"/></g><g transform="translate(-126,-150) scale(1,1)"><path fill="none" stroke="#000000" d="M 440 752 L 511.12451171875 752 L 511.12451171875 796 L 440 796 L 440 752 Z Z" stroke-miterlimit="10"/></g><g transform="translate(-126,-150) scale(1,1)"><path fill="none" stroke="#000000" d="M 440 777 L 511.12451171875 777" stroke-miterlimit="10"/></g><g transform="translate(-126,-150) scale(1,1)"><path fill="none" stroke="#000000" d="M 440 787 L 511.12451171875 787" stroke-miterlimit="10"/></g><g transform="translate(-126,-150) scale(1,1)"><g><path fill="none" stroke="none"/><text fill="#000000" stroke="none" font-family="Arial" font-size="13px" font-style="normal" font-weight="bold" text-decoration="none" x="446.658203125" y="771.5">OrderLine</text></g></g><g transform="translate(-126,-150) scale(1,1)"><rect fill="#C0C0C0" stroke="none" x="199" y="439" width="356.927734375" height="144" opacity="0.2"/></g><g transform="translate(-126,-150) scale(1,1)"><rect fill="#ffffff" stroke="none" x="192" y="432" width="356.927734375" height="144"/></g><g transform="translate(-126,-150) scale(1,1)"><path fill="none" stroke="#000000" d="M 192 432 L 548.927734375 432 L 548.927734375 576 L 192 576 L 192 432 Z Z" stroke-miterlimit="10"/></g><g transform="translate(-126,-150) scale(1,1)"><path fill="none" stroke="#000000" d="M 192 457 L 548.927734375 457" stroke-miterlimit="10"/></g><g transform="translate(-126,-150) scale(1,1)"><path fill="none" stroke="#000000" d="M 192 510 L 548.927734375 510" stroke-miterlimit="10"/></g><g transform="translate(-126,-150) scale(1,1)"><g><path fill="none" stroke="none"/><text fill="#000000" stroke="none" font-family="Arial" font-size="13px" font-style="normal" font-weight="bold" text-decoration="none" x="333.98388671875" y="451.5">MampfOrder</text></g></g><g transform="translate(-126,-150) scale(1,1)"><g><path fill="none" stroke="none"/><text fill="#000000" stroke="none" font-family="Arial" font-size="13px" font-style="normal" font-weight="normal" text-decoration="none" x="197" y="474.5">-done: boolean</text></g></g><g transform="translate(-126,-150) scale(1,1)"><g><path fill="none" stroke="none"/><text fill="#000000" stroke="none" font-family="Arial" font-size="13px" font-style="normal" font-weight="normal" text-decoration="none" x="197" y="489.5">-needsAllocation: boolean</text></g></g><g transform="translate(-126,-150) scale(1,1)"><g><path fill="none" stroke="none"/><text fill="#000000" stroke="none" font-family="Arial" font-size="13px" font-style="normal" font-weight="normal" text-decoration="none" x="197" y="504.5">-employees: ArrayList</text></g></g><g transform="translate(-126,-150) scale(1,1)"><g><path fill="none" stroke="none"/><text fill="#000000" stroke="none" font-family="Arial" font-size="13px" font-style="normal" font-weight="normal" text-decoration="none" x="197" y="529.5">+isDone(): boolean</text></g></g><g transform="translate(-126,-150) scale(1,1)"><g><path fill="none" stroke="none"/><text fill="#000000" stroke="none" font-family="Arial" font-size="13px" font-style="normal" font-weight="normal" text-decoration="none" x="197" y="544.5">+MampfOrder(user: UserAccount, cash: Cash)</text></g></g><g transform="translate(-126,-150) scale(1,1)"><g><path fill="none" stroke="none"/><text fill="#000000" stroke="none" font-family="Arial" font-size="13px" font-style="normal" font-weight="normal" text-decoration="none" x="197" y="559.5">+addOrderLine(product: Item, quantitiy: Quantity): OrderLine</text></g></g><g transform="translate(-126,-150) scale(1,1)"><path fill="none" stroke="#000000" d="M 332 577 L 262 711" stroke-miterlimit="10"/></g><g transform="translate(-126,-150) scale(1,1)"><path fill="#FFFFFF" stroke="none" d="M 262.974400731961 700.0432421212498 L 262 711 L 270.43660316104615 703.9414075692794 L 272.18639721071224 691.5003253394937"/></g><g transform="translate(-126,-150) scale(1,1)"><path fill="none" stroke="#000000" d="M 262.974400731961 700.0432421212498 L 262 711 L 270.43660316104615 703.9414075692794 L 272.18639721071224 691.5003253394937 L 262.974400731961 700.0432421212498" stroke-miterlimit="10"/></g><g transform="translate(-126,-150) scale(1,1)"><g><path fill="none" stroke="none"/><text fill="#000000" stroke="none" font-family="Arial" font-size="13px" font-style="normal" font-weight="normal" text-decoration="none" x="289.5" y="656.5">-orders</text></g></g><g transform="translate(-126,-150) scale(1,1)"><path fill="none" stroke="#000000" d="M 456 577 L 615 712" stroke-miterlimit="10" stroke-dasharray="3"/></g><g transform="translate(-126,-150) scale(1,1)"><path fill="none" stroke="#000000" d="M 604.5285234903332 708.6312940603999 L 615 712 L 609.9775827646936 702.2135131372644" stroke-miterlimit="10"/></g><g transform="translate(-126,-150) scale(1,1)"><path fill="none" stroke="#000000" d="M 466 751 L 398 577" stroke-miterlimit="10"/></g><g transform="translate(-126,-150) scale(1,1)"><path fill="#FFFFFF" stroke="none" d="M 405.6199170460021 584.9332757554523 L 398 577 L 397.77842193160393 587.9977680990102 L 406.00790440448 597.4908142114634"/></g><g transform="translate(-126,-150) scale(1,1)"><path fill="none" stroke="#000000" d="M 405.6199170460021 584.9332757554523 L 398 577 L 397.77842193160393 587.9977680990102 L 406.00790440448 597.4908142114634 L 405.6199170460021 584.9332757554523" stroke-miterlimit="10"/></g><g transform="translate(-126,-150) scale(1,1)"><g><path fill="none" stroke="none"/><text fill="#000000" stroke="none" font-family="Arial" font-size="13px" font-style="normal" font-weight="normal" text-decoration="none" x="368.5" y="759.5">+orderLines</text></g></g><g transform="translate(-126,-150) scale(1,1)"><g><path fill="none" stroke="none"/><text fill="#000000" stroke="none" font-family="Arial" font-size="13px" font-style="normal" font-weight="normal" text-decoration="none" x="415.5" y="777.5">1..*</text></g></g><g transform="translate(-126,-150) scale(1,1)"><path fill="none" stroke="#000000" d="M 550 563 L 967 699" stroke-miterlimit="10" stroke-dasharray="3"/></g><g transform="translate(-126,-150) scale(1,1)"><path fill="none" stroke="#000000" d="M 956.0329644340587 699.8509588094489 L 967 699 L 958.6434160371371 691.8468535264807" stroke-miterlimit="10"/></g><g transform="translate(-126,-150) scale(1,1)"><path fill="none" stroke="#000000" d="M 545 577 L 935 739" stroke-miterlimit="10" stroke-dasharray="3"/></g><g transform="translate(-126,-150) scale(1,1)"><path fill="none" stroke="#000000" d="M 924.0000054905685 738.9890094369543 L 935 739 L 927.2296007910248 731.2140577877075" stroke-miterlimit="10"/></g><g transform="translate(-126,-150) scale(1,1)"><rect fill="#C0C0C0" stroke="none" x="183" y="279" width="362.6787109375" height="147" opacity="0.2"/></g><g transform="translate(-126,-150) scale(1,1)"><rect fill="#ffffff" stroke="none" x="176" y="272" width="362.6787109375" height="147"/></g><g transform="translate(-126,-150) scale(1,1)"><path fill="none" stroke="#000000" d="M 176 272 L 538.6787109375 272 L 538.6787109375 419 L 176 419 L 176 272 Z Z" stroke-miterlimit="10"/></g><g transform="translate(-126,-150) scale(1,1)"><path fill="none" stroke="#000000" d="M 176 297 L 538.6787109375 297" stroke-miterlimit="10"/></g><g transform="translate(-126,-150) scale(1,1)"><path fill="none" stroke="#000000" d="M 176 307 L 538.6787109375 307" stroke-miterlimit="10"/></g><g transform="translate(-126,-150) scale(1,1)"><g><path fill="none" stroke="none"/><text fill="#000000" stroke="none" font-family="Arial" font-size="13px" font-style="normal" font-weight="bold" text-decoration="none" x="312.547119140625" y="291.5">OrderController</text></g></g><g transform="translate(-126,-150) scale(1,1)"><g><path fill="none" stroke="none"/><text fill="#000000" stroke="none" font-family="Arial" font-size="13px" font-style="normal" font-weight="normal" text-decoration="none" x="181" y="324.5">+initializeCart(): Cart</text></g></g><g transform="translate(-126,-150) scale(1,1)"><g><path fill="none" stroke="none"/><text fill="#000000" stroke="none" font-family="Arial" font-size="13px" font-style="normal" font-weight="normal" text-decoration="none" x="181" y="339.5">+OrderController(orderManager: MampfOrderManager)</text></g></g><g transform="translate(-126,-150) scale(1,1)"><g><path fill="none" stroke="none"/><text fill="#000000" stroke="none" font-family="Arial" font-size="13px" font-style="normal" font-weight="normal" text-decoration="none" x="181" y="354.5">+addItem(item: Item, number: int, cart: Cart): String</text></g></g><g transform="translate(-126,-150) scale(1,1)"><g><path fill="none" stroke="none"/><text fill="#000000" stroke="none" font-family="Arial" font-size="13px" font-style="normal" font-weight="normal" text-decoration="none" x="181" y="369.5">+basket(): String</text></g></g><g transform="translate(-126,-150) scale(1,1)"><g><path fill="none" stroke="none"/><text fill="#000000" stroke="none" font-family="Arial" font-size="13px" font-style="normal" font-weight="normal" text-decoration="none" x="181" y="384.5">+buy(cart: Cart, userAccount Optional of UserAccount): string</text></g></g><g transform="translate(-126,-150) scale(1,1)"><g><path fill="none" stroke="none"/><text fill="#000000" stroke="none" font-family="Arial" font-size="13px" font-style="normal" font-weight="normal" text-decoration="none" x="181" y="399.5">+order(model: Model): String</text></g></g><g transform="translate(-126,-150) scale(1,1)"><g><path fill="none" stroke="none"/><text fill="#000000" stroke="none" font-family="Arial" font-size="13px" font-style="normal" font-weight="normal" text-decoration="none" x="181" y="414.5">+editOrder(model: Model, order: MampfOrder): String</text></g></g><g transform="translate(-126,-150) scale(1,1)"><path fill="none" stroke="#000000" d="M 176 419 L 152 419 L 152 880 L 568 880 L 568 756" stroke-miterlimit="10" stroke-dasharray="3"/></g><g transform="translate(-126,-150) scale(1,1)"><path fill="none" stroke="#000000" d="M 572.209517756016 766.1626748576241 L 568 756 L 563.790482243984 766.1626748576241" stroke-miterlimit="10"/></g><g transform="translate(-126,-150) scale(1,1)"><path fill="none" stroke="#000000" d="M 575 385 L 540 379" stroke-miterlimit="10"/></g><g transform="translate(-126,-150) scale(1,1)"><path fill="#FFFFFF" stroke="none" d="M 550.7278146879389 376.5681299333143 L 540 379 L 549.3053023282723 384.8661186980362 L 561.6836896058919 382.7172039324386"/></g><g transform="translate(-126,-150) scale(1,1)"><path fill="none" stroke="#000000" d="M 550.7278146879389 376.5681299333143 L 540 379 L 549.3053023282723 384.8661186980362 L 561.6836896058919 382.7172039324386 L 550.7278146879389 376.5681299333143" stroke-miterlimit="10"/></g><g transform="translate(-126,-150) scale(1,1)"><g><path fill="none" stroke="none"/><text fill="#000000" stroke="none" font-family="Arial" font-size="13px" font-style="normal" font-weight="normal" text-decoration="none" x="503.5" y="401.5">-orderManager</text></g></g><g transform="translate(-126,-150) scale(1,1)"><g><path fill="none" stroke="none"/><text fill="#000000" stroke="none" font-family="Arial" font-size="13px" font-style="normal" font-weight="normal" text-decoration="none" x="551.5" y="375.5">1</text></g></g><g transform="translate(-126,-150) scale(1,1)"><path fill="none" stroke="#000000" d="M 176 419 L 152 419 L 152 864 L 520 864 L 520 756" stroke-miterlimit="10" stroke-dasharray="3"/></g><g transform="translate(-126,-150) scale(1,1)"><path fill="none" stroke="#000000" d="M 524.209517756016 766.1626748576241 L 520 756 L 515.790482243984 766.1626748576241" stroke-miterlimit="10"/></g><g transform="translate(-126,-150) scale(1,1)"><path fill="none" stroke="#000000" d="M 363 420 L 364 431" stroke-miterlimit="10" stroke-dasharray="3"/></g><g transform="translate(-126,-150) scale(1,1)"><path fill="none" stroke="#000000" d="M 358.88768451425597 421.2601729802721 L 364 431 L 367.27214478569897 420.49794931923185" stroke-miterlimit="10"/></g><g transform="translate(-126,-150) scale(1,1)"><path fill="none" stroke="#000000" d="M 176 419 L 152 419 L 152 896 L 632 896 L 632 756" stroke-miterlimit="10" stroke-dasharray="3"/></g><g transform="translate(-126,-150) scale(1,1)"><path fill="none" stroke="#000000" d="M 636.209517756016 766.1626748576241 L 632 756 L 627.790482243984 766.1626748576241" stroke-miterlimit="10"/></g><g transform="translate(-126,-150) scale(1,1)"><path fill="none" stroke="#000000" d="M 176 419 L 152 419 L 152 832 L 1072 832 L 1072 712 L 1034 712" stroke-miterlimit="10" stroke-dasharray="3"/></g><g transform="translate(-126,-150) scale(1,1)"><path fill="none" stroke="#000000" d="M 1044.162674857624 707.790482243984 L 1034 712 L 1044.162674857624 716.209517756016" stroke-miterlimit="10"/></g></g></svg>