<svg version="1.1" xmlns="http://www.w3.org/2000/svg" xmlns:xlink="http://www.w3.org/1999/xlink" width="860" height="851"><defs/><g><g transform="translate(-118,-46) scale(1,1)"><path fill="none" stroke="#000000" d="M 320 256 L 411.29541015625 256 L 411.29541015625 308 L 320 308 L 320 256" stroke-miterlimit="10"/></g><g transform="translate(-118,-46) scale(1,1)"><path fill="#ffffff" stroke="none" d="M 320 256 L 320 278 L 393.79541015625 278 L 404.79541015625 267 L 404.79541015625 256 L 320 256"/></g><g transform="translate(-118,-46) scale(1,1)"><path fill="none" stroke="#000000" d="M 320 256 L 320 278 L 393.79541015625 278 L 404.79541015625 267 L 404.79541015625 256 L 320 256 L 320 256" stroke-miterlimit="10"/></g><g transform="translate(-118,-46) scale(1,1)"><g><path fill="none" stroke="none"/><text fill="#000000" stroke="none" font-family="Arial" font-size="13px" font-style="normal" font-weight="normal" text-decoration="none" x="360.6181640625" y="273.5">Main</text></g></g><g transform="translate(-118,-46) scale(1,1)"><g><path fill="none" stroke="none"/><text fill="#000000" stroke="none" font-family="Arial" font-size="13px" font-style="normal" font-weight="bold" text-decoration="none" x="325" y="273.5">class</text></g></g><g transform="translate(-118,-46) scale(1,1)"><path fill="none" stroke="#000000" d="M 128 56 L 968 56 L 968 887 L 128 887 L 128 56" stroke-miterlimit="10"/></g><g transform="translate(-118,-46) scale(1,1)"><path fill="#ffffff" stroke="none" d="M 128 56 L 128 78 L 271.88623046875 78 L 282.88623046875 67 L 282.88623046875 56 L 128 56"/></g><g transform="translate(-118,-46) scale(1,1)"><path fill="none" stroke="#000000" d="M 128 56 L 128 78 L 271.88623046875 78 L 282.88623046875 67 L 282.88623046875 56 L 128 56 L 128 56" stroke-miterlimit="10"/></g><g transform="translate(-118,-46) scale(1,1)"><g><path fill="none" stroke="none"/><text fill="#000000" stroke="none" font-family="Arial" font-size="13px" font-style="normal" font-weight="normal" text-decoration="none" x="139" y="73.5">pkg Mampf [inventory]</text></g></g><g transform="translate(-118,-46) scale(1,1)"><g><path fill="none" stroke="none"/><text fill="#000000" stroke="none" font-family="Arial" font-size="13px" font-style="normal" font-weight="bold" text-decoration="none" x="133" y="73.5"></text></g></g><g transform="translate(-118,-46) scale(1,1)"><rect fill="#C0C0C0" stroke="none" x="199" y="159" width="99.19999999999999" height="15" opacity="0.2"/></g><g transform="translate(-118,-46) scale(1,1)"><rect fill="#C0C0C0" stroke="none" x="199" y="173" width="248" height="234" opacity="0.2"/></g><g transform="translate(-118,-46) scale(1,1)"><rect fill="#ffffff" stroke="none" x="192" y="167" width="248" height="233"/></g><g transform="translate(-118,-46) scale(1,1)"><path fill="none" stroke="#000000" d="M 192 167 L 440 167 L 440 400 L 192 400 L 192 167 Z Z" stroke-miterlimit="10"/></g><g transform="translate(-118,-46) scale(1,1)"><rect fill="#ffffff" stroke="none" x="192" y="152" width="99.19999999999999" height="15"/></g><g transform="translate(-118,-46) scale(1,1)"><path fill="none" stroke="#000000" d="M 192 152 L 291.2 152 L 291.2 167 L 192 167 L 192 152 Z Z" stroke-miterlimit="10"/></g><g transform="translate(-118,-46) scale(1,1)"><rect fill="#ffffff" stroke="none" x="192" y="166" width="248" height="234"/></g><g transform="translate(-118,-46) scale(1,1)"><path fill="none" stroke="#000000" d="M 192 166 L 440 166 L 440 400 L 192 400 L 192 166 Z Z" stroke-miterlimit="10"/></g><g transform="translate(-118,-46) scale(1,1)"><g><path fill="none" stroke="none"/><text fill="#000000" stroke="none" font-family="Arial" font-size="13px" font-style="normal" font-weight="bold" text-decoration="none" x="285.6455078125" y="186.5">Salespoint</text></g></g><g transform="translate(-118,-46) scale(1,1)"><rect fill="#C0C0C0" stroke="none" x="255" y="359" width="95.7236328125" height="32" opacity="0.2"/></g><g transform="translate(-118,-46) scale(1,1)"><rect fill="#ffffff" stroke="none" x="248" y="352" width="95.7236328125" height="32"/></g><g transform="translate(-118,-46) scale(1,1)"><path fill="none" stroke="#000000" d="M 248 352 L 343.7236328125 352 L 343.7236328125 384 L 248 384 L 248 352 Z Z" stroke-miterlimit="10"/></g><g transform="translate(-118,-46) scale(1,1)"><g><path fill="none" stroke="none"/><text fill="#000000" stroke="none" font-family="Arial" font-size="13px" font-style="normal" font-weight="bold" text-decoration="none" x="271.655029296875" y="371.5">Quantity</text></g></g><g transform="translate(-118,-46) scale(1,1)"><rect fill="#C0C0C0" stroke="none" x="255" y="295" width="138.29541015625" height="44" opacity="0.2"/></g><g transform="translate(-118,-46) scale(1,1)"><rect fill="#ffffff" stroke="none" x="248" y="288" width="138.29541015625" height="44"/></g><g transform="translate(-118,-46) scale(1,1)"><path fill="none" stroke="#000000" d="M 248 288 L 386.29541015625 288 L 386.29541015625 332 L 248 332 L 248 288 Z Z" stroke-miterlimit="10"/></g><g transform="translate(-118,-46) scale(1,1)"><g><path fill="none" stroke="none"/><text fill="#000000" stroke="none" font-family="Arial" font-size="13px" font-style="normal" font-weight="bold" text-decoration="none" x="257.171875" y="307.5">UniqueInventoryItem</text></g></g><g transform="translate(-118,-46) scale(1,1)"><rect fill="#C0C0C0" stroke="none" x="247" y="225" width="165.5654296875" height="48" opacity="0.2"/></g><g transform="translate(-118,-46) scale(1,1)"><rect fill="#C0C0C0" stroke="none" x="292.61376953125" y="207" width="128.95166015625" height="22" opacity="0.2"/></g><g transform="translate(-118,-46) scale(1,1)"><rect fill="#ffffff" stroke="none" x="240" y="218" width="165.5654296875" height="48"/></g><g transform="translate(-118,-46) scale(1,1)"><path fill="none" stroke="#000000" d="M 240 218 L 405.5654296875 218 L 405.5654296875 266 L 240 266 L 240 218 Z Z" stroke-miterlimit="10"/></g><g transform="translate(-118,-46) scale(1,1)"><path fill="#ffffff" stroke="none" d="M 379.5654296875 235 C 379.5654296875 230.0294368 383.5948664875 226 388.5654296875 226 C 393.5359928875 226 397.5654296875 230.0294368 397.5654296875 235 C 397.5654296875 239.9705632 393.5359928875 244 388.5654296875 244 C 383.5948664875 244 379.5654296875 239.9705632 379.5654296875 235 Z"/></g><g transform="translate(-118,-46) scale(1,1)"><path fill="none" stroke="#000000" d="M 379.5654296875 235 C 379.5654296875 230.0294368 383.5948664875 226 388.5654296875 226 C 393.5359928875 226 397.5654296875 230.0294368 397.5654296875 235 C 397.5654296875 239.9705632 393.5359928875 244 388.5654296875 244 C 383.5948664875 244 379.5654296875 239.9705632 379.5654296875 235 Z" stroke-miterlimit="10"/></g><g transform="translate(-118,-46) scale(1,1)"><g><path fill="none" stroke="none"/><text fill="#000000" stroke="none" font-family="Arial" font-size="13px" font-style="normal" font-weight="bold" text-decoration="none" x="268.4482421875" y="237.5">UniqueInventory</text></g></g><g transform="translate(-118,-46) scale(1,1)"><rect fill="#ffffff" stroke="none" x="285.61376953125" y="200" width="128.95166015625" height="22"/></g><g transform="translate(-118,-46) scale(1,1)"><path fill="none" stroke="#000000" d="M 285.61376953125 200 L 414.5654296875 200 L 414.5654296875 222 L 285.61376953125 222 L 285.61376953125 200 Z Z" stroke-miterlimit="10" stroke-dasharray="3"/></g><g transform="translate(-118,-46) scale(1,1)"><g><path fill="none" stroke="none"/><text fill="#000000" stroke="none" font-family="Arial" font-size="13px" font-style="normal" font-weight="normal" text-decoration="none" x="290.61376953125" y="217.5">UniqueInventoryItem</text></g></g><g transform="translate(-118,-46) scale(1,1)"><rect fill="#C0C0C0" stroke="none" x="375" y="527" width="163.20000000000005" height="15" opacity="0.2"/></g><g transform="translate(-118,-46) scale(1,1)"><rect fill="#C0C0C0" stroke="none" x="375" y="541" width="408" height="282" opacity="0.2"/></g><g transform="translate(-118,-46) scale(1,1)"><rect fill="#ffffff" stroke="none" x="368" y="535" width="408" height="281"/></g><g transform="translate(-118,-46) scale(1,1)"><path fill="none" stroke="#000000" d="M 368 535 L 776 535 L 776 816 L 368 816 L 368 535 Z Z" stroke-miterlimit="10"/></g><g transform="translate(-118,-46) scale(1,1)"><rect fill="#ffffff" stroke="none" x="368" y="520" width="163.20000000000005" height="15"/></g><g transform="translate(-118,-46) scale(1,1)"><path fill="none" stroke="#000000" d="M 368 520 L 531.2 520 L 531.2 535 L 368 535 L 368 520 Z Z" stroke-miterlimit="10"/></g><g transform="translate(-118,-46) scale(1,1)"><rect fill="#ffffff" stroke="none" x="368" y="534" width="408" height="282"/></g><g transform="translate(-118,-46) scale(1,1)"><path fill="none" stroke="#000000" d="M 368 534 L 776 534 L 776 816 L 368 816 L 368 534 Z Z" stroke-miterlimit="10"/></g><g transform="translate(-118,-46) scale(1,1)"><g><path fill="none" stroke="none"/><text fill="#000000" stroke="none" font-family="Arial" font-size="13px" font-style="normal" font-weight="bold" text-decoration="none" x="523.95458984375" y="554.5">mampf.inventory</text></g></g><g transform="translate(-118,-46) scale(1,1)"><rect fill="#C0C0C0" stroke="none" x="495" y="207" width="73.60000000000002" height="15" opacity="0.2"/></g><g transform="translate(-118,-46) scale(1,1)"><rect fill="#C0C0C0" stroke="none" x="495" y="221" width="184" height="106" opacity="0.2"/></g><g transform="translate(-118,-46) scale(1,1)"><rect fill="#ffffff" stroke="none" x="488" y="215" width="184" height="105"/></g><g transform="translate(-118,-46) scale(1,1)"><path fill="none" stroke="#000000" d="M 488 215 L 672 215 L 672 320 L 488 320 L 488 215 Z Z" stroke-miterlimit="10"/></g><g transform="translate(-118,-46) scale(1,1)"><rect fill="#ffffff" stroke="none" x="488" y="200" width="73.60000000000002" height="15"/></g><g transform="translate(-118,-46) scale(1,1)"><path fill="none" stroke="#000000" d="M 488 200 L 561.6 200 L 561.6 215 L 488 215 L 488 200 Z Z" stroke-miterlimit="10"/></g><g transform="translate(-118,-46) scale(1,1)"><rect fill="#ffffff" stroke="none" x="488" y="214" width="184" height="106"/></g><g transform="translate(-118,-46) scale(1,1)"><path fill="none" stroke="#000000" d="M 488 214 L 672 214 L 672 320 L 488 320 L 488 214 Z Z" stroke-miterlimit="10"/></g><g transform="translate(-118,-46) scale(1,1)"><g><path fill="none" stroke="none"/><text fill="#000000" stroke="none" font-family="Arial" font-size="13px" font-style="normal" font-weight="bold" text-decoration="none" x="537.369140625" y="234.5">mampf.catalog</text></g></g><g transform="translate(-118,-46) scale(1,1)"><rect fill="#C0C0C0" stroke="none" x="735" y="167" width="64" height="15" opacity="0.2"/></g><g transform="translate(-118,-46) scale(1,1)"><rect fill="#C0C0C0" stroke="none" x="735" y="181" width="160" height="98" opacity="0.2"/></g><g transform="translate(-118,-46) scale(1,1)"><rect fill="#ffffff" stroke="none" x="728" y="175" width="160" height="97"/></g><g transform="translate(-118,-46) scale(1,1)"><path fill="none" stroke="#000000" d="M 728 175 L 888 175 L 888 272 L 728 272 L 728 175 Z Z" stroke-miterlimit="10"/></g><g transform="translate(-118,-46) scale(1,1)"><rect fill="#ffffff" stroke="none" x="728" y="160" width="64" height="15"/></g><g transform="translate(-118,-46) scale(1,1)"><path fill="none" stroke="#000000" d="M 728 160 L 792 160 L 792 175 L 728 175 L 728 160 Z Z" stroke-miterlimit="10"/></g><g transform="translate(-118,-46) scale(1,1)"><rect fill="#ffffff" stroke="none" x="728" y="174" width="160" height="98"/></g><g transform="translate(-118,-46) scale(1,1)"><path fill="none" stroke="#000000" d="M 728 174 L 888 174 L 888 272 L 728 272 L 728 174 Z Z" stroke-miterlimit="10"/></g><g transform="translate(-118,-46) scale(1,1)"><g><path fill="none" stroke="none"/><text fill="#000000" stroke="none" font-family="Arial" font-size="13px" font-style="normal" font-weight="bold" text-decoration="none" x="789.2109375" y="194.5">Spring</text></g></g><g transform="translate(-118,-46) scale(1,1)"><rect fill="#C0C0C0" stroke="none" x="535" y="255" width="98.55908203125" height="48" opacity="0.2"/></g><g transform="translate(-118,-46) scale(1,1)"><rect fill="#ffffff" stroke="none" x="528" y="248" width="98.55908203125" height="48"/></g><g transform="translate(-118,-46) scale(1,1)"><path fill="none" stroke="#000000" d="M 528 248 L 626.55908203125 248 L 626.55908203125 296 L 528 296 L 528 248 Z Z" stroke-miterlimit="10"/></g><g transform="translate(-118,-46) scale(1,1)"><path fill="#ffffff" stroke="none" d="M 600.55908203125 265 C 600.55908203125 260.0294368 604.58851883125 256 609.55908203125 256 C 614.52964523125 256 618.55908203125 260.0294368 618.55908203125 265 C 618.55908203125 269.9705632 614.52964523125 274 609.55908203125 274 C 604.58851883125 274 600.55908203125 269.9705632 600.55908203125 265 Z"/></g><g transform="translate(-118,-46) scale(1,1)"><path fill="none" stroke="#000000" d="M 600.55908203125 265 C 600.55908203125 260.0294368 604.58851883125 256 609.55908203125 256 C 614.52964523125 256 618.55908203125 260.0294368 618.55908203125 265 C 618.55908203125 269.9705632 614.52964523125 274 609.55908203125 274 C 604.58851883125 274 600.55908203125 269.9705632 600.55908203125 265 Z" stroke-miterlimit="10"/></g><g transform="translate(-118,-46) scale(1,1)"><g><path fill="none" stroke="none"/><text fill="#000000" stroke="none" font-family="Arial" font-size="13px" font-style="normal" font-weight="bold" text-decoration="none" x="542.87548828125" y="267.5">Catalog</text></g></g><g transform="translate(-118,-46) scale(1,1)"><path fill="none" stroke="#000000" d="M 677 624 L 912 624 L 912 120 L 456 120 L 456 240 L 416 240" stroke-miterlimit="10"/></g><g transform="translate(-118,-46) scale(1,1)"><path fill="none" stroke="#000000" d="M 426.16267485762415 235.790482243984 L 416 240 L 426.16267485762415 244.209517756016" stroke-miterlimit="10"/></g><g transform="translate(-118,-46) scale(1,1)"><g><path fill="none" stroke="none"/><text fill="#000000" stroke="none" font-family="Arial" font-size="13px" font-style="normal" font-weight="normal" text-decoration="none" x="654.13134765625" y="141.5">-inventory</text></g></g><g transform="translate(-118,-46) scale(1,1)"><g><path fill="none" stroke="none"/><text fill="#000000" stroke="none" font-family="Arial" font-size="13px" font-style="normal" font-weight="normal" text-decoration="none" x="423.5" y="233.5">1</text></g></g><g transform="translate(-118,-46) scale(1,1)"><rect fill="#C0C0C0" stroke="none" x="775" y="215" width="80.552734375" height="48" opacity="0.2"/></g><g transform="translate(-118,-46) scale(1,1)"><rect fill="#ffffff" stroke="none" x="768" y="208" width="80.552734375" height="48"/></g><g transform="translate(-118,-46) scale(1,1)"><path fill="none" stroke="#000000" d="M 768 208 L 848.552734375 208 L 848.552734375 256 L 768 256 L 768 208 Z Z" stroke-miterlimit="10"/></g><g transform="translate(-118,-46) scale(1,1)"><path fill="#ffffff" stroke="none" d="M 822.552734375 225 C 822.552734375 220.0294368 826.582171175 216 831.552734375 216 C 836.523297575 216 840.552734375 220.0294368 840.552734375 225 C 840.552734375 229.9705632 836.523297575 234 831.552734375 234 C 826.582171175 234 822.552734375 229.9705632 822.552734375 225 Z"/></g><g transform="translate(-118,-46) scale(1,1)"><path fill="none" stroke="#000000" d="M 822.552734375 225 C 822.552734375 220.0294368 826.582171175 216 831.552734375 216 C 836.523297575 216 840.552734375 220.0294368 840.552734375 225 C 840.552734375 229.9705632 836.523297575 234 831.552734375 234 C 826.582171175 234 822.552734375 229.9705632 822.552734375 225 Z" stroke-miterlimit="10"/></g><g transform="translate(-118,-46) scale(1,1)"><g><path fill="none" stroke="none"/><text fill="#000000" stroke="none" font-family="Arial" font-size="13px" font-style="normal" font-weight="bold" text-decoration="none" x="778.57275390625" y="227.5">Model</text></g></g><g transform="translate(-118,-46) scale(1,1)"><path fill="none" stroke="#000000" d="M 677 592 L 827 592 L 827 256" stroke-miterlimit="10" stroke-dasharray="3"/></g><g transform="translate(-118,-46) scale(1,1)"><path fill="none" stroke="#000000" d="M 831.209517756016 266.16267485762415 L 827 256 L 822.790482243984 266.16267485762415" stroke-miterlimit="10"/></g><g transform="translate(-118,-46) scale(1,1)"><path fill="none" stroke="#000000" d="M 492 575 L 311 385" stroke-miterlimit="10" stroke-dasharray="3"/></g><g transform="translate(-118,-46) scale(1,1)"><path fill="none" stroke="#000000" d="M 321.05759822634724 389.45474106064273 L 311 385 L 314.9618182958893 395.26177352071056" stroke-miterlimit="10"/></g><g transform="translate(-118,-46) scale(1,1)"><path fill="none" stroke="#000000" d="M 505 575 L 333 333" stroke-miterlimit="10" stroke-dasharray="3"/></g><g transform="translate(-118,-46) scale(1,1)"><path fill="none" stroke="#000000" d="M 342.31865489634004 338.8448841667665 L 333 333 L 335.45632683916875 343.72224129830977" stroke-miterlimit="10"/></g><g transform="translate(-118,-46) scale(1,1)"><rect fill="#C0C0C0" stroke="none" x="415" y="583" width="269.47607421875" height="102" opacity="0.2"/></g><g transform="translate(-118,-46) scale(1,1)"><rect fill="#ffffff" stroke="none" x="408" y="576" width="269.47607421875" height="102"/></g><g transform="translate(-118,-46) scale(1,1)"><path fill="none" stroke="#000000" d="M 408 576 L 677.47607421875 576 L 677.47607421875 678 L 408 678 L 408 576 Z Z" stroke-miterlimit="10"/></g><g transform="translate(-118,-46) scale(1,1)"><path fill="none" stroke="#000000" d="M 408 601 L 677.47607421875 601" stroke-miterlimit="10"/></g><g transform="translate(-118,-46) scale(1,1)"><path fill="none" stroke="#000000" d="M 408 611 L 677.47607421875 611" stroke-miterlimit="10"/></g><g transform="translate(-118,-46) scale(1,1)"><g><path fill="none" stroke="none"/><text fill="#000000" stroke="none" font-family="Arial" font-size="13px" font-style="normal" font-weight="bold" text-decoration="none" x="516.001708984375" y="595.5">Inventory</text></g></g><g transform="translate(-118,-46) scale(1,1)"><g><path fill="none" stroke="none"/><text fill="#000000" stroke="none" font-family="Arial" font-size="13px" font-style="normal" font-weight="normal" text-decoration="none" x="413" y="628.5">+Inventory()</text></g></g><g transform="translate(-118,-46) scale(1,1)"><g><path fill="none" stroke="none"/><text fill="#000000" stroke="none" font-family="Arial" font-size="13px" font-style="normal" font-weight="normal" text-decoration="none" x="413" y="643.5">+findItem(name: String): Item</text></g></g><g transform="translate(-118,-46) scale(1,1)"><g><path fill="none" stroke="none"/><text fill="#000000" stroke="none" font-family="Arial" font-size="13px" font-style="normal" font-weight="normal" text-decoration="none" x="413" y="658.5">+reduceAmount(item: Item, amount: int): void</text></g></g><g transform="translate(-118,-46) scale(1,1)"><g><path fill="none" stroke="none"/><text fill="#000000" stroke="none" font-family="Arial" font-size="13px" font-style="normal" font-weight="normal" text-decoration="none" x="413" y="673.5">+listItems(): List&lt;Items&gt;</text></g></g><g transform="translate(-118,-46) scale(1,1)"><path fill="none" stroke="#000000" d="M 547 575 L 575 297" stroke-miterlimit="10"/></g><g transform="translate(-118,-46) scale(1,1)"><path fill="none" stroke="#000000" d="M 578.1699011875266 307.53336254295454 L 575 297 L 569.7932465425719 306.6896707082109" stroke-miterlimit="10"/></g><g transform="translate(-118,-46) scale(1,1)"><g><path fill="none" stroke="none"/><text fill="#000000" stroke="none" font-family="Arial" font-size="13px" font-style="normal" font-weight="normal" text-decoration="none" x="570.13134765625" y="449.5">-catalog</text></g></g><g transform="translate(-118,-46) scale(1,1)"><g><path fill="none" stroke="none"/><text fill="#000000" stroke="none" font-family="Arial" font-size="13px" font-style="normal" font-weight="normal" text-decoration="none" x="580.5" y="315.5">1</text></g></g></g></svg>