<svg version="1.1" xmlns="http://www.w3.org/2000/svg" xmlns:xlink="http://www.w3.org/1999/xlink" width="1044" height="1260"><defs/><g><g transform="translate(2,2) scale(1,1)"><path fill="none" stroke="#000000" d="M 8 8 L 1032 8 L 1032 1248 L 8 1248 L 8 8" stroke-miterlimit="10"/></g><g transform="translate(2,2) scale(1,1)"><path fill="#ffffff" stroke="none" d="M 8 8 L 8 30 L 68.078125 30 L 79.078125 19 L 79.078125 8 L 8 8"/></g><g transform="translate(2,2) scale(1,1)"><path fill="none" stroke="#000000" d="M 8 8 L 8 30 L 68.078125 30 L 79.078125 19 L 79.078125 8 L 8 8 L 8 8" stroke-miterlimit="10"/></g><g transform="translate(2,2) scale(1,1)"><g><path fill="none" stroke="none"/><text fill="#000000" stroke="none" font-family="Arial" font-size="13px" font-style="normal" font-weight="normal" text-decoration="none" x="32.72998046875" y="25.5">order</text></g></g><g transform="translate(2,2) scale(1,1)"><g><path fill="none" stroke="none"/><text fill="#000000" stroke="none" font-family="Arial" font-size="13px" font-style="normal" font-weight="bold" text-decoration="none" x="13" y="25.5">sd</text></g></g><g transform="translate(2,2) scale(1,1)"><rect fill="#C0C0C0" stroke="none" x="127" y="47" width="71.736328125" height="39" opacity="0.2"/></g><g transform="translate(2,2) scale(1,1)"><rect fill="#ffffff" stroke="none" x="120" y="40" width="71.736328125" height="39"/></g><g transform="translate(2,2) scale(1,1)"><path fill="none" stroke="#000000" d="M 120 40 L 191.736328125 40 L 191.736328125 79 L 120 79 L 120 40 Z Z" stroke-miterlimit="10"/></g><g transform="translate(2,2) scale(1,1)"><g><path fill="none" stroke="none"/><text fill="#000000" stroke="none" font-family="Arial" font-size="13px" font-style="normal" font-weight="bold" text-decoration="none" x="142.14453125" y="59.5">User</text></g></g><g transform="translate(2,2) scale(1,1)"><path fill="none" stroke="#000000" d="M 156.5 80 L 156.5 1248" stroke-miterlimit="10" stroke-dasharray="3"/></g><g transform="translate(2,2) scale(1,1)"><rect fill="#C0C0C0" stroke="none" x="239" y="47" width="116.5126953125" height="39" opacity="0.2"/></g><g transform="translate(2,2) scale(1,1)"><rect fill="#ffffff" stroke="none" x="232" y="40" width="116.5126953125" height="39"/></g><g transform="translate(2,2) scale(1,1)"><path fill="none" stroke="#000000" d="M 232 40 L 348.5126953125 40 L 348.5126953125 79 L 232 79 L 232 40 Z Z" stroke-miterlimit="10"/></g><g transform="translate(2,2) scale(1,1)"><g><path fill="none" stroke="none"/><text fill="#000000" stroke="none" font-family="Arial" font-size="13px" font-style="normal" font-weight="bold" text-decoration="none" x="245.464111328125" y="59.5">OrderController</text></g></g><g transform="translate(2,2) scale(1,1)"><path fill="none" stroke="#000000" d="M 291.5 80 L 291.5 1248" stroke-miterlimit="10" stroke-dasharray="3"/></g><g transform="translate(2,2) scale(1,1)"><rect fill="#C0C0C0" stroke="none" x="551" y="47" width="84.736328125" height="39" opacity="0.2"/></g><g transform="translate(2,2) scale(1,1)"><rect fill="#ffffff" stroke="none" x="544" y="40" width="84.736328125" height="39"/></g><g transform="translate(2,2) scale(1,1)"><path fill="none" stroke="#000000" d="M 544 40 L 628.736328125 40 L 628.736328125 79 L 544 79 L 544 40 Z Z" stroke-miterlimit="10"/></g><g transform="translate(2,2) scale(1,1)"><g><path fill="none" stroke="none"/><text fill="#000000" stroke="none" font-family="Arial" font-size="13px" font-style="normal" font-weight="bold" text-decoration="none" x="556.013671875" y="59.5">Salespoint</text></g></g><g transform="translate(2,2) scale(1,1)"><path fill="none" stroke="#000000" d="M 587.5 80 L 587.5 1248" stroke-miterlimit="10" stroke-dasharray="3"/></g><g transform="translate(2,2) scale(1,1)"><rect fill="#C0C0C0" stroke="none" x="39" y="47" width="71.736328125" height="39" opacity="0.2"/></g><g transform="translate(2,2) scale(1,1)"><rect fill="#ffffff" stroke="none" x="32" y="40" width="71.736328125" height="39"/></g><g transform="translate(2,2) scale(1,1)"><path fill="none" stroke="#000000" d="M 32 40 L 103.736328125 40 L 103.736328125 79 L 32 79 L 32 40 Z Z" stroke-miterlimit="10"/></g><g transform="translate(2,2) scale(1,1)"><g><path fill="none" stroke="none"/><text fill="#000000" stroke="none" font-family="Arial" font-size="13px" font-style="normal" font-weight="bold" text-decoration="none" x="49.444091796875" y="59.5">Admin</text></g></g><g transform="translate(2,2) scale(1,1)"><path fill="none" stroke="#000000" d="M 68.5 80 L 68.5 1248" stroke-miterlimit="10" stroke-dasharray="3"/></g><g transform="translate(2,2) scale(1,1)"><rect fill="#C0C0C0" stroke="none" x="391" y="395" width="96.2890625" height="39" opacity="0.2"/></g><g transform="translate(2,2) scale(1,1)"><rect fill="#ffffff" stroke="none" x="384" y="388" width="96.2890625" height="39"/></g><g transform="translate(2,2) scale(1,1)"><path fill="none" stroke="#000000" d="M 384 388 L 480.2890625 388 L 480.2890625 427 L 384 427 L 384 388 Z Z" stroke-miterlimit="10"/></g><g transform="translate(2,2) scale(1,1)"><g><path fill="none" stroke="none"/><text fill="#000000" stroke="none" font-family="Arial" font-size="13px" font-style="normal" font-weight="bold" text-decoration="none" x="395.66455078125" y="407.5">MampfOrder</text></g></g><g transform="translate(2,2) scale(1,1)"><path fill="none" stroke="#000000" d="M 433.5 428 L 433.5 1248" stroke-miterlimit="10" stroke-dasharray="3"/></g><g transform="translate(2,2) scale(1,1)"><rect fill="#C0C0C0" stroke="none" x="799" y="47" width="71.736328125" height="39" opacity="0.2"/></g><g transform="translate(2,2) scale(1,1)"><rect fill="#ffffff" stroke="none" x="792" y="40" width="71.736328125" height="39"/></g><g transform="translate(2,2) scale(1,1)"><path fill="none" stroke="#000000" d="M 792 40 L 863.736328125 40 L 863.736328125 79 L 792 79 L 792 40 Z Z" stroke-miterlimit="10"/></g><g transform="translate(2,2) scale(1,1)"><g><path fill="none" stroke="none"/><text fill="#000000" stroke="none" font-family="Arial" font-size="13px" font-style="normal" font-weight="bold" text-decoration="none" x="815.226806640625" y="59.5">Item</text></g></g><g transform="translate(2,2) scale(1,1)"><path fill="none" stroke="#000000" d="M 828.5 80 L 828.5 1248" stroke-miterlimit="10" stroke-dasharray="3"/></g><g transform="translate(2,2) scale(1,1)"><rect fill="#C0C0C0" stroke="none" x="647" y="47" width="149.7490234375" height="39" opacity="0.2"/></g><g transform="translate(2,2) scale(1,1)"><rect fill="#ffffff" stroke="none" x="640" y="40" width="149.7490234375" height="39"/></g><g transform="translate(2,2) scale(1,1)"><path fill="none" stroke="#000000" d="M 640 40 L 789.7490234375 40 L 789.7490234375 79 L 640 79 L 640 40 Z Z" stroke-miterlimit="10"/></g><g transform="translate(2,2) scale(1,1)"><g><path fill="none" stroke="none"/><text fill="#000000" stroke="none" font-family="Arial" font-size="13px" font-style="normal" font-weight="bold" text-decoration="none" x="652.740478515625" y="59.5">MampfOrderManager</text></g></g><g transform="translate(2,2) scale(1,1)"><path fill="none" stroke="#000000" d="M 715.5 80 L 715.5 1248" stroke-miterlimit="10" stroke-dasharray="3"/></g><g transform="translate(2,2) scale(1,1)"><rect fill="#C0C0C0" stroke="none" x="911" y="47" width="71.736328125" height="39" opacity="0.2"/></g><g transform="translate(2,2) scale(1,1)"><rect fill="#ffffff" stroke="none" x="904" y="40" width="71.736328125" height="39"/></g><g transform="translate(2,2) scale(1,1)"><path fill="none" stroke="#000000" d="M 904 40 L 975.736328125 40 L 975.736328125 79 L 904 79 L 904 40 Z Z" stroke-miterlimit="10"/></g><g transform="translate(2,2) scale(1,1)"><g><path fill="none" stroke="none"/><text fill="#000000" stroke="none" font-family="Arial" font-size="13px" font-style="normal" font-weight="bold" text-decoration="none" x="921.0791015625" y="59.5">Spring</text></g></g><g transform="translate(2,2) scale(1,1)"><path fill="none" stroke="#000000" d="M 940.5 80 L 940.5 1248" stroke-miterlimit="10" stroke-dasharray="3"/></g><g transform="translate(2,2) scale(1,1)"><path fill="none" stroke="#000000" d="M 291 112 L 580 112" stroke-miterlimit="10"/></g><g transform="translate(2,2) scale(1,1)"><path fill="#000000" stroke="none" d="M 569.8373251423759 116.20951775601598 L 580 112 L 569.8373251423758 107.79048224398402"/></g><g transform="translate(2,2) scale(1,1)"><path fill="none" stroke="#000000" d="M 569.8373251423759 116.20951775601598 L 580 112 L 569.8373251423758 107.79048224398402 L 569.8373251423759 116.20951775601598" stroke-miterlimit="10"/></g><g transform="translate(2,2) scale(1,1)"><g><path fill="none" stroke="none"/><text fill="#000000" stroke="none" font-family="Arial" font-size="13px" font-style="normal" font-weight="normal" text-decoration="none" x="390.5" y="108.5">1 : InitializeCart</text></g></g><g transform="translate(2,2) scale(1,1)"><rect fill="#ffffff" stroke="none" x="580" y="112" width="13" height="28"/></g><g transform="translate(2,2) scale(1,1)"><path fill="none" stroke="#000000" d="M 580 112 L 593 112 L 593 140 L 580 140 L 580 112 Z Z" stroke-miterlimit="10"/></g><g transform="translate(2,2) scale(1,1)"><path fill="none" stroke="#000000" d="M 580 133 L 291 133" stroke-miterlimit="10" stroke-dasharray="3"/></g><g transform="translate(2,2) scale(1,1)"><path fill="none" stroke="#000000" d="M 301.16267485762415 128.790482243984 L 291 133 L 301.16267485762415 137.209517756016" stroke-miterlimit="10"/></g><g transform="translate(2,2) scale(1,1)"><g><path fill="none" stroke="none"/><text fill="#000000" stroke="none" font-family="Arial" font-size="13px" font-style="normal" font-weight="normal" text-decoration="none" x="412.5" y="149.5">2 : Cart</text></g></g><g transform="translate(2,2) scale(1,1)"><path fill="none" stroke="#000000" d="M 156 185 L 284 185" stroke-miterlimit="10"/></g><g transform="translate(2,2) scale(1,1)"><path fill="#000000" stroke="none" d="M 273.83732514237585 189.209517756016 L 284 185 L 273.83732514237585 180.790482243984"/></g><g transform="translate(2,2) scale(1,1)"><path fill="none" stroke="#000000" d="M 273.83732514237585 189.209517756016 L 284 185 L 273.83732514237585 180.790482243984 L 273.83732514237585 189.209517756016" stroke-miterlimit="10"/></g><g transform="translate(2,2) scale(1,1)"><g><path fill="none" stroke="none"/><text fill="#000000" stroke="none" font-family="Arial" font-size="13px" font-style="normal" font-weight="normal" text-decoration="none" x="187.003173828125" y="181.5">3 : addItem</text></g></g><g transform="translate(2,2) scale(1,1)"><rect fill="#ffffff" stroke="none" x="284" y="185" width="13" height="55"/></g><g transform="translate(2,2) scale(1,1)"><path fill="none" stroke="#000000" d="M 284 185 L 297 185 L 297 240 L 284 240 L 284 185 Z Z" stroke-miterlimit="10"/></g><g transform="translate(2,2) scale(1,1)"><path fill="none" stroke="#000000" d="M 297 197 L 580 197" stroke-miterlimit="10"/></g><g transform="translate(2,2) scale(1,1)"><path fill="#000000" stroke="none" d="M 569.8373251423759 201.209517756016 L 580 197 L 569.8373251423758 192.790482243984"/></g><g transform="translate(2,2) scale(1,1)"><path fill="none" stroke="#000000" d="M 569.8373251423759 201.209517756016 L 580 197 L 569.8373251423758 192.790482243984 L 569.8373251423759 201.209517756016" stroke-miterlimit="10"/></g><g transform="translate(2,2) scale(1,1)"><g><path fill="none" stroke="none"/><text fill="#000000" stroke="none" font-family="Arial" font-size="13px" font-style="normal" font-weight="normal" text-decoration="none" x="364.5" y="193.5">4 : cart.addOrUpdateItem</text></g></g><g transform="translate(2,2) scale(1,1)"><rect fill="#ffffff" stroke="none" x="580" y="197" width="13" height="28"/></g><g transform="translate(2,2) scale(1,1)"><path fill="none" stroke="#000000" d="M 580 197 L 593 197 L 593 225 L 580 225 L 580 197 Z Z" stroke-miterlimit="10"/></g><g transform="translate(2,2) scale(1,1)"><path fill="none" stroke="#000000" d="M 580 209 L 297 209" stroke-miterlimit="10" stroke-dasharray="3"/></g><g transform="translate(2,2) scale(1,1)"><path fill="none" stroke="#000000" d="M 307.16267485762415 204.790482243984 L 297 209 L 307.16267485762415 213.209517756016" stroke-miterlimit="10"/></g><g transform="translate(2,2) scale(1,1)"><g><path fill="none" stroke="none"/><text fill="#000000" stroke="none" font-family="Arial" font-size="13px" font-style="normal" font-weight="normal" text-decoration="none" x="427.5" y="225.5">5 : </text></g></g><g transform="translate(2,2) scale(1,1)"><path fill="none" stroke="#000000" d="M 284 227 L 156 227" stroke-miterlimit="10" stroke-dasharray="3"/></g><g transform="translate(2,2) scale(1,1)"><path fill="none" stroke="#000000" d="M 166.16267485762415 222.790482243984 L 156 227 L 166.16267485762415 231.209517756016" stroke-miterlimit="10"/></g><g transform="translate(2,2) scale(1,1)"><g><path fill="none" stroke="none"/><text fill="#000000" stroke="none" font-family="Arial" font-size="13px" font-style="normal" font-weight="normal" text-decoration="none" x="174.5" y="243.5">6 : catalog.html</text></g></g><g transform="translate(2,2) scale(1,1)"><path fill="none" stroke="#000000" d="M 156 291 L 284 291" stroke-miterlimit="10"/></g><g transform="translate(2,2) scale(1,1)"><path fill="#000000" stroke="none" d="M 273.83732514237585 295.209517756016 L 284 291 L 273.83732514237585 286.790482243984"/></g><g transform="translate(2,2) scale(1,1)"><path fill="none" stroke="#000000" d="M 273.83732514237585 295.209517756016 L 284 291 L 273.83732514237585 286.790482243984 L 273.83732514237585 295.209517756016" stroke-miterlimit="10"/></g><g transform="translate(2,2) scale(1,1)"><g><path fill="none" stroke="none"/><text fill="#000000" stroke="none" font-family="Arial" font-size="13px" font-style="normal" font-weight="normal" text-decoration="none" x="191.338623046875" y="287.5">7 : basket</text></g></g><g transform="translate(2,2) scale(1,1)"><rect fill="#ffffff" stroke="none" x="284" y="291" width="13" height="28"/></g><g transform="translate(2,2) scale(1,1)"><path fill="none" stroke="#000000" d="M 284 291 L 297 291 L 297 319 L 284 319 L 284 291 Z Z" stroke-miterlimit="10"/></g><g transform="translate(2,2) scale(1,1)"><path fill="none" stroke="#000000" d="M 284 313 L 156 313" stroke-miterlimit="10" stroke-dasharray="3"/></g><g transform="translate(2,2) scale(1,1)"><path fill="none" stroke="#000000" d="M 166.16267485762415 308.790482243984 L 156 313 L 166.16267485762415 317.209517756016" stroke-miterlimit="10"/></g><g transform="translate(2,2) scale(1,1)"><g><path fill="none" stroke="none"/><text fill="#000000" stroke="none" font-family="Arial" font-size="13px" font-style="normal" font-weight="normal" text-decoration="none" x="185.5" y="329.5">8 : cart.html</text></g></g><g transform="translate(2,2) scale(1,1)"><path fill="none" stroke="#000000" d="M 156 403 L 284 403" stroke-miterlimit="10"/></g><g transform="translate(2,2) scale(1,1)"><path fill="#000000" stroke="none" d="M 273.83732514237585 407.209517756016 L 284 403 L 273.83732514237585 398.790482243984"/></g><g transform="translate(2,2) scale(1,1)"><path fill="none" stroke="#000000" d="M 273.83732514237585 407.209517756016 L 284 403 L 273.83732514237585 398.790482243984 L 273.83732514237585 407.209517756016" stroke-miterlimit="10"/></g><g transform="translate(2,2) scale(1,1)"><g><path fill="none" stroke="none"/><text fill="#000000" stroke="none" font-family="Arial" font-size="13px" font-style="normal" font-weight="normal" text-decoration="none" x="200.009521484375" y="399.5">9 : buy</text></g></g><g transform="translate(2,2) scale(1,1)"><rect fill="#ffffff" stroke="none" x="284" y="403" width="13" height="541"/></g><g transform="translate(2,2) scale(1,1)"><path fill="none" stroke="#000000" d="M 284 403 L 297 403 L 297 944 L 284 944 L 284 403 Z Z" stroke-miterlimit="10"/></g><g transform="translate(2,2) scale(1,1)"><path fill="none" stroke="#000000" d="M 297 408 L 384 408" stroke-miterlimit="10" stroke-dasharray="3"/></g><g transform="translate(2,2) scale(1,1)"><path fill="none" stroke="#000000" d="M 373.83732514237585 412.209517756016 L 384 408 L 373.83732514237585 403.790482243984" stroke-miterlimit="10"/></g><g transform="translate(2,2) scale(1,1)"><g><path fill="none" stroke="none"/><text fill="#000000" stroke="none" font-family="Arial" font-size="13px" font-style="normal" font-weight="normal" text-decoration="none" x="315.5" y="404.5">10 : new</text></g></g><g transform="translate(2,2) scale(1,1)"><g><path fill="none" stroke="none"/><text fill="#000000" stroke="none" font-family="Arial" font-size="13px" font-style="normal" font-weight="normal" text-decoration="none" x="314.5" y="389.5">«create»</text></g></g><g transform="translate(2,2) scale(1,1)"><path fill="none" stroke="#000000" d="M 433 428 L 580 428" stroke-miterlimit="10"/></g><g transform="translate(2,2) scale(1,1)"><path fill="#000000" stroke="none" d="M 569.8373251423759 432.209517756016 L 580 428 L 569.8373251423758 423.790482243984"/></g><g transform="translate(2,2) scale(1,1)"><path fill="none" stroke="#000000" d="M 569.8373251423759 432.209517756016 L 580 428 L 569.8373251423758 423.790482243984 L 569.8373251423759 432.209517756016" stroke-miterlimit="10"/></g><g transform="translate(2,2) scale(1,1)"><g><path fill="none" stroke="none"/><text fill="#000000" stroke="none" font-family="Arial" font-size="13px" font-style="normal" font-weight="normal" text-decoration="none" x="457.5" y="424.5">11 : create Order</text></g></g><g transform="translate(2,2) scale(1,1)"><rect fill="#ffffff" stroke="none" x="580" y="428" width="13" height="28"/></g><g transform="translate(2,2) scale(1,1)"><path fill="none" stroke="#000000" d="M 580 428 L 593 428 L 593 456 L 580 456 L 580 428 Z Z" stroke-miterlimit="10"/></g><g transform="translate(2,2) scale(1,1)"><path fill="none" stroke="#000000" d="M 580 448 L 433 448" stroke-miterlimit="10" stroke-dasharray="3"/></g><g transform="translate(2,2) scale(1,1)"><path fill="none" stroke="#000000" d="M 443.16267485762415 443.790482243984 L 433 448 L 443.16267485762415 452.209517756016" stroke-miterlimit="10"/></g><g transform="translate(2,2) scale(1,1)"><g><path fill="none" stroke="none"/><text fill="#000000" stroke="none" font-family="Arial" font-size="13px" font-style="normal" font-weight="normal" text-decoration="none" x="492.5" y="464.5">12 : </text></g></g><g transform="translate(2,2) scale(1,1)"><path fill="none" stroke="#000000" d="M 433 457 L 297 457" stroke-miterlimit="10" stroke-dasharray="3"/></g><g transform="translate(2,2) scale(1,1)"><path fill="none" stroke="#000000" d="M 307.16267485762415 452.790482243984 L 297 457 L 307.16267485762415 461.209517756016" stroke-miterlimit="10"/></g><g transform="translate(2,2) scale(1,1)"><g><path fill="none" stroke="none"/><text fill="#000000" stroke="none" font-family="Arial" font-size="13px" font-style="normal" font-weight="normal" text-decoration="none" x="314.5" y="473.5">13 : MampfOrder</text></g></g><g transform="translate(2,2) scale(1,1)"><path fill="none" stroke="#000000" d="M 297 488 L 580 488" stroke-miterlimit="10"/></g><g transform="translate(2,2) scale(1,1)"><path fill="#000000" stroke="none" d="M 569.8373251423759 492.209517756016 L 580 488 L 569.8373251423758 483.790482243984"/></g><g transform="translate(2,2) scale(1,1)"><path fill="none" stroke="#000000" d="M 569.8373251423759 492.209517756016 L 580 488 L 569.8373251423758 483.790482243984 L 569.8373251423759 492.209517756016" stroke-miterlimit="10"/></g><g transform="translate(2,2) scale(1,1)"><g><path fill="none" stroke="none"/><text fill="#000000" stroke="none" font-family="Arial" font-size="13px" font-style="normal" font-weight="normal" text-decoration="none" x="377.5" y="484.5">14 : Cart.addItemsTo</text></g></g><g transform="translate(2,2) scale(1,1)"><rect fill="#ffffff" stroke="none" x="580" y="488" width="13" height="232"/></g><g transform="translate(2,2) scale(1,1)"><path fill="none" stroke="#000000" d="M 580 488 L 593 488 L 593 720 L 580 720 L 580 488 Z Z" stroke-miterlimit="10"/></g><g transform="translate(2,2) scale(1,1)"><path fill="none" stroke="#000000" d="M 580 512 L 439 512" stroke-miterlimit="10"/></g><g transform="translate(2,2) scale(1,1)"><path fill="#000000" stroke="none" d="M 449.16267485762415 507.790482243984 L 439 512 L 449.16267485762415 516.209517756016"/></g><g transform="translate(2,2) scale(1,1)"><path fill="none" stroke="#000000" d="M 449.16267485762415 507.790482243984 L 439 512 L 449.16267485762415 516.209517756016 L 449.16267485762415 507.790482243984" stroke-miterlimit="10"/></g><g transform="translate(2,2) scale(1,1)"><g><path fill="none" stroke="none"/><text fill="#000000" stroke="none" font-family="Arial" font-size="13px" font-style="normal" font-weight="normal" text-decoration="none" x="455.5" y="528.5">15 : addOrderLine</text></g></g><g transform="translate(2,2) scale(1,1)"><rect fill="#ffffff" stroke="none" x="426" y="512" width="13" height="200"/></g><g transform="translate(2,2) scale(1,1)"><path fill="none" stroke="#000000" d="M 426 512 L 439 512 L 439 712 L 426 712 L 426 512 Z Z" stroke-miterlimit="10"/></g><g transform="translate(2,2) scale(1,1)"><path fill="none" stroke="#000000" d="M 439 568 L 821 568" stroke-miterlimit="10"/></g><g transform="translate(2,2) scale(1,1)"><path fill="#000000" stroke="none" d="M 810.8373251423759 572.209517756016 L 821 568 L 810.8373251423758 563.790482243984"/></g><g transform="translate(2,2) scale(1,1)"><path fill="none" stroke="#000000" d="M 810.8373251423759 572.209517756016 L 821 568 L 810.8373251423758 563.790482243984 L 810.8373251423759 572.209517756016" stroke-miterlimit="10"/></g><g transform="translate(2,2) scale(1,1)"><g><path fill="none" stroke="none"/><text fill="#000000" stroke="none" font-family="Arial" font-size="13px" font-style="normal" font-weight="normal" text-decoration="none" x="581.5" y="564.5">16 : getCategory</text></g></g><g transform="translate(2,2) scale(1,1)"><rect fill="#ffffff" stroke="none" x="821" y="568" width="13" height="28"/></g><g transform="translate(2,2) scale(1,1)"><path fill="none" stroke="#000000" d="M 821 568 L 834 568 L 834 596 L 821 596 L 821 568 Z Z" stroke-miterlimit="10"/></g><g transform="translate(2,2) scale(1,1)"><path fill="none" stroke="#000000" d="M 821 591 L 439 591" stroke-miterlimit="10" stroke-dasharray="3"/></g><g transform="translate(2,2) scale(1,1)"><path fill="none" stroke="#000000" d="M 449.16267485762415 586.790482243984 L 439 591 L 449.16267485762415 595.209517756016" stroke-miterlimit="10"/></g><g transform="translate(2,2) scale(1,1)"><g><path fill="none" stroke="none"/><text fill="#000000" stroke="none" font-family="Arial" font-size="13px" font-style="normal" font-weight="normal" text-decoration="none" x="591.5" y="607.5">17 : category</text></g></g><g transform="translate(2,2) scale(1,1)"><path fill="none" stroke="#000000" d="M 439 624 L 587 624" stroke-miterlimit="10"/></g><g transform="translate(2,2) scale(1,1)"><path fill="#000000" stroke="none" d="M 576.8373251423759 628.209517756016 L 587 624 L 576.8373251423758 619.790482243984"/></g><g transform="translate(2,2) scale(1,1)"><path fill="none" stroke="#000000" d="M 576.8373251423759 628.209517756016 L 587 624 L 576.8373251423758 619.790482243984 L 576.8373251423759 628.209517756016" stroke-miterlimit="10"/></g><g transform="translate(2,2) scale(1,1)"><g><path fill="none" stroke="none"/><text fill="#000000" stroke="none" font-family="Arial" font-size="13px" font-style="normal" font-weight="normal" text-decoration="none" x="460.5" y="620.5">18 : addOrderLine</text></g></g><g transform="translate(2,2) scale(1,1)"><rect fill="#ffffff" stroke="none" x="587" y="624" width="13" height="64"/></g><g transform="translate(2,2) scale(1,1)"><path fill="none" stroke="#000000" d="M 587 624 L 600 624 L 600 688 L 587 688 L 587 624 Z Z" stroke-miterlimit="10"/></g><g transform="translate(2,2) scale(1,1)"><path fill="none" stroke="#000000" d="M 587 656 L 439 656" stroke-miterlimit="10" stroke-dasharray="3"/></g><g transform="translate(2,2) scale(1,1)"><path fill="none" stroke="#000000" d="M 449.16267485762415 651.790482243984 L 439 656 L 449.16267485762415 660.209517756016" stroke-miterlimit="10"/></g><g transform="translate(2,2) scale(1,1)"><g><path fill="none" stroke="none"/><text fill="#000000" stroke="none" font-family="Arial" font-size="13px" font-style="normal" font-weight="normal" text-decoration="none" x="471.5" y="672.5">19 : orderLine</text></g></g><g transform="translate(2,2) scale(1,1)"><path fill="none" stroke="#000000" d="M 439 696 L 580 696" stroke-miterlimit="10" stroke-dasharray="3"/></g><g transform="translate(2,2) scale(1,1)"><path fill="none" stroke="#000000" d="M 569.8373251423759 700.209517756016 L 580 696 L 569.8373251423758 691.790482243984" stroke-miterlimit="10"/></g><g transform="translate(2,2) scale(1,1)"><g><path fill="none" stroke="none"/><text fill="#000000" stroke="none" font-family="Arial" font-size="13px" font-style="normal" font-weight="normal" text-decoration="none" x="470.5" y="707.5">20 : orderLine</text></g></g><g transform="translate(2,2) scale(1,1)"><path fill="none" stroke="#000000" d="M 297 760 L 708 760" stroke-miterlimit="10"/></g><g transform="translate(2,2) scale(1,1)"><path fill="#000000" stroke="none" d="M 697.8373251423759 764.209517756016 L 708 760 L 697.8373251423758 755.790482243984"/></g><g transform="translate(2,2) scale(1,1)"><path fill="none" stroke="#000000" d="M 697.8373251423759 764.209517756016 L 708 760 L 697.8373251423758 755.790482243984 L 697.8373251423759 764.209517756016" stroke-miterlimit="10"/></g><g transform="translate(2,2) scale(1,1)"><g><path fill="none" stroke="none"/><text fill="#000000" stroke="none" font-family="Arial" font-size="13px" font-style="normal" font-weight="normal" text-decoration="none" x="462.39453125" y="756.5">21 : payOrder</text></g></g><g transform="translate(2,2) scale(1,1)"><rect fill="#ffffff" stroke="none" x="708" y="760" width="13" height="88"/></g><g transform="translate(2,2) scale(1,1)"><path fill="none" stroke="#000000" d="M 708 760 L 721 760 L 721 848 L 708 848 L 708 760 Z Z" stroke-miterlimit="10"/></g><g transform="translate(2,2) scale(1,1)"><path fill="none" stroke="#000000" d="M 708 779 L 593 779" stroke-miterlimit="10"/></g><g transform="translate(2,2) scale(1,1)"><path fill="#000000" stroke="none" d="M 603.1626748576241 774.790482243984 L 593 779 L 603.1626748576241 783.209517756016"/></g><g transform="translate(2,2) scale(1,1)"><path fill="none" stroke="#000000" d="M 603.1626748576241 774.790482243984 L 593 779 L 603.1626748576241 783.209517756016 L 603.1626748576241 774.790482243984" stroke-miterlimit="10"/></g><g transform="translate(2,2) scale(1,1)"><g><path fill="none" stroke="none"/><text fill="#000000" stroke="none" font-family="Arial" font-size="13px" font-style="normal" font-weight="normal" text-decoration="none" x="735.5" y="780.5">22 : orderManagement.payOrder</text></g></g><g transform="translate(2,2) scale(1,1)"><rect fill="#ffffff" stroke="none" x="580" y="779" width="13" height="28"/></g><g transform="translate(2,2) scale(1,1)"><path fill="none" stroke="#000000" d="M 580 779 L 593 779 L 593 807 L 580 807 L 580 779 Z Z" stroke-miterlimit="10"/></g><g transform="translate(2,2) scale(1,1)"><path fill="none" stroke="#000000" d="M 593 795 L 708 795" stroke-miterlimit="10" stroke-dasharray="3"/></g><g transform="translate(2,2) scale(1,1)"><path fill="none" stroke="#000000" d="M 697.8373251423759 799.209517756016 L 708 795 L 697.8373251423758 790.790482243984" stroke-miterlimit="10"/></g><g transform="translate(2,2) scale(1,1)"><g><path fill="none" stroke="none"/><text fill="#000000" stroke="none" font-family="Arial" font-size="13px" font-style="normal" font-weight="normal" text-decoration="none" x="630.594970703125" y="791.5">23 : ok</text></g></g><g transform="translate(2,2) scale(1,1)"><path fill="none" stroke="#000000" d="M 708 821 L 297 821" stroke-miterlimit="10" stroke-dasharray="3"/></g><g transform="translate(2,2) scale(1,1)"><path fill="none" stroke="#000000" d="M 307.16267485762415 816.790482243984 L 297 821 L 307.16267485762415 825.209517756016" stroke-miterlimit="10"/></g><g transform="translate(2,2) scale(1,1)"><g><path fill="none" stroke="none"/><text fill="#000000" stroke="none" font-family="Arial" font-size="13px" font-style="normal" font-weight="normal" text-decoration="none" x="481.5" y="837.5">24 : ok</text></g></g><g transform="translate(2,2) scale(1,1)"><path fill="none" stroke="#000000" d="M 297 861 L 580 861" stroke-miterlimit="10"/></g><g transform="translate(2,2) scale(1,1)"><path fill="#000000" stroke="none" d="M 569.8373251423759 865.209517756016 L 580 861 L 569.8373251423758 856.790482243984"/></g><g transform="translate(2,2) scale(1,1)"><path fill="none" stroke="#000000" d="M 569.8373251423759 865.209517756016 L 580 861 L 569.8373251423758 856.790482243984 L 569.8373251423759 865.209517756016" stroke-miterlimit="10"/></g><g transform="translate(2,2) scale(1,1)"><g><path fill="none" stroke="none"/><text fill="#000000" stroke="none" font-family="Arial" font-size="13px" font-style="normal" font-weight="normal" text-decoration="none" x="397.3154296875" y="857.5">25 : Cart.clear</text></g></g><g transform="translate(2,2) scale(1,1)"><rect fill="#ffffff" stroke="none" x="580" y="861" width="13" height="28"/></g><g transform="translate(2,2) scale(1,1)"><path fill="none" stroke="#000000" d="M 580 861 L 593 861 L 593 889 L 580 889 L 580 861 Z Z" stroke-miterlimit="10"/></g><g transform="translate(2,2) scale(1,1)"><path fill="none" stroke="#000000" d="M 284 896 L 156 896" stroke-miterlimit="10" stroke-dasharray="3"/></g><g transform="translate(2,2) scale(1,1)"><path fill="none" stroke="#000000" d="M 166.16267485762415 891.790482243984 L 156 896 L 166.16267485762415 900.209517756016" stroke-miterlimit="10"/></g><g transform="translate(2,2) scale(1,1)"><g><path fill="none" stroke="none"/><text fill="#000000" stroke="none" font-family="Arial" font-size="13px" font-style="normal" font-weight="normal" text-decoration="none" x="176.5" y="912.5">26 : index.html</text></g></g><g transform="translate(2,2) scale(1,1)"><path fill="none" stroke="#000000" d="M 68 992 L 284 992" stroke-miterlimit="10"/></g><g transform="translate(2,2) scale(1,1)"><path fill="#000000" stroke="none" d="M 273.83732514237585 996.209517756016 L 284 992 L 273.83732514237585 987.790482243984"/></g><g transform="translate(2,2) scale(1,1)"><path fill="none" stroke="#000000" d="M 273.83732514237585 996.209517756016 L 284 992 L 273.83732514237585 987.790482243984 L 273.83732514237585 996.209517756016" stroke-miterlimit="10"/></g><g transform="translate(2,2) scale(1,1)"><g><path fill="none" stroke="none"/><text fill="#000000" stroke="none" font-family="Arial" font-size="13px" font-style="normal" font-weight="normal" text-decoration="none" x="145.0654296875" y="988.5">27 : orders</text></g></g><g transform="translate(2,2) scale(1,1)"><rect fill="#ffffff" stroke="none" x="284" y="992" width="13" height="200"/></g><g transform="translate(2,2) scale(1,1)"><path fill="none" stroke="#000000" d="M 284 992 L 297 992 L 297 1192 L 284 1192 L 284 992 Z Z" stroke-miterlimit="10"/></g><g transform="translate(2,2) scale(1,1)"><path fill="none" stroke="#000000" d="M 297 1016 L 708 1016" stroke-miterlimit="10"/></g><g transform="translate(2,2) scale(1,1)"><path fill="#000000" stroke="none" d="M 697.8373251423759 1020.209517756016 L 708 1016 L 697.8373251423758 1011.790482243984"/></g><g transform="translate(2,2) scale(1,1)"><path fill="none" stroke="#000000" d="M 697.8373251423759 1020.209517756016 L 708 1016 L 697.8373251423758 1011.790482243984 L 697.8373251423759 1020.209517756016" stroke-miterlimit="10"/></g><g transform="translate(2,2) scale(1,1)"><g><path fill="none" stroke="none"/><text fill="#000000" stroke="none" font-family="Arial" font-size="13px" font-style="normal" font-weight="normal" text-decoration="none" x="471.785888671875" y="1012.5">28 : findAll</text></g></g><g transform="translate(2,2) scale(1,1)"><rect fill="#ffffff" stroke="none" x="708" y="1016" width="13" height="88"/></g><g transform="translate(2,2) scale(1,1)"><path fill="none" stroke="#000000" d="M 708 1016 L 721 1016 L 721 1104 L 708 1104 L 708 1016 Z Z" stroke-miterlimit="10"/></g><g transform="translate(2,2) scale(1,1)"><path fill="none" stroke="#000000" d="M 708 1043 L 593 1043" stroke-miterlimit="10"/></g><g transform="translate(2,2) scale(1,1)"><path fill="#000000" stroke="none" d="M 603.1626748576241 1038.7904822439841 L 593 1043 L 603.1626748576241 1047.2095177560159"/></g><g transform="translate(2,2) scale(1,1)"><path fill="none" stroke="#000000" d="M 603.1626748576241 1038.7904822439841 L 593 1043 L 603.1626748576241 1047.2095177560159 L 603.1626748576241 1038.7904822439841" stroke-miterlimit="10"/></g><g transform="translate(2,2) scale(1,1)"><g><path fill="none" stroke="none"/><text fill="#000000" stroke="none" font-family="Arial" font-size="13px" font-style="normal" font-weight="normal" text-decoration="none" x="734.5" y="1059.5">29 : orderManagement.findAll</text></g></g><g transform="translate(2,2) scale(1,1)"><rect fill="#ffffff" stroke="none" x="580" y="1043" width="13" height="28"/></g><g transform="translate(2,2) scale(1,1)"><path fill="none" stroke="#000000" d="M 580 1043 L 593 1043 L 593 1071 L 580 1071 L 580 1043 Z Z" stroke-miterlimit="10"/></g><g transform="translate(2,2) scale(1,1)"><path fill="none" stroke="#000000" d="M 593 1059 L 708 1059" stroke-miterlimit="10" stroke-dasharray="3"/></g><g transform="translate(2,2) scale(1,1)"><path fill="none" stroke="#000000" d="M 697.8373251423759 1063.2095177560159 L 708 1059 L 697.8373251423758 1054.7904822439841" stroke-miterlimit="10"/></g><g transform="translate(2,2) scale(1,1)"><g><path fill="none" stroke="none"/><text fill="#000000" stroke="none" font-family="Arial" font-size="13px" font-style="normal" font-weight="normal" text-decoration="none" x="618.5" y="1055.5">30 : orders</text></g></g><g transform="translate(2,2) scale(1,1)"><path fill="none" stroke="#000000" d="M 708 1080 L 297 1080" stroke-miterlimit="10" stroke-dasharray="3"/></g><g transform="translate(2,2) scale(1,1)"><path fill="none" stroke="#000000" d="M 307.16267485762415 1075.7904822439841 L 297 1080 L 307.16267485762415 1084.2095177560159" stroke-miterlimit="10"/></g><g transform="translate(2,2) scale(1,1)"><g><path fill="none" stroke="none"/><text fill="#000000" stroke="none" font-family="Arial" font-size="13px" font-style="normal" font-weight="normal" text-decoration="none" x="469.5" y="1096.5">31 : orders</text></g></g><g transform="translate(2,2) scale(1,1)"><path fill="none" stroke="#000000" d="M 297 1136 L 933 1136" stroke-miterlimit="10"/></g><g transform="translate(2,2) scale(1,1)"><path fill="#000000" stroke="none" d="M 922.8373251423759 1140.2095177560159 L 933 1136 L 922.8373251423758 1131.7904822439841"/></g><g transform="translate(2,2) scale(1,1)"><path fill="none" stroke="#000000" d="M 922.8373251423759 1140.2095177560159 L 933 1136 L 922.8373251423758 1131.7904822439841 L 922.8373251423759 1140.2095177560159" stroke-miterlimit="10"/></g><g transform="translate(2,2) scale(1,1)"><g><path fill="none" stroke="none"/><text fill="#000000" stroke="none" font-family="Arial" font-size="13px" font-style="normal" font-weight="normal" text-decoration="none" x="569.5" y="1132.5">32 : addAtribute</text></g></g><g transform="translate(2,2) scale(1,1)"><rect fill="#ffffff" stroke="none" x="933" y="1136" width="13" height="28"/></g><g transform="translate(2,2) scale(1,1)"><path fill="none" stroke="#000000" d="M 933 1136 L 946 1136 L 946 1164 L 933 1164 L 933 1136 Z Z" stroke-miterlimit="10"/></g><g transform="translate(2,2) scale(1,1)"><path fill="none" stroke="#000000" d="M 284 1161 L 68 1161" stroke-miterlimit="10" stroke-dasharray="3"/></g><g transform="translate(2,2) scale(1,1)"><path fill="none" stroke="#000000" d="M 78.16267485762415 1156.7904822439841 L 68 1161 L 78.16267485762415 1165.2095177560159" stroke-miterlimit="10"/></g><g transform="translate(2,2) scale(1,1)"><g><path fill="none" stroke="none"/><text fill="#000000" stroke="none" font-family="Arial" font-size="13px" font-style="normal" font-weight="normal" text-decoration="none" x="129.5" y="1177.5">33 : orders.html</text></g></g></g></svg>