<svg version="1.1" xmlns="http://www.w3.org/2000/svg" xmlns:xlink="http://www.w3.org/1999/xlink" width="732" height="412"><defs/><g><text fill="#eeeeee" stroke="none" font-family="Arial" font-size="24px" font-style="normal" font-weight="normal" text-decoration="none" x="0" y="0">UNREGISTERED</text><text fill="#eeeeee" stroke="none" font-family="Arial" font-size="24px" font-style="normal" font-weight="normal" text-decoration="none" x="0" y="30">UNREGISTERED</text><text fill="#eeeeee" stroke="none" font-family="Arial" font-size="24px" font-style="normal" font-weight="normal" text-decoration="none" x="0" y="60">UNREGISTERED</text><text fill="#eeeeee" stroke="none" font-family="Arial" font-size="24px" font-style="normal" font-weight="normal" text-decoration="none" x="0" y="90">UNREGISTERED</text><text fill="#eeeeee" stroke="none" font-family="Arial" font-size="24px" font-style="normal" font-weight="normal" text-decoration="none" x="0" y="120">UNREGISTERED</text><text fill="#eeeeee" stroke="none" font-family="Arial" font-size="24px" font-style="normal" font-weight="normal" text-decoration="none" x="0" y="150">UNREGISTERED</text><text fill="#eeeeee" stroke="none" font-family="Arial" font-size="24px" font-style="normal" font-weight="normal" text-decoration="none" x="0" y="180">UNREGISTERED</text><text fill="#eeeeee" stroke="none" font-family="Arial" font-size="24px" font-style="normal" font-weight="normal" text-decoration="none" x="0" y="210">UNREGISTERED</text><text fill="#eeeeee" stroke="none" font-family="Arial" font-size="24px" font-style="normal" font-weight="normal" text-decoration="none" x="0" y="240">UNREGISTERED</text><text fill="#eeeeee" stroke="none" font-family="Arial" font-size="24px" font-style="normal" font-weight="normal" text-decoration="none" x="0" y="270">UNREGISTERED</text><text fill="#eeeeee" stroke="none" font-family="Arial" font-size="24px" font-style="normal" font-weight="normal" text-decoration="none" x="0" y="300">UNREGISTERED</text><text fill="#eeeeee" stroke="none" font-family="Arial" font-size="24px" font-style="normal" font-weight="normal" text-decoration="none" x="0" y="330">UNREGISTERED</text><text fill="#eeeeee" stroke="none" font-family="Arial" font-size="24px" font-style="normal" font-weight="normal" text-decoration="none" x="0" y="360">UNREGISTERED</text><text fill="#eeeeee" stroke="none" font-family="Arial" font-size="24px" font-style="normal" font-weight="normal" text-decoration="none" x="0" y="390">UNREGISTERED</text><text fill="#eeeeee" stroke="none" font-family="Arial" font-size="24px" font-style="normal" font-weight="normal" text-decoration="none" x="200" y="0">UNREGISTERED</text><text fill="#eeeeee" stroke="none" font-family="Arial" font-size="24px" font-style="normal" font-weight="normal" text-decoration="none" x="200" y="30">UNREGISTERED</text><text fill="#eeeeee" stroke="none" font-family="Arial" font-size="24px" font-style="normal" font-weight="normal" text-decoration="none" x="200" y="60">UNREGISTERED</text><text fill="#eeeeee" stroke="none" font-family="Arial" font-size="24px" font-style="normal" font-weight="normal" text-decoration="none" x="200" y="90">UNREGISTERED</text><text fill="#eeeeee" stroke="none" font-family="Arial" font-size="24px" font-style="normal" font-weight="normal" text-decoration="none" x="200" y="120">UNREGISTERED</text><text fill="#eeeeee" stroke="none" font-family="Arial" font-size="24px" font-style="normal" font-weight="normal" text-decoration="none" x="200" y="150">UNREGISTERED</text><text fill="#eeeeee" stroke="none" font-family="Arial" font-size="24px" font-style="normal" font-weight="normal" text-decoration="none" x="200" y="180">UNREGISTERED</text><text fill="#eeeeee" stroke="none" font-family="Arial" font-size="24px" font-style="normal" font-weight="normal" text-decoration="none" x="200" y="210">UNREGISTERED</text><text fill="#eeeeee" stroke="none" font-family="Arial" font-size="24px" font-style="normal" font-weight="normal" text-decoration="none" x="200" y="240">UNREGISTERED</text><text fill="#eeeeee" stroke="none" font-family="Arial" font-size="24px" font-style="normal" font-weight="normal" text-decoration="none" x="200" y="270">UNREGISTERED</text><text fill="#eeeeee" stroke="none" font-family="Arial" font-size="24px" font-style="normal" font-weight="normal" text-decoration="none" x="200" y="300">UNREGISTERED</text><text fill="#eeeeee" stroke="none" font-family="Arial" font-size="24px" font-style="normal" font-weight="normal" text-decoration="none" x="200" y="330">UNREGISTERED</text><text fill="#eeeeee" stroke="none" font-family="Arial" font-size="24px" font-style="normal" font-weight="normal" text-decoration="none" x="200" y="360">UNREGISTERED</text><text fill="#eeeeee" stroke="none" font-family="Arial" font-size="24px" font-style="normal" font-weight="normal" text-decoration="none" x="200" y="390">UNREGISTERED</text><text fill="#eeeeee" stroke="none" font-family="Arial" font-size="24px" font-style="normal" font-weight="normal" text-decoration="none" x="400" y="0">UNREGISTERED</text><text fill="#eeeeee" stroke="none" font-family="Arial" font-size="24px" font-style="normal" font-weight="normal" text-decoration="none" x="400" y="30">UNREGISTERED</text><text fill="#eeeeee" stroke="none" font-family="Arial" font-size="24px" font-style="normal" font-weight="normal" text-decoration="none" x="400" y="60">UNREGISTERED</text><text fill="#eeeeee" stroke="none" font-family="Arial" font-size="24px" font-style="normal" font-weight="normal" text-decoration="none" x="400" y="90">UNREGISTERED</text><text fill="#eeeeee" stroke="none" font-family="Arial" font-size="24px" font-style="normal" font-weight="normal" text-decoration="none" x="400" y="120">UNREGISTERED</text><text fill="#eeeeee" stroke="none" font-family="Arial" font-size="24px" font-style="normal" font-weight="normal" text-decoration="none" x="400" y="150">UNREGISTERED</text><text fill="#eeeeee" stroke="none" font-family="Arial" font-size="24px" font-style="normal" font-weight="normal" text-decoration="none" x="400" y="180">UNREGISTERED</text><text fill="#eeeeee" stroke="none" font-family="Arial" font-size="24px" font-style="normal" font-weight="normal" text-decoration="none" x="400" y="210">UNREGISTERED</text><text fill="#eeeeee" stroke="none" font-family="Arial" font-size="24px" font-style="normal" font-weight="normal" text-decoration="none" x="400" y="240">UNREGISTERED</text><text fill="#eeeeee" stroke="none" font-family="Arial" font-size="24px" font-style="normal" font-weight="normal" text-decoration="none" x="400" y="270">UNREGISTERED</text><text fill="#eeeeee" stroke="none" font-family="Arial" font-size="24px" font-style="normal" font-weight="normal" text-decoration="none" x="400" y="300">UNREGISTERED</text><text fill="#eeeeee" stroke="none" font-family="Arial" font-size="24px" font-style="normal" font-weight="normal" text-decoration="none" x="400" y="330">UNREGISTERED</text><text fill="#eeeeee" stroke="none" font-family="Arial" font-size="24px" font-style="normal" font-weight="normal" text-decoration="none" x="400" y="360">UNREGISTERED</text><text fill="#eeeeee" stroke="none" font-family="Arial" font-size="24px" font-style="normal" font-weight="normal" text-decoration="none" x="400" y="390">UNREGISTERED</text><text fill="#eeeeee" stroke="none" font-family="Arial" font-size="24px" font-style="normal" font-weight="normal" text-decoration="none" x="600" y="0">UNREGISTERED</text><text fill="#eeeeee" stroke="none" font-family="Arial" font-size="24px" font-style="normal" font-weight="normal" text-decoration="none" x="600" y="30">UNREGISTERED</text><text fill="#eeeeee" stroke="none" font-family="Arial" font-size="24px" font-style="normal" font-weight="normal" text-decoration="none" x="600" y="60">UNREGISTERED</text><text fill="#eeeeee" stroke="none" font-family="Arial" font-size="24px" font-style="normal" font-weight="normal" text-decoration="none" x="600" y="90">UNREGISTERED</text><text fill="#eeeeee" stroke="none" font-family="Arial" font-size="24px" font-style="normal" font-weight="normal" text-decoration="none" x="600" y="120">UNREGISTERED</text><text fill="#eeeeee" stroke="none" font-family="Arial" font-size="24px" font-style="normal" font-weight="normal" text-decoration="none" x="600" y="150">UNREGISTERED</text><text fill="#eeeeee" stroke="none" font-family="Arial" font-size="24px" font-style="normal" font-weight="normal" text-decoration="none" x="600" y="180">UNREGISTERED</text><text fill="#eeeeee" stroke="none" font-family="Arial" font-size="24px" font-style="normal" font-weight="normal" text-decoration="none" x="600" y="210">UNREGISTERED</text><text fill="#eeeeee" stroke="none" font-family="Arial" font-size="24px" font-style="normal" font-weight="normal" text-decoration="none" x="600" y="240">UNREGISTERED</text><text fill="#eeeeee" stroke="none" font-family="Arial" font-size="24px" font-style="normal" font-weight="normal" text-decoration="none" x="600" y="270">UNREGISTERED</text><text fill="#eeeeee" stroke="none" font-family="Arial" font-size="24px" font-style="normal" font-weight="normal" text-decoration="none" x="600" y="300">UNREGISTERED</text><text fill="#eeeeee" stroke="none" font-family="Arial" font-size="24px" font-style="normal" font-weight="normal" text-decoration="none" x="600" y="330">UNREGISTERED</text><text fill="#eeeeee" stroke="none" font-family="Arial" font-size="24px" font-style="normal" font-weight="normal" text-decoration="none" x="600" y="360">UNREGISTERED</text><text fill="#eeeeee" stroke="none" font-family="Arial" font-size="24px" font-style="normal" font-weight="normal" text-decoration="none" x="600" y="390">UNREGISTERED</text><g transform="translate(-6,2) scale(1,1)"><path fill="none" stroke="#000000" d="M 16 8 L 728 8 L 728 400 L 16 400 L 16 8" stroke-miterlimit="10"/></g><g transform="translate(-6,2) scale(1,1)"><path fill="#ffffff" stroke="none" d="M 16 8 L 16 30 L 103.5380859375 30 L 114.5380859375 19 L 114.5380859375 8 L 16 8"/></g><g transform="translate(-6,2) scale(1,1)"><path fill="none" stroke="#000000" d="M 16 8 L 16 30 L 103.5380859375 30 L 114.5380859375 19 L 114.5380859375 8 L 16 8 L 16 8" stroke-miterlimit="10"/></g><g transform="translate(-6,2) scale(1,1)"><g><path fill="none" stroke="none"/><text fill="#000000" stroke="none" font-family="Arial" font-size="13px" font-style="normal" font-weight="normal" text-decoration="none" x="40.72998046875" y="25.5">Employee</text></g></g><g transform="translate(-6,2) scale(1,1)"><g><path fill="none" stroke="none"/><text fill="#000000" stroke="none" font-family="Arial" font-size="13px" font-style="normal" font-weight="bold" text-decoration="none" x="21" y="25.5">sd</text></g></g><g transform="translate(-6,2) scale(1,1)"><rect fill="#C0C0C0" stroke="none" x="39" y="47" width="71.736328125" height="39" opacity="0.2"/></g><g transform="translate(-6,2) scale(1,1)"><rect fill="#ffffff" stroke="none" x="32" y="40" width="71.736328125" height="39"/></g><g transform="translate(-6,2) scale(1,1)"><path fill="none" stroke="#000000" d="M 32 40 L 103.736328125 40 L 103.736328125 79 L 32 79 L 32 40 Z Z" stroke-miterlimit="10"/></g><g transform="translate(-6,2) scale(1,1)"><g><path fill="none" stroke="none"/><text fill="#000000" stroke="none" font-family="Arial" font-size="13px" font-style="normal" font-weight="bold" text-decoration="none" x="53.417724609375" y="59.5">Boss</text></g></g><g transform="translate(-6,2) scale(1,1)"><path fill="none" stroke="#000000" d="M 68.5 80 L 68.5 384" stroke-miterlimit="10" stroke-dasharray="3"/></g><g transform="translate(-6,2) scale(1,1)"><rect fill="#C0C0C0" stroke="none" x="231" y="47" width="138.91357421875" height="39" opacity="0.2"/></g><g transform="translate(-6,2) scale(1,1)"><rect fill="#ffffff" stroke="none" x="224" y="40" width="138.91357421875" height="39"/></g><g transform="translate(-6,2) scale(1,1)"><path fill="none" stroke="#000000" d="M 224 40 L 362.91357421875 40 L 362.91357421875 79 L 224 79 L 224 40 Z Z" stroke-miterlimit="10"/></g><g transform="translate(-6,2) scale(1,1)"><g><path fill="none" stroke="none"/><text fill="#000000" stroke="none" font-family="Arial" font-size="13px" font-style="normal" font-weight="bold" text-decoration="none" x="237.819580078125" y="59.5">EmployeeControler</text></g></g><g transform="translate(-6,2) scale(1,1)"><path fill="none" stroke="#000000" d="M 294.5 80 L 294.5 384" stroke-miterlimit="10" stroke-dasharray="3"/></g><g transform="translate(-6,2) scale(1,1)"><rect fill="#C0C0C0" stroke="none" x="439" y="47" width="159.87353515625" height="39" opacity="0.2"/></g><g transform="translate(-6,2) scale(1,1)"><rect fill="#ffffff" stroke="none" x="432" y="40" width="159.87353515625" height="39"/></g><g transform="translate(-6,2) scale(1,1)"><path fill="none" stroke="#000000" d="M 432 40 L 591.87353515625 40 L 591.87353515625 79 L 432 79 L 432 40 Z Z" stroke-miterlimit="10"/></g><g transform="translate(-6,2) scale(1,1)"><g><path fill="none" stroke="none"/><text fill="#000000" stroke="none" font-family="Arial" font-size="13px" font-style="normal" font-weight="bold" text-decoration="none" x="445.0927734375" y="59.5">EmployeeManagement</text></g></g><g transform="translate(-6,2) scale(1,1)"><path fill="none" stroke="#000000" d="M 512.5 80 L 512.5 384" stroke-miterlimit="10" stroke-dasharray="3"/></g><g transform="translate(-6,2) scale(1,1)"><rect fill="#C0C0C0" stroke="none" x="639" y="47" width="71.736328125" height="39" opacity="0.2"/></g><g transform="translate(-6,2) scale(1,1)"><rect fill="#ffffff" stroke="none" x="632" y="40" width="71.736328125" height="39"/></g><g transform="translate(-6,2) scale(1,1)"><path fill="none" stroke="#000000" d="M 632 40 L 703.736328125 40 L 703.736328125 79 L 632 79 L 632 40 Z Z" stroke-miterlimit="10"/></g><g transform="translate(-6,2) scale(1,1)"><g><path fill="none" stroke="none"/><text fill="#000000" stroke="none" font-family="Arial" font-size="13px" font-style="normal" font-weight="bold" text-decoration="none" x="649.0791015625" y="59.5">Spring</text></g></g><g transform="translate(-6,2) scale(1,1)"><path fill="none" stroke="#000000" d="M 668.5 80 L 668.5 384" stroke-miterlimit="10" stroke-dasharray="3"/></g><g transform="translate(-6,2) scale(1,1)"><path fill="none" stroke="#000000" d="M 68 159 L 287 159" stroke-miterlimit="10"/></g><g transform="translate(-6,2) scale(1,1)"><path fill="#000000" stroke="none" d="M 276.83732514237585 163.209517756016 L 287 159 L 276.83732514237585 154.790482243984"/></g><g transform="translate(-6,2) scale(1,1)"><path fill="none" stroke="#000000" d="M 276.83732514237585 163.209517756016 L 287 159 L 276.83732514237585 154.790482243984 L 276.83732514237585 163.209517756016" stroke-miterlimit="10"/></g><g transform="translate(-6,2) scale(1,1)"><g><path fill="none" stroke="none"/><text fill="#000000" stroke="none" font-family="Arial" font-size="13px" font-style="normal" font-weight="normal" text-decoration="none" x="141.486328125" y="155.5">1 : register()</text></g></g><g transform="translate(-6,2) scale(1,1)"><rect fill="#ffffff" stroke="none" x="287" y="159" width="13" height="49"/></g><g transform="translate(-6,2) scale(1,1)"><path fill="none" stroke="#000000" d="M 287 159 L 300 159 L 300 208 L 287 208 L 287 159 Z Z" stroke-miterlimit="10"/></g><g transform="translate(-6,2) scale(1,1)"><path fill="none" stroke="#000000" d="M 300 164 L 505 164" stroke-miterlimit="10"/></g><g transform="translate(-6,2) scale(1,1)"><path fill="#000000" stroke="none" d="M 494.83732514237585 168.209517756016 L 505 164 L 494.83732514237585 159.790482243984"/></g><g transform="translate(-6,2) scale(1,1)"><path fill="none" stroke="#000000" d="M 494.83732514237585 168.209517756016 L 505 164 L 494.83732514237585 159.790482243984 L 494.83732514237585 168.209517756016" stroke-miterlimit="10"/></g><g transform="translate(-6,2) scale(1,1)"><g><path fill="none" stroke="none"/><text fill="#000000" stroke="none" font-family="Arial" font-size="13px" font-style="normal" font-weight="normal" text-decoration="none" x="303.5" y="160.5">2 : employeeManagement.findAll()</text></g></g><g transform="translate(-6,2) scale(1,1)"><rect fill="#ffffff" stroke="none" x="505" y="164" width="13" height="44"/></g><g transform="translate(-6,2) scale(1,1)"><path fill="none" stroke="#000000" d="M 505 164 L 518 164 L 518 208 L 505 208 L 505 164 Z Z" stroke-miterlimit="10"/></g><g transform="translate(-6,2) scale(1,1)"><path fill="none" stroke="#000000" d="M 505 192 L 300 192" stroke-miterlimit="10" stroke-dasharray="3"/></g><g transform="translate(-6,2) scale(1,1)"><path fill="none" stroke="#000000" d="M 310.16267485762415 187.790482243984 L 300 192 L 310.16267485762415 196.209517756016" stroke-miterlimit="10"/></g><g transform="translate(-6,2) scale(1,1)"><g><path fill="none" stroke="none"/><text fill="#000000" stroke="none" font-family="Arial" font-size="13px" font-style="normal" font-weight="normal" text-decoration="none" x="392.114990234375" y="208.5">3 : </text></g></g><g transform="translate(-6,2) scale(1,1)"><path fill="none" stroke="#000000" d="M 287 200 L 68 200" stroke-miterlimit="10" stroke-dasharray="3"/></g><g transform="translate(-6,2) scale(1,1)"><path fill="none" stroke="#000000" d="M 78.16267485762415 195.790482243984 L 68 200 L 78.16267485762415 204.209517756016" stroke-miterlimit="10"/></g><g transform="translate(-6,2) scale(1,1)"><g><path fill="none" stroke="none"/><text fill="#000000" stroke="none" font-family="Arial" font-size="13px" font-style="normal" font-weight="normal" text-decoration="none" x="95.5" y="196.5">4 : Template:employees.html</text></g></g><g transform="translate(-6,2) scale(1,1)"><path fill="none" stroke="#000000" d="M 68 249 L 287 249" stroke-miterlimit="10"/></g><g transform="translate(-6,2) scale(1,1)"><path fill="#000000" stroke="none" d="M 276.83732514237585 253.209517756016 L 287 249 L 276.83732514237585 244.790482243984"/></g><g transform="translate(-6,2) scale(1,1)"><path fill="none" stroke="#000000" d="M 276.83732514237585 253.209517756016 L 287 249 L 276.83732514237585 244.790482243984 L 276.83732514237585 253.209517756016" stroke-miterlimit="10"/></g><g transform="translate(-6,2) scale(1,1)"><g><path fill="none" stroke="none"/><text fill="#000000" stroke="none" font-family="Arial" font-size="13px" font-style="normal" font-weight="normal" text-decoration="none" x="116.5" y="245.5">5 : createEmployee()</text></g></g><g transform="translate(-6,2) scale(1,1)"><rect fill="#ffffff" stroke="none" x="287" y="249" width="13" height="55"/></g><g transform="translate(-6,2) scale(1,1)"><path fill="none" stroke="#000000" d="M 287 249 L 300 249 L 300 304 L 287 304 L 287 249 Z Z" stroke-miterlimit="10"/></g><g transform="translate(-6,2) scale(1,1)"><path fill="none" stroke="#000000" d="M 300 256 L 661 256" stroke-miterlimit="10"/></g><g transform="translate(-6,2) scale(1,1)"><path fill="#000000" stroke="none" d="M 650.8373251423759 260.209517756016 L 661 256 L 650.8373251423758 251.790482243984"/></g><g transform="translate(-6,2) scale(1,1)"><path fill="none" stroke="#000000" d="M 650.8373251423759 260.209517756016 L 661 256 L 650.8373251423758 251.790482243984 L 650.8373251423759 260.209517756016" stroke-miterlimit="10"/></g><g transform="translate(-6,2) scale(1,1)"><g><path fill="none" stroke="none"/><text fill="#000000" stroke="none" font-family="Arial" font-size="13px" font-style="normal" font-weight="normal" text-decoration="none" x="400.5" y="252.5">6 : add employees to Model</text></g></g><g transform="translate(-6,2) scale(1,1)"><rect fill="#ffffff" stroke="none" x="661" y="256" width="13" height="28"/></g><g transform="translate(-6,2) scale(1,1)"><path fill="none" stroke="#000000" d="M 661 256 L 674 256 L 674 284 L 661 284 L 661 256 Z Z" stroke-miterlimit="10"/></g><g transform="translate(-6,2) scale(1,1)"><path fill="none" stroke="#000000" d="M 661 274 L 300 274" stroke-miterlimit="10" stroke-dasharray="3"/></g><g transform="translate(-6,2) scale(1,1)"><path fill="none" stroke="#000000" d="M 310.16267485762415 269.790482243984 L 300 274 L 310.16267485762415 278.209517756016" stroke-miterlimit="10"/></g><g transform="translate(-6,2) scale(1,1)"><g><path fill="none" stroke="none"/><text fill="#000000" stroke="none" font-family="Arial" font-size="13px" font-style="normal" font-weight="normal" text-decoration="none" x="469.5" y="290.5">7 : </text></g></g><g transform="translate(-6,2) scale(1,1)"><path fill="none" stroke="#000000" d="M 287 296 L 68 296" stroke-miterlimit="10" stroke-dasharray="3"/></g><g transform="translate(-6,2) scale(1,1)"><path fill="none" stroke="#000000" d="M 78.16267485762415 291.790482243984 L 68 296 L 78.16267485762415 300.209517756016" stroke-miterlimit="10"/></g><g transform="translate(-6,2) scale(1,1)"><g><path fill="none" stroke="none"/><text fill="#000000" stroke="none" font-family="Arial" font-size="13px" font-style="normal" font-weight="normal" text-decoration="none" x="71.5" y="291.5">8 : Template: employees_add.html</text></g></g></g></svg>