<svg version="1.1" xmlns="http://www.w3.org/2000/svg" xmlns:xlink="http://www.w3.org/1999/xlink" width="724" height="460"><defs/><g><g transform="translate(-150,-150) scale(1,1)"><rect fill="#C0C0C0" stroke="none" x="167" y="167" width="281.6" height="15" opacity="0.2"/></g><g transform="translate(-150,-150) scale(1,1)"><rect fill="#C0C0C0" stroke="none" x="167" y="181" width="704" height="202" opacity="0.2"/></g><g transform="translate(-150,-150) scale(1,1)"><rect fill="#ffffff" stroke="none" x="160" y="175" width="704" height="201"/></g><g transform="translate(-150,-150) scale(1,1)"><path fill="none" stroke="#000000" d="M 160 175 L 864 175 L 864 376 L 160 376 L 160 175 Z Z" stroke-miterlimit="10"/></g><g transform="translate(-150,-150) scale(1,1)"><rect fill="#ffffff" stroke="none" x="160" y="160" width="281.6" height="15"/></g><g transform="translate(-150,-150) scale(1,1)"><path fill="none" stroke="#000000" d="M 160 160 L 441.6 160 L 441.6 175 L 160 175 L 160 160 Z Z" stroke-miterlimit="10"/></g><g transform="translate(-150,-150) scale(1,1)"><rect fill="#ffffff" stroke="none" x="160" y="174" width="704" height="202"/></g><g transform="translate(-150,-150) scale(1,1)"><path fill="none" stroke="#000000" d="M 160 174 L 864 174 L 864 376 L 160 376 L 160 174 Z Z" stroke-miterlimit="10"/></g><g transform="translate(-150,-150) scale(1,1)"><path fill="none" stroke="#000000" d="M 432.6 163 L 426.6 170 L 438.6 170 L 432.6 163" stroke-miterlimit="10"/></g><g transform="translate(-150,-150) scale(1,1)"><g><path fill="none" stroke="none"/><text fill="#000000" stroke="none" font-family="Arial" font-size="13px" font-style="normal" font-weight="bold" text-decoration="none" x="488.510498046875" y="194.5">revenue</text></g></g><g transform="translate(-150,-150) scale(1,1)"><rect fill="#C0C0C0" stroke="none" x="191" y="215" width="643.791015625" height="160" opacity="0.2"/></g><g transform="translate(-150,-150) scale(1,1)"><rect fill="#ffffff" stroke="none" x="184" y="208" width="643.791015625" height="160"/></g><g transform="translate(-150,-150) scale(1,1)"><path fill="none" stroke="#000000" d="M 184 208 L 827.791015625 208 L 827.791015625 368 L 184 368 L 184 208 Z Z" stroke-miterlimit="10"/></g><g transform="translate(-150,-150) scale(1,1)"><path fill="none" stroke="#000000" d="M 184 233 L 827.791015625 233" stroke-miterlimit="10"/></g><g transform="translate(-150,-150) scale(1,1)"><g><path fill="none" stroke="none"/><text fill="#000000" stroke="none" font-family="Arial" font-size="13px" font-style="normal" font-weight="bold" text-decoration="none" x="451.69921875" y="227.5">RevenueController</text></g></g><g transform="translate(-150,-150) scale(1,1)"><g><path fill="none" stroke="none"/><text fill="#000000" stroke="none" font-family="Arial" font-size="13px" font-style="normal" font-weight="normal" text-decoration="none" x="189" y="250.5">+RevenueController(mampfOrderManager: MampfOrderManager, catalog: MampfCatalog)</text></g></g><g transform="translate(-150,-150) scale(1,1)"><g><path fill="none" stroke="none"/><text fill="#000000" stroke="none" font-family="Arial" font-size="13px" font-style="normal" font-weight="normal" text-decoration="none" x="189" y="265.5">+showRevenue(model: Model, startDateString: String, endDateString: String): String</text></g></g><g transform="translate(-150,-150) scale(1,1)"><g><path fill="none" stroke="none"/><text fill="#000000" stroke="none" font-family="Arial" font-size="13px" font-style="normal" font-weight="normal" text-decoration="none" x="189" y="280.5">+calculateSumPerOrderLine(orderLine: OrderLine, gains: Map&lt;Item; Pair&lt;Quantity; MonetaryAmount&gt;&gt;): void</text></g></g><g transform="translate(-150,-150) scale(1,1)"><g><path fill="none" stroke="none"/><text fill="#000000" stroke="none" font-family="Arial" font-size="13px" font-style="normal" font-weight="normal" text-decoration="none" x="189" y="295.5">+dateIsInBorders(dateToCheck: LocalDate, startDate: LocalDate, endDate: LocalDate): boolean</text></g></g><g transform="translate(-150,-150) scale(1,1)"><g><path fill="none" stroke="none"/><text fill="#000000" stroke="none" font-family="Arial" font-size="13px" font-style="normal" font-weight="normal" text-decoration="none" x="189" y="310.5">+parseDateStringIntoLocalDate(dateString: String, isStartDate: boolean): LocalDate</text></g></g><g transform="translate(-150,-150) scale(1,1)"><rect fill="#C0C0C0" stroke="none" x="247" y="503" width="70.39999999999998" height="15" opacity="0.2"/></g><g transform="translate(-150,-150) scale(1,1)"><rect fill="#C0C0C0" stroke="none" x="247" y="517" width="176" height="90" opacity="0.2"/></g><g transform="translate(-150,-150) scale(1,1)"><rect fill="#ffffff" stroke="none" x="240" y="511" width="176" height="89"/></g><g transform="translate(-150,-150) scale(1,1)"><path fill="none" stroke="#000000" d="M 240 511 L 416 511 L 416 600 L 240 600 L 240 511 Z Z" stroke-miterlimit="10"/></g><g transform="translate(-150,-150) scale(1,1)"><rect fill="#ffffff" stroke="none" x="240" y="496" width="70.39999999999998" height="15"/></g><g transform="translate(-150,-150) scale(1,1)"><path fill="none" stroke="#000000" d="M 240 496 L 310.4 496 L 310.4 511 L 240 511 L 240 496 Z Z" stroke-miterlimit="10"/></g><g transform="translate(-150,-150) scale(1,1)"><rect fill="#ffffff" stroke="none" x="240" y="510" width="176" height="90"/></g><g transform="translate(-150,-150) scale(1,1)"><path fill="none" stroke="#000000" d="M 240 510 L 416 510 L 416 600 L 240 600 L 240 510 Z Z" stroke-miterlimit="10"/></g><g transform="translate(-150,-150) scale(1,1)"><g><path fill="none" stroke="none"/><text fill="#000000" stroke="none" font-family="Arial" font-size="13px" font-style="normal" font-weight="bold" text-decoration="none" x="307.0400390625" y="530.5">catalog</text></g></g><g transform="translate(-150,-150) scale(1,1)"><rect fill="#C0C0C0" stroke="none" x="511" y="511" width="70.39999999999998" height="15" opacity="0.2"/></g><g transform="translate(-150,-150) scale(1,1)"><rect fill="#C0C0C0" stroke="none" x="511" y="525" width="176" height="82" opacity="0.2"/></g><g transform="translate(-150,-150) scale(1,1)"><rect fill="#ffffff" stroke="none" x="504" y="519" width="176" height="81"/></g><g transform="translate(-150,-150) scale(1,1)"><path fill="none" stroke="#000000" d="M 504 519 L 680 519 L 680 600 L 504 600 L 504 519 Z Z" stroke-miterlimit="10"/></g><g transform="translate(-150,-150) scale(1,1)"><rect fill="#ffffff" stroke="none" x="504" y="504" width="70.39999999999998" height="15"/></g><g transform="translate(-150,-150) scale(1,1)"><path fill="none" stroke="#000000" d="M 504 504 L 574.4 504 L 574.4 519 L 504 519 L 504 504 Z Z" stroke-miterlimit="10"/></g><g transform="translate(-150,-150) scale(1,1)"><rect fill="#ffffff" stroke="none" x="504" y="518" width="176" height="82"/></g><g transform="translate(-150,-150) scale(1,1)"><path fill="none" stroke="#000000" d="M 504 518 L 680 518 L 680 600 L 504 600 L 504 518 Z Z" stroke-miterlimit="10"/></g><g transform="translate(-150,-150) scale(1,1)"><path fill="none" stroke="#000000" d="M 565.4 507 L 559.4 514 L 571.4 514 L 565.4 507" stroke-miterlimit="10"/></g><g transform="translate(-150,-150) scale(1,1)"><g><path fill="none" stroke="none"/><text fill="#000000" stroke="none" font-family="Arial" font-size="13px" font-style="normal" font-weight="bold" text-decoration="none" x="576.825927734375" y="538.5">order</text></g></g><g transform="translate(-150,-150) scale(1,1)"><rect fill="#C0C0C0" stroke="none" x="271" y="551" width="139.7490234375" height="44" opacity="0.2"/></g><g transform="translate(-150,-150) scale(1,1)"><rect fill="#ffffff" stroke="none" x="264" y="544" width="139.7490234375" height="44"/></g><g transform="translate(-150,-150) scale(1,1)"><path fill="none" stroke="#000000" d="M 264 544 L 403.7490234375 544 L 403.7490234375 588 L 264 588 L 264 544 Z Z" stroke-miterlimit="10"/></g><g transform="translate(-150,-150) scale(1,1)"><g><path fill="none" stroke="none"/><text fill="#000000" stroke="none" font-family="Arial" font-size="13px" font-style="normal" font-weight="bold" text-decoration="none" x="291.60546875" y="563.5">MampfCatalog</text></g></g><g transform="translate(-150,-150) scale(1,1)"><rect fill="#C0C0C0" stroke="none" x="527" y="551" width="139.7490234375" height="44" opacity="0.2"/></g><g transform="translate(-150,-150) scale(1,1)"><rect fill="#ffffff" stroke="none" x="520" y="544" width="139.7490234375" height="44"/></g><g transform="translate(-150,-150) scale(1,1)"><path fill="none" stroke="#000000" d="M 520 544 L 659.7490234375 544 L 659.7490234375 588 L 520 588 L 520 544 Z Z" stroke-miterlimit="10"/></g><g transform="translate(-150,-150) scale(1,1)"><g><path fill="none" stroke="none"/><text fill="#000000" stroke="none" font-family="Arial" font-size="13px" font-style="normal" font-weight="bold" text-decoration="none" x="527.740478515625" y="563.5">MampfOrderManager</text></g></g><g transform="translate(-150,-150) scale(1,1)"><path fill="none" stroke="#000000" d="M 455 369 L 347 543" stroke-miterlimit="10"/></g><g transform="translate(-150,-150) scale(1,1)"><path fill="none" stroke="#000000" d="M 348.78284193040207 532.1454399144322 L 347 543 L 355.9359926620728 536.5853265754693" stroke-miterlimit="10"/></g><g transform="translate(-150,-150) scale(1,1)"><g><path fill="none" stroke="none"/><text fill="#000000" stroke="none" font-family="Arial" font-size="13px" font-style="normal" font-weight="normal" text-decoration="none" x="390.305419921875" y="469.5">-catalog</text></g></g><g transform="translate(-150,-150) scale(1,1)"><path fill="none" stroke="#000000" d="M 529 369 L 582 543" stroke-miterlimit="10"/></g><g transform="translate(-150,-150) scale(1,1)"><path fill="none" stroke="#000000" d="M 575.0119406694612 534.5048821789884 L 582 543 L 583.0656512782581 532.051740441826" stroke-miterlimit="10"/></g><g transform="translate(-150,-150) scale(1,1)"><g><path fill="none" stroke="none"/><text fill="#000000" stroke="none" font-family="Arial" font-size="13px" font-style="normal" font-weight="normal" text-decoration="none" x="505.13134765625" y="457.5">-mampfOrderManager</text></g></g></g></svg>