<svg version="1.1" xmlns="http://www.w3.org/2000/svg" xmlns:xlink="http://www.w3.org/1999/xlink" width="980" height="1036"><defs/><g><g transform="translate(-342,-374) scale(1,1)"><rect fill="#C0C0C0" stroke="none" x="799" y="391" width="208" height="15" opacity="0.2"/></g><g transform="translate(-342,-374) scale(1,1)"><rect fill="#C0C0C0" stroke="none" x="799" y="405" width="520" height="1002" opacity="0.2"/></g><g transform="translate(-342,-374) scale(1,1)"><rect fill="#ffffff" stroke="none" x="792" y="399" width="520" height="1001"/></g><g transform="translate(-342,-374) scale(1,1)"><path fill="none" stroke="#000000" d="M 792 399 L 1312 399 L 1312 1400 L 792 1400 L 792 399 Z Z" stroke-miterlimit="10"/></g><g transform="translate(-342,-374) scale(1,1)"><rect fill="#ffffff" stroke="none" x="792" y="384" width="208" height="15"/></g><g transform="translate(-342,-374) scale(1,1)"><path fill="none" stroke="#000000" d="M 792 384 L 1000 384 L 1000 399 L 792 399 L 792 384 Z Z" stroke-miterlimit="10"/></g><g transform="translate(-342,-374) scale(1,1)"><rect fill="#ffffff" stroke="none" x="792" y="398" width="520" height="1002"/></g><g transform="translate(-342,-374) scale(1,1)"><path fill="none" stroke="#000000" d="M 792 398 L 1312 398 L 1312 1400 L 792 1400 L 792 398 Z Z" stroke-miterlimit="10"/></g><g transform="translate(-342,-374) scale(1,1)"><g><path fill="none" stroke="none"/><text fill="#000000" stroke="none" font-family="Arial" font-size="13px" font-style="normal" font-weight="bold" text-decoration="none" x="1023.095947265625" y="418.5">Employee</text></g></g><g transform="translate(-342,-374) scale(1,1)"><rect fill="#C0C0C0" stroke="none" x="855" y="439" width="231.4345703125" height="216" opacity="0.2"/></g><g transform="translate(-342,-374) scale(1,1)"><rect fill="#ffffff" stroke="none" x="848" y="432" width="231.4345703125" height="216"/></g><g transform="translate(-342,-374) scale(1,1)"><path fill="none" stroke="#000000" d="M 848 432 L 1079.4345703125 432 L 1079.4345703125 648 L 848 648 L 848 432 Z Z" stroke-miterlimit="10"/></g><g transform="translate(-342,-374) scale(1,1)"><path fill="none" stroke="#000000" d="M 848 457 L 1079.4345703125 457" stroke-miterlimit="10"/></g><g transform="translate(-342,-374) scale(1,1)"><path fill="none" stroke="#000000" d="M 848 510 L 1079.4345703125 510" stroke-miterlimit="10"/></g><g transform="translate(-342,-374) scale(1,1)"><g><path fill="none" stroke="none"/><text fill="#000000" stroke="none" font-family="Arial" font-size="13px" font-style="normal" font-weight="bold" text-decoration="none" x="934.813232421875" y="451.5">Employee</text></g></g><g transform="translate(-342,-374) scale(1,1)"><g><path fill="none" stroke="none"/><text fill="#000000" stroke="none" font-family="Arial" font-size="13px" font-style="normal" font-weight="normal" text-decoration="none" x="853" y="474.5">-name: String</text></g></g><g transform="translate(-342,-374) scale(1,1)"><g><path fill="none" stroke="none"/><text fill="#000000" stroke="none" font-family="Arial" font-size="13px" font-style="normal" font-weight="normal" text-decoration="none" x="853" y="489.5">-id: long</text></g></g><g transform="translate(-342,-374) scale(1,1)"><g><path fill="none" stroke="none"/><text fill="#000000" stroke="none" font-family="Arial" font-size="13px" font-style="normal" font-weight="normal" text-decoration="none" x="853" y="504.5">-roleTranslations: Map&lt;String; String&gt;</text></g></g><g transform="translate(-342,-374) scale(1,1)"><g><path fill="none" stroke="none"/><text fill="#000000" stroke="none" font-family="Arial" font-size="13px" font-style="normal" font-weight="normal" text-decoration="none" x="853" y="527.5">+Employee()</text></g></g><g transform="translate(-342,-374) scale(1,1)"><g><path fill="none" stroke="none"/><text fill="#000000" stroke="none" font-family="Arial" font-size="13px" font-style="normal" font-weight="normal" text-decoration="none" x="853" y="542.5">+Employee(name: String, role: Role)</text></g></g><g transform="translate(-342,-374) scale(1,1)"><g><path fill="none" stroke="none"/><text fill="#000000" stroke="none" font-family="Arial" font-size="13px" font-style="normal" font-weight="normal" text-decoration="none" x="853" y="557.5">+removedBookedOrder(): boolean</text></g></g><g transform="translate(-342,-374) scale(1,1)"><rect fill="#C0C0C0" stroke="none" x="855" y="671" width="412.5712890625" height="160" opacity="0.2"/></g><g transform="translate(-342,-374) scale(1,1)"><rect fill="#ffffff" stroke="none" x="848" y="664" width="412.5712890625" height="160"/></g><g transform="translate(-342,-374) scale(1,1)"><path fill="none" stroke="#000000" d="M 848 664 L 1260.5712890625 664 L 1260.5712890625 824 L 848 824 L 848 664 Z Z" stroke-miterlimit="10"/></g><g transform="translate(-342,-374) scale(1,1)"><path fill="none" stroke="#000000" d="M 848 689 L 1260.5712890625 689" stroke-miterlimit="10"/></g><g transform="translate(-342,-374) scale(1,1)"><path fill="none" stroke="#000000" d="M 848 712 L 1260.5712890625 712" stroke-miterlimit="10"/></g><g transform="translate(-342,-374) scale(1,1)"><g><path fill="none" stroke="none"/><text fill="#000000" stroke="none" font-family="Arial" font-size="13px" font-style="normal" font-weight="bold" text-decoration="none" x="997.204345703125" y="683.5">EmployeeController</text></g></g><g transform="translate(-342,-374) scale(1,1)"><g><path fill="none" stroke="none"/><text fill="#000000" stroke="none" font-family="Arial" font-size="13px" font-style="normal" font-weight="normal" text-decoration="none" x="853" y="706.5">-employeeManagement: EmployeeManagement</text></g></g><g transform="translate(-342,-374) scale(1,1)"><g><path fill="none" stroke="none"/><text fill="#000000" stroke="none" font-family="Arial" font-size="13px" font-style="normal" font-weight="normal" text-decoration="none" x="853" y="729.5">+EmployeeController(employeeManagement: EmployeeManagement)</text></g></g><g transform="translate(-342,-374) scale(1,1)"><g><path fill="none" stroke="none"/><text fill="#000000" stroke="none" font-family="Arial" font-size="13px" font-style="normal" font-weight="normal" text-decoration="none" x="853" y="744.5">+createEmployee(model: Model, form: RegistrationForm): String</text></g></g><g transform="translate(-342,-374) scale(1,1)"><g><path fill="none" stroke="none"/><text fill="#000000" stroke="none" font-family="Arial" font-size="13px" font-style="normal" font-weight="normal" text-decoration="none" x="853" y="759.5">+registerNew(form: RegistrationForm, error: Errors): String</text></g></g><g transform="translate(-342,-374) scale(1,1)"><g><path fill="none" stroke="none"/><text fill="#000000" stroke="none" font-family="Arial" font-size="13px" font-style="normal" font-weight="normal" text-decoration="none" x="853" y="774.5">+register(model: Model): String</text></g></g><g transform="translate(-342,-374) scale(1,1)"><g><path fill="none" stroke="none"/><text fill="#000000" stroke="none" font-family="Arial" font-size="13px" font-style="normal" font-weight="normal" text-decoration="none" x="853" y="789.5">+editEmployee(model: Model, id: long, form: RegistrationForm): String</text></g></g><g transform="translate(-342,-374) scale(1,1)"><g><path fill="none" stroke="none"/><text fill="#000000" stroke="none" font-family="Arial" font-size="13px" font-style="normal" font-weight="normal" text-decoration="none" x="853" y="804.5">+edit(id: long, form: RegistrationForm): String</text></g></g><g transform="translate(-342,-374) scale(1,1)"><g><path fill="none" stroke="none"/><text fill="#000000" stroke="none" font-family="Arial" font-size="13px" font-style="normal" font-weight="normal" text-decoration="none" x="853" y="819.5">+deleteEmployee(id: long): String</text></g></g><g transform="translate(-342,-374) scale(1,1)"><rect fill="#C0C0C0" stroke="none" x="855" y="847" width="294.060546875" height="104" opacity="0.2"/></g><g transform="translate(-342,-374) scale(1,1)"><rect fill="#ffffff" stroke="none" x="848" y="840" width="294.060546875" height="104"/></g><g transform="translate(-342,-374) scale(1,1)"><path fill="none" stroke="#000000" d="M 848 840 L 1142.060546875 840 L 1142.060546875 944 L 848 944 L 848 840 Z Z" stroke-miterlimit="10"/></g><g transform="translate(-342,-374) scale(1,1)"><path fill="none" stroke="#000000" d="M 848 865 L 1142.060546875 865" stroke-miterlimit="10"/></g><g transform="translate(-342,-374) scale(1,1)"><path fill="none" stroke="#000000" d="M 848 888 L 1142.060546875 888" stroke-miterlimit="10"/></g><g transform="translate(-342,-374) scale(1,1)"><g><path fill="none" stroke="none"/><text fill="#000000" stroke="none" font-family="Arial" font-size="13px" font-style="normal" font-weight="bold" text-decoration="none" x="926.74853515625" y="859.5">EmployeeDataInitializer</text></g></g><g transform="translate(-342,-374) scale(1,1)"><g><path fill="none" stroke="none"/><text fill="#000000" stroke="none" font-family="Arial" font-size="13px" font-style="normal" font-weight="normal" text-decoration="none" x="853" y="882.5">-LOG: Logger</text></g></g><g transform="translate(-342,-374) scale(1,1)"><g><path fill="none" stroke="none"/><text fill="#000000" stroke="none" font-family="Arial" font-size="13px" font-style="normal" font-weight="normal" text-decoration="none" x="853" y="905.5">+EmployeeDataInitializer(employeeManagement)</text></g></g><g transform="translate(-342,-374) scale(1,1)"><g><path fill="none" stroke="none"/><text fill="#000000" stroke="none" font-family="Arial" font-size="13px" font-style="normal" font-weight="normal" text-decoration="none" x="853" y="920.5">+intitialize(): void</text></g></g><g transform="translate(-342,-374) scale(1,1)"><rect fill="#C0C0C0" stroke="none" x="855" y="959" width="400" height="143" opacity="0.2"/></g><g transform="translate(-342,-374) scale(1,1)"><rect fill="#ffffff" stroke="none" x="848" y="952" width="400" height="143"/></g><g transform="translate(-342,-374) scale(1,1)"><path fill="none" stroke="#000000" d="M 848 952 L 1248 952 L 1248 1095 L 848 1095 L 848 952 Z Z" stroke-miterlimit="10"/></g><g transform="translate(-342,-374) scale(1,1)"><path fill="none" stroke="#000000" d="M 848 977 L 1248 977" stroke-miterlimit="10"/></g><g transform="translate(-342,-374) scale(1,1)"><path fill="none" stroke="#000000" d="M 848 987 L 1248 987" stroke-miterlimit="10"/></g><g transform="translate(-342,-374) scale(1,1)"><g><path fill="none" stroke="none"/><text fill="#000000" stroke="none" font-family="Arial" font-size="13px" font-style="normal" font-weight="bold" text-decoration="none" x="981.156005859375" y="971.5">EmployeeManagement</text></g></g><g transform="translate(-342,-374) scale(1,1)"><g><path fill="none" stroke="none"/><text fill="#000000" stroke="none" font-family="Arial" font-size="13px" font-style="normal" font-weight="normal" text-decoration="none" x="853" y="1004.5">+EmployeeManagement(employees: EmployeeRepository)</text></g></g><g transform="translate(-342,-374) scale(1,1)"><g><path fill="none" stroke="none"/><text fill="#000000" stroke="none" font-family="Arial" font-size="13px" font-style="normal" font-weight="normal" text-decoration="none" x="853" y="1019.5">+createEmployee(form: RegistrationForm): boolean</text></g></g><g transform="translate(-342,-374) scale(1,1)"><g><path fill="none" stroke="none"/><text fill="#000000" stroke="none" font-family="Arial" font-size="13px" font-style="normal" font-weight="normal" text-decoration="none" x="853" y="1034.5">+setEmployeeBooked(id: long, order: EventOrder): boolean</text></g></g><g transform="translate(-342,-374) scale(1,1)"><g><path fill="none" stroke="none"/><text fill="#000000" stroke="none" font-family="Arial" font-size="13px" font-style="normal" font-weight="normal" text-decoration="none" x="853" y="1049.5">+findAll(): Streamable&lt;Employee&gt;</text></g></g><g transform="translate(-342,-374) scale(1,1)"><g><path fill="none" stroke="none"/><text fill="#000000" stroke="none" font-family="Arial" font-size="13px" font-style="normal" font-weight="normal" text-decoration="none" x="853" y="1064.5">+getFreeEmployees(fromDate: LocalDateTime, toDate:</text><text fill="#000000" stroke="none" font-family="Arial" font-size="13px" font-style="normal" font-weight="normal" text-decoration="none" x="853" y="1077.5">LocalDateTime, role Employee.Role): List&lt;Employee&gt;</text></g></g><g transform="translate(-342,-374) scale(1,1)"><rect fill="#C0C0C0" stroke="none" x="911" y="551" width="95.72802734375" height="95" opacity="0.2"/></g><g transform="translate(-342,-374) scale(1,1)"><rect fill="#ffffff" stroke="none" x="904" y="544" width="95.72802734375" height="95"/></g><g transform="translate(-342,-374) scale(1,1)"><path fill="none" stroke="#000000" d="M 904 544 L 999.72802734375 544 L 999.72802734375 639 L 904 639 L 904 544 Z Z" stroke-miterlimit="10"/></g><g transform="translate(-342,-374) scale(1,1)"><path fill="none" stroke="#000000" d="M 904 620 L 999.72802734375 620" stroke-miterlimit="10"/></g><g transform="translate(-342,-374) scale(1,1)"><path fill="none" stroke="#000000" d="M 904 630 L 999.72802734375 630" stroke-miterlimit="10"/></g><g transform="translate(-342,-374) scale(1,1)"><path fill="none" stroke="#000000" d="M 904 582 L 999.72802734375 582" stroke-miterlimit="10"/></g><g transform="translate(-342,-374) scale(1,1)"><g><path fill="none" stroke="none"/><text fill="#000000" stroke="none" font-family="Arial" font-size="13px" font-style="normal" font-weight="normal" text-decoration="none" x="908.5" y="561.5">«enumeration»</text></g></g><g transform="translate(-342,-374) scale(1,1)"><g><path fill="none" stroke="none"/><text fill="#000000" stroke="none" font-family="Arial" font-size="13px" font-style="normal" font-weight="bold" text-decoration="none" x="938.495849609375" y="576.5">Role</text></g></g><g transform="translate(-342,-374) scale(1,1)"><g><path fill="none" stroke="none"/><text fill="#000000" stroke="none" font-family="Arial" font-size="13px" font-style="normal" font-weight="normal" text-decoration="none" x="909" y="599.5">COOK</text></g></g><g transform="translate(-342,-374) scale(1,1)"><g><path fill="none" stroke="none"/><text fill="#000000" stroke="none" font-family="Arial" font-size="13px" font-style="normal" font-weight="normal" text-decoration="none" x="909" y="614.5">SERVICE</text></g></g><g transform="translate(-342,-374) scale(1,1)"><rect fill="#C0C0C0" stroke="none" x="911" y="1127" width="275.2587890625" height="96" opacity="0.2"/></g><g transform="translate(-342,-374) scale(1,1)"><rect fill="#ffffff" stroke="none" x="904" y="1120" width="275.2587890625" height="96"/></g><g transform="translate(-342,-374) scale(1,1)"><path fill="none" stroke="#000000" d="M 904 1120 L 1179.2587890625 1120 L 1179.2587890625 1216 L 904 1216 L 904 1120 Z Z" stroke-miterlimit="10"/></g><g transform="translate(-342,-374) scale(1,1)"><path fill="#ffffff" stroke="none" d="M 1153.2587890625 1137 C 1153.2587890625 1132.0294368 1157.2882258625 1128 1162.2587890625 1128 C 1167.2293522625 1128 1171.2587890625 1132.0294368 1171.2587890625 1137 C 1171.2587890625 1141.9705632 1167.2293522625 1146 1162.2587890625 1146 C 1157.2882258625 1146 1153.2587890625 1141.9705632 1153.2587890625 1137 Z"/></g><g transform="translate(-342,-374) scale(1,1)"><path fill="none" stroke="#000000" d="M 1153.2587890625 1137 C 1153.2587890625 1132.0294368 1157.2882258625 1128 1162.2587890625 1128 C 1167.2293522625 1128 1171.2587890625 1132.0294368 1171.2587890625 1137 C 1171.2587890625 1141.9705632 1167.2293522625 1146 1162.2587890625 1146 C 1157.2882258625 1146 1153.2587890625 1141.9705632 1153.2587890625 1137 Z" stroke-miterlimit="10"/></g><g transform="translate(-342,-374) scale(1,1)"><path fill="none" stroke="#000000" d="M 904 1154 L 1179.2587890625 1154" stroke-miterlimit="10"/></g><g transform="translate(-342,-374) scale(1,1)"><path fill="none" stroke="#000000" d="M 904 1164 L 1179.2587890625 1164" stroke-miterlimit="10"/></g><g transform="translate(-342,-374) scale(1,1)"><g><path fill="none" stroke="none"/><text fill="#000000" stroke="none" font-family="Arial" font-size="13px" font-style="normal" font-weight="bold" text-decoration="none" x="969.65673828125" y="1139.5">EmployeeRepository</text></g></g><g transform="translate(-342,-374) scale(1,1)"><g><path fill="none" stroke="none"/><text fill="#000000" stroke="none" font-family="Arial" font-size="13px" font-style="normal" font-weight="normal" text-decoration="none" x="909" y="1181.5">findAll(): Streamable&lt;Employee&gt;</text></g></g><g transform="translate(-342,-374) scale(1,1)"><g><path fill="none" stroke="none"/><text fill="#000000" stroke="none" font-family="Arial" font-size="13px" font-style="normal" font-weight="normal" text-decoration="none" x="909" y="1196.5">findByName(name: String): Employee</text></g></g><g transform="translate(-342,-374) scale(1,1)"><g><path fill="none" stroke="none"/><text fill="#000000" stroke="none" font-family="Arial" font-size="13px" font-style="normal" font-weight="normal" text-decoration="none" x="909" y="1211.5">findByRole(role: Role): ArrayList&lt;Employee&gt;</text></g></g><g transform="translate(-342,-374) scale(1,1)"><rect fill="#C0C0C0" stroke="none" x="871" y="1239" width="352" height="143" opacity="0.2"/></g><g transform="translate(-342,-374) scale(1,1)"><rect fill="#ffffff" stroke="none" x="864" y="1232" width="352" height="143"/></g><g transform="translate(-342,-374) scale(1,1)"><path fill="none" stroke="#000000" d="M 864 1232 L 1216 1232 L 1216 1375 L 864 1375 L 864 1232 Z Z" stroke-miterlimit="10"/></g><g transform="translate(-342,-374) scale(1,1)"><path fill="none" stroke="#000000" d="M 864 1257 L 1216 1257" stroke-miterlimit="10"/></g><g transform="translate(-342,-374) scale(1,1)"><path fill="none" stroke="#000000" d="M 864 1325 L 1216 1325" stroke-miterlimit="10"/></g><g transform="translate(-342,-374) scale(1,1)"><g><path fill="none" stroke="none"/><text fill="#000000" stroke="none" font-family="Arial" font-size="13px" font-style="normal" font-weight="bold" text-decoration="none" x="990.15185546875" y="1251.5">RegistrationForm</text></g></g><g transform="translate(-342,-374) scale(1,1)"><g><path fill="none" stroke="none"/><text fill="#000000" stroke="none" font-family="Arial" font-size="13px" font-style="normal" font-weight="normal" text-decoration="none" x="869" y="1274.5">-username: String</text></g></g><g transform="translate(-342,-374) scale(1,1)"><g><path fill="none" stroke="none"/><text fill="#000000" stroke="none" font-family="Arial" font-size="13px" font-style="normal" font-weight="normal" text-decoration="none" x="869" y="1289.5">-firstName: String</text></g></g><g transform="translate(-342,-374) scale(1,1)"><g><path fill="none" stroke="none"/><text fill="#000000" stroke="none" font-family="Arial" font-size="13px" font-style="normal" font-weight="normal" text-decoration="none" x="869" y="1304.5">-lastName: String</text></g></g><g transform="translate(-342,-374) scale(1,1)"><g><path fill="none" stroke="none"/><text fill="#000000" stroke="none" font-family="Arial" font-size="13px" font-style="normal" font-weight="normal" text-decoration="none" x="869" y="1319.5">-role: String</text></g></g><g transform="translate(-342,-374) scale(1,1)"><g><path fill="none" stroke="none"/><text fill="#000000" stroke="none" font-family="Arial" font-size="13px" font-style="normal" font-weight="normal" text-decoration="none" x="869" y="1342.5">+RegistrationForm(username: String, firstName: String,</text><text fill="#000000" stroke="none" font-family="Arial" font-size="13px" font-style="normal" font-weight="normal" text-decoration="none" x="869" y="1355.5">lastName: String, role: String)</text></g></g><g transform="translate(-342,-374) scale(1,1)"><rect fill="#C0C0C0" stroke="none" x="359" y="799" width="352" height="53" opacity="0.2"/></g><g transform="translate(-342,-374) scale(1,1)"><rect fill="#ffffff" stroke="none" x="352" y="792" width="352" height="53"/></g><g transform="translate(-342,-374) scale(1,1)"><path fill="none" stroke="#000000" d="M 352 792 L 704 792 L 704 845 L 352 845 L 352 792 Z Z" stroke-miterlimit="10"/></g><g transform="translate(-342,-374) scale(1,1)"><path fill="#ffffff" stroke="none" d="M 678 809 C 678 804.0294368 682.0294368 800 687 800 C 691.9705632 800 696 804.0294368 696 809 C 696 813.9705632 691.9705632 818 687 818 C 682.0294368 818 678 813.9705632 678 809 Z"/></g><g transform="translate(-342,-374) scale(1,1)"><path fill="none" stroke="#000000" d="M 678 809 C 678 804.0294368 682.0294368 800 687 800 C 691.9705632 800 696 804.0294368 696 809 C 696 813.9705632 691.9705632 818 687 818 C 682.0294368 818 678 813.9705632 678 809 Z" stroke-miterlimit="10"/></g><g transform="translate(-342,-374) scale(1,1)"><g><path fill="none" stroke="none"/><text fill="#000000" stroke="none" font-family="Arial" font-size="13px" font-style="normal" font-weight="bold" text-decoration="none" x="389.9228515625" y="811.5">org.salespointframework.cork.DataInitializer</text></g></g><g transform="translate(-342,-374) scale(1,1)"><rect fill="#C0C0C0" stroke="none" x="415" y="617" width="149.6689453125" height="53" opacity="0.2"/></g><g transform="translate(-342,-374) scale(1,1)"><rect fill="#C0C0C0" stroke="none" x="498.1962890625" y="599" width="75.47265625" height="22" opacity="0.2"/></g><g transform="translate(-342,-374) scale(1,1)"><rect fill="#ffffff" stroke="none" x="408" y="610" width="149.6689453125" height="53"/></g><g transform="translate(-342,-374) scale(1,1)"><path fill="none" stroke="#000000" d="M 408 610 L 557.6689453125 610 L 557.6689453125 663 L 408 663 L 408 610 Z Z" stroke-miterlimit="10"/></g><g transform="translate(-342,-374) scale(1,1)"><path fill="#ffffff" stroke="none" d="M 531.6689453125 627 C 531.6689453125 622.0294368 535.6983821125 618 540.6689453125 618 C 545.6395085125 618 549.6689453125 622.0294368 549.6689453125 627 C 549.6689453125 631.9705632 545.6395085125 636 540.6689453125 636 C 535.6983821125 636 531.6689453125 631.9705632 531.6689453125 627 Z"/></g><g transform="translate(-342,-374) scale(1,1)"><path fill="none" stroke="#000000" d="M 531.6689453125 627 C 531.6689453125 622.0294368 535.6983821125 618 540.6689453125 618 C 545.6395085125 618 549.6689453125 622.0294368 549.6689453125 627 C 549.6689453125 631.9705632 545.6395085125 636 540.6689453125 636 C 535.6983821125 636 531.6689453125 631.9705632 531.6689453125 627 Z" stroke-miterlimit="10"/></g><g transform="translate(-342,-374) scale(1,1)"><g><path fill="none" stroke="none"/><text fill="#000000" stroke="none" font-family="Arial" font-size="13px" font-style="normal" font-weight="bold" text-decoration="none" x="441.87451171875" y="629.5">java.util.List</text></g></g><g transform="translate(-342,-374) scale(1,1)"><rect fill="#ffffff" stroke="none" x="491.1962890625" y="592" width="75.47265625" height="22"/></g><g transform="translate(-342,-374) scale(1,1)"><path fill="none" stroke="#000000" d="M 491.1962890625 592 L 566.6689453125 592 L 566.6689453125 614 L 491.1962890625 614 L 491.1962890625 592 Z Z" stroke-miterlimit="10" stroke-dasharray="3"/></g><g transform="translate(-342,-374) scale(1,1)"><g><path fill="none" stroke="none"/><text fill="#000000" stroke="none" font-family="Arial" font-size="13px" font-style="normal" font-weight="normal" text-decoration="none" x="496.1962890625" y="609.5">EventOrder</text></g></g><g transform="translate(-342,-374) scale(1,1)"><path fill="none" stroke="#000000" d="M 848 627 L 568 627" stroke-miterlimit="10" stroke-dasharray="3"/></g><g transform="translate(-342,-374) scale(1,1)"><path fill="none" stroke="#000000" d="M 578.1626748576241 622.790482243984 L 568 627 L 578.1626748576241 631.209517756016" stroke-miterlimit="10"/></g><g transform="translate(-342,-374) scale(1,1)"><g><path fill="none" stroke="none"/><text fill="#000000" stroke="none" font-family="Arial" font-size="13px" font-style="normal" font-weight="normal" text-decoration="none" x="732.13134765625" y="635.5">-booked</text></g></g><g transform="translate(-342,-374) scale(1,1)"><path fill="none" stroke="#000000" d="M 1079 440 L 1096 440 L 1096 581 L 1000 581" stroke-miterlimit="10"/></g><g transform="translate(-342,-374) scale(1,1)"><path fill="none" stroke="#000000" d="M 1010.1626748576241 576.790482243984 L 1000 581 L 1010.1626748576241 585.209517756016" stroke-miterlimit="10"/></g><g transform="translate(-342,-374) scale(1,1)"><g><path fill="none" stroke="none"/><text fill="#000000" stroke="none" font-family="Arial" font-size="13px" font-style="normal" font-weight="normal" text-decoration="none" x="1091.13134765625" y="431.5">-role</text></g></g><g transform="translate(-342,-374) scale(1,1)"><path fill="none" stroke="#000000" d="M 1224 824 L 1224 952" stroke-miterlimit="10"/></g><g transform="translate(-342,-374) scale(1,1)"><path fill="none" stroke="#000000" d="M 1219.7904822439841 941.8373251423759 L 1224 952 L 1228.2095177560159 941.8373251423759" stroke-miterlimit="10"/></g><g transform="translate(-342,-374) scale(1,1)"><g><path fill="none" stroke="none"/><text fill="#000000" stroke="none" font-family="Arial" font-size="13px" font-style="normal" font-weight="normal" text-decoration="none" x="1161.13134765625" y="906.5">-employeeManagement</text></g></g><g transform="translate(-342,-374) scale(1,1)"><path fill="none" stroke="#000000" d="M 1142 912 L 1192 912 L 1192 952" stroke-miterlimit="10"/></g><g transform="translate(-342,-374) scale(1,1)"><path fill="none" stroke="#000000" d="M 1187.7904822439841 941.8373251423759 L 1192 952 L 1196.2095177560159 941.8373251423759" stroke-miterlimit="10"/></g><g transform="translate(-342,-374) scale(1,1)"><g><path fill="none" stroke="none"/><text fill="#000000" stroke="none" font-family="Arial" font-size="13px" font-style="normal" font-weight="normal" text-decoration="none" x="1160.13134765625" y="931.5">-employeeManagement</text></g></g><g transform="translate(-342,-374) scale(1,1)"><path fill="none" stroke="#000000" d="M 864 1095 L 864 1176 L 904 1176" stroke-miterlimit="10"/></g><g transform="translate(-342,-374) scale(1,1)"><path fill="none" stroke="#000000" d="M 893.8373251423759 1180.2095177560159 L 904 1176 L 893.8373251423758 1171.7904822439841" stroke-miterlimit="10"/></g><g transform="translate(-342,-374) scale(1,1)"><g><path fill="none" stroke="none"/><text fill="#000000" stroke="none" font-family="Arial" font-size="13px" font-style="normal" font-weight="normal" text-decoration="none" x="828.13134765625" y="1163.5">-employees</text></g></g><g transform="translate(-342,-374) scale(1,1)"><path fill="none" stroke="#000000" d="M 848 840 L 848 816 L 704 816" stroke-miterlimit="10" stroke-dasharray="3"/></g><g transform="translate(-342,-374) scale(1,1)"><path fill="#FFFFFF" stroke="none" d="M 724.3253497152483 807.580964487968 L 704 816 L 724.3253497152483 824.419035512032"/></g><g transform="translate(-342,-374) scale(1,1)"><path fill="none" stroke="#000000" d="M 724.3253497152483 807.580964487968 L 704 816 L 724.3253497152483 824.419035512032 L 724.3253497152483 807.580964487968" stroke-miterlimit="10"/></g><g transform="translate(-342,-374) scale(1,1)"><rect fill="#C0C0C0" stroke="none" x="415" y="911" width="141.22998046875" height="53" opacity="0.2"/></g><g transform="translate(-342,-374) scale(1,1)"><rect fill="#ffffff" stroke="none" x="408" y="904" width="141.22998046875" height="53"/></g><g transform="translate(-342,-374) scale(1,1)"><path fill="none" stroke="#000000" d="M 408 904 L 549.22998046875 904 L 549.22998046875 957 L 408 957 L 408 904 Z Z" stroke-miterlimit="10"/></g><g transform="translate(-342,-374) scale(1,1)"><path fill="#ffffff" stroke="none" d="M 523.22998046875 921 C 523.22998046875 916.0294368 527.25941726875 912 532.22998046875 912 C 537.20054366875 912 541.22998046875 916.0294368 541.22998046875 921 C 541.22998046875 925.9705632 537.20054366875 930 532.22998046875 930 C 527.25941726875 930 523.22998046875 925.9705632 523.22998046875 921 Z"/></g><g transform="translate(-342,-374) scale(1,1)"><path fill="none" stroke="#000000" d="M 523.22998046875 921 C 523.22998046875 916.0294368 527.25941726875 912 532.22998046875 912 C 537.20054366875 912 541.22998046875 916.0294368 541.22998046875 921 C 541.22998046875 925.9705632 537.20054366875 930 532.22998046875 930 C 527.25941726875 930 523.22998046875 925.9705632 523.22998046875 921 Z" stroke-miterlimit="10"/></g><g transform="translate(-342,-374) scale(1,1)"><g><path fill="none" stroke="none"/><text fill="#000000" stroke="none" font-family="Arial" font-size="13px" font-style="normal" font-weight="bold" text-decoration="none" x="421.81005859375" y="923.5">org.slf4j.Logger</text></g></g><g transform="translate(-342,-374) scale(1,1)"><path fill="none" stroke="#000000" d="M 848 872 L 504 872 L 504 904" stroke-miterlimit="10"/></g><g transform="translate(-342,-374) scale(1,1)"><path fill="none" stroke="#000000" d="M 499.790482243984 893.8373251423759 L 504 904 L 508.209517756016 893.8373251423759" stroke-miterlimit="10"/></g><g transform="translate(-342,-374) scale(1,1)"><g><path fill="none" stroke="none"/><text fill="#000000" stroke="none" font-family="Arial" font-size="13px" font-style="normal" font-weight="normal" text-decoration="none" x="502.13134765625" y="877.5">-LOG</text></g></g><g transform="translate(-342,-374) scale(1,1)"><rect fill="#C0C0C0" stroke="none" x="367" y="1273" width="391.427734375" height="53" opacity="0.2"/></g><g transform="translate(-342,-374) scale(1,1)"><rect fill="#C0C0C0" stroke="none" x="664.47607421875" y="1255" width="102.95166015625" height="22" opacity="0.2"/></g><g transform="translate(-342,-374) scale(1,1)"><rect fill="#ffffff" stroke="none" x="360" y="1266" width="391.427734375" height="53"/></g><g transform="translate(-342,-374) scale(1,1)"><path fill="none" stroke="#000000" d="M 360 1266 L 751.427734375 1266 L 751.427734375 1319 L 360 1319 L 360 1266 Z Z" stroke-miterlimit="10"/></g><g transform="translate(-342,-374) scale(1,1)"><path fill="#ffffff" stroke="none" d="M 725.427734375 1283 C 725.427734375 1278.0294368 729.457171175 1274 734.427734375 1274 C 739.398297575 1274 743.427734375 1278.0294368 743.427734375 1283 C 743.427734375 1287.9705632 739.398297575 1292 734.427734375 1292 C 729.457171175 1292 725.427734375 1287.9705632 725.427734375 1283 Z"/></g><g transform="translate(-342,-374) scale(1,1)"><path fill="none" stroke="#000000" d="M 725.427734375 1283 C 725.427734375 1278.0294368 729.457171175 1274 734.427734375 1274 C 739.398297575 1274 743.427734375 1278.0294368 743.427734375 1283 C 743.427734375 1287.9705632 739.398297575 1292 734.427734375 1292 C 729.457171175 1292 725.427734375 1287.9705632 725.427734375 1283 Z" stroke-miterlimit="10"/></g><g transform="translate(-342,-374) scale(1,1)"><g><path fill="none" stroke="none"/><text fill="#000000" stroke="none" font-family="Arial" font-size="13px" font-style="normal" font-weight="bold" text-decoration="none" x="398.188720703125" y="1285.5">org.springframework.data.repository.CrudRepository</text></g></g><g transform="translate(-342,-374) scale(1,1)"><rect fill="#ffffff" stroke="none" x="657.47607421875" y="1248" width="102.95166015625" height="22"/></g><g transform="translate(-342,-374) scale(1,1)"><path fill="none" stroke="#000000" d="M 657.47607421875 1248 L 760.427734375 1248 L 760.427734375 1270 L 657.47607421875 1270 L 657.47607421875 1248 Z Z" stroke-miterlimit="10" stroke-dasharray="3"/></g><g transform="translate(-342,-374) scale(1,1)"><g><path fill="none" stroke="none"/><text fill="#000000" stroke="none" font-family="Arial" font-size="13px" font-style="normal" font-weight="normal" text-decoration="none" x="662.47607421875" y="1265.5">Employee; Long</text></g></g><g transform="translate(-342,-374) scale(1,1)"><path fill="none" stroke="#000000" d="M 904 1168 L 704 1168 L 704 1248" stroke-miterlimit="10"/></g><g transform="translate(-342,-374) scale(1,1)"><path fill="#FFFFFF" stroke="none" d="M 695.580964487968 1227.6746502847518 L 704 1248 L 712.419035512032 1227.6746502847518"/></g><g transform="translate(-342,-374) scale(1,1)"><path fill="none" stroke="#000000" d="M 695.580964487968 1227.6746502847518 L 704 1248 L 712.419035512032 1227.6746502847518 L 695.580964487968 1227.6746502847518" stroke-miterlimit="10"/></g></g></svg>