<svg version="1.1" xmlns="http://www.w3.org/2000/svg" xmlns:xlink="http://www.w3.org/1999/xlink" width="1396" height="992"><defs/><g><g transform="translate(-2286,-166) scale(1,1)"><rect fill="#C0C0C0" stroke="none" x="2303" y="303" width="272" height="15" opacity="0.2"/></g><g transform="translate(-2286,-166) scale(1,1)"><rect fill="#C0C0C0" stroke="none" x="2303" y="317" width="680" height="714" opacity="0.2"/></g><g transform="translate(-2286,-166) scale(1,1)"><rect fill="#ffffff" stroke="none" x="2296" y="311" width="680" height="713"/></g><g transform="translate(-2286,-166) scale(1,1)"><path fill="none" stroke="#000000" d="M 2296 311 L 2976 311 L 2976 1024 L 2296 1024 L 2296 311 Z Z" stroke-miterlimit="10"/></g><g transform="translate(-2286,-166) scale(1,1)"><rect fill="#ffffff" stroke="none" x="2296" y="296" width="272" height="15"/></g><g transform="translate(-2286,-166) scale(1,1)"><path fill="none" stroke="#000000" d="M 2296 296 L 2568 296 L 2568 311 L 2296 311 L 2296 296 Z Z" stroke-miterlimit="10"/></g><g transform="translate(-2286,-166) scale(1,1)"><rect fill="#ffffff" stroke="none" x="2296" y="310" width="680" height="714"/></g><g transform="translate(-2286,-166) scale(1,1)"><path fill="none" stroke="#000000" d="M 2296 310 L 2976 310 L 2976 1024 L 2296 1024 L 2296 310 Z Z" stroke-miterlimit="10"/></g><g transform="translate(-2286,-166) scale(1,1)"><g><path fill="none" stroke="none"/><text fill="#000000" stroke="none" font-family="Arial" font-size="13px" font-style="normal" font-weight="bold" text-decoration="none" x="2609.263671875" y="330.5">Inventory</text></g></g><g transform="translate(-2286,-166) scale(1,1)"><rect fill="#C0C0C0" stroke="none" x="3287" y="327" width="156.80000000000018" height="15" opacity="0.2"/></g><g transform="translate(-2286,-166) scale(1,1)"><rect fill="#C0C0C0" stroke="none" x="3287" y="341" width="392" height="250" opacity="0.2"/></g><g transform="translate(-2286,-166) scale(1,1)"><rect fill="#ffffff" stroke="none" x="3280" y="335" width="392" height="249"/></g><g transform="translate(-2286,-166) scale(1,1)"><path fill="none" stroke="#000000" d="M 3280 335 L 3672 335 L 3672 584 L 3280 584 L 3280 335 Z Z" stroke-miterlimit="10"/></g><g transform="translate(-2286,-166) scale(1,1)"><rect fill="#ffffff" stroke="none" x="3280" y="320" width="156.80000000000018" height="15"/></g><g transform="translate(-2286,-166) scale(1,1)"><path fill="none" stroke="#000000" d="M 3280 320 L 3436.8 320 L 3436.8 335 L 3280 335 L 3280 320 Z Z" stroke-miterlimit="10"/></g><g transform="translate(-2286,-166) scale(1,1)"><rect fill="#ffffff" stroke="none" x="3280" y="334" width="392" height="250"/></g><g transform="translate(-2286,-166) scale(1,1)"><path fill="none" stroke="#000000" d="M 3280 334 L 3672 334 L 3672 584 L 3280 584 L 3280 334 Z Z" stroke-miterlimit="10"/></g><g transform="translate(-2286,-166) scale(1,1)"><g><path fill="none" stroke="none"/><text fill="#000000" stroke="none" font-family="Arial" font-size="13px" font-style="normal" font-weight="bold" text-decoration="none" x="3453.595947265625" y="354.5">Catalog</text></g></g><g transform="translate(-2286,-166) scale(1,1)"><rect fill="#C0C0C0" stroke="none" x="2343" y="775" width="314.271484375" height="150" opacity="0.2"/></g><g transform="translate(-2286,-166) scale(1,1)"><rect fill="#ffffff" stroke="none" x="2336" y="768" width="314.271484375" height="150"/></g><g transform="translate(-2286,-166) scale(1,1)"><path fill="none" stroke="#000000" d="M 2336 768 L 2650.271484375 768 L 2650.271484375 918 L 2336 918 L 2336 768 Z Z" stroke-miterlimit="10"/></g><g transform="translate(-2286,-166) scale(1,1)"><path fill="none" stroke="#000000" d="M 2336 793 L 2650.271484375 793" stroke-miterlimit="10"/></g><g transform="translate(-2286,-166) scale(1,1)"><g><path fill="none" stroke="none"/><text fill="#000000" stroke="none" font-family="Arial" font-size="13px" font-style="normal" font-weight="bold" text-decoration="none" x="2438.22216796875" y="787.5">InventoryController</text></g></g><g transform="translate(-2286,-166) scale(1,1)"><g><path fill="none" stroke="none"/><text fill="#000000" stroke="none" font-family="Arial" font-size="13px" font-style="normal" font-weight="normal" text-decoration="none" x="2341" y="810.5">+InventoryController(inventory: Inventory)</text></g></g><g transform="translate(-2286,-166) scale(1,1)"><g><path fill="none" stroke="none"/><text fill="#000000" stroke="none" font-family="Arial" font-size="13px" font-style="normal" font-weight="normal" text-decoration="none" x="2341" y="825.5">+sortByPath(model: Model, path: String): String</text></g></g><g transform="translate(-2286,-166) scale(1,1)"><g><path fill="none" stroke="none"/><text fill="#000000" stroke="none" font-family="Arial" font-size="13px" font-style="normal" font-weight="normal" text-decoration="none" x="2341" y="840.5">+nullCategory(item: UniqueMampfItem): String</text></g></g><g transform="translate(-2286,-166) scale(1,1)"><g><path fill="none" stroke="none"/><text fill="#000000" stroke="none" font-family="Arial" font-size="13px" font-style="normal" font-weight="normal" text-decoration="none" x="2341" y="855.5">+inventory(model: Model): String</text></g></g><g transform="translate(-2286,-166) scale(1,1)"><g><path fill="none" stroke="none"/><text fill="#000000" stroke="none" font-family="Arial" font-size="13px" font-style="normal" font-weight="normal" text-decoration="none" x="2341" y="870.5">+look(model: Model, word: String, type String): String</text></g></g><g transform="translate(-2286,-166) scale(1,1)"><g><path fill="none" stroke="none"/><text fill="#000000" stroke="none" font-family="Arial" font-size="13px" font-style="normal" font-weight="normal" text-decoration="none" x="2341" y="885.5">+add(item: Item, number: String, neg String,</text><text fill="#000000" stroke="none" font-family="Arial" font-size="13px" font-style="normal" font-weight="normal" text-decoration="none" x="2341" y="898.5">redirectAttributes: RedirectAttributes): String</text></g></g><g transform="translate(-2286,-166) scale(1,1)"><g><path fill="none" stroke="none"/><text fill="#000000" stroke="none" font-family="Arial" font-size="13px" font-style="normal" font-weight="normal" text-decoration="none" x="2341" y="913.5">-infinity(number: String, item: Item, neg: String): void</text></g></g><g transform="translate(-2286,-166) scale(1,1)"><rect fill="#C0C0C0" stroke="none" x="2671" y="783" width="292.6259765625" height="134" opacity="0.2"/></g><g transform="translate(-2286,-166) scale(1,1)"><rect fill="#ffffff" stroke="none" x="2664" y="776" width="292.6259765625" height="134"/></g><g transform="translate(-2286,-166) scale(1,1)"><path fill="none" stroke="#000000" d="M 2664 776 L 2956.6259765625 776 L 2956.6259765625 910 L 2664 910 L 2664 776 Z Z" stroke-miterlimit="10"/></g><g transform="translate(-2286,-166) scale(1,1)"><path fill="none" stroke="#000000" d="M 2664 801 L 2956.6259765625 801" stroke-miterlimit="10"/></g><g transform="translate(-2286,-166) scale(1,1)"><path fill="none" stroke="#000000" d="M 2664 824 L 2956.6259765625 824" stroke-miterlimit="10"/></g><g transform="translate(-2286,-166) scale(1,1)"><g><path fill="none" stroke="none"/><text fill="#000000" stroke="none" font-family="Arial" font-size="13px" font-style="normal" font-weight="bold" text-decoration="none" x="2757.928955078125" y="795.5">InventoryInitializer</text></g></g><g transform="translate(-2286,-166) scale(1,1)"><g><path fill="none" stroke="none"/><text fill="#000000" stroke="none" font-family="Arial" font-size="13px" font-style="normal" font-weight="normal" text-decoration="none" x="2669" y="818.5">-inventory: UniqueInventory&lt;UniqueMampfItem&gt;</text></g></g><g transform="translate(-2286,-166) scale(1,1)"><g><path fill="none" stroke="none"/><text fill="#000000" stroke="none" font-family="Arial" font-size="13px" font-style="normal" font-weight="normal" text-decoration="none" x="2669" y="841.5">+InventoryInitializer(inventory:</text><text fill="#000000" stroke="none" font-family="Arial" font-size="13px" font-style="normal" font-weight="normal" text-decoration="none" x="2669" y="854.5">UniqueInventory&lt;UniqueMampfItem&gt;, catalog:</text><text fill="#000000" stroke="none" font-family="Arial" font-size="13px" font-style="normal" font-weight="normal" text-decoration="none" x="2669" y="867.5">MampfCatalog)</text></g></g><g transform="translate(-2286,-166) scale(1,1)"><g><path fill="none" stroke="none"/><text fill="#000000" stroke="none" font-family="Arial" font-size="13px" font-style="normal" font-weight="normal" text-decoration="none" x="2669" y="882.5">+initialize(): void</text></g></g><g transform="translate(-2286,-166) scale(1,1)"><rect fill="#C0C0C0" stroke="none" x="2375" y="935" width="592" height="88" opacity="0.2"/></g><g transform="translate(-2286,-166) scale(1,1)"><rect fill="#ffffff" stroke="none" x="2368" y="928" width="592" height="88"/></g><g transform="translate(-2286,-166) scale(1,1)"><path fill="none" stroke="#000000" d="M 2368 928 L 2960 928 L 2960 1016 L 2368 1016 L 2368 928 Z Z" stroke-miterlimit="10"/></g><g transform="translate(-2286,-166) scale(1,1)"><path fill="none" stroke="#000000" d="M 2368 953 L 2960 953" stroke-miterlimit="10"/></g><g transform="translate(-2286,-166) scale(1,1)"><g><path fill="none" stroke="none"/><text fill="#000000" stroke="none" font-family="Arial" font-size="13px" font-style="normal" font-weight="bold" text-decoration="none" x="2610.8955078125" y="947.5">UniqueMampfItem</text></g></g><g transform="translate(-2286,-166) scale(1,1)"><g><path fill="none" stroke="none"/><text fill="#000000" stroke="none" font-family="Arial" font-size="13px" font-style="normal" font-weight="normal" text-decoration="none" x="2373" y="970.5">-UniqueMampfItem()</text></g></g><g transform="translate(-2286,-166) scale(1,1)"><g><path fill="none" stroke="none"/><text fill="#000000" stroke="none" font-family="Arial" font-size="13px" font-style="normal" font-weight="normal" text-decoration="none" x="2373" y="985.5">+UniqueMampfItem(item: Item, quantity: Quantity)</text></g></g><g transform="translate(-2286,-166) scale(1,1)"><g><path fill="none" stroke="none"/><text fill="#000000" stroke="none" font-family="Arial" font-size="13px" font-style="normal" font-weight="normal" text-decoration="none" x="2373" y="1000.5">+increaseMampfQuantity(increase: int): void</text></g></g><g transform="translate(-2286,-166) scale(1,1)"><rect fill="#C0C0C0" stroke="none" x="2367" y="359" width="584" height="392" opacity="0.2"/></g><g transform="translate(-2286,-166) scale(1,1)"><rect fill="#ffffff" stroke="none" x="2360" y="352" width="584" height="392"/></g><g transform="translate(-2286,-166) scale(1,1)"><path fill="none" stroke="#000000" d="M 2360 352 L 2944 352 L 2944 744 L 2360 744 L 2360 352 Z Z" stroke-miterlimit="10"/></g><g transform="translate(-2286,-166) scale(1,1)"><path fill="#ffffff" stroke="none" d="M 2918 369 C 2918 364.0294368 2922.0294368 360 2927 360 C 2931.9705632 360 2936 364.0294368 2936 369 C 2936 373.9705632 2931.9705632 378 2927 378 C 2922.0294368 378 2918 373.9705632 2918 369 Z"/></g><g transform="translate(-2286,-166) scale(1,1)"><path fill="none" stroke="#000000" d="M 2918 369 C 2918 364.0294368 2922.0294368 360 2927 360 C 2931.9705632 360 2936 364.0294368 2936 369 C 2936 373.9705632 2931.9705632 378 2927 378 C 2922.0294368 378 2918 373.9705632 2918 369 Z" stroke-miterlimit="10"/></g><g transform="translate(-2286,-166) scale(1,1)"><path fill="none" stroke="#000000" d="M 2360 386 L 2944 386" stroke-miterlimit="10"/></g><g transform="translate(-2286,-166) scale(1,1)"><path fill="none" stroke="#000000" d="M 2360 396 L 2944 396" stroke-miterlimit="10"/></g><g transform="translate(-2286,-166) scale(1,1)"><g><path fill="none" stroke="none"/><text fill="#000000" stroke="none" font-family="Arial" font-size="13px" font-style="normal" font-weight="bold" text-decoration="none" x="2613.263671875" y="371.5">Inventory</text></g></g><g transform="translate(-2286,-166) scale(1,1)"><g><path fill="none" stroke="none"/><text fill="#000000" stroke="none" font-family="Arial" font-size="13px" font-style="normal" font-weight="normal" text-decoration="none" x="2365" y="415.5">+reduceAmount(item: Item, amount: Quantity): Optional&lt;UniqueMampfItem&gt;</text></g></g><g transform="translate(-2286,-166) scale(1,1)"><g><path fill="none" stroke="none"/><text fill="#000000" stroke="none" font-family="Arial" font-size="13px" font-style="normal" font-weight="normal" text-decoration="none" x="2365" y="430.5">+findByProduct(item: Item): Optional&lt;UniqueMampfItem&gt;</text></g></g><g transform="translate(-2286,-166) scale(1,1)"><g><path fill="none" stroke="none"/><text fill="#000000" stroke="none" font-family="Arial" font-size="13px" font-style="normal" font-weight="normal" text-decoration="none" x="2365" y="445.5">+findAllAndSort(type: String): List&lt;UniqueMampfItem&gt;</text></g></g><g transform="translate(-2286,-166) scale(1,1)"><g><path fill="none" stroke="none"/><text fill="#000000" stroke="none" font-family="Arial" font-size="13px" font-style="normal" font-weight="normal" text-decoration="none" x="2365" y="460.5">+findAllAndFilter(filter: String, type: String): List&lt;UniqueMampfItem&gt;</text></g></g><g transform="translate(-2286,-166) scale(1,1)"><g><path fill="none" stroke="none"/><text fill="#000000" stroke="none" font-family="Arial" font-size="13px" font-style="normal" font-weight="normal" text-decoration="none" x="2365" y="475.5">+filterByAmount(filter: String, type: String): List&lt;UniqueMampfItem&gt;</text></g></g><g transform="translate(-2286,-166) scale(1,1)"><rect fill="#C0C0C0" stroke="none" x="2471" y="503" width="345.33056640625" height="72" opacity="0.2"/></g><g transform="translate(-2286,-166) scale(1,1)"><rect fill="#ffffff" stroke="none" x="2464" y="496" width="345.33056640625" height="72"/></g><g transform="translate(-2286,-166) scale(1,1)"><path fill="none" stroke="#000000" d="M 2464 496 L 2809.33056640625 496 L 2809.33056640625 568 L 2464 568 L 2464 496 Z Z" stroke-miterlimit="10"/></g><g transform="translate(-2286,-166) scale(1,1)"><path fill="none" stroke="#000000" d="M 2464 521 L 2809.33056640625 521" stroke-miterlimit="10"/></g><g transform="translate(-2286,-166) scale(1,1)"><path fill="none" stroke="#000000" d="M 2464 531 L 2809.33056640625 531" stroke-miterlimit="10"/></g><g transform="translate(-2286,-166) scale(1,1)"><g><path fill="none" stroke="none"/><text fill="#000000" stroke="none" font-family="Arial" font-size="13px" font-style="normal" font-weight="bold" text-decoration="none" x="2599.8203125" y="515.5">SortByName</text></g></g><g transform="translate(-2286,-166) scale(1,1)"><g><path fill="none" stroke="none"/><text fill="#000000" stroke="none" font-family="Arial" font-size="13px" font-style="normal" font-weight="normal" text-decoration="none" x="2469" y="548.5">+compare(a: UniqueMampfItem, b: UniqueMampfItem): int</text></g></g><g transform="translate(-2286,-166) scale(1,1)"><rect fill="#C0C0C0" stroke="none" x="2471" y="583" width="345.33056640625" height="57" opacity="0.2"/></g><g transform="translate(-2286,-166) scale(1,1)"><rect fill="#ffffff" stroke="none" x="2464" y="576" width="345.33056640625" height="57"/></g><g transform="translate(-2286,-166) scale(1,1)"><path fill="none" stroke="#000000" d="M 2464 576 L 2809.33056640625 576 L 2809.33056640625 633 L 2464 633 L 2464 576 Z Z" stroke-miterlimit="10"/></g><g transform="translate(-2286,-166) scale(1,1)"><path fill="none" stroke="#000000" d="M 2464 601 L 2809.33056640625 601" stroke-miterlimit="10"/></g><g transform="translate(-2286,-166) scale(1,1)"><path fill="none" stroke="#000000" d="M 2464 611 L 2809.33056640625 611" stroke-miterlimit="10"/></g><g transform="translate(-2286,-166) scale(1,1)"><g><path fill="none" stroke="none"/><text fill="#000000" stroke="none" font-family="Arial" font-size="13px" font-style="normal" font-weight="bold" text-decoration="none" x="2590.784423828125" y="595.5">SortByCategory</text></g></g><g transform="translate(-2286,-166) scale(1,1)"><g><path fill="none" stroke="none"/><text fill="#000000" stroke="none" font-family="Arial" font-size="13px" font-style="normal" font-weight="normal" text-decoration="none" x="2469" y="628.5">+compare(a: UniqueMampfItem, b: UniqueMampfItem): int</text></g></g><g transform="translate(-2286,-166) scale(1,1)"><rect fill="#C0C0C0" stroke="none" x="2471" y="647" width="345.33056640625" height="57" opacity="0.2"/></g><g transform="translate(-2286,-166) scale(1,1)"><rect fill="#ffffff" stroke="none" x="2464" y="640" width="345.33056640625" height="57"/></g><g transform="translate(-2286,-166) scale(1,1)"><path fill="none" stroke="#000000" d="M 2464 640 L 2809.33056640625 640 L 2809.33056640625 697 L 2464 697 L 2464 640 Z Z" stroke-miterlimit="10"/></g><g transform="translate(-2286,-166) scale(1,1)"><path fill="none" stroke="#000000" d="M 2464 665 L 2809.33056640625 665" stroke-miterlimit="10"/></g><g transform="translate(-2286,-166) scale(1,1)"><path fill="none" stroke="#000000" d="M 2464 675 L 2809.33056640625 675" stroke-miterlimit="10"/></g><g transform="translate(-2286,-166) scale(1,1)"><g><path fill="none" stroke="none"/><text fill="#000000" stroke="none" font-family="Arial" font-size="13px" font-style="normal" font-weight="bold" text-decoration="none" x="2594.758056640625" y="659.5">SortByAmount</text></g></g><g transform="translate(-2286,-166) scale(1,1)"><g><path fill="none" stroke="none"/><text fill="#000000" stroke="none" font-family="Arial" font-size="13px" font-style="normal" font-weight="normal" text-decoration="none" x="2469" y="692.5">+compare(a: UniqueMampfItem, b: UniqueMampfItem): int</text></g></g><g transform="translate(-2286,-166) scale(1,1)"><path fill="none" stroke="#000000" d="M 2556 768 L 2556 744" stroke-miterlimit="10"/></g><g transform="translate(-2286,-166) scale(1,1)"><path fill="none" stroke="#000000" d="M 2560.209517756016 754.1626748576241 L 2556 744 L 2551.790482243984 754.1626748576241" stroke-miterlimit="10"/></g><g transform="translate(-2286,-166) scale(1,1)"><g><path fill="none" stroke="none"/><text fill="#000000" stroke="none" font-family="Arial" font-size="13px" font-style="normal" font-weight="normal" text-decoration="none" x="2487.13134765625" y="764.5">-inventory</text></g></g><g transform="translate(-2286,-166) scale(1,1)"><path fill="none" stroke="#000000" d="M 2957 896 L 3472 896 L 3472 540" stroke-miterlimit="10"/></g><g transform="translate(-2286,-166) scale(1,1)"><path fill="none" stroke="#000000" d="M 3476.209517756016 550.1626748576241 L 3472 540 L 3467.790482243984 550.1626748576241" stroke-miterlimit="10"/></g><g transform="translate(-2286,-166) scale(1,1)"><g><path fill="none" stroke="none"/><text fill="#000000" stroke="none" font-family="Arial" font-size="13px" font-style="normal" font-weight="normal" text-decoration="none" x="3409.13134765625" y="723.5">-catalog</text></g></g><g transform="translate(-2286,-166) scale(1,1)"><rect fill="#C0C0C0" stroke="none" x="2431" y="201" width="384.93408203125" height="53" opacity="0.2"/></g><g transform="translate(-2286,-166) scale(1,1)"><rect fill="#C0C0C0" stroke="none" x="2709.72509765625" y="183" width="115.208984375" height="22" opacity="0.2"/></g><g transform="translate(-2286,-166) scale(1,1)"><rect fill="#ffffff" stroke="none" x="2424" y="194" width="384.93408203125" height="53"/></g><g transform="translate(-2286,-166) scale(1,1)"><path fill="none" stroke="#000000" d="M 2424 194 L 2808.93408203125 194 L 2808.93408203125 247 L 2424 247 L 2424 194 Z Z" stroke-miterlimit="10"/></g><g transform="translate(-2286,-166) scale(1,1)"><path fill="#ffffff" stroke="none" d="M 2782.93408203125 211 C 2782.93408203125 206.0294368 2786.96351883125 202 2791.93408203125 202 C 2796.90464523125 202 2800.93408203125 206.0294368 2800.93408203125 211 C 2800.93408203125 215.9705632 2796.90464523125 220 2791.93408203125 220 C 2786.96351883125 220 2782.93408203125 215.9705632 2782.93408203125 211 Z"/></g><g transform="translate(-2286,-166) scale(1,1)"><path fill="none" stroke="#000000" d="M 2782.93408203125 211 C 2782.93408203125 206.0294368 2786.96351883125 202 2791.93408203125 202 C 2796.90464523125 202 2800.93408203125 206.0294368 2800.93408203125 211 C 2800.93408203125 215.9705632 2796.90464523125 220 2791.93408203125 220 C 2786.96351883125 220 2782.93408203125 215.9705632 2782.93408203125 211 Z" stroke-miterlimit="10"/></g><g transform="translate(-2286,-166) scale(1,1)"><g><path fill="none" stroke="none"/><text fill="#000000" stroke="none" font-family="Arial" font-size="13px" font-style="normal" font-weight="bold" text-decoration="none" x="2461.820556640625" y="213.5">org.salespointframework.inventory.UniqueInvenotry</text></g></g><g transform="translate(-2286,-166) scale(1,1)"><rect fill="#ffffff" stroke="none" x="2702.72509765625" y="176" width="115.208984375" height="22"/></g><g transform="translate(-2286,-166) scale(1,1)"><path fill="none" stroke="#000000" d="M 2702.72509765625 176 L 2817.93408203125 176 L 2817.93408203125 198 L 2702.72509765625 198 L 2702.72509765625 176 Z Z" stroke-miterlimit="10" stroke-dasharray="3"/></g><g transform="translate(-2286,-166) scale(1,1)"><g><path fill="none" stroke="none"/><text fill="#000000" stroke="none" font-family="Arial" font-size="13px" font-style="normal" font-weight="normal" text-decoration="none" x="2707.72509765625" y="193.5">UniqueMampfItem</text></g></g><g transform="translate(-2286,-166) scale(1,1)"><path fill="none" stroke="#000000" d="M 2608 352 L 2608 247" stroke-miterlimit="10"/></g><g transform="translate(-2286,-166) scale(1,1)"><path fill="#FFFFFF" stroke="none" d="M 2616.4190355120318 267.3253497152483 L 2608 247 L 2599.5809644879682 267.3253497152483"/></g><g transform="translate(-2286,-166) scale(1,1)"><path fill="none" stroke="#000000" d="M 2616.4190355120318 267.3253497152483 L 2608 247 L 2599.5809644879682 267.3253497152483 L 2616.4190355120318 267.3253497152483" stroke-miterlimit="10"/></g><g transform="translate(-2286,-166) scale(1,1)"><rect fill="#C0C0C0" stroke="none" x="3079" y="831" width="352" height="53" opacity="0.2"/></g><g transform="translate(-2286,-166) scale(1,1)"><rect fill="#ffffff" stroke="none" x="3072" y="824" width="352" height="53"/></g><g transform="translate(-2286,-166) scale(1,1)"><path fill="none" stroke="#000000" d="M 3072 824 L 3424 824 L 3424 877 L 3072 877 L 3072 824 Z Z" stroke-miterlimit="10"/></g><g transform="translate(-2286,-166) scale(1,1)"><path fill="#ffffff" stroke="none" d="M 3398 841 C 3398 836.0294368 3402.0294368 832 3407 832 C 3411.9705632 832 3416 836.0294368 3416 841 C 3416 845.9705632 3411.9705632 850 3407 850 C 3402.0294368 850 3398 845.9705632 3398 841 Z"/></g><g transform="translate(-2286,-166) scale(1,1)"><path fill="none" stroke="#000000" d="M 3398 841 C 3398 836.0294368 3402.0294368 832 3407 832 C 3411.9705632 832 3416 836.0294368 3416 841 C 3416 845.9705632 3411.9705632 850 3407 850 C 3402.0294368 850 3398 845.9705632 3398 841 Z" stroke-miterlimit="10"/></g><g transform="translate(-2286,-166) scale(1,1)"><g><path fill="none" stroke="none"/><text fill="#000000" stroke="none" font-family="Arial" font-size="13px" font-style="normal" font-weight="bold" text-decoration="none" x="3109.9228515625" y="843.5">org.salespointframework.cork.DataInitializer</text></g></g><g transform="translate(-2286,-166) scale(1,1)"><path fill="none" stroke="#000000" d="M 2957 832 L 3040 832 L 3040 201 L 2819 201" stroke-miterlimit="10"/></g><g transform="translate(-2286,-166) scale(1,1)"><path fill="none" stroke="#000000" d="M 2829.162674857624 196.790482243984 L 2819 201 L 2829.162674857624 205.209517756016" stroke-miterlimit="10"/></g><g transform="translate(-2286,-166) scale(1,1)"><g><path fill="none" stroke="none"/><text fill="#000000" stroke="none" font-family="Arial" font-size="13px" font-style="normal" font-weight="normal" text-decoration="none" x="2951.13134765625" y="232.5">-inventory</text></g></g><g transform="translate(-2286,-166) scale(1,1)"><rect fill="#C0C0C0" stroke="none" x="2895" y="1111" width="357.6640625" height="44" opacity="0.2"/></g><g transform="translate(-2286,-166) scale(1,1)"><rect fill="#ffffff" stroke="none" x="2888" y="1104" width="357.6640625" height="44"/></g><g transform="translate(-2286,-166) scale(1,1)"><path fill="none" stroke="#000000" d="M 2888 1104 L 3245.6640625 1104 L 3245.6640625 1148 L 2888 1148 L 2888 1104 Z Z" stroke-miterlimit="10"/></g><g transform="translate(-2286,-166) scale(1,1)"><g><path fill="none" stroke="none"/><text fill="#000000" stroke="none" font-family="Arial" font-size="13px" font-style="normal" font-weight="bold" text-decoration="none" x="2906.544189453125" y="1123.5">org.salespointframework.inventory.UniqueInventoryItem</text></g></g><g transform="translate(-2286,-166) scale(1,1)"><path fill="none" stroke="#000000" d="M 2928 1016 L 2928 1104" stroke-miterlimit="10"/></g><g transform="translate(-2286,-166) scale(1,1)"><path fill="#FFFFFF" stroke="none" d="M 2919.5809644879682 1083.6746502847518 L 2928 1104 L 2936.4190355120318 1083.6746502847518"/></g><g transform="translate(-2286,-166) scale(1,1)"><path fill="none" stroke="#000000" d="M 2919.5809644879682 1083.6746502847518 L 2928 1104 L 2936.4190355120318 1083.6746502847518 L 2919.5809644879682 1083.6746502847518" stroke-miterlimit="10"/></g><g transform="translate(-2286,-166) scale(1,1)"><path fill="none" stroke="#000000" d="M 2957 851 L 3072 851" stroke-miterlimit="10" stroke-dasharray="3"/></g><g transform="translate(-2286,-166) scale(1,1)"><path fill="#FFFFFF" stroke="none" d="M 3051.674650284752 859.419035512032 L 3072 851 L 3051.674650284752 842.580964487968"/></g><g transform="translate(-2286,-166) scale(1,1)"><path fill="none" stroke="#000000" d="M 3051.674650284752 859.419035512032 L 3072 851 L 3051.674650284752 842.580964487968 L 3051.674650284752 859.419035512032" stroke-miterlimit="10"/></g><g transform="translate(-2286,-166) scale(1,1)"><rect fill="#C0C0C0" stroke="none" x="2623" y="1111" width="50.919921875" height="44" opacity="0.2"/></g><g transform="translate(-2286,-166) scale(1,1)"><rect fill="#ffffff" stroke="none" x="2616" y="1104" width="50.919921875" height="44"/></g><g transform="translate(-2286,-166) scale(1,1)"><path fill="none" stroke="#000000" d="M 2616 1104 L 2666.919921875 1104 L 2666.919921875 1148 L 2616 1148 L 2616 1104 Z Z" stroke-miterlimit="10"/></g><g transform="translate(-2286,-166) scale(1,1)"><g><path fill="none" stroke="none"/><text fill="#000000" stroke="none" font-family="Arial" font-size="13px" font-style="normal" font-weight="bold" text-decoration="none" x="2632.07177734375" y="1123.5">Util</text></g></g><g transform="translate(-2286,-166) scale(1,1)"><path fill="none" stroke="#000000" d="M 2640 1025 L 2641 1103" stroke-miterlimit="10" stroke-dasharray="3"/></g><g transform="translate(-2286,-166) scale(1,1)"><path fill="none" stroke="#000000" d="M 2636.6605481542206 1092.8921239778992 L 2641 1103 L 2645.0788918518374 1092.7841964945965" stroke-miterlimit="10"/></g><g transform="translate(-2286,-166) scale(1,1)"><g><path fill="none" stroke="none"/><text fill="#000000" stroke="none" font-family="Arial" font-size="13px" font-style="normal" font-weight="normal" text-decoration="none" x="2636.2958984375" y="1069.5">«use»</text></g></g><g transform="translate(-2286,-166) scale(1,1)"><rect fill="#C0C0C0" stroke="none" x="3319" y="423" width="352.1796875" height="124" opacity="0.2"/></g><g transform="translate(-2286,-166) scale(1,1)"><rect fill="#ffffff" stroke="none" x="3312" y="416" width="352.1796875" height="124"/></g><g transform="translate(-2286,-166) scale(1,1)"><path fill="none" stroke="#000000" d="M 3312 416 L 3664.1796875 416 L 3664.1796875 540 L 3312 540 L 3312 416 Z Z" stroke-miterlimit="10"/></g><g transform="translate(-2286,-166) scale(1,1)"><path fill="#ffffff" stroke="none" d="M 3638.1796875 433 C 3638.1796875 428.0294368 3642.2091243 424 3647.1796875 424 C 3652.1502507 424 3656.1796875 428.0294368 3656.1796875 433 C 3656.1796875 437.9705632 3652.1502507 442 3647.1796875 442 C 3642.2091243 442 3638.1796875 437.9705632 3638.1796875 433 Z"/></g><g transform="translate(-2286,-166) scale(1,1)"><path fill="none" stroke="#000000" d="M 3638.1796875 433 C 3638.1796875 428.0294368 3642.2091243 424 3647.1796875 424 C 3652.1502507 424 3656.1796875 428.0294368 3656.1796875 433 C 3656.1796875 437.9705632 3652.1502507 442 3647.1796875 442 C 3642.2091243 442 3638.1796875 437.9705632 3638.1796875 433 Z" stroke-miterlimit="10"/></g><g transform="translate(-2286,-166) scale(1,1)"><g><path fill="none" stroke="none"/><text fill="#000000" stroke="none" font-family="Arial" font-size="13px" font-style="normal" font-weight="bold" text-decoration="none" x="3433.82080078125" y="435.5">MampfCatalog</text></g></g></g></svg>