<svg version="1.1" xmlns="http://www.w3.org/2000/svg" xmlns:xlink="http://www.w3.org/1999/xlink" width="980" height="1012"><defs/><g><g transform="translate(-3582,-1718) scale(1,1)"><rect fill="#C0C0C0" stroke="none" x="4039" y="1735" width="208" height="15" opacity="0.2"/></g><g transform="translate(-3582,-1718) scale(1,1)"><rect fill="#C0C0C0" stroke="none" x="4039" y="1749" width="520" height="978" opacity="0.2"/></g><g transform="translate(-3582,-1718) scale(1,1)"><rect fill="#ffffff" stroke="none" x="4032" y="1743" width="520" height="977"/></g><g transform="translate(-3582,-1718) scale(1,1)"><path fill="none" stroke="#000000" d="M 4032 1743 L 4552 1743 L 4552 2720 L 4032 2720 L 4032 1743 Z Z" stroke-miterlimit="10"/></g><g transform="translate(-3582,-1718) scale(1,1)"><rect fill="#ffffff" stroke="none" x="4032" y="1728" width="208" height="15"/></g><g transform="translate(-3582,-1718) scale(1,1)"><path fill="none" stroke="#000000" d="M 4032 1728 L 4240 1728 L 4240 1743 L 4032 1743 L 4032 1728 Z Z" stroke-miterlimit="10"/></g><g transform="translate(-3582,-1718) scale(1,1)"><rect fill="#ffffff" stroke="none" x="4032" y="1742" width="520" height="978"/></g><g transform="translate(-3582,-1718) scale(1,1)"><path fill="none" stroke="#000000" d="M 4032 1742 L 4552 1742 L 4552 2720 L 4032 2720 L 4032 1742 Z Z" stroke-miterlimit="10"/></g><g transform="translate(-3582,-1718) scale(1,1)"><g><path fill="none" stroke="none"/><text fill="#000000" stroke="none" font-family="Arial" font-size="13px" font-style="normal" font-weight="bold" text-decoration="none" x="4263.095947265625" y="1762.5">Employee</text></g></g><g transform="translate(-3582,-1718) scale(1,1)"><rect fill="#C0C0C0" stroke="none" x="4095" y="1783" width="219.62158203125" height="216" opacity="0.2"/></g><g transform="translate(-3582,-1718) scale(1,1)"><rect fill="#ffffff" stroke="none" x="4088" y="1776" width="219.62158203125" height="216"/></g><g transform="translate(-3582,-1718) scale(1,1)"><path fill="none" stroke="#000000" d="M 4088 1776 L 4307.62158203125 1776 L 4307.62158203125 1992 L 4088 1992 L 4088 1776 Z Z" stroke-miterlimit="10"/></g><g transform="translate(-3582,-1718) scale(1,1)"><path fill="none" stroke="#000000" d="M 4088 1801 L 4307.62158203125 1801" stroke-miterlimit="10"/></g><g transform="translate(-3582,-1718) scale(1,1)"><path fill="none" stroke="#000000" d="M 4088 1839 L 4307.62158203125 1839" stroke-miterlimit="10"/></g><g transform="translate(-3582,-1718) scale(1,1)"><g><path fill="none" stroke="none"/><text fill="#000000" stroke="none" font-family="Arial" font-size="13px" font-style="normal" font-weight="bold" text-decoration="none" x="4168.90673828125" y="1795.5">Employee</text></g></g><g transform="translate(-3582,-1718) scale(1,1)"><g><path fill="none" stroke="none"/><text fill="#000000" stroke="none" font-family="Arial" font-size="13px" font-style="normal" font-weight="normal" text-decoration="none" x="4093" y="1818.5">-name: String</text></g></g><g transform="translate(-3582,-1718) scale(1,1)"><g><path fill="none" stroke="none"/><text fill="#000000" stroke="none" font-family="Arial" font-size="13px" font-style="normal" font-weight="normal" text-decoration="none" x="4093" y="1833.5">-id: long</text></g></g><g transform="translate(-3582,-1718) scale(1,1)"><g><path fill="none" stroke="none"/><text fill="#000000" stroke="none" font-family="Arial" font-size="13px" font-style="normal" font-weight="normal" text-decoration="none" x="4093" y="1856.5">+Employee()</text></g></g><g transform="translate(-3582,-1718) scale(1,1)"><g><path fill="none" stroke="none"/><text fill="#000000" stroke="none" font-family="Arial" font-size="13px" font-style="normal" font-weight="normal" text-decoration="none" x="4093" y="1871.5">+Employee(name: String, role: Role)</text></g></g><g transform="translate(-3582,-1718) scale(1,1)"><rect fill="#C0C0C0" stroke="none" x="4095" y="2015" width="412.5712890625" height="115" opacity="0.2"/></g><g transform="translate(-3582,-1718) scale(1,1)"><rect fill="#ffffff" stroke="none" x="4088" y="2008" width="412.5712890625" height="115"/></g><g transform="translate(-3582,-1718) scale(1,1)"><path fill="none" stroke="#000000" d="M 4088 2008 L 4500.5712890625 2008 L 4500.5712890625 2123 L 4088 2123 L 4088 2008 Z Z" stroke-miterlimit="10"/></g><g transform="translate(-3582,-1718) scale(1,1)"><path fill="none" stroke="#000000" d="M 4088 2033 L 4500.5712890625 2033" stroke-miterlimit="10"/></g><g transform="translate(-3582,-1718) scale(1,1)"><path fill="none" stroke="#000000" d="M 4088 2056 L 4500.5712890625 2056" stroke-miterlimit="10"/></g><g transform="translate(-3582,-1718) scale(1,1)"><g><path fill="none" stroke="none"/><text fill="#000000" stroke="none" font-family="Arial" font-size="13px" font-style="normal" font-weight="bold" text-decoration="none" x="4237.204345703125" y="2027.5">EmployeeController</text></g></g><g transform="translate(-3582,-1718) scale(1,1)"><g><path fill="none" stroke="none"/><text fill="#000000" stroke="none" font-family="Arial" font-size="13px" font-style="normal" font-weight="normal" text-decoration="none" x="4093" y="2050.5">-employeeManagement: EmployeeManagement</text></g></g><g transform="translate(-3582,-1718) scale(1,1)"><g><path fill="none" stroke="none"/><text fill="#000000" stroke="none" font-family="Arial" font-size="13px" font-style="normal" font-weight="normal" text-decoration="none" x="4093" y="2073.5">+EmployeeController(employeeManagement: EmployeeManagement)</text></g></g><g transform="translate(-3582,-1718) scale(1,1)"><g><path fill="none" stroke="none"/><text fill="#000000" stroke="none" font-family="Arial" font-size="13px" font-style="normal" font-weight="normal" text-decoration="none" x="4093" y="2088.5">+createEmployee(model: Model, form: RegistrationForm): String</text></g></g><g transform="translate(-3582,-1718) scale(1,1)"><g><path fill="none" stroke="none"/><text fill="#000000" stroke="none" font-family="Arial" font-size="13px" font-style="normal" font-weight="normal" text-decoration="none" x="4093" y="2103.5">+registerNew(form: RegistrationForm, error: Errors): String</text></g></g><g transform="translate(-3582,-1718) scale(1,1)"><g><path fill="none" stroke="none"/><text fill="#000000" stroke="none" font-family="Arial" font-size="13px" font-style="normal" font-weight="normal" text-decoration="none" x="4093" y="2118.5">+register(model: Model): String</text></g></g><g transform="translate(-3582,-1718) scale(1,1)"><rect fill="#C0C0C0" stroke="none" x="4095" y="2151" width="294.060546875" height="104" opacity="0.2"/></g><g transform="translate(-3582,-1718) scale(1,1)"><rect fill="#ffffff" stroke="none" x="4088" y="2144" width="294.060546875" height="104"/></g><g transform="translate(-3582,-1718) scale(1,1)"><path fill="none" stroke="#000000" d="M 4088 2144 L 4382.060546875 2144 L 4382.060546875 2248 L 4088 2248 L 4088 2144 Z Z" stroke-miterlimit="10"/></g><g transform="translate(-3582,-1718) scale(1,1)"><path fill="none" stroke="#000000" d="M 4088 2169 L 4382.060546875 2169" stroke-miterlimit="10"/></g><g transform="translate(-3582,-1718) scale(1,1)"><path fill="none" stroke="#000000" d="M 4088 2192 L 4382.060546875 2192" stroke-miterlimit="10"/></g><g transform="translate(-3582,-1718) scale(1,1)"><g><path fill="none" stroke="none"/><text fill="#000000" stroke="none" font-family="Arial" font-size="13px" font-style="normal" font-weight="bold" text-decoration="none" x="4166.74853515625" y="2163.5">EmployeeDataInitializer</text></g></g><g transform="translate(-3582,-1718) scale(1,1)"><g><path fill="none" stroke="none"/><text fill="#000000" stroke="none" font-family="Arial" font-size="13px" font-style="normal" font-weight="normal" text-decoration="none" x="4093" y="2186.5">-LOG: Logger</text></g></g><g transform="translate(-3582,-1718) scale(1,1)"><g><path fill="none" stroke="none"/><text fill="#000000" stroke="none" font-family="Arial" font-size="13px" font-style="normal" font-weight="normal" text-decoration="none" x="4093" y="2209.5">+EmployeeDataInitializer(employeeManagement)</text></g></g><g transform="translate(-3582,-1718) scale(1,1)"><g><path fill="none" stroke="none"/><text fill="#000000" stroke="none" font-family="Arial" font-size="13px" font-style="normal" font-weight="normal" text-decoration="none" x="4093" y="2224.5">+intitialize(): void</text></g></g><g transform="translate(-3582,-1718) scale(1,1)"><rect fill="#C0C0C0" stroke="none" x="4095" y="2263" width="400" height="143" opacity="0.2"/></g><g transform="translate(-3582,-1718) scale(1,1)"><rect fill="#ffffff" stroke="none" x="4088" y="2256" width="400" height="143"/></g><g transform="translate(-3582,-1718) scale(1,1)"><path fill="none" stroke="#000000" d="M 4088 2256 L 4488 2256 L 4488 2399 L 4088 2399 L 4088 2256 Z Z" stroke-miterlimit="10"/></g><g transform="translate(-3582,-1718) scale(1,1)"><path fill="none" stroke="#000000" d="M 4088 2281 L 4488 2281" stroke-miterlimit="10"/></g><g transform="translate(-3582,-1718) scale(1,1)"><path fill="none" stroke="#000000" d="M 4088 2291 L 4488 2291" stroke-miterlimit="10"/></g><g transform="translate(-3582,-1718) scale(1,1)"><g><path fill="none" stroke="none"/><text fill="#000000" stroke="none" font-family="Arial" font-size="13px" font-style="normal" font-weight="bold" text-decoration="none" x="4221.156005859375" y="2275.5">EmployeeManagement</text></g></g><g transform="translate(-3582,-1718) scale(1,1)"><g><path fill="none" stroke="none"/><text fill="#000000" stroke="none" font-family="Arial" font-size="13px" font-style="normal" font-weight="normal" text-decoration="none" x="4093" y="2308.5">+EmployeeManagement(employees: EmployeeRepository)</text></g></g><g transform="translate(-3582,-1718) scale(1,1)"><g><path fill="none" stroke="none"/><text fill="#000000" stroke="none" font-family="Arial" font-size="13px" font-style="normal" font-weight="normal" text-decoration="none" x="4093" y="2323.5">+createEmployee(form: RegistrationForm): boolean</text></g></g><g transform="translate(-3582,-1718) scale(1,1)"><g><path fill="none" stroke="none"/><text fill="#000000" stroke="none" font-family="Arial" font-size="13px" font-style="normal" font-weight="normal" text-decoration="none" x="4093" y="2338.5">+setEmployeeBooked(id: long, order: EventOrder): boolean</text></g></g><g transform="translate(-3582,-1718) scale(1,1)"><g><path fill="none" stroke="none"/><text fill="#000000" stroke="none" font-family="Arial" font-size="13px" font-style="normal" font-weight="normal" text-decoration="none" x="4093" y="2353.5">+findAll(): Streamable&lt;Employee&gt;</text></g></g><g transform="translate(-3582,-1718) scale(1,1)"><g><path fill="none" stroke="none"/><text fill="#000000" stroke="none" font-family="Arial" font-size="13px" font-style="normal" font-weight="normal" text-decoration="none" x="4093" y="2368.5">+getFreeEmployees(fromDate: LocalDateTime, toDate:</text><text fill="#000000" stroke="none" font-family="Arial" font-size="13px" font-style="normal" font-weight="normal" text-decoration="none" x="4093" y="2381.5">LocalDateTime, role Employee.Role): List&lt;Employee&gt;</text></g></g><g transform="translate(-3582,-1718) scale(1,1)"><rect fill="#C0C0C0" stroke="none" x="4151" y="1895" width="95.72802734375" height="95" opacity="0.2"/></g><g transform="translate(-3582,-1718) scale(1,1)"><rect fill="#ffffff" stroke="none" x="4144" y="1888" width="95.72802734375" height="95"/></g><g transform="translate(-3582,-1718) scale(1,1)"><path fill="none" stroke="#000000" d="M 4144 1888 L 4239.72802734375 1888 L 4239.72802734375 1983 L 4144 1983 L 4144 1888 Z Z" stroke-miterlimit="10"/></g><g transform="translate(-3582,-1718) scale(1,1)"><path fill="none" stroke="#000000" d="M 4144 1964 L 4239.72802734375 1964" stroke-miterlimit="10"/></g><g transform="translate(-3582,-1718) scale(1,1)"><path fill="none" stroke="#000000" d="M 4144 1974 L 4239.72802734375 1974" stroke-miterlimit="10"/></g><g transform="translate(-3582,-1718) scale(1,1)"><path fill="none" stroke="#000000" d="M 4144 1926 L 4239.72802734375 1926" stroke-miterlimit="10"/></g><g transform="translate(-3582,-1718) scale(1,1)"><g><path fill="none" stroke="none"/><text fill="#000000" stroke="none" font-family="Arial" font-size="13px" font-style="normal" font-weight="normal" text-decoration="none" x="4148.5" y="1905.5">«enumeration»</text></g></g><g transform="translate(-3582,-1718) scale(1,1)"><g><path fill="none" stroke="none"/><text fill="#000000" stroke="none" font-family="Arial" font-size="13px" font-style="normal" font-weight="bold" text-decoration="none" x="4178.495849609375" y="1920.5">Role</text></g></g><g transform="translate(-3582,-1718) scale(1,1)"><g><path fill="none" stroke="none"/><text fill="#000000" stroke="none" font-family="Arial" font-size="13px" font-style="normal" font-weight="normal" text-decoration="none" x="4149" y="1943.5">COOK</text></g></g><g transform="translate(-3582,-1718) scale(1,1)"><g><path fill="none" stroke="none"/><text fill="#000000" stroke="none" font-family="Arial" font-size="13px" font-style="normal" font-weight="normal" text-decoration="none" x="4149" y="1958.5">SERVICE</text></g></g><g transform="translate(-3582,-1718) scale(1,1)"><rect fill="#C0C0C0" stroke="none" x="4151" y="2431" width="275.2587890625" height="96" opacity="0.2"/></g><g transform="translate(-3582,-1718) scale(1,1)"><rect fill="#ffffff" stroke="none" x="4144" y="2424" width="275.2587890625" height="96"/></g><g transform="translate(-3582,-1718) scale(1,1)"><path fill="none" stroke="#000000" d="M 4144 2424 L 4419.2587890625 2424 L 4419.2587890625 2520 L 4144 2520 L 4144 2424 Z Z" stroke-miterlimit="10"/></g><g transform="translate(-3582,-1718) scale(1,1)"><path fill="#ffffff" stroke="none" d="M 4393.2587890625 2441 C 4393.2587890625 2436.0294368 4397.2882258625 2432 4402.2587890625 2432 C 4407.2293522625 2432 4411.2587890625 2436.0294368 4411.2587890625 2441 C 4411.2587890625 2445.9705632 4407.2293522625 2450 4402.2587890625 2450 C 4397.2882258625 2450 4393.2587890625 2445.9705632 4393.2587890625 2441 Z"/></g><g transform="translate(-3582,-1718) scale(1,1)"><path fill="none" stroke="#000000" d="M 4393.2587890625 2441 C 4393.2587890625 2436.0294368 4397.2882258625 2432 4402.2587890625 2432 C 4407.2293522625 2432 4411.2587890625 2436.0294368 4411.2587890625 2441 C 4411.2587890625 2445.9705632 4407.2293522625 2450 4402.2587890625 2450 C 4397.2882258625 2450 4393.2587890625 2445.9705632 4393.2587890625 2441 Z" stroke-miterlimit="10"/></g><g transform="translate(-3582,-1718) scale(1,1)"><path fill="none" stroke="#000000" d="M 4144 2458 L 4419.2587890625 2458" stroke-miterlimit="10"/></g><g transform="translate(-3582,-1718) scale(1,1)"><path fill="none" stroke="#000000" d="M 4144 2468 L 4419.2587890625 2468" stroke-miterlimit="10"/></g><g transform="translate(-3582,-1718) scale(1,1)"><g><path fill="none" stroke="none"/><text fill="#000000" stroke="none" font-family="Arial" font-size="13px" font-style="normal" font-weight="bold" text-decoration="none" x="4209.65673828125" y="2443.5">EmployeeRepository</text></g></g><g transform="translate(-3582,-1718) scale(1,1)"><g><path fill="none" stroke="none"/><text fill="#000000" stroke="none" font-family="Arial" font-size="13px" font-style="normal" font-weight="normal" text-decoration="none" x="4149" y="2485.5">findAll(): Streamable&lt;Employee&gt;</text></g></g><g transform="translate(-3582,-1718) scale(1,1)"><g><path fill="none" stroke="none"/><text fill="#000000" stroke="none" font-family="Arial" font-size="13px" font-style="normal" font-weight="normal" text-decoration="none" x="4149" y="2500.5">findByName(name: String): Employee</text></g></g><g transform="translate(-3582,-1718) scale(1,1)"><g><path fill="none" stroke="none"/><text fill="#000000" stroke="none" font-family="Arial" font-size="13px" font-style="normal" font-weight="normal" text-decoration="none" x="4149" y="2515.5">findByRole(role: Role): ArrayList&lt;Employee&gt;</text></g></g><g transform="translate(-3582,-1718) scale(1,1)"><rect fill="#C0C0C0" stroke="none" x="4111" y="2543" width="352" height="143" opacity="0.2"/></g><g transform="translate(-3582,-1718) scale(1,1)"><rect fill="#ffffff" stroke="none" x="4104" y="2536" width="352" height="143"/></g><g transform="translate(-3582,-1718) scale(1,1)"><path fill="none" stroke="#000000" d="M 4104 2536 L 4456 2536 L 4456 2679 L 4104 2679 L 4104 2536 Z Z" stroke-miterlimit="10"/></g><g transform="translate(-3582,-1718) scale(1,1)"><path fill="none" stroke="#000000" d="M 4104 2561 L 4456 2561" stroke-miterlimit="10"/></g><g transform="translate(-3582,-1718) scale(1,1)"><path fill="none" stroke="#000000" d="M 4104 2629 L 4456 2629" stroke-miterlimit="10"/></g><g transform="translate(-3582,-1718) scale(1,1)"><g><path fill="none" stroke="none"/><text fill="#000000" stroke="none" font-family="Arial" font-size="13px" font-style="normal" font-weight="bold" text-decoration="none" x="4230.15185546875" y="2555.5">RegistrationForm</text></g></g><g transform="translate(-3582,-1718) scale(1,1)"><g><path fill="none" stroke="none"/><text fill="#000000" stroke="none" font-family="Arial" font-size="13px" font-style="normal" font-weight="normal" text-decoration="none" x="4109" y="2578.5">-username: String</text></g></g><g transform="translate(-3582,-1718) scale(1,1)"><g><path fill="none" stroke="none"/><text fill="#000000" stroke="none" font-family="Arial" font-size="13px" font-style="normal" font-weight="normal" text-decoration="none" x="4109" y="2593.5">-firstName: String</text></g></g><g transform="translate(-3582,-1718) scale(1,1)"><g><path fill="none" stroke="none"/><text fill="#000000" stroke="none" font-family="Arial" font-size="13px" font-style="normal" font-weight="normal" text-decoration="none" x="4109" y="2608.5">-lastName: String</text></g></g><g transform="translate(-3582,-1718) scale(1,1)"><g><path fill="none" stroke="none"/><text fill="#000000" stroke="none" font-family="Arial" font-size="13px" font-style="normal" font-weight="normal" text-decoration="none" x="4109" y="2623.5">-role: String</text></g></g><g transform="translate(-3582,-1718) scale(1,1)"><g><path fill="none" stroke="none"/><text fill="#000000" stroke="none" font-family="Arial" font-size="13px" font-style="normal" font-weight="normal" text-decoration="none" x="4109" y="2646.5">+RegistrationForm(username: String, firstName: String,</text><text fill="#000000" stroke="none" font-family="Arial" font-size="13px" font-style="normal" font-weight="normal" text-decoration="none" x="4109" y="2659.5">lastName: String, role: String)</text></g></g><g transform="translate(-3582,-1718) scale(1,1)"><rect fill="#C0C0C0" stroke="none" x="3599" y="2143" width="352" height="53" opacity="0.2"/></g><g transform="translate(-3582,-1718) scale(1,1)"><rect fill="#ffffff" stroke="none" x="3592" y="2136" width="352" height="53"/></g><g transform="translate(-3582,-1718) scale(1,1)"><path fill="none" stroke="#000000" d="M 3592 2136 L 3944 2136 L 3944 2189 L 3592 2189 L 3592 2136 Z Z" stroke-miterlimit="10"/></g><g transform="translate(-3582,-1718) scale(1,1)"><path fill="#ffffff" stroke="none" d="M 3918 2153 C 3918 2148.0294368 3922.0294368 2144 3927 2144 C 3931.9705632 2144 3936 2148.0294368 3936 2153 C 3936 2157.9705632 3931.9705632 2162 3927 2162 C 3922.0294368 2162 3918 2157.9705632 3918 2153 Z"/></g><g transform="translate(-3582,-1718) scale(1,1)"><path fill="none" stroke="#000000" d="M 3918 2153 C 3918 2148.0294368 3922.0294368 2144 3927 2144 C 3931.9705632 2144 3936 2148.0294368 3936 2153 C 3936 2157.9705632 3931.9705632 2162 3927 2162 C 3922.0294368 2162 3918 2157.9705632 3918 2153 Z" stroke-miterlimit="10"/></g><g transform="translate(-3582,-1718) scale(1,1)"><g><path fill="none" stroke="none"/><text fill="#000000" stroke="none" font-family="Arial" font-size="13px" font-style="normal" font-weight="bold" text-decoration="none" x="3629.9228515625" y="2155.5">org.salespointframework.cork.DataInitializer</text></g></g><g transform="translate(-3582,-1718) scale(1,1)"><rect fill="#C0C0C0" stroke="none" x="3655" y="1961" width="149.6689453125" height="53" opacity="0.2"/></g><g transform="translate(-3582,-1718) scale(1,1)"><rect fill="#C0C0C0" stroke="none" x="3738.1962890625" y="1943" width="75.47265625" height="22" opacity="0.2"/></g><g transform="translate(-3582,-1718) scale(1,1)"><rect fill="#ffffff" stroke="none" x="3648" y="1954" width="149.6689453125" height="53"/></g><g transform="translate(-3582,-1718) scale(1,1)"><path fill="none" stroke="#000000" d="M 3648 1954 L 3797.6689453125 1954 L 3797.6689453125 2007 L 3648 2007 L 3648 1954 Z Z" stroke-miterlimit="10"/></g><g transform="translate(-3582,-1718) scale(1,1)"><path fill="#ffffff" stroke="none" d="M 3771.6689453125 1971 C 3771.6689453125 1966.0294368 3775.6983821125 1962 3780.6689453125 1962 C 3785.6395085125 1962 3789.6689453125 1966.0294368 3789.6689453125 1971 C 3789.6689453125 1975.9705632 3785.6395085125 1980 3780.6689453125 1980 C 3775.6983821125 1980 3771.6689453125 1975.9705632 3771.6689453125 1971 Z"/></g><g transform="translate(-3582,-1718) scale(1,1)"><path fill="none" stroke="#000000" d="M 3771.6689453125 1971 C 3771.6689453125 1966.0294368 3775.6983821125 1962 3780.6689453125 1962 C 3785.6395085125 1962 3789.6689453125 1966.0294368 3789.6689453125 1971 C 3789.6689453125 1975.9705632 3785.6395085125 1980 3780.6689453125 1980 C 3775.6983821125 1980 3771.6689453125 1975.9705632 3771.6689453125 1971 Z" stroke-miterlimit="10"/></g><g transform="translate(-3582,-1718) scale(1,1)"><g><path fill="none" stroke="none"/><text fill="#000000" stroke="none" font-family="Arial" font-size="13px" font-style="normal" font-weight="bold" text-decoration="none" x="3681.87451171875" y="1973.5">java.util.List</text></g></g><g transform="translate(-3582,-1718) scale(1,1)"><rect fill="#ffffff" stroke="none" x="3731.1962890625" y="1936" width="75.47265625" height="22"/></g><g transform="translate(-3582,-1718) scale(1,1)"><path fill="none" stroke="#000000" d="M 3731.1962890625 1936 L 3806.6689453125 1936 L 3806.6689453125 1958 L 3731.1962890625 1958 L 3731.1962890625 1936 Z Z" stroke-miterlimit="10" stroke-dasharray="3"/></g><g transform="translate(-3582,-1718) scale(1,1)"><g><path fill="none" stroke="none"/><text fill="#000000" stroke="none" font-family="Arial" font-size="13px" font-style="normal" font-weight="normal" text-decoration="none" x="3736.1962890625" y="1953.5">EventOrder</text></g></g><g transform="translate(-3582,-1718) scale(1,1)"><path fill="none" stroke="#000000" d="M 4088 1971 L 3808 1971" stroke-miterlimit="10" stroke-dasharray="3"/></g><g transform="translate(-3582,-1718) scale(1,1)"><path fill="none" stroke="#000000" d="M 3818.162674857624 1966.7904822439841 L 3808 1971 L 3818.162674857624 1975.2095177560159" stroke-miterlimit="10"/></g><g transform="translate(-3582,-1718) scale(1,1)"><g><path fill="none" stroke="none"/><text fill="#000000" stroke="none" font-family="Arial" font-size="13px" font-style="normal" font-weight="normal" text-decoration="none" x="3972.13134765625" y="1979.5">-booked</text></g></g><g transform="translate(-3582,-1718) scale(1,1)"><path fill="none" stroke="#000000" d="M 4308 1784 L 4336 1784 L 4336 1925 L 4240 1925" stroke-miterlimit="10"/></g><g transform="translate(-3582,-1718) scale(1,1)"><path fill="none" stroke="#000000" d="M 4250.162674857625 1920.7904822439841 L 4240 1925 L 4250.162674857625 1929.2095177560159" stroke-miterlimit="10"/></g><g transform="translate(-3582,-1718) scale(1,1)"><g><path fill="none" stroke="none"/><text fill="#000000" stroke="none" font-family="Arial" font-size="13px" font-style="normal" font-weight="normal" text-decoration="none" x="4320.13134765625" y="1775.5">-role</text></g></g><g transform="translate(-3582,-1718) scale(1,1)"><path fill="none" stroke="#000000" d="M 4464 2123 L 4464 2256" stroke-miterlimit="10"/></g><g transform="translate(-3582,-1718) scale(1,1)"><path fill="none" stroke="#000000" d="M 4459.790482243984 2245.837325142376 L 4464 2256 L 4468.209517756016 2245.837325142376" stroke-miterlimit="10"/></g><g transform="translate(-3582,-1718) scale(1,1)"><g><path fill="none" stroke="none"/><text fill="#000000" stroke="none" font-family="Arial" font-size="13px" font-style="normal" font-weight="normal" text-decoration="none" x="4401.13134765625" y="2207.5">-employeeManagement</text></g></g><g transform="translate(-3582,-1718) scale(1,1)"><path fill="none" stroke="#000000" d="M 4382 2216 L 4432 2216 L 4432 2256" stroke-miterlimit="10"/></g><g transform="translate(-3582,-1718) scale(1,1)"><path fill="none" stroke="#000000" d="M 4427.790482243984 2245.837325142376 L 4432 2256 L 4436.209517756016 2245.837325142376" stroke-miterlimit="10"/></g><g transform="translate(-3582,-1718) scale(1,1)"><g><path fill="none" stroke="none"/><text fill="#000000" stroke="none" font-family="Arial" font-size="13px" font-style="normal" font-weight="normal" text-decoration="none" x="4400.13134765625" y="2235.5">-employeeManagement</text></g></g><g transform="translate(-3582,-1718) scale(1,1)"><path fill="none" stroke="#000000" d="M 4104 2399 L 4104 2480 L 4144 2480" stroke-miterlimit="10"/></g><g transform="translate(-3582,-1718) scale(1,1)"><path fill="none" stroke="#000000" d="M 4133.837325142375 2484.209517756016 L 4144 2480 L 4133.837325142375 2475.790482243984" stroke-miterlimit="10"/></g><g transform="translate(-3582,-1718) scale(1,1)"><g><path fill="none" stroke="none"/><text fill="#000000" stroke="none" font-family="Arial" font-size="13px" font-style="normal" font-weight="normal" text-decoration="none" x="4068.13134765625" y="2467.5">-employees</text></g></g><g transform="translate(-3582,-1718) scale(1,1)"><path fill="none" stroke="#000000" d="M 4088 2160 L 3944 2160" stroke-miterlimit="10" stroke-dasharray="3"/></g><g transform="translate(-3582,-1718) scale(1,1)"><path fill="#FFFFFF" stroke="none" d="M 3964.325349715248 2151.5809644879682 L 3944 2160 L 3964.325349715248 2168.4190355120318"/></g><g transform="translate(-3582,-1718) scale(1,1)"><path fill="none" stroke="#000000" d="M 3964.325349715248 2151.5809644879682 L 3944 2160 L 3964.325349715248 2168.4190355120318 L 3964.325349715248 2151.5809644879682" stroke-miterlimit="10"/></g><g transform="translate(-3582,-1718) scale(1,1)"><rect fill="#C0C0C0" stroke="none" x="3655" y="2255" width="141.22998046875" height="53" opacity="0.2"/></g><g transform="translate(-3582,-1718) scale(1,1)"><rect fill="#ffffff" stroke="none" x="3648" y="2248" width="141.22998046875" height="53"/></g><g transform="translate(-3582,-1718) scale(1,1)"><path fill="none" stroke="#000000" d="M 3648 2248 L 3789.22998046875 2248 L 3789.22998046875 2301 L 3648 2301 L 3648 2248 Z Z" stroke-miterlimit="10"/></g><g transform="translate(-3582,-1718) scale(1,1)"><path fill="#ffffff" stroke="none" d="M 3763.22998046875 2265 C 3763.22998046875 2260.0294368 3767.25941726875 2256 3772.22998046875 2256 C 3777.20054366875 2256 3781.22998046875 2260.0294368 3781.22998046875 2265 C 3781.22998046875 2269.9705632 3777.20054366875 2274 3772.22998046875 2274 C 3767.25941726875 2274 3763.22998046875 2269.9705632 3763.22998046875 2265 Z"/></g><g transform="translate(-3582,-1718) scale(1,1)"><path fill="none" stroke="#000000" d="M 3763.22998046875 2265 C 3763.22998046875 2260.0294368 3767.25941726875 2256 3772.22998046875 2256 C 3777.20054366875 2256 3781.22998046875 2260.0294368 3781.22998046875 2265 C 3781.22998046875 2269.9705632 3777.20054366875 2274 3772.22998046875 2274 C 3767.25941726875 2274 3763.22998046875 2269.9705632 3763.22998046875 2265 Z" stroke-miterlimit="10"/></g><g transform="translate(-3582,-1718) scale(1,1)"><g><path fill="none" stroke="none"/><text fill="#000000" stroke="none" font-family="Arial" font-size="13px" font-style="normal" font-weight="bold" text-decoration="none" x="3661.81005859375" y="2267.5">org.slf4j.Logger</text></g></g><g transform="translate(-3582,-1718) scale(1,1)"><path fill="none" stroke="#000000" d="M 4088 2216 L 3744 2216 L 3744 2248" stroke-miterlimit="10"/></g><g transform="translate(-3582,-1718) scale(1,1)"><path fill="none" stroke="#000000" d="M 3739.790482243984 2237.837325142376 L 3744 2248 L 3748.209517756016 2237.837325142376" stroke-miterlimit="10"/></g><g transform="translate(-3582,-1718) scale(1,1)"><g><path fill="none" stroke="none"/><text fill="#000000" stroke="none" font-family="Arial" font-size="13px" font-style="normal" font-weight="normal" text-decoration="none" x="3742.13134765625" y="2221.5">-LOG</text></g></g><g transform="translate(-3582,-1718) scale(1,1)"><rect fill="#C0C0C0" stroke="none" x="3607" y="2617" width="391.427734375" height="53" opacity="0.2"/></g><g transform="translate(-3582,-1718) scale(1,1)"><rect fill="#C0C0C0" stroke="none" x="3904.47607421875" y="2599" width="102.95166015625" height="22" opacity="0.2"/></g><g transform="translate(-3582,-1718) scale(1,1)"><rect fill="#ffffff" stroke="none" x="3600" y="2610" width="391.427734375" height="53"/></g><g transform="translate(-3582,-1718) scale(1,1)"><path fill="none" stroke="#000000" d="M 3600 2610 L 3991.427734375 2610 L 3991.427734375 2663 L 3600 2663 L 3600 2610 Z Z" stroke-miterlimit="10"/></g><g transform="translate(-3582,-1718) scale(1,1)"><path fill="#ffffff" stroke="none" d="M 3965.427734375 2627 C 3965.427734375 2622.0294368 3969.457171175 2618 3974.427734375 2618 C 3979.398297575 2618 3983.427734375 2622.0294368 3983.427734375 2627 C 3983.427734375 2631.9705632 3979.398297575 2636 3974.427734375 2636 C 3969.457171175 2636 3965.427734375 2631.9705632 3965.427734375 2627 Z"/></g><g transform="translate(-3582,-1718) scale(1,1)"><path fill="none" stroke="#000000" d="M 3965.427734375 2627 C 3965.427734375 2622.0294368 3969.457171175 2618 3974.427734375 2618 C 3979.398297575 2618 3983.427734375 2622.0294368 3983.427734375 2627 C 3983.427734375 2631.9705632 3979.398297575 2636 3974.427734375 2636 C 3969.457171175 2636 3965.427734375 2631.9705632 3965.427734375 2627 Z" stroke-miterlimit="10"/></g><g transform="translate(-3582,-1718) scale(1,1)"><g><path fill="none" stroke="none"/><text fill="#000000" stroke="none" font-family="Arial" font-size="13px" font-style="normal" font-weight="bold" text-decoration="none" x="3638.188720703125" y="2629.5">org.springframework.data.repository.CrudRepository</text></g></g><g transform="translate(-3582,-1718) scale(1,1)"><rect fill="#ffffff" stroke="none" x="3897.47607421875" y="2592" width="102.95166015625" height="22"/></g><g transform="translate(-3582,-1718) scale(1,1)"><path fill="none" stroke="#000000" d="M 3897.47607421875 2592 L 4000.427734375 2592 L 4000.427734375 2614 L 3897.47607421875 2614 L 3897.47607421875 2592 Z Z" stroke-miterlimit="10" stroke-dasharray="3"/></g><g transform="translate(-3582,-1718) scale(1,1)"><g><path fill="none" stroke="none"/><text fill="#000000" stroke="none" font-family="Arial" font-size="13px" font-style="normal" font-weight="normal" text-decoration="none" x="3902.47607421875" y="2609.5">Employee; Long</text></g></g><g transform="translate(-3582,-1718) scale(1,1)"><path fill="none" stroke="#000000" d="M 4144 2512 L 3944 2512 L 3944 2592" stroke-miterlimit="10"/></g><g transform="translate(-3582,-1718) scale(1,1)"><path fill="#FFFFFF" stroke="none" d="M 3935.5809644879682 2571.674650284752 L 3944 2592 L 3952.4190355120318 2571.674650284752"/></g><g transform="translate(-3582,-1718) scale(1,1)"><path fill="none" stroke="#000000" d="M 3935.5809644879682 2571.674650284752 L 3944 2592 L 3952.4190355120318 2571.674650284752 L 3935.5809644879682 2571.674650284752" stroke-miterlimit="10"/></g></g></svg>