<svg version="1.1" xmlns="http://www.w3.org/2000/svg" xmlns:xlink="http://www.w3.org/1999/xlink" width="1673.22998046875" height="1033"><defs/><g><g transform="translate(-2126,-1478) scale(1,1)"><rect fill="#C0C0C0" stroke="none" x="2447" y="1639" width="454.4000000000001" height="15" opacity="0.2"/></g><g transform="translate(-2126,-1478) scale(1,1)"><rect fill="#C0C0C0" stroke="none" x="2447" y="1653" width="1136" height="698" opacity="0.2"/></g><g transform="translate(-2126,-1478) scale(1,1)"><rect fill="#ffffff" stroke="none" x="2440" y="1647" width="1136" height="697"/></g><g transform="translate(-2126,-1478) scale(1,1)"><path fill="none" stroke="#000000" d="M 2440 1647 L 3576 1647 L 3576 2344 L 2440 2344 L 2440 1647 Z Z" stroke-miterlimit="10"/></g><g transform="translate(-2126,-1478) scale(1,1)"><rect fill="#ffffff" stroke="none" x="2440" y="1632" width="454.4000000000001" height="15"/></g><g transform="translate(-2126,-1478) scale(1,1)"><path fill="none" stroke="#000000" d="M 2440 1632 L 2894.4 1632 L 2894.4 1647 L 2440 1647 L 2440 1632 Z Z" stroke-miterlimit="10"/></g><g transform="translate(-2126,-1478) scale(1,1)"><rect fill="#ffffff" stroke="none" x="2440" y="1646" width="1136" height="698"/></g><g transform="translate(-2126,-1478) scale(1,1)"><path fill="none" stroke="#000000" d="M 2440 1646 L 3576 1646 L 3576 2344 L 2440 2344 L 2440 1646 Z Z" stroke-miterlimit="10"/></g><g transform="translate(-2126,-1478) scale(1,1)"><g><path fill="none" stroke="none"/><text fill="#000000" stroke="none" font-family="Arial" font-size="13px" font-style="normal" font-weight="bold" text-decoration="none" x="2994.2763671875" y="1666.5">User</text></g></g><g transform="translate(-2126,-1478) scale(1,1)"><rect fill="#C0C0C0" stroke="none" x="3135" y="1975" width="400" height="132" opacity="0.2"/></g><g transform="translate(-2126,-1478) scale(1,1)"><rect fill="#ffffff" stroke="none" x="3128" y="1968" width="400" height="132"/></g><g transform="translate(-2126,-1478) scale(1,1)"><path fill="none" stroke="#000000" d="M 3128 1968 L 3528 1968 L 3528 2100 L 3128 2100 L 3128 1968 Z Z" stroke-miterlimit="10"/></g><g transform="translate(-2126,-1478) scale(1,1)"><path fill="none" stroke="#000000" d="M 3128 1993 L 3528 1993" stroke-miterlimit="10"/></g><g transform="translate(-2126,-1478) scale(1,1)"><path fill="none" stroke="#000000" d="M 3128 2031 L 3528 2031" stroke-miterlimit="10"/></g><g transform="translate(-2126,-1478) scale(1,1)"><g><path fill="none" stroke="none"/><text fill="#000000" stroke="none" font-family="Arial" font-size="13px" font-style="normal" font-weight="bold" text-decoration="none" x="3314.2763671875" y="1987.5">User</text></g></g><g transform="translate(-2126,-1478) scale(1,1)"><g><path fill="none" stroke="none"/><text fill="#000000" stroke="none" font-family="Arial" font-size="13px" font-style="normal" font-weight="normal" text-decoration="none" x="3133" y="2010.5">-id: long</text></g></g><g transform="translate(-2126,-1478) scale(1,1)"><g><path fill="none" stroke="none"/><text fill="#000000" stroke="none" font-family="Arial" font-size="13px" font-style="normal" font-weight="normal" text-decoration="none" x="3133" y="2025.5">-adress: String</text></g></g><g transform="translate(-2126,-1478) scale(1,1)"><g><path fill="none" stroke="none"/><text fill="#000000" stroke="none" font-family="Arial" font-size="13px" font-style="normal" font-weight="normal" text-decoration="none" x="3133" y="2050.5">+User()</text></g></g><g transform="translate(-2126,-1478) scale(1,1)"><g><path fill="none" stroke="none"/><text fill="#000000" stroke="none" font-family="Arial" font-size="13px" font-style="normal" font-weight="normal" text-decoration="none" x="3133" y="2065.5">+toString(): String</text></g></g><g transform="translate(-2126,-1478) scale(1,1)"><rect fill="#C0C0C0" stroke="none" x="2479" y="1983" width="296" height="115" opacity="0.2"/></g><g transform="translate(-2126,-1478) scale(1,1)"><rect fill="#ffffff" stroke="none" x="2472" y="1976" width="296" height="115"/></g><g transform="translate(-2126,-1478) scale(1,1)"><path fill="none" stroke="#000000" d="M 2472 1976 L 2768 1976 L 2768 2091 L 2472 2091 L 2472 1976 Z Z" stroke-miterlimit="10"/></g><g transform="translate(-2126,-1478) scale(1,1)"><path fill="none" stroke="#000000" d="M 2472 2014 L 2768 2014" stroke-miterlimit="10"/></g><g transform="translate(-2126,-1478) scale(1,1)"><path fill="none" stroke="#000000" d="M 2472 2024 L 2768 2024" stroke-miterlimit="10"/></g><g transform="translate(-2126,-1478) scale(1,1)"><g><path fill="none" stroke="none"/><text fill="#000000" stroke="none" font-family="Arial" font-size="13px" font-style="normal" font-weight="normal" text-decoration="none" x="2576.635986328125" y="1993.5">«enumeration»</text></g></g><g transform="translate(-2126,-1478) scale(1,1)"><g><path fill="none" stroke="none"/><text fill="#000000" stroke="none" font-family="Arial" font-size="13px" font-style="normal" font-weight="bold" text-decoration="none" x="2592.908203125" y="2008.5">UserRole</text></g></g><g transform="translate(-2126,-1478) scale(1,1)"><rect fill="#C0C0C0" stroke="none" x="2479" y="1703" width="294.19140625" height="256" opacity="0.2"/></g><g transform="translate(-2126,-1478) scale(1,1)"><rect fill="#ffffff" stroke="none" x="2472" y="1696" width="294.19140625" height="256"/></g><g transform="translate(-2126,-1478) scale(1,1)"><path fill="none" stroke="#000000" d="M 2472 1696 L 2766.19140625 1696 L 2766.19140625 1952 L 2472 1952 L 2472 1696 Z Z" stroke-miterlimit="10"/></g><g transform="translate(-2126,-1478) scale(1,1)"><path fill="none" stroke="#000000" d="M 2472 1721 L 2766.19140625 1721" stroke-miterlimit="10"/></g><g transform="translate(-2126,-1478) scale(1,1)"><path fill="none" stroke="#000000" d="M 2472 1789 L 2766.19140625 1789" stroke-miterlimit="10"/></g><g transform="translate(-2126,-1478) scale(1,1)"><g><path fill="none" stroke="none"/><text fill="#000000" stroke="none" font-family="Arial" font-size="13px" font-style="normal" font-weight="bold" text-decoration="none" x="2591.277099609375" y="1715.5">Company</text></g></g><g transform="translate(-2126,-1478) scale(1,1)"><g><path fill="none" stroke="none"/><text fill="#000000" stroke="none" font-family="Arial" font-size="13px" font-style="normal" font-weight="normal" text-decoration="none" x="2477" y="1738.5">-name: String</text></g></g><g transform="translate(-2126,-1478) scale(1,1)"><g><path fill="none" stroke="none"/><text fill="#000000" stroke="none" font-family="Arial" font-size="13px" font-style="normal" font-weight="normal" text-decoration="none" x="2477" y="1753.5">-bossId: long</text></g></g><g transform="translate(-2126,-1478) scale(1,1)"><g><path fill="none" stroke="none"/><text fill="#000000" stroke="none" font-family="Arial" font-size="13px" font-style="normal" font-weight="normal" text-decoration="none" x="2477" y="1768.5">-accessCode: String</text></g></g><g transform="translate(-2126,-1478) scale(1,1)"><g><path fill="none" stroke="none"/><text fill="#000000" stroke="none" font-family="Arial" font-size="13px" font-style="normal" font-weight="normal" text-decoration="none" x="2477" y="1783.5">-id: long</text></g></g><g transform="translate(-2126,-1478) scale(1,1)"><g><path fill="none" stroke="none"/><text fill="#000000" stroke="none" font-family="Arial" font-size="13px" font-style="normal" font-weight="normal" text-decoration="none" x="2477" y="1808.5">-Company()</text></g></g><g transform="translate(-2126,-1478) scale(1,1)"><g><path fill="none" stroke="none"/><text fill="#000000" stroke="none" font-family="Arial" font-size="13px" font-style="normal" font-weight="normal" text-decoration="none" x="2477" y="1823.5">+Company(name: String, bossId: long)</text></g></g><g transform="translate(-2126,-1478) scale(1,1)"><g><path fill="none" stroke="none"/><text fill="#000000" stroke="none" font-family="Arial" font-size="13px" font-style="normal" font-weight="normal" text-decoration="none" x="2477" y="1838.5">+addEmployee(User employee): void</text></g></g><g transform="translate(-2126,-1478) scale(1,1)"><g><path fill="none" stroke="none"/><text fill="#000000" stroke="none" font-family="Arial" font-size="13px" font-style="normal" font-weight="normal" text-decoration="none" x="2477" y="1853.5">+removeEmployee(): void</text></g></g><g transform="translate(-2126,-1478) scale(1,1)"><g><path fill="none" stroke="none"/><text fill="#000000" stroke="none" font-family="Arial" font-size="13px" font-style="normal" font-weight="normal" text-decoration="none" x="2477" y="1868.5">+resetBreakfastDate(): boolean</text></g></g><g transform="translate(-2126,-1478) scale(1,1)"><g><path fill="none" stroke="none"/><text fill="#000000" stroke="none" font-family="Arial" font-size="13px" font-style="normal" font-weight="normal" text-decoration="none" x="2477" y="1883.5">+resetCompany(): void</text></g></g><g transform="translate(-2126,-1478) scale(1,1)"><g><path fill="none" stroke="none"/><text fill="#000000" stroke="none" font-family="Arial" font-size="13px" font-style="normal" font-weight="normal" text-decoration="none" x="2477" y="1898.5">+canBookNewBreakfast(): boolean</text></g></g><g transform="translate(-2126,-1478) scale(1,1)"><g><path fill="none" stroke="none"/><text fill="#000000" stroke="none" font-family="Arial" font-size="13px" font-style="normal" font-weight="normal" text-decoration="none" x="2477" y="1913.5">+hasBreakfastDate(): boolean</text></g></g><g transform="translate(-2126,-1478) scale(1,1)"><rect fill="#C0C0C0" stroke="none" x="2799" y="1703" width="288" height="256" opacity="0.2"/></g><g transform="translate(-2126,-1478) scale(1,1)"><rect fill="#ffffff" stroke="none" x="2792" y="1696" width="288" height="256"/></g><g transform="translate(-2126,-1478) scale(1,1)"><path fill="none" stroke="#000000" d="M 2792 1696 L 3080 1696 L 3080 1952 L 2792 1952 L 2792 1696 Z Z" stroke-miterlimit="10"/></g><g transform="translate(-2126,-1478) scale(1,1)"><path fill="none" stroke="#000000" d="M 2792 1721 L 3080 1721" stroke-miterlimit="10"/></g><g transform="translate(-2126,-1478) scale(1,1)"><path fill="none" stroke="#000000" d="M 2792 1849 L 3080 1849" stroke-miterlimit="10"/></g><g transform="translate(-2126,-1478) scale(1,1)"><g><path fill="none" stroke="none"/><text fill="#000000" stroke="none" font-family="Arial" font-size="13px" font-style="normal" font-weight="bold" text-decoration="none" x="2886.15185546875" y="1715.5">RegistrationForm</text></g></g><g transform="translate(-2126,-1478) scale(1,1)"><g><path fill="none" stroke="none"/><text fill="#000000" stroke="none" font-family="Arial" font-size="13px" font-style="normal" font-weight="normal" text-decoration="none" x="2797" y="1738.5">-username: String</text></g></g><g transform="translate(-2126,-1478) scale(1,1)"><g><path fill="none" stroke="none"/><text fill="#000000" stroke="none" font-family="Arial" font-size="13px" font-style="normal" font-weight="normal" text-decoration="none" x="2797" y="1753.5">-firstname: String</text></g></g><g transform="translate(-2126,-1478) scale(1,1)"><g><path fill="none" stroke="none"/><text fill="#000000" stroke="none" font-family="Arial" font-size="13px" font-style="normal" font-weight="normal" text-decoration="none" x="2797" y="1768.5">-lastname: String</text></g></g><g transform="translate(-2126,-1478) scale(1,1)"><g><path fill="none" stroke="none"/><text fill="#000000" stroke="none" font-family="Arial" font-size="13px" font-style="normal" font-weight="normal" text-decoration="none" x="2797" y="1783.5">-password: String</text></g></g><g transform="translate(-2126,-1478) scale(1,1)"><g><path fill="none" stroke="none"/><text fill="#000000" stroke="none" font-family="Arial" font-size="13px" font-style="normal" font-weight="normal" text-decoration="none" x="2797" y="1798.5">-adress: String</text></g></g><g transform="translate(-2126,-1478) scale(1,1)"><g><path fill="none" stroke="none"/><text fill="#000000" stroke="none" font-family="Arial" font-size="13px" font-style="normal" font-weight="normal" text-decoration="none" x="2797" y="1813.5">-email: String</text></g></g><g transform="translate(-2126,-1478) scale(1,1)"><g><path fill="none" stroke="none"/><text fill="#000000" stroke="none" font-family="Arial" font-size="13px" font-style="normal" font-weight="normal" text-decoration="none" x="2797" y="1828.5">-role: String</text></g></g><g transform="translate(-2126,-1478) scale(1,1)"><g><path fill="none" stroke="none"/><text fill="#000000" stroke="none" font-family="Arial" font-size="13px" font-style="normal" font-weight="normal" text-decoration="none" x="2797" y="1843.5">-company: String</text></g></g><g transform="translate(-2126,-1478) scale(1,1)"><g><path fill="none" stroke="none"/><text fill="#000000" stroke="none" font-family="Arial" font-size="13px" font-style="normal" font-weight="normal" text-decoration="none" x="2797" y="1866.5">+RegistrationForm(username: String, firstname</text><text fill="#000000" stroke="none" font-family="Arial" font-size="13px" font-style="normal" font-weight="normal" text-decoration="none" x="2797" y="1879.5">: String, lastname: String, password: String,</text><text fill="#000000" stroke="none" font-family="Arial" font-size="13px" font-style="normal" font-weight="normal" text-decoration="none" x="2797" y="1892.5">adress: String, email: String, role: String,</text><text fill="#000000" stroke="none" font-family="Arial" font-size="13px" font-style="normal" font-weight="normal" text-decoration="none" x="2797" y="1905.5">companyName: String, accessCode: String)</text></g></g><g transform="translate(-2126,-1478) scale(1,1)"><rect fill="#C0C0C0" stroke="none" x="3111" y="1703" width="400.28857421875" height="256" opacity="0.2"/></g><g transform="translate(-2126,-1478) scale(1,1)"><rect fill="#ffffff" stroke="none" x="3104" y="1696" width="400.28857421875" height="256"/></g><g transform="translate(-2126,-1478) scale(1,1)"><path fill="none" stroke="#000000" d="M 3104 1696 L 3504.28857421875 1696 L 3504.28857421875 1952 L 3104 1952 L 3104 1696 Z Z" stroke-miterlimit="10"/></g><g transform="translate(-2126,-1478) scale(1,1)"><path fill="none" stroke="#000000" d="M 3104 1721 L 3504.28857421875 1721" stroke-miterlimit="10"/></g><g transform="translate(-2126,-1478) scale(1,1)"><path fill="none" stroke="#000000" d="M 3104 1731 L 3504.28857421875 1731" stroke-miterlimit="10"/></g><g transform="translate(-2126,-1478) scale(1,1)"><g><path fill="none" stroke="none"/><text fill="#000000" stroke="none" font-family="Arial" font-size="13px" font-style="normal" font-weight="bold" text-decoration="none" x="3262.243408203125" y="1715.5">UserController</text></g></g><g transform="translate(-2126,-1478) scale(1,1)"><g><path fill="none" stroke="none"/><text fill="#000000" stroke="none" font-family="Arial" font-size="13px" font-style="normal" font-weight="normal" text-decoration="none" x="3109" y="1748.5">+registerNew(form: RegistrationForm, result: Errors): String</text></g></g><g transform="translate(-2126,-1478) scale(1,1)"><g><path fill="none" stroke="none"/><text fill="#000000" stroke="none" font-family="Arial" font-size="13px" font-style="normal" font-weight="normal" text-decoration="none" x="3109" y="1763.5">+register(model: Model, form: RegistrationForm): String</text></g></g><g transform="translate(-2126,-1478) scale(1,1)"><g><path fill="none" stroke="none"/><text fill="#000000" stroke="none" font-family="Arial" font-size="13px" font-style="normal" font-weight="normal" text-decoration="none" x="3109" y="1778.5">+index(model: Model): String</text></g></g><g transform="translate(-2126,-1478) scale(1,1)"><g><path fill="none" stroke="none"/><text fill="#000000" stroke="none" font-family="Arial" font-size="13px" font-style="normal" font-weight="normal" text-decoration="none" x="3109" y="1793.5">+users(model: Model): String</text></g></g><g transform="translate(-2126,-1478) scale(1,1)"><g><path fill="none" stroke="none"/><text fill="#000000" stroke="none" font-family="Arial" font-size="13px" font-style="normal" font-weight="normal" text-decoration="none" x="3109" y="1808.5">+userDetails(model: Model, authentification: Authentification): String</text></g></g><g transform="translate(-2126,-1478) scale(1,1)"><g><path fill="none" stroke="none"/><text fill="#000000" stroke="none" font-family="Arial" font-size="13px" font-style="normal" font-weight="normal" text-decoration="none" x="3109" y="1823.5">+userDetailsAsBoss(userId: long, model: Model): String</text></g></g><g transform="translate(-2126,-1478) scale(1,1)"><g><path fill="none" stroke="none"/><text fill="#000000" stroke="none" font-family="Arial" font-size="13px" font-style="normal" font-weight="normal" text-decoration="none" x="3109" y="1838.5">+denyAuthentification(userId: long, model: Model): String</text></g></g><g transform="translate(-2126,-1478) scale(1,1)"><g><path fill="none" stroke="none"/><text fill="#000000" stroke="none" font-family="Arial" font-size="13px" font-style="normal" font-weight="normal" text-decoration="none" x="3109" y="1853.5">+bookBreakfast(authentification Authentification): String</text></g></g><g transform="translate(-2126,-1478) scale(1,1)"><rect fill="#C0C0C0" stroke="none" x="2799" y="1983" width="318.994140625" height="88" opacity="0.2"/></g><g transform="translate(-2126,-1478) scale(1,1)"><rect fill="#ffffff" stroke="none" x="2792" y="1976" width="318.994140625" height="88"/></g><g transform="translate(-2126,-1478) scale(1,1)"><path fill="none" stroke="#000000" d="M 2792 1976 L 3110.994140625 1976 L 3110.994140625 2064 L 2792 2064 L 2792 1976 Z Z" stroke-miterlimit="10"/></g><g transform="translate(-2126,-1478) scale(1,1)"><path fill="none" stroke="#000000" d="M 2792 2001 L 3110.994140625 2001" stroke-miterlimit="10"/></g><g transform="translate(-2126,-1478) scale(1,1)"><path fill="none" stroke="#000000" d="M 2792 2026 L 3110.994140625 2026" stroke-miterlimit="10"/></g><g transform="translate(-2126,-1478) scale(1,1)"><g><path fill="none" stroke="none"/><text fill="#000000" stroke="none" font-family="Arial" font-size="13px" font-style="normal" font-weight="bold" text-decoration="none" x="2898.395751953125" y="1995.5">UserDataInitializer</text></g></g><g transform="translate(-2126,-1478) scale(1,1)"><g><path fill="none" stroke="none"/><text fill="#000000" stroke="none" font-family="Arial" font-size="13px" font-style="normal" font-weight="normal" text-decoration="none" x="2797" y="2020.5">-userRepository: UserRepository</text></g></g><g transform="translate(-2126,-1478) scale(1,1)"><g><path fill="none" stroke="none"/><text fill="#000000" stroke="none" font-family="Arial" font-size="13px" font-style="normal" font-weight="normal" text-decoration="none" x="2797" y="2043.5">+initialize(): void</text></g></g><g transform="translate(-2126,-1478) scale(1,1)"><rect fill="#C0C0C0" stroke="none" x="2495" y="2119" width="440" height="248" opacity="0.2"/></g><g transform="translate(-2126,-1478) scale(1,1)"><rect fill="#ffffff" stroke="none" x="2488" y="2112" width="440" height="248"/></g><g transform="translate(-2126,-1478) scale(1,1)"><path fill="none" stroke="#000000" d="M 2488 2112 L 2928 2112 L 2928 2360 L 2488 2360 L 2488 2112 Z Z" stroke-miterlimit="10"/></g><g transform="translate(-2126,-1478) scale(1,1)"><path fill="none" stroke="#000000" d="M 2488 2137 L 2928 2137" stroke-miterlimit="10"/></g><g transform="translate(-2126,-1478) scale(1,1)"><path fill="none" stroke="#000000" d="M 2488 2175 L 2928 2175" stroke-miterlimit="10"/></g><g transform="translate(-2126,-1478) scale(1,1)"><g><path fill="none" stroke="none"/><text fill="#000000" stroke="none" font-family="Arial" font-size="13px" font-style="normal" font-weight="bold" text-decoration="none" x="2656.33642578125" y="2131.5">UserManagement</text></g></g><g transform="translate(-2126,-1478) scale(1,1)"><g><path fill="none" stroke="none"/><text fill="#000000" stroke="none" font-family="Arial" font-size="13px" font-style="normal" font-weight="normal" text-decoration="none" x="2493" y="2154.5">-users: UserRepository</text></g></g><g transform="translate(-2126,-1478) scale(1,1)"><g><path fill="none" stroke="none"/><text fill="#000000" stroke="none" font-family="Arial" font-size="13px" font-style="normal" font-weight="normal" text-decoration="none" x="2493" y="2169.5">-userAccounts: UserAccountManagement</text></g></g><g transform="translate(-2126,-1478) scale(1,1)"><g><path fill="none" stroke="none"/><text fill="#000000" stroke="none" font-family="Arial" font-size="13px" font-style="normal" font-weight="normal" text-decoration="none" x="2493" y="2194.5">+UserManagement(users UserPrepository, userAccounts:</text><text fill="#000000" stroke="none" font-family="Arial" font-size="13px" font-style="normal" font-weight="normal" text-decoration="none" x="2493" y="2207.5">UserAccountManagement)</text></g></g><g transform="translate(-2126,-1478) scale(1,1)"><g><path fill="none" stroke="none"/><text fill="#000000" stroke="none" font-family="Arial" font-size="13px" font-style="normal" font-weight="normal" text-decoration="none" x="2493" y="2222.5">+createUser(form: RegistrationForm): User</text></g></g><g transform="translate(-2126,-1478) scale(1,1)"><g><path fill="none" stroke="none"/><text fill="#000000" stroke="none" font-family="Arial" font-size="13px" font-style="normal" font-weight="normal" text-decoration="none" x="2493" y="2237.5">+findAll(): Streamable&lt;User&gt;</text></g></g><g transform="translate(-2126,-1478) scale(1,1)"><g><path fill="none" stroke="none"/><text fill="#000000" stroke="none" font-family="Arial" font-size="13px" font-style="normal" font-weight="normal" text-decoration="none" x="2493" y="2252.5">+findCompany(accessCode: String): Optional&lt;Copmany&gt;</text></g></g><g transform="translate(-2126,-1478) scale(1,1)"><g><path fill="none" stroke="none"/><text fill="#000000" stroke="none" font-family="Arial" font-size="13px" font-style="normal" font-weight="normal" text-decoration="none" x="2493" y="2267.5">+findCompany(userId: long): Optional&lt;Company&gt;</text></g></g><g transform="translate(-2126,-1478) scale(1,1)"><g><path fill="none" stroke="none"/><text fill="#000000" stroke="none" font-family="Arial" font-size="13px" font-style="normal" font-weight="normal" text-decoration="none" x="2493" y="2282.5">+findUserById(userId: long)</text></g></g><g transform="translate(-2126,-1478) scale(1,1)"><g><path fill="none" stroke="none"/><text fill="#000000" stroke="none" font-family="Arial" font-size="13px" font-style="normal" font-weight="normal" text-decoration="none" x="2493" y="2297.5">+findUserByUsername(username: String)</text></g></g><g transform="translate(-2126,-1478) scale(1,1)"><g><path fill="none" stroke="none"/><text fill="#000000" stroke="none" font-family="Arial" font-size="13px" font-style="normal" font-weight="normal" text-decoration="none" x="2493" y="2312.5">+findUserByUserAccount(userAccountId: UserAccountIdentifier):</text><text fill="#000000" stroke="none" font-family="Arial" font-size="13px" font-style="normal" font-weight="normal" text-decoration="none" x="2493" y="2325.5">Optional&lt;User&gt;</text></g></g><g transform="translate(-2126,-1478) scale(1,1)"><g><path fill="none" stroke="none"/><text fill="#000000" stroke="none" font-family="Arial" font-size="13px" font-style="normal" font-weight="normal" text-decoration="none" x="2493" y="2340.5">+denyAuthentificationById(userId: long): void</text></g></g><g transform="translate(-2126,-1478) scale(1,1)"><g><path fill="none" stroke="none"/><text fill="#000000" stroke="none" font-family="Arial" font-size="13px" font-style="normal" font-weight="normal" text-decoration="none" x="2493" y="2355.5">+bookMobileBreakfast(username: String): boolean</text></g></g><g transform="translate(-2126,-1478) scale(1,1)"><rect fill="#C0C0C0" stroke="none" x="3039" y="2167" width="392" height="144" opacity="0.2"/></g><g transform="translate(-2126,-1478) scale(1,1)"><rect fill="#ffffff" stroke="none" x="3032" y="2160" width="392" height="144"/></g><g transform="translate(-2126,-1478) scale(1,1)"><path fill="none" stroke="#000000" d="M 3032 2160 L 3424 2160 L 3424 2304 L 3032 2304 L 3032 2160 Z Z" stroke-miterlimit="10"/></g><g transform="translate(-2126,-1478) scale(1,1)"><path fill="#ffffff" stroke="none" d="M 3398 2177 C 3398 2172.0294368 3402.0294368 2168 3407 2168 C 3411.9705632 2168 3416 2172.0294368 3416 2177 C 3416 2181.9705632 3411.9705632 2186 3407 2186 C 3402.0294368 2186 3398 2181.9705632 3398 2177 Z"/></g><g transform="translate(-2126,-1478) scale(1,1)"><path fill="none" stroke="#000000" d="M 3398 2177 C 3398 2172.0294368 3402.0294368 2168 3407 2168 C 3411.9705632 2168 3416 2172.0294368 3416 2177 C 3416 2181.9705632 3411.9705632 2186 3407 2186 C 3402.0294368 2186 3398 2181.9705632 3398 2177 Z" stroke-miterlimit="10"/></g><g transform="translate(-2126,-1478) scale(1,1)"><path fill="none" stroke="#000000" d="M 3032 2194 L 3424 2194" stroke-miterlimit="10"/></g><g transform="translate(-2126,-1478) scale(1,1)"><path fill="none" stroke="#000000" d="M 3032 2204 L 3424 2204" stroke-miterlimit="10"/></g><g transform="translate(-2126,-1478) scale(1,1)"><g><path fill="none" stroke="none"/><text fill="#000000" stroke="none" font-family="Arial" font-size="13px" font-style="normal" font-weight="bold" text-decoration="none" x="3171.207763671875" y="2179.5">UserRepository</text></g></g><g transform="translate(-2126,-1478) scale(1,1)"><g><path fill="none" stroke="none"/><text fill="#000000" stroke="none" font-family="Arial" font-size="13px" font-style="normal" font-weight="normal" text-decoration="none" x="3037" y="2221.5">findAll(): Streamable&lt;User&gt;</text></g></g><g transform="translate(-2126,-1478) scale(1,1)"><rect fill="#C0C0C0" stroke="none" x="2143" y="1887" width="160.4931640625" height="56" opacity="0.2"/></g><g transform="translate(-2126,-1478) scale(1,1)"><rect fill="#ffffff" stroke="none" x="2136" y="1880" width="160.4931640625" height="56"/></g><g transform="translate(-2126,-1478) scale(1,1)"><path fill="none" stroke="#000000" d="M 2136 1880 L 2296.4931640625 1880 L 2296.4931640625 1936 L 2136 1936 L 2136 1880 Z Z" stroke-miterlimit="10"/></g><g transform="translate(-2126,-1478) scale(1,1)"><g><path fill="none" stroke="none"/><text fill="#000000" stroke="none" font-family="Arial" font-size="13px" font-style="normal" font-weight="bold" text-decoration="none" x="2144.959228515625" y="1899.5">java.time.LocalDateTime</text></g></g><g transform="translate(-2126,-1478) scale(1,1)"><rect fill="#C0C0C0" stroke="none" x="2151" y="1799" width="121.6962890625" height="44" opacity="0.2"/></g><g transform="translate(-2126,-1478) scale(1,1)"><rect fill="#ffffff" stroke="none" x="2144" y="1792" width="121.6962890625" height="44"/></g><g transform="translate(-2126,-1478) scale(1,1)"><path fill="none" stroke="#000000" d="M 2144 1792 L 2265.6962890625 1792 L 2265.6962890625 1836 L 2144 1836 L 2144 1792 Z Z" stroke-miterlimit="10"/></g><g transform="translate(-2126,-1478) scale(1,1)"><g><path fill="none" stroke="none"/><text fill="#000000" stroke="none" font-family="Arial" font-size="13px" font-style="normal" font-weight="bold" text-decoration="none" x="2152.464111328125" y="1811.5">java.time.Duration</text></g></g><g transform="translate(-2126,-1478) scale(1,1)"><rect fill="#C0C0C0" stroke="none" x="3015" y="1519" width="352" height="53" opacity="0.2"/></g><g transform="translate(-2126,-1478) scale(1,1)"><rect fill="#ffffff" stroke="none" x="3008" y="1512" width="352" height="53"/></g><g transform="translate(-2126,-1478) scale(1,1)"><path fill="none" stroke="#000000" d="M 3008 1512 L 3360 1512 L 3360 1565 L 3008 1565 L 3008 1512 Z Z" stroke-miterlimit="10"/></g><g transform="translate(-2126,-1478) scale(1,1)"><path fill="#ffffff" stroke="none" d="M 3334 1529 C 3334 1524.0294368 3338.0294368 1520 3343 1520 C 3347.9705632 1520 3352 1524.0294368 3352 1529 C 3352 1533.9705632 3347.9705632 1538 3343 1538 C 3338.0294368 1538 3334 1533.9705632 3334 1529 Z"/></g><g transform="translate(-2126,-1478) scale(1,1)"><path fill="none" stroke="#000000" d="M 3334 1529 C 3334 1524.0294368 3338.0294368 1520 3343 1520 C 3347.9705632 1520 3352 1524.0294368 3352 1529 C 3352 1533.9705632 3347.9705632 1538 3343 1538 C 3338.0294368 1538 3334 1533.9705632 3334 1529 Z" stroke-miterlimit="10"/></g><g transform="translate(-2126,-1478) scale(1,1)"><g><path fill="none" stroke="none"/><text fill="#000000" stroke="none" font-family="Arial" font-size="13px" font-style="normal" font-weight="bold" text-decoration="none" x="3045.9228515625" y="1531.5">org.salespointframework.cork.DataInitializer</text></g></g><g transform="translate(-2126,-1478) scale(1,1)"><rect fill="#C0C0C0" stroke="none" x="3655" y="2255" width="141.22998046875" height="53" opacity="0.2"/></g><g transform="translate(-2126,-1478) scale(1,1)"><rect fill="#ffffff" stroke="none" x="3648" y="2248" width="141.22998046875" height="53"/></g><g transform="translate(-2126,-1478) scale(1,1)"><path fill="none" stroke="#000000" d="M 3648 2248 L 3789.22998046875 2248 L 3789.22998046875 2301 L 3648 2301 L 3648 2248 Z Z" stroke-miterlimit="10"/></g><g transform="translate(-2126,-1478) scale(1,1)"><path fill="#ffffff" stroke="none" d="M 3763.22998046875 2265 C 3763.22998046875 2260.0294368 3767.25941726875 2256 3772.22998046875 2256 C 3777.20054366875 2256 3781.22998046875 2260.0294368 3781.22998046875 2265 C 3781.22998046875 2269.9705632 3777.20054366875 2274 3772.22998046875 2274 C 3767.25941726875 2274 3763.22998046875 2269.9705632 3763.22998046875 2265 Z"/></g><g transform="translate(-2126,-1478) scale(1,1)"><path fill="none" stroke="#000000" d="M 3763.22998046875 2265 C 3763.22998046875 2260.0294368 3767.25941726875 2256 3772.22998046875 2256 C 3777.20054366875 2256 3781.22998046875 2260.0294368 3781.22998046875 2265 C 3781.22998046875 2269.9705632 3777.20054366875 2274 3772.22998046875 2274 C 3767.25941726875 2274 3763.22998046875 2269.9705632 3763.22998046875 2265 Z" stroke-miterlimit="10"/></g><g transform="translate(-2126,-1478) scale(1,1)"><g><path fill="none" stroke="none"/><text fill="#000000" stroke="none" font-family="Arial" font-size="13px" font-style="normal" font-weight="bold" text-decoration="none" x="3661.81005859375" y="2267.5">org.slf4j.Logger</text></g></g><g transform="translate(-2126,-1478) scale(1,1)"><path fill="none" stroke="#000000" d="M 2472 1896 L 2296 1896" stroke-miterlimit="10"/></g><g transform="translate(-2126,-1478) scale(1,1)"><path fill="none" stroke="#000000" d="M 2306.162674857624 1891.7904822439841 L 2296 1896 L 2306.162674857624 1900.2095177560159" stroke-miterlimit="10"/></g><g transform="translate(-2126,-1478) scale(1,1)"><g><path fill="none" stroke="none"/><text fill="#000000" stroke="none" font-family="Arial" font-size="13px" font-style="normal" font-weight="normal" text-decoration="none" x="2362.13134765625" y="1842.5">-breakfastDate</text></g></g><g transform="translate(-2126,-1478) scale(1,1)"><path fill="none" stroke="#000000" d="M 2472 1816 L 2266 1816" stroke-miterlimit="10"/></g><g transform="translate(-2126,-1478) scale(1,1)"><path fill="none" stroke="#000000" d="M 2276.162674857624 1811.7904822439841 L 2266 1816 L 2276.162674857624 1820.2095177560159" stroke-miterlimit="10"/></g><g transform="translate(-2126,-1478) scale(1,1)"><g><path fill="none" stroke="none"/><text fill="#000000" stroke="none" font-family="Arial" font-size="13px" font-style="normal" font-weight="normal" text-decoration="none" x="2345.13134765625" y="1804.5">-awaitBreakfastDuration</text></g></g><g transform="translate(-2126,-1478) scale(1,1)"><rect fill="#C0C0C0" stroke="none" x="2799" y="2455" width="248.1162109375" height="44" opacity="0.2"/></g><g transform="translate(-2126,-1478) scale(1,1)"><rect fill="#ffffff" stroke="none" x="2792" y="2448" width="248.1162109375" height="44"/></g><g transform="translate(-2126,-1478) scale(1,1)"><path fill="none" stroke="#000000" d="M 2792 2448 L 3040.1162109375 2448 L 3040.1162109375 2492 L 2792 2492 L 2792 2448 Z Z" stroke-miterlimit="10"/></g><g transform="translate(-2126,-1478) scale(1,1)"><g><path fill="none" stroke="none"/><text fill="#000000" stroke="none" font-family="Arial" font-size="13px" font-style="normal" font-weight="bold" text-decoration="none" x="2806.234130859375" y="2467.5">org.salespointframework.UserAccount</text></g></g><g transform="translate(-2126,-1478) scale(1,1)"><path fill="none" stroke="#000000" d="M 3144 2100 L 3144 2112 L 3016 2112 L 3016 2448" stroke-miterlimit="10"/></g><g transform="translate(-2126,-1478) scale(1,1)"><path fill="none" stroke="#000000" d="M 3011.790482243984 2437.837325142376 L 3016 2448 L 3020.209517756016 2437.837325142376" stroke-miterlimit="10"/></g><g transform="translate(-2126,-1478) scale(1,1)"><g><path fill="none" stroke="none"/><text fill="#000000" stroke="none" font-family="Arial" font-size="13px" font-style="normal" font-weight="normal" text-decoration="none" x="3041.13134765625" y="2124.5">-userAccount</text></g></g><g transform="translate(-2126,-1478) scale(1,1)"><path fill="none" stroke="#000000" d="M 3528 2008 L 3544 2008 L 3544 1680 L 2619 1680 L 2619 1696" stroke-miterlimit="10"/></g><g transform="translate(-2126,-1478) scale(1,1)"><path fill="none" stroke="#000000" d="M 2614.790482243984 1685.837325142376 L 2619 1696 L 2623.209517756016 1685.837325142376" stroke-miterlimit="10"/></g><g transform="translate(-2126,-1478) scale(1,1)"><g><path fill="none" stroke="none"/><text fill="#000000" stroke="none" font-family="Arial" font-size="13px" font-style="normal" font-weight="normal" text-decoration="none" x="3514.13134765625" y="1701.5">-company</text></g></g><g transform="translate(-2126,-1478) scale(1,1)"><path fill="none" stroke="#000000" d="M 3504 1928 L 3560 1928 L 3560 2328 L 2928 2328" stroke-miterlimit="10"/></g><g transform="translate(-2126,-1478) scale(1,1)"><path fill="none" stroke="#000000" d="M 2938.162674857624 2323.790482243984 L 2928 2328 L 2938.162674857624 2332.209517756016" stroke-miterlimit="10"/></g><g transform="translate(-2126,-1478) scale(1,1)"><g><path fill="none" stroke="none"/><text fill="#000000" stroke="none" font-family="Arial" font-size="13px" font-style="normal" font-weight="normal" text-decoration="none" x="3447.13134765625" y="2339.5">-userManagement</text></g></g><g transform="translate(-2126,-1478) scale(1,1)"><path fill="none" stroke="#000000" d="M 2928 2248 L 3032 2248" stroke-miterlimit="10"/></g><g transform="translate(-2126,-1478) scale(1,1)"><path fill="none" stroke="#000000" d="M 3021.837325142376 2252.209517756016 L 3032 2248 L 3021.837325142376 2243.790482243984" stroke-miterlimit="10"/></g><g transform="translate(-2126,-1478) scale(1,1)"><g><path fill="none" stroke="none"/><text fill="#000000" stroke="none" font-family="Arial" font-size="13px" font-style="normal" font-weight="normal" text-decoration="none" x="2945.13134765625" y="2244.5">-users</text></g></g><g transform="translate(-2126,-1478) scale(1,1)"><rect fill="#C0C0C0" stroke="none" x="2535" y="2455" width="244.5107421875" height="44" opacity="0.2"/></g><g transform="translate(-2126,-1478) scale(1,1)"><rect fill="#ffffff" stroke="none" x="2528" y="2448" width="244.5107421875" height="44"/></g><g transform="translate(-2126,-1478) scale(1,1)"><path fill="none" stroke="#000000" d="M 2528 2448 L 2772.5107421875 2448 L 2772.5107421875 2492 L 2528 2492 L 2528 2448 Z Z" stroke-miterlimit="10"/></g><g transform="translate(-2126,-1478) scale(1,1)"><g><path fill="none" stroke="none"/><text fill="#000000" stroke="none" font-family="Arial" font-size="13px" font-style="normal" font-weight="bold" text-decoration="none" x="2542.23095703125" y="2467.5">org.salespointframework.useraccount</text></g></g><g transform="translate(-2126,-1478) scale(1,1)"><path fill="none" stroke="#000000" d="M 2592 2360 L 2592 2448" stroke-miterlimit="10"/></g><g transform="translate(-2126,-1478) scale(1,1)"><path fill="none" stroke="#000000" d="M 2587.790482243984 2437.837325142376 L 2592 2448 L 2596.209517756016 2437.837325142376" stroke-miterlimit="10"/></g><g transform="translate(-2126,-1478) scale(1,1)"><g><path fill="none" stroke="none"/><text fill="#000000" stroke="none" font-family="Arial" font-size="13px" font-style="normal" font-weight="normal" text-decoration="none" x="2565.13134765625" y="2428.5">-userAccounts</text></g></g><g transform="translate(-2126,-1478) scale(1,1)"><path fill="none" stroke="#000000" d="M 3096 1976 L 3096 1565" stroke-miterlimit="10" stroke-dasharray="3"/></g><g transform="translate(-2126,-1478) scale(1,1)"><path fill="#FFFFFF" stroke="none" d="M 3104.4190355120318 1585.3253497152482 L 3096 1565 L 3087.5809644879682 1585.3253497152482"/></g><g transform="translate(-2126,-1478) scale(1,1)"><path fill="none" stroke="#000000" d="M 3104.4190355120318 1585.3253497152482 L 3096 1565 L 3087.5809644879682 1585.3253497152482 L 3104.4190355120318 1585.3253497152482" stroke-miterlimit="10"/></g><g transform="translate(-2126,-1478) scale(1,1)"><path fill="none" stroke="#000000" d="M 2976 2064 L 2976 2144 L 3696 2144 L 3696 2248" stroke-miterlimit="10"/></g><g transform="translate(-2126,-1478) scale(1,1)"><path fill="none" stroke="#000000" d="M 3691.790482243984 2237.837325142376 L 3696 2248 L 3700.209517756016 2237.837325142376" stroke-miterlimit="10"/></g><g transform="translate(-2126,-1478) scale(1,1)"><g><path fill="none" stroke="none"/><text fill="#000000" stroke="none" font-family="Arial" font-size="13px" font-style="normal" font-weight="normal" text-decoration="none" x="3320.13134765625" y="2135.5">-LOG</text></g></g><g transform="translate(-2126,-1478) scale(1,1)"><rect fill="#C0C0C0" stroke="none" x="3063" y="2455" width="442.48974609375" height="53" opacity="0.2"/></g><g transform="translate(-2126,-1478) scale(1,1)"><rect fill="#ffffff" stroke="none" x="3056" y="2448" width="442.48974609375" height="53"/></g><g transform="translate(-2126,-1478) scale(1,1)"><path fill="none" stroke="#000000" d="M 3056 2448 L 3498.48974609375 2448 L 3498.48974609375 2501 L 3056 2501 L 3056 2448 Z Z" stroke-miterlimit="10"/></g><g transform="translate(-2126,-1478) scale(1,1)"><path fill="#ffffff" stroke="none" d="M 3472.48974609375 2465 C 3472.48974609375 2460.0294368 3476.51918289375 2456 3481.48974609375 2456 C 3486.46030929375 2456 3490.48974609375 2460.0294368 3490.48974609375 2465 C 3490.48974609375 2469.9705632 3486.46030929375 2474 3481.48974609375 2474 C 3476.51918289375 2474 3472.48974609375 2469.9705632 3472.48974609375 2465 Z"/></g><g transform="translate(-2126,-1478) scale(1,1)"><path fill="none" stroke="#000000" d="M 3472.48974609375 2465 C 3472.48974609375 2460.0294368 3476.51918289375 2456 3481.48974609375 2456 C 3486.46030929375 2456 3490.48974609375 2460.0294368 3490.48974609375 2465 C 3490.48974609375 2469.9705632 3486.46030929375 2474 3481.48974609375 2474 C 3476.51918289375 2474 3472.48974609375 2469.9705632 3472.48974609375 2465 Z" stroke-miterlimit="10"/></g><g transform="translate(-2126,-1478) scale(1,1)"><g><path fill="none" stroke="none"/><text fill="#000000" stroke="none" font-family="Arial" font-size="13px" font-style="normal" font-weight="bold" text-decoration="none" x="3080.2646484375" y="2467.5">org.salespointframework.useraccount.UserAccountManagement</text></g></g><g transform="translate(-2126,-1478) scale(1,1)"><path fill="none" stroke="#000000" d="M 2997 2064 L 2997 2400 L 3144 2400 L 3144 2448" stroke-miterlimit="10"/></g><g transform="translate(-2126,-1478) scale(1,1)"><path fill="none" stroke="#000000" d="M 3139.790482243984 2437.837325142376 L 3144 2448 L 3148.209517756016 2437.837325142376" stroke-miterlimit="10"/></g><g transform="translate(-2126,-1478) scale(1,1)"><g><path fill="none" stroke="none"/><text fill="#000000" stroke="none" font-family="Arial" font-size="13px" font-style="normal" font-weight="normal" text-decoration="none" x="3083.13134765625" y="2428.5">-userAccountManagement</text></g></g><g transform="translate(-2126,-1478) scale(1,1)"><path fill="none" stroke="#000000" d="M 2944 2064 L 2944 2200 L 2928 2200" stroke-miterlimit="10"/></g><g transform="translate(-2126,-1478) scale(1,1)"><path fill="none" stroke="#000000" d="M 2938.162674857624 2195.790482243984 L 2928 2200 L 2938.162674857624 2204.209517756016" stroke-miterlimit="10"/></g><g transform="translate(-2126,-1478) scale(1,1)"><g><path fill="none" stroke="none"/><text fill="#000000" stroke="none" font-family="Arial" font-size="13px" font-style="normal" font-weight="normal" text-decoration="none" x="2864.13134765625" y="2156.5">-userManagement</text></g></g><g transform="translate(-2126,-1478) scale(1,1)"><path fill="none" stroke="#000000" d="M 2960 2064 L 2960 2208 L 3032 2208" stroke-miterlimit="10"/></g><g transform="translate(-2126,-1478) scale(1,1)"><path fill="none" stroke="#000000" d="M 3021.837325142376 2212.209517756016 L 3032 2208 L 3021.837325142376 2203.790482243984" stroke-miterlimit="10"/></g><g transform="translate(-2126,-1478) scale(1,1)"><g><path fill="none" stroke="none"/><text fill="#000000" stroke="none" font-family="Arial" font-size="13px" font-style="normal" font-weight="normal" text-decoration="none" x="2944.13134765625" y="2188.5">-userRepository</text></g></g><g transform="translate(-2126,-1478) scale(1,1)"><rect fill="#C0C0C0" stroke="none" x="3271" y="2385" width="391.427734375" height="53" opacity="0.2"/></g><g transform="translate(-2126,-1478) scale(1,1)"><rect fill="#C0C0C0" stroke="none" x="3598.8369140625" y="2367" width="72.5908203125" height="22" opacity="0.2"/></g><g transform="translate(-2126,-1478) scale(1,1)"><rect fill="#ffffff" stroke="none" x="3264" y="2378" width="391.427734375" height="53"/></g><g transform="translate(-2126,-1478) scale(1,1)"><path fill="none" stroke="#000000" d="M 3264 2378 L 3655.427734375 2378 L 3655.427734375 2431 L 3264 2431 L 3264 2378 Z Z" stroke-miterlimit="10"/></g><g transform="translate(-2126,-1478) scale(1,1)"><path fill="#ffffff" stroke="none" d="M 3629.427734375 2395 C 3629.427734375 2390.0294368 3633.457171175 2386 3638.427734375 2386 C 3643.398297575 2386 3647.427734375 2390.0294368 3647.427734375 2395 C 3647.427734375 2399.9705632 3643.398297575 2404 3638.427734375 2404 C 3633.457171175 2404 3629.427734375 2399.9705632 3629.427734375 2395 Z"/></g><g transform="translate(-2126,-1478) scale(1,1)"><path fill="none" stroke="#000000" d="M 3629.427734375 2395 C 3629.427734375 2390.0294368 3633.457171175 2386 3638.427734375 2386 C 3643.398297575 2386 3647.427734375 2390.0294368 3647.427734375 2395 C 3647.427734375 2399.9705632 3643.398297575 2404 3638.427734375 2404 C 3633.457171175 2404 3629.427734375 2399.9705632 3629.427734375 2395 Z" stroke-miterlimit="10"/></g><g transform="translate(-2126,-1478) scale(1,1)"><g><path fill="none" stroke="none"/><text fill="#000000" stroke="none" font-family="Arial" font-size="13px" font-style="normal" font-weight="bold" text-decoration="none" x="3302.188720703125" y="2397.5">org.springframework.data.repository.CrudRepository</text></g></g><g transform="translate(-2126,-1478) scale(1,1)"><rect fill="#ffffff" stroke="none" x="3591.8369140625" y="2360" width="72.5908203125" height="22"/></g><g transform="translate(-2126,-1478) scale(1,1)"><path fill="none" stroke="#000000" d="M 3591.8369140625 2360 L 3664.427734375 2360 L 3664.427734375 2382 L 3591.8369140625 2382 L 3591.8369140625 2360 Z Z" stroke-miterlimit="10" stroke-dasharray="3"/></g><g transform="translate(-2126,-1478) scale(1,1)"><g><path fill="none" stroke="none"/><text fill="#000000" stroke="none" font-family="Arial" font-size="13px" font-style="normal" font-weight="normal" text-decoration="none" x="3596.8369140625" y="2377.5">User; Long</text></g></g><g transform="translate(-2126,-1478) scale(1,1)"><path fill="none" stroke="#000000" d="M 3341 2304 L 3341 2360" stroke-miterlimit="10"/></g><g transform="translate(-2126,-1478) scale(1,1)"><path fill="#FFFFFF" stroke="none" d="M 3332.5809644879682 2339.674650284752 L 3341 2360 L 3349.4190355120318 2339.674650284752"/></g><g transform="translate(-2126,-1478) scale(1,1)"><path fill="none" stroke="#000000" d="M 3332.5809644879682 2339.674650284752 L 3341 2360 L 3349.4190355120318 2339.674650284752 L 3332.5809644879682 2339.674650284752" stroke-miterlimit="10"/></g><g transform="translate(-2126,-1478) scale(1,1)"><rect fill="#C0C0C0" stroke="none" x="2863" y="1495" width="50.919921875" height="44" opacity="0.2"/></g><g transform="translate(-2126,-1478) scale(1,1)"><rect fill="#ffffff" stroke="none" x="2856" y="1488" width="50.919921875" height="44"/></g><g transform="translate(-2126,-1478) scale(1,1)"><path fill="none" stroke="#000000" d="M 2856 1488 L 2906.919921875 1488 L 2906.919921875 1532 L 2856 1532 L 2856 1488 Z Z" stroke-miterlimit="10"/></g><g transform="translate(-2126,-1478) scale(1,1)"><g><path fill="none" stroke="none"/><text fill="#000000" stroke="none" font-family="Arial" font-size="13px" font-style="normal" font-weight="bold" text-decoration="none" x="2872.07177734375" y="1507.5">Util</text></g></g><g transform="translate(-2126,-1478) scale(1,1)"><path fill="none" stroke="#000000" d="M 2913 1631 L 2887 1533" stroke-miterlimit="10" stroke-dasharray="3"/></g><g transform="translate(-2126,-1478) scale(1,1)"><path fill="none" stroke="#000000" d="M 2893.674820508501 1541.7433844236255 L 2887 1533 L 2885.537304428298 1543.9023172612303" stroke-miterlimit="10"/></g><g transform="translate(-2126,-1478) scale(1,1)"><g><path fill="none" stroke="none"/><text fill="#000000" stroke="none" font-family="Arial" font-size="13px" font-style="normal" font-weight="normal" text-decoration="none" x="2867.2958984375" y="1591.5">«use»</text></g></g></g></svg>