<svg version="1.1" xmlns="http://www.w3.org/2000/svg" xmlns:xlink="http://www.w3.org/1999/xlink" width="1452" height="1331"><defs/><g><g transform="translate(-3086,-302) scale(1,1)"><rect fill="#C0C0C0" stroke="none" x="3103" y="375" width="147.19999999999982" height="15" opacity="0.2"/></g><g transform="translate(-3086,-302) scale(1,1)"><rect fill="#C0C0C0" stroke="none" x="3103" y="389" width="368" height="170" opacity="0.2"/></g><g transform="translate(-3086,-302) scale(1,1)"><rect fill="#ffffff" stroke="none" x="3096" y="383" width="368" height="169"/></g><g transform="translate(-3086,-302) scale(1,1)"><path fill="none" stroke="#000000" d="M 3096 383 L 3464 383 L 3464 552 L 3096 552 L 3096 383 Z Z" stroke-miterlimit="10"/></g><g transform="translate(-3086,-302) scale(1,1)"><rect fill="#ffffff" stroke="none" x="3096" y="368" width="147.19999999999982" height="15"/></g><g transform="translate(-3086,-302) scale(1,1)"><path fill="none" stroke="#000000" d="M 3096 368 L 3243.2 368 L 3243.2 383 L 3096 383 L 3096 368 Z Z" stroke-miterlimit="10"/></g><g transform="translate(-3086,-302) scale(1,1)"><rect fill="#ffffff" stroke="none" x="3096" y="382" width="368" height="170"/></g><g transform="translate(-3086,-302) scale(1,1)"><path fill="none" stroke="#000000" d="M 3096 382 L 3464 382 L 3464 552 L 3096 552 L 3096 382 Z Z" stroke-miterlimit="10"/></g><g transform="translate(-3086,-302) scale(1,1)"><g><path fill="none" stroke="none"/><text fill="#000000" stroke="none" font-family="Arial" font-size="13px" font-style="normal" font-weight="bold" text-decoration="none" x="3253.263671875" y="402.5">Inventory</text></g></g><g transform="translate(-3086,-302) scale(1,1)"><rect fill="#C0C0C0" stroke="none" x="3775" y="319" width="304" height="15" opacity="0.2"/></g><g transform="translate(-3086,-302) scale(1,1)"><rect fill="#C0C0C0" stroke="none" x="3775" y="333" width="760" height="1098" opacity="0.2"/></g><g transform="translate(-3086,-302) scale(1,1)"><rect fill="#ffffff" stroke="none" x="3768" y="327" width="760" height="1097"/></g><g transform="translate(-3086,-302) scale(1,1)"><path fill="none" stroke="#000000" d="M 3768 327 L 4528 327 L 4528 1424 L 3768 1424 L 3768 327 Z Z" stroke-miterlimit="10"/></g><g transform="translate(-3086,-302) scale(1,1)"><rect fill="#ffffff" stroke="none" x="3768" y="312" width="304" height="15"/></g><g transform="translate(-3086,-302) scale(1,1)"><path fill="none" stroke="#000000" d="M 3768 312 L 4072 312 L 4072 327 L 3768 327 L 3768 312 Z Z" stroke-miterlimit="10"/></g><g transform="translate(-3086,-302) scale(1,1)"><rect fill="#ffffff" stroke="none" x="3768" y="326" width="760" height="1098"/></g><g transform="translate(-3086,-302) scale(1,1)"><path fill="none" stroke="#000000" d="M 3768 326 L 4528 326 L 4528 1424 L 3768 1424 L 3768 326 Z Z" stroke-miterlimit="10"/></g><g transform="translate(-3086,-302) scale(1,1)"><g><path fill="none" stroke="none"/><text fill="#000000" stroke="none" font-family="Arial" font-size="13px" font-style="normal" font-weight="bold" text-decoration="none" x="4125.595947265625" y="346.5">Catalog</text></g></g><g transform="translate(-3086,-302) scale(1,1)"><rect fill="#C0C0C0" stroke="none" x="3991" y="519" width="400" height="200" opacity="0.2"/></g><g transform="translate(-3086,-302) scale(1,1)"><rect fill="#ffffff" stroke="none" x="3984" y="512" width="400" height="200"/></g><g transform="translate(-3086,-302) scale(1,1)"><path fill="none" stroke="#000000" d="M 3984 512 L 4384 512 L 4384 712 L 3984 712 L 3984 512 Z Z" stroke-miterlimit="10"/></g><g transform="translate(-3086,-302) scale(1,1)"><path fill="none" stroke="#000000" d="M 3984 537 L 4384 537" stroke-miterlimit="10"/></g><g transform="translate(-3086,-302) scale(1,1)"><path fill="none" stroke="#000000" d="M 3984 547 L 4384 547" stroke-miterlimit="10"/></g><g transform="translate(-3086,-302) scale(1,1)"><g><path fill="none" stroke="none"/><text fill="#000000" stroke="none" font-family="Arial" font-size="13px" font-style="normal" font-weight="bold" text-decoration="none" x="4141.7373046875" y="531.5">BreakFastItem</text></g></g><g transform="translate(-3086,-302) scale(1,1)"><g><path fill="none" stroke="none"/><text fill="#000000" stroke="none" font-family="Arial" font-size="13px" font-style="normal" font-weight="normal" text-decoration="none" x="3989" y="564.5">+BreakfastItem()</text></g></g><g transform="translate(-3086,-302) scale(1,1)"><g><path fill="none" stroke="none"/><text fill="#000000" stroke="none" font-family="Arial" font-size="13px" font-style="normal" font-weight="normal" text-decoration="none" x="3989" y="579.5">+BreakfastItem(name: String, description: String, price: Money,</text><text fill="#000000" stroke="none" font-family="Arial" font-size="13px" font-style="normal" font-weight="normal" text-decoration="none" x="3989" y="592.5">type: Type)</text></g></g><g transform="translate(-3086,-302) scale(1,1)"><rect fill="#C0C0C0" stroke="none" x="4063" y="631" width="95.72802734375" height="95" opacity="0.2"/></g><g transform="translate(-3086,-302) scale(1,1)"><rect fill="#ffffff" stroke="none" x="4056" y="624" width="95.72802734375" height="95"/></g><g transform="translate(-3086,-302) scale(1,1)"><path fill="none" stroke="#000000" d="M 4056 624 L 4151.72802734375 624 L 4151.72802734375 719 L 4056 719 L 4056 624 Z Z" stroke-miterlimit="10"/></g><g transform="translate(-3086,-302) scale(1,1)"><path fill="none" stroke="#000000" d="M 4056 700 L 4151.72802734375 700" stroke-miterlimit="10"/></g><g transform="translate(-3086,-302) scale(1,1)"><path fill="none" stroke="#000000" d="M 4056 710 L 4151.72802734375 710" stroke-miterlimit="10"/></g><g transform="translate(-3086,-302) scale(1,1)"><path fill="none" stroke="#000000" d="M 4056 662 L 4151.72802734375 662" stroke-miterlimit="10"/></g><g transform="translate(-3086,-302) scale(1,1)"><g><path fill="none" stroke="none"/><text fill="#000000" stroke="none" font-family="Arial" font-size="13px" font-style="normal" font-weight="normal" text-decoration="none" x="4060.5" y="641.5">«enumeration»</text></g></g><g transform="translate(-3086,-302) scale(1,1)"><g><path fill="none" stroke="none"/><text fill="#000000" stroke="none" font-family="Arial" font-size="13px" font-style="normal" font-weight="bold" text-decoration="none" x="4089.772216796875" y="656.5">Type</text></g></g><g transform="translate(-3086,-302) scale(1,1)"><g><path fill="none" stroke="none"/><text fill="#000000" stroke="none" font-family="Arial" font-size="13px" font-style="normal" font-weight="normal" text-decoration="none" x="4061" y="679.5">DISH</text></g></g><g transform="translate(-3086,-302) scale(1,1)"><g><path fill="none" stroke="none"/><text fill="#000000" stroke="none" font-family="Arial" font-size="13px" font-style="normal" font-weight="normal" text-decoration="none" x="4061" y="694.5">BEVERAGE</text></g></g><g transform="translate(-3086,-302) scale(1,1)"><rect fill="#C0C0C0" stroke="none" x="3983" y="359" width="448" height="128" opacity="0.2"/></g><g transform="translate(-3086,-302) scale(1,1)"><rect fill="#ffffff" stroke="none" x="3976" y="352" width="448" height="128"/></g><g transform="translate(-3086,-302) scale(1,1)"><path fill="none" stroke="#000000" d="M 3976 352 L 4424 352 L 4424 480 L 3976 480 L 3976 352 Z Z" stroke-miterlimit="10"/></g><g transform="translate(-3086,-302) scale(1,1)"><path fill="none" stroke="#000000" d="M 3976 377 L 4424 377" stroke-miterlimit="10"/></g><g transform="translate(-3086,-302) scale(1,1)"><path fill="none" stroke="#000000" d="M 3976 387 L 4424 387" stroke-miterlimit="10"/></g><g transform="translate(-3086,-302) scale(1,1)"><g><path fill="none" stroke="none"/><text fill="#000000" stroke="none" font-family="Arial" font-size="13px" font-style="normal" font-weight="bold" text-decoration="none" x="4149.418701171875" y="371.5">CatalogController</text></g></g><g transform="translate(-3086,-302) scale(1,1)"><g><path fill="none" stroke="none"/><text fill="#000000" stroke="none" font-family="Arial" font-size="13px" font-style="normal" font-weight="normal" text-decoration="none" x="3981" y="404.5">+CatalogController(catalog: MampfCatalog, inventory: Inventory)</text></g></g><g transform="translate(-3086,-302) scale(1,1)"><g><path fill="none" stroke="none"/><text fill="#000000" stroke="none" font-family="Arial" font-size="13px" font-style="normal" font-weight="normal" text-decoration="none" x="3981" y="419.5">+itemsCatalog(model: Model): String</text></g></g><g transform="translate(-3086,-302) scale(1,1)"><g><path fill="none" stroke="none"/><text fill="#000000" stroke="none" font-family="Arial" font-size="13px" font-style="normal" font-weight="normal" text-decoration="none" x="3981" y="434.5">+catalogDomain(domain: String, model: Model): String</text></g></g><g transform="translate(-3086,-302) scale(1,1)"><g><path fill="none" stroke="none"/><text fill="#000000" stroke="none" font-family="Arial" font-size="13px" font-style="normal" font-weight="normal" text-decoration="none" x="3981" y="449.5">+mobileBreakfast(model: Model): String</text></g></g><g transform="translate(-3086,-302) scale(1,1)"><g><path fill="none" stroke="none"/><text fill="#000000" stroke="none" font-family="Arial" font-size="13px" font-style="normal" font-weight="normal" text-decoration="none" x="3981" y="464.5">+detail(model: Model, item: Item): String</text></g></g><g transform="translate(-3086,-302) scale(1,1)"><rect fill="#C0C0C0" stroke="none" x="3991" y="735" width="400" height="320" opacity="0.2"/></g><g transform="translate(-3086,-302) scale(1,1)"><rect fill="#ffffff" stroke="none" x="3984" y="728" width="400" height="320"/></g><g transform="translate(-3086,-302) scale(1,1)"><path fill="none" stroke="#000000" d="M 3984 728 L 4384 728 L 4384 1048 L 3984 1048 L 3984 728 Z Z" stroke-miterlimit="10"/></g><g transform="translate(-3086,-302) scale(1,1)"><g><path fill="none" stroke="none"/><text fill="#000000" stroke="none" font-family="Arial" font-size="13px" font-style="normal" font-weight="bold" text-decoration="none" x="4171.358642578125" y="747.5">Item</text></g></g><g transform="translate(-3086,-302) scale(1,1)"><rect fill="#C0C0C0" stroke="none" x="4015" y="887" width="131.103515625" height="125" opacity="0.2"/></g><g transform="translate(-3086,-302) scale(1,1)"><rect fill="#ffffff" stroke="none" x="4008" y="880" width="131.103515625" height="125"/></g><g transform="translate(-3086,-302) scale(1,1)"><path fill="none" stroke="#000000" d="M 4008 880 L 4139.103515625 880 L 4139.103515625 1005 L 4008 1005 L 4008 880 Z Z" stroke-miterlimit="10"/></g><g transform="translate(-3086,-302) scale(1,1)"><path fill="none" stroke="#000000" d="M 4008 986 L 4139.103515625 986" stroke-miterlimit="10"/></g><g transform="translate(-3086,-302) scale(1,1)"><path fill="none" stroke="#000000" d="M 4008 996 L 4139.103515625 996" stroke-miterlimit="10"/></g><g transform="translate(-3086,-302) scale(1,1)"><path fill="none" stroke="#000000" d="M 4008 918 L 4139.103515625 918" stroke-miterlimit="10"/></g><g transform="translate(-3086,-302) scale(1,1)"><g><path fill="none" stroke="none"/><text fill="#000000" stroke="none" font-family="Arial" font-size="13px" font-style="normal" font-weight="normal" text-decoration="none" x="4030.187744140625" y="897.5">«enumeration»</text></g></g><g transform="translate(-3086,-302) scale(1,1)"><g><path fill="none" stroke="none"/><text fill="#000000" stroke="none" font-family="Arial" font-size="13px" font-style="normal" font-weight="bold" text-decoration="none" x="4051.154052734375" y="912.5">Domain</text></g></g><g transform="translate(-3086,-302) scale(1,1)"><g><path fill="none" stroke="none"/><text fill="#000000" stroke="none" font-family="Arial" font-size="13px" font-style="normal" font-weight="normal" text-decoration="none" x="4013" y="935.5">EVENTCATERING</text></g></g><g transform="translate(-3086,-302) scale(1,1)"><g><path fill="none" stroke="none"/><text fill="#000000" stroke="none" font-family="Arial" font-size="13px" font-style="normal" font-weight="normal" text-decoration="none" x="4013" y="950.5">PARTYSERVICE</text></g></g><g transform="translate(-3086,-302) scale(1,1)"><g><path fill="none" stroke="none"/><text fill="#000000" stroke="none" font-family="Arial" font-size="13px" font-style="normal" font-weight="normal" text-decoration="none" x="4013" y="965.5">OBILE_BREAKFAST</text></g></g><g transform="translate(-3086,-302) scale(1,1)"><g><path fill="none" stroke="none"/><text fill="#000000" stroke="none" font-family="Arial" font-size="13px" font-style="normal" font-weight="normal" text-decoration="none" x="4013" y="980.5">ENT_A_COOK</text></g></g><g transform="translate(-3086,-302) scale(1,1)"><rect fill="#C0C0C0" stroke="none" x="4215" y="863" width="132.5380859375" height="170" opacity="0.2"/></g><g transform="translate(-3086,-302) scale(1,1)"><rect fill="#ffffff" stroke="none" x="4208" y="856" width="132.5380859375" height="170"/></g><g transform="translate(-3086,-302) scale(1,1)"><path fill="none" stroke="#000000" d="M 4208 856 L 4340.5380859375 856 L 4340.5380859375 1026 L 4208 1026 L 4208 856 Z Z" stroke-miterlimit="10"/></g><g transform="translate(-3086,-302) scale(1,1)"><path fill="none" stroke="#000000" d="M 4208 1007 L 4340.5380859375 1007" stroke-miterlimit="10"/></g><g transform="translate(-3086,-302) scale(1,1)"><path fill="none" stroke="#000000" d="M 4208 1017 L 4340.5380859375 1017" stroke-miterlimit="10"/></g><g transform="translate(-3086,-302) scale(1,1)"><path fill="none" stroke="#000000" d="M 4208 894 L 4340.5380859375 894" stroke-miterlimit="10"/></g><g transform="translate(-3086,-302) scale(1,1)"><g><path fill="none" stroke="none"/><text fill="#000000" stroke="none" font-family="Arial" font-size="13px" font-style="normal" font-weight="normal" text-decoration="none" x="4230.905029296875" y="873.5">«enumeration»</text></g></g><g transform="translate(-3086,-302) scale(1,1)"><g><path fill="none" stroke="none"/><text fill="#000000" stroke="none" font-family="Arial" font-size="13px" font-style="normal" font-weight="bold" text-decoration="none" x="4247.89453125" y="888.5">Category</text></g></g><g transform="translate(-3086,-302) scale(1,1)"><g><path fill="none" stroke="none"/><text fill="#000000" stroke="none" font-family="Arial" font-size="13px" font-style="normal" font-weight="normal" text-decoration="none" x="4213" y="911.5">FOOD</text></g></g><g transform="translate(-3086,-302) scale(1,1)"><g><path fill="none" stroke="none"/><text fill="#000000" stroke="none" font-family="Arial" font-size="13px" font-style="normal" font-weight="normal" text-decoration="none" x="4213" y="926.5">DECORATION</text></g></g><g transform="translate(-3086,-302) scale(1,1)"><g><path fill="none" stroke="none"/><text fill="#000000" stroke="none" font-family="Arial" font-size="13px" font-style="normal" font-weight="normal" text-decoration="none" x="4213" y="941.5">EQUIPMENT</text></g></g><g transform="translate(-3086,-302) scale(1,1)"><g><path fill="none" stroke="none"/><text fill="#000000" stroke="none" font-family="Arial" font-size="13px" font-style="normal" font-weight="normal" text-decoration="none" x="4213" y="956.5">STAFF</text></g></g><g transform="translate(-3086,-302) scale(1,1)"><g><path fill="none" stroke="none"/><text fill="#000000" stroke="none" font-family="Arial" font-size="13px" font-style="normal" font-weight="normal" text-decoration="none" x="4213" y="971.5">BUFFET</text></g></g><g transform="translate(-3086,-302) scale(1,1)"><g><path fill="none" stroke="none"/><text fill="#000000" stroke="none" font-family="Arial" font-size="13px" font-style="normal" font-weight="normal" text-decoration="none" x="4213" y="986.5">DINNER_EVENT</text></g></g><g transform="translate(-3086,-302) scale(1,1)"><g><path fill="none" stroke="none"/><text fill="#000000" stroke="none" font-family="Arial" font-size="13px" font-style="normal" font-weight="normal" text-decoration="none" x="4213" y="1001.5">SPEACIAL_OFFERS</text></g></g><g transform="translate(-3086,-302) scale(1,1)"><rect fill="#C0C0C0" stroke="none" x="4007" y="1079" width="360" height="57" opacity="0.2"/></g><g transform="translate(-3086,-302) scale(1,1)"><rect fill="#ffffff" stroke="none" x="4000" y="1072" width="360" height="57"/></g><g transform="translate(-3086,-302) scale(1,1)"><path fill="none" stroke="#000000" d="M 4000 1072 L 4360 1072 L 4360 1129 L 4000 1129 L 4000 1072 Z Z" stroke-miterlimit="10"/></g><g transform="translate(-3086,-302) scale(1,1)"><path fill="none" stroke="#000000" d="M 4000 1097 L 4360 1097" stroke-miterlimit="10"/></g><g transform="translate(-3086,-302) scale(1,1)"><path fill="none" stroke="#000000" d="M 4000 1107 L 4360 1107" stroke-miterlimit="10"/></g><g transform="translate(-3086,-302) scale(1,1)"><g><path fill="none" stroke="none"/><text fill="#000000" stroke="none" font-family="Arial" font-size="13px" font-style="normal" font-weight="bold" text-decoration="none" x="4118.21826171875" y="1091.5">CatalogDataInitializer</text></g></g><g transform="translate(-3086,-302) scale(1,1)"><g><path fill="none" stroke="none"/><text fill="#000000" stroke="none" font-family="Arial" font-size="13px" font-style="normal" font-weight="normal" text-decoration="none" x="4005" y="1124.5">+intialize(): void</text></g></g><g transform="translate(-3086,-302) scale(1,1)"><rect fill="#C0C0C0" stroke="none" x="4006.591796875" y="1287" width="352.1796875" height="124" opacity="0.2"/></g><g transform="translate(-3086,-302) scale(1,1)"><rect fill="#ffffff" stroke="none" x="3999.591796875" y="1280" width="352.1796875" height="124"/></g><g transform="translate(-3086,-302) scale(1,1)"><path fill="none" stroke="#000000" d="M 3999.591796875 1280 L 4351.771484375 1280 L 4351.771484375 1404 L 3999.591796875 1404 L 3999.591796875 1280 Z Z" stroke-miterlimit="10"/></g><g transform="translate(-3086,-302) scale(1,1)"><path fill="#ffffff" stroke="none" d="M 4325.771484375 1297 C 4325.771484375 1292.0294368 4329.800921175 1288 4334.771484375 1288 C 4339.742047575 1288 4343.771484375 1292.0294368 4343.771484375 1297 C 4343.771484375 1301.9705632 4339.742047575 1306 4334.771484375 1306 C 4329.800921175 1306 4325.771484375 1301.9705632 4325.771484375 1297 Z"/></g><g transform="translate(-3086,-302) scale(1,1)"><path fill="none" stroke="#000000" d="M 4325.771484375 1297 C 4325.771484375 1292.0294368 4329.800921175 1288 4334.771484375 1288 C 4339.742047575 1288 4343.771484375 1292.0294368 4343.771484375 1297 C 4343.771484375 1301.9705632 4339.742047575 1306 4334.771484375 1306 C 4329.800921175 1306 4325.771484375 1301.9705632 4325.771484375 1297 Z" stroke-miterlimit="10"/></g><g transform="translate(-3086,-302) scale(1,1)"><path fill="none" stroke="#000000" d="M 3999.591796875 1314 L 4351.771484375 1314" stroke-miterlimit="10"/></g><g transform="translate(-3086,-302) scale(1,1)"><path fill="none" stroke="#000000" d="M 3999.591796875 1337 L 4351.771484375 1337" stroke-miterlimit="10"/></g><g transform="translate(-3086,-302) scale(1,1)"><g><path fill="none" stroke="none"/><text fill="#000000" stroke="none" font-family="Arial" font-size="13px" font-style="normal" font-weight="bold" text-decoration="none" x="4121.41259765625" y="1299.5">MampfCatalog</text></g></g><g transform="translate(-3086,-302) scale(1,1)"><g><path fill="none" stroke="none"/><text fill="#000000" stroke="none" font-family="Arial" font-size="13px" font-style="normal" font-weight="normal" text-decoration="none" x="4004.591796875" y="1331.5">DEFAULT_SORT: Sort</text></g></g><g transform="translate(-3086,-302) scale(1,1)"><g><path fill="none" stroke="none"/><text fill="#000000" stroke="none" font-family="Arial" font-size="13px" font-style="normal" font-weight="normal" text-decoration="none" x="4004.591796875" y="1354.5">findByCateogry(cat: Category, sort: Sort): ArrayList&lt;Item&gt;</text></g></g><g transform="translate(-3086,-302) scale(1,1)"><g><path fill="none" stroke="none"/><text fill="#000000" stroke="none" font-family="Arial" font-size="13px" font-style="normal" font-weight="normal" text-decoration="none" x="4004.591796875" y="1369.5">findByCategory(cat: Category): ArrayList&lt;Item&gt;</text></g></g><g transform="translate(-3086,-302) scale(1,1)"><g><path fill="none" stroke="none"/><text fill="#000000" stroke="none" font-family="Arial" font-size="13px" font-style="normal" font-weight="normal" text-decoration="none" x="4004.591796875" y="1384.5">findByDomain(domain: Domain, sort: Sort): ArrayList&lt;Item&gt;</text></g></g><g transform="translate(-3086,-302) scale(1,1)"><g><path fill="none" stroke="none"/><text fill="#000000" stroke="none" font-family="Arial" font-size="13px" font-style="normal" font-weight="normal" text-decoration="none" x="4004.591796875" y="1399.5">findByDomain(domain: Domain): ArrayList&lt;Item&gt;</text></g></g><g transform="translate(-3086,-302) scale(1,1)"><rect fill="#C0C0C0" stroke="none" x="4007" y="1159" width="360" height="111" opacity="0.2"/></g><g transform="translate(-3086,-302) scale(1,1)"><rect fill="#ffffff" stroke="none" x="4000" y="1152" width="360" height="111"/></g><g transform="translate(-3086,-302) scale(1,1)"><path fill="none" stroke="#000000" d="M 4000 1152 L 4360 1152 L 4360 1263 L 4000 1263 L 4000 1152 Z Z" stroke-miterlimit="10"/></g><g transform="translate(-3086,-302) scale(1,1)"><path fill="none" stroke="#000000" d="M 4000 1177 L 4360 1177" stroke-miterlimit="10"/></g><g transform="translate(-3086,-302) scale(1,1)"><path fill="none" stroke="#000000" d="M 4000 1187 L 4360 1187" stroke-miterlimit="10"/></g><g transform="translate(-3086,-302) scale(1,1)"><g><path fill="none" stroke="none"/><text fill="#000000" stroke="none" font-family="Arial" font-size="13px" font-style="normal" font-weight="bold" text-decoration="none" x="4154.10791015625" y="1171.5">StaffItem</text></g></g><g transform="translate(-3086,-302) scale(1,1)"><g><path fill="none" stroke="none"/><text fill="#000000" stroke="none" font-family="Arial" font-size="13px" font-style="normal" font-weight="normal" text-decoration="none" x="4005" y="1204.5">+StaffItem()</text></g></g><g transform="translate(-3086,-302) scale(1,1)"><g><path fill="none" stroke="none"/><text fill="#000000" stroke="none" font-family="Arial" font-size="13px" font-style="normal" font-weight="normal" text-decoration="none" x="4005" y="1219.5">+StaffItem(name: Sring, price, Money, domain: Domain,</text><text fill="#000000" stroke="none" font-family="Arial" font-size="13px" font-style="normal" font-weight="normal" text-decoration="none" x="4005" y="1232.5">category: Category, description: String, type: Type)</text></g></g><g transform="translate(-3086,-302) scale(1,1)"><rect fill="#C0C0C0" stroke="none" x="3351" y="1263" width="352" height="53" opacity="0.2"/></g><g transform="translate(-3086,-302) scale(1,1)"><rect fill="#ffffff" stroke="none" x="3344" y="1256" width="352" height="53"/></g><g transform="translate(-3086,-302) scale(1,1)"><path fill="none" stroke="#000000" d="M 3344 1256 L 3696 1256 L 3696 1309 L 3344 1309 L 3344 1256 Z Z" stroke-miterlimit="10"/></g><g transform="translate(-3086,-302) scale(1,1)"><path fill="#ffffff" stroke="none" d="M 3670 1273 C 3670 1268.0294368 3674.0294368 1264 3679 1264 C 3683.9705632 1264 3688 1268.0294368 3688 1273 C 3688 1277.9705632 3683.9705632 1282 3679 1282 C 3674.0294368 1282 3670 1277.9705632 3670 1273 Z"/></g><g transform="translate(-3086,-302) scale(1,1)"><path fill="none" stroke="#000000" d="M 3670 1273 C 3670 1268.0294368 3674.0294368 1264 3679 1264 C 3683.9705632 1264 3688 1268.0294368 3688 1273 C 3688 1277.9705632 3683.9705632 1282 3679 1282 C 3674.0294368 1282 3670 1277.9705632 3670 1273 Z" stroke-miterlimit="10"/></g><g transform="translate(-3086,-302) scale(1,1)"><g><path fill="none" stroke="none"/><text fill="#000000" stroke="none" font-family="Arial" font-size="13px" font-style="normal" font-weight="bold" text-decoration="none" x="3381.9228515625" y="1275.5">org.salespointframework.cork.DataInitializer</text></g></g><g transform="translate(-3086,-302) scale(1,1)"><rect fill="#C0C0C0" stroke="none" x="3543" y="591" width="194.4150390625" height="44" opacity="0.2"/></g><g transform="translate(-3086,-302) scale(1,1)"><rect fill="#ffffff" stroke="none" x="3536" y="584" width="194.4150390625" height="44"/></g><g transform="translate(-3086,-302) scale(1,1)"><path fill="none" stroke="#000000" d="M 3536 584 L 3730.4150390625 584 L 3730.4150390625 628 L 3536 628 L 3536 584 Z Z" stroke-miterlimit="10"/></g><g transform="translate(-3086,-302) scale(1,1)"><g><path fill="none" stroke="none"/><text fill="#000000" stroke="none" font-family="Arial" font-size="13px" font-style="normal" font-weight="bold" text-decoration="none" x="3546.254150390625" y="603.5">org.javamoney.moneta.Money</text></g></g><g transform="translate(-3086,-302) scale(1,1)"><path fill="none" stroke="#000000" d="M 3984 603 L 3730 603" stroke-miterlimit="10"/></g><g transform="translate(-3086,-302) scale(1,1)"><path fill="none" stroke="#000000" d="M 3740.162674857624 598.790482243984 L 3730 603 L 3740.162674857624 607.209517756016" stroke-miterlimit="10"/></g><g transform="translate(-3086,-302) scale(1,1)"><g><path fill="none" stroke="none"/><text fill="#000000" stroke="none" font-family="Arial" font-size="13px" font-style="normal" font-weight="normal" text-decoration="none" x="3777.13134765625" y="595.5">-BREAKFAST_PRICE</text></g></g><g transform="translate(-3086,-302) scale(1,1)"><path fill="none" stroke="#000000" d="M 4384 544 L 4416 544 L 4416 672 L 4152 672" stroke-miterlimit="10"/></g><g transform="translate(-3086,-302) scale(1,1)"><path fill="none" stroke="#000000" d="M 4162.162674857625 667.790482243984 L 4152 672 L 4162.162674857625 676.209517756016" stroke-miterlimit="10"/></g><g transform="translate(-3086,-302) scale(1,1)"><g><path fill="none" stroke="none"/><text fill="#000000" stroke="none" font-family="Arial" font-size="13px" font-style="normal" font-weight="normal" text-decoration="none" x="4384.13134765625" y="540.5">-type</text></g></g><g transform="translate(-3086,-302) scale(1,1)"><path fill="none" stroke="#000000" d="M 4424 448 L 4456 448 L 4456 1342 L 4352 1342" stroke-miterlimit="10"/></g><g transform="translate(-3086,-302) scale(1,1)"><path fill="none" stroke="#000000" d="M 4362.162674857625 1337.7904822439841 L 4352 1342 L 4362.162674857625 1346.2095177560159" stroke-miterlimit="10"/></g><g transform="translate(-3086,-302) scale(1,1)"><g><path fill="none" stroke="none"/><text fill="#000000" stroke="none" font-family="Arial" font-size="13px" font-style="normal" font-weight="normal" text-decoration="none" x="4448.13134765625" y="900.5">-catalog</text></g></g><g transform="translate(-3086,-302) scale(1,1)"><path fill="none" stroke="#000000" d="M 3976 464 L 3440 464" stroke-miterlimit="10"/></g><g transform="translate(-3086,-302) scale(1,1)"><path fill="none" stroke="#000000" d="M 3450.162674857624 459.790482243984 L 3440 464 L 3450.162674857624 468.209517756016" stroke-miterlimit="10"/></g><g transform="translate(-3086,-302) scale(1,1)"><g><path fill="none" stroke="none"/><text fill="#000000" stroke="none" font-family="Arial" font-size="13px" font-style="normal" font-weight="normal" text-decoration="none" x="3640.13134765625" y="435.5">-inventory</text></g></g><g transform="translate(-3086,-302) scale(1,1)"><path fill="none" stroke="#000000" d="M 3984 744 L 3952 744 L 3952 896 L 4008 896" stroke-miterlimit="10"/></g><g transform="translate(-3086,-302) scale(1,1)"><path fill="none" stroke="#000000" d="M 3997.837325142376 900.209517756016 L 4008 896 L 3997.837325142376 891.790482243984" stroke-miterlimit="10"/></g><g transform="translate(-3086,-302) scale(1,1)"><g><path fill="none" stroke="none"/><text fill="#000000" stroke="none" font-family="Arial" font-size="13px" font-style="normal" font-weight="normal" text-decoration="none" x="3952.13134765625" y="875.5">-domain</text></g></g><g transform="translate(-3086,-302) scale(1,1)"><path fill="none" stroke="#000000" d="M 4384 752 L 4432 752 L 4432 960 L 4341 960" stroke-miterlimit="10"/></g><g transform="translate(-3086,-302) scale(1,1)"><path fill="none" stroke="#000000" d="M 4351.162674857625 955.790482243984 L 4341 960 L 4351.162674857625 964.209517756016" stroke-miterlimit="10"/></g><g transform="translate(-3086,-302) scale(1,1)"><g><path fill="none" stroke="none"/><text fill="#000000" stroke="none" font-family="Arial" font-size="13px" font-style="normal" font-weight="normal" text-decoration="none" x="4377.13134765625" y="748.5">-category</text></g></g><g transform="translate(-3086,-302) scale(1,1)"><path fill="none" stroke="#000000" d="M 4360 1096 L 4408 1096 L 4408 1304 L 4352 1304" stroke-miterlimit="10"/></g><g transform="translate(-3086,-302) scale(1,1)"><path fill="none" stroke="#000000" d="M 4362.162674857625 1299.7904822439841 L 4352 1304 L 4362.162674857625 1308.2095177560159" stroke-miterlimit="10"/></g><g transform="translate(-3086,-302) scale(1,1)"><g><path fill="none" stroke="none"/><text fill="#000000" stroke="none" font-family="Arial" font-size="13px" font-style="normal" font-weight="normal" text-decoration="none" x="4360.13134765625" y="1139.5">-mampfCatalog</text></g></g><g transform="translate(-3086,-302) scale(1,1)"><path fill="none" stroke="#000000" d="M 3984 704 L 3936 704 L 3936 968 L 3984 968" stroke-miterlimit="10"/></g><g transform="translate(-3086,-302) scale(1,1)"><path fill="#FFFFFF" stroke="none" d="M 3963.674650284752 976.419035512032 L 3984 968 L 3963.674650284752 959.580964487968"/></g><g transform="translate(-3086,-302) scale(1,1)"><path fill="none" stroke="#000000" d="M 3963.674650284752 976.419035512032 L 3984 968 L 3963.674650284752 959.580964487968 L 3963.674650284752 976.419035512032" stroke-miterlimit="10"/></g><g transform="translate(-3086,-302) scale(1,1)"><path fill="none" stroke="#000000" d="M 4000 1100 L 3728 1100 L 3728 1282 L 3696 1282" stroke-miterlimit="10" stroke-dasharray="3"/></g><g transform="translate(-3086,-302) scale(1,1)"><path fill="#FFFFFF" stroke="none" d="M 3716.325349715248 1273.580964487968 L 3696 1282 L 3716.325349715248 1290.419035512032"/></g><g transform="translate(-3086,-302) scale(1,1)"><path fill="none" stroke="#000000" d="M 3716.325349715248 1273.580964487968 L 3696 1282 L 3716.325349715248 1290.419035512032 L 3716.325349715248 1273.580964487968" stroke-miterlimit="10"/></g><g transform="translate(-3086,-302) scale(1,1)"><path fill="none" stroke="#000000" d="M 4360 1176 L 4496 1176 L 4496 688 L 4152 688" stroke-miterlimit="10"/></g><g transform="translate(-3086,-302) scale(1,1)"><path fill="none" stroke="#000000" d="M 4162.162674857625 683.790482243984 L 4152 688 L 4162.162674857625 692.209517756016" stroke-miterlimit="10"/></g><g transform="translate(-3086,-302) scale(1,1)"><g><path fill="none" stroke="none"/><text fill="#000000" stroke="none" font-family="Arial" font-size="13px" font-style="normal" font-weight="normal" text-decoration="none" x="4480.13134765625" y="683.5">-type</text></g></g><g transform="translate(-3086,-302) scale(1,1)"><rect fill="#C0C0C0" stroke="none" x="4079" y="1495" width="248.814453125" height="44" opacity="0.2"/></g><g transform="translate(-3086,-302) scale(1,1)"><rect fill="#ffffff" stroke="none" x="4072" y="1488" width="248.814453125" height="44"/></g><g transform="translate(-3086,-302) scale(1,1)"><path fill="none" stroke="#000000" d="M 4072 1488 L 4320.814453125 1488 L 4320.814453125 1532 L 4072 1532 L 4072 1488 Z Z" stroke-miterlimit="10"/></g><g transform="translate(-3086,-302) scale(1,1)"><g><path fill="none" stroke="none"/><text fill="#000000" stroke="none" font-family="Arial" font-size="13px" font-style="normal" font-weight="bold" text-decoration="none" x="4085.8564453125" y="1507.5">org.springframework.data.domain.Sort</text></g></g><g transform="translate(-3086,-302) scale(1,1)"><path fill="none" stroke="#000000" d="M 4185 1404 L 4185 1488" stroke-miterlimit="10"/></g><g transform="translate(-3086,-302) scale(1,1)"><path fill="none" stroke="#000000" d="M 4180.790482243984 1477.837325142376 L 4185 1488 L 4189.209517756016 1477.837325142376" stroke-miterlimit="10"/></g><g transform="translate(-3086,-302) scale(1,1)"><g><path fill="none" stroke="none"/><text fill="#000000" stroke="none" font-family="Arial" font-size="13px" font-style="normal" font-weight="normal" text-decoration="none" x="4144.2958984375" y="1469.5">DEFAULT_SORT</text></g></g><g transform="translate(-3086,-302) scale(1,1)"><rect fill="#C0C0C0" stroke="none" x="4023" y="1577" width="318.00439453125" height="53" opacity="0.2"/></g><g transform="translate(-3086,-302) scale(1,1)"><rect fill="#C0C0C0" stroke="none" x="4315.7216796875" y="1559" width="34.28271484375" height="22" opacity="0.2"/></g><g transform="translate(-3086,-302) scale(1,1)"><rect fill="#ffffff" stroke="none" x="4016" y="1570" width="318.00439453125" height="53"/></g><g transform="translate(-3086,-302) scale(1,1)"><path fill="none" stroke="#000000" d="M 4016 1570 L 4334.00439453125 1570 L 4334.00439453125 1623 L 4016 1623 L 4016 1570 Z Z" stroke-miterlimit="10"/></g><g transform="translate(-3086,-302) scale(1,1)"><path fill="#ffffff" stroke="none" d="M 4308.00439453125 1587 C 4308.00439453125 1582.0294368 4312.03383133125 1578 4317.00439453125 1578 C 4321.97495773125 1578 4326.00439453125 1582.0294368 4326.00439453125 1587 C 4326.00439453125 1591.9705632 4321.97495773125 1596 4317.00439453125 1596 C 4312.03383133125 1596 4308.00439453125 1591.9705632 4308.00439453125 1587 Z"/></g><g transform="translate(-3086,-302) scale(1,1)"><path fill="none" stroke="#000000" d="M 4308.00439453125 1587 C 4308.00439453125 1582.0294368 4312.03383133125 1578 4317.00439453125 1578 C 4321.97495773125 1578 4326.00439453125 1582.0294368 4326.00439453125 1587 C 4326.00439453125 1591.9705632 4321.97495773125 1596 4317.00439453125 1596 C 4312.03383133125 1596 4308.00439453125 1591.9705632 4308.00439453125 1587 Z" stroke-miterlimit="10"/></g><g transform="translate(-3086,-302) scale(1,1)"><g><path fill="none" stroke="none"/><text fill="#000000" stroke="none" font-family="Arial" font-size="13px" font-style="normal" font-weight="bold" text-decoration="none" x="4050.21826171875" y="1589.5">org.salespointframework.catalog.Catalog</text></g></g><g transform="translate(-3086,-302) scale(1,1)"><rect fill="#ffffff" stroke="none" x="4308.7216796875" y="1552" width="34.28271484375" height="22"/></g><g transform="translate(-3086,-302) scale(1,1)"><path fill="none" stroke="#000000" d="M 4308.7216796875 1552 L 4343.00439453125 1552 L 4343.00439453125 1574 L 4308.7216796875 1574 L 4308.7216796875 1552 Z Z" stroke-miterlimit="10" stroke-dasharray="3"/></g><g transform="translate(-3086,-302) scale(1,1)"><g><path fill="none" stroke="none"/><text fill="#000000" stroke="none" font-family="Arial" font-size="13px" font-style="normal" font-weight="normal" text-decoration="none" x="4313.7216796875" y="1569.5">Item</text></g></g><g transform="translate(-3086,-302) scale(1,1)"><path fill="none" stroke="#000000" d="M 4048 1404 L 4048 1552" stroke-miterlimit="10"/></g><g transform="translate(-3086,-302) scale(1,1)"><path fill="#FFFFFF" stroke="none" d="M 4039.5809644879682 1531.6746502847518 L 4048 1552 L 4056.4190355120318 1531.6746502847518"/></g><g transform="translate(-3086,-302) scale(1,1)"><path fill="none" stroke="#000000" d="M 4039.5809644879682 1531.6746502847518 L 4048 1552 L 4056.4190355120318 1531.6746502847518 L 4039.5809644879682 1531.6746502847518" stroke-miterlimit="10"/></g><g transform="translate(-3086,-302) scale(1,1)"><rect fill="#C0C0C0" stroke="none" x="3447" y="1071" width="50.919921875" height="44" opacity="0.2"/></g><g transform="translate(-3086,-302) scale(1,1)"><rect fill="#ffffff" stroke="none" x="3440" y="1064" width="50.919921875" height="44"/></g><g transform="translate(-3086,-302) scale(1,1)"><path fill="none" stroke="#000000" d="M 3440 1064 L 3490.919921875 1064 L 3490.919921875 1108 L 3440 1108 L 3440 1064 Z Z" stroke-miterlimit="10"/></g><g transform="translate(-3086,-302) scale(1,1)"><g><path fill="none" stroke="none"/><text fill="#000000" stroke="none" font-family="Arial" font-size="13px" font-style="normal" font-weight="bold" text-decoration="none" x="3456.07177734375" y="1083.5">Util</text></g></g><g transform="translate(-3086,-302) scale(1,1)"><path fill="none" stroke="#000000" d="M 3767 990 L 3492 1077" stroke-miterlimit="10" stroke-dasharray="3"/></g><g transform="translate(-3086,-302) scale(1,1)"><path fill="none" stroke="#000000" d="M 3500.4196386580124 1069.9211805455639 L 3492 1077 L 3502.959064829248 1077.948102351194" stroke-miterlimit="10"/></g><g transform="translate(-3086,-302) scale(1,1)"><g><path fill="none" stroke="none"/><text fill="#000000" stroke="none" font-family="Arial" font-size="13px" font-style="normal" font-weight="normal" text-decoration="none" x="3615.2958984375" y="1053.5">«use»</text></g></g><g transform="translate(-3086,-302) scale(1,1)"><rect fill="#C0C0C0" stroke="none" x="3143" y="431" width="304" height="104" opacity="0.2"/></g><g transform="translate(-3086,-302) scale(1,1)"><rect fill="#ffffff" stroke="none" x="3136" y="424" width="304" height="104"/></g><g transform="translate(-3086,-302) scale(1,1)"><path fill="none" stroke="#000000" d="M 3136 424 L 3440 424 L 3440 528 L 3136 528 L 3136 424 Z Z" stroke-miterlimit="10"/></g><g transform="translate(-3086,-302) scale(1,1)"><path fill="#ffffff" stroke="none" d="M 3414 441 C 3414 436.0294368 3418.0294368 432 3423 432 C 3427.9705632 432 3432 436.0294368 3432 441 C 3432 445.9705632 3427.9705632 450 3423 450 C 3418.0294368 450 3414 445.9705632 3414 441 Z"/></g><g transform="translate(-3086,-302) scale(1,1)"><path fill="none" stroke="#000000" d="M 3414 441 C 3414 436.0294368 3418.0294368 432 3423 432 C 3427.9705632 432 3432 436.0294368 3432 441 C 3432 445.9705632 3427.9705632 450 3423 450 C 3418.0294368 450 3414 445.9705632 3414 441 Z" stroke-miterlimit="10"/></g><g transform="translate(-3086,-302) scale(1,1)"><g><path fill="none" stroke="none"/><text fill="#000000" stroke="none" font-family="Arial" font-size="13px" font-style="normal" font-weight="bold" text-decoration="none" x="3249.263671875" y="443.5">Inventory</text></g></g></g></svg>