<svg version="1.1" xmlns="http://www.w3.org/2000/svg" xmlns:xlink="http://www.w3.org/1999/xlink" width="1452" height="1331"><defs/><g><g transform="translate(-414,-206) scale(1,1)"><rect fill="#C0C0C0" stroke="none" x="431" y="279" width="147.20000000000005" height="15" opacity="0.2"/></g><g transform="translate(-414,-206) scale(1,1)"><rect fill="#C0C0C0" stroke="none" x="431" y="293" width="368" height="170" opacity="0.2"/></g><g transform="translate(-414,-206) scale(1,1)"><rect fill="#ffffff" stroke="none" x="424" y="287" width="368" height="169"/></g><g transform="translate(-414,-206) scale(1,1)"><path fill="none" stroke="#000000" d="M 424 287 L 792 287 L 792 456 L 424 456 L 424 287 Z Z" stroke-miterlimit="10"/></g><g transform="translate(-414,-206) scale(1,1)"><rect fill="#ffffff" stroke="none" x="424" y="272" width="147.20000000000005" height="15"/></g><g transform="translate(-414,-206) scale(1,1)"><path fill="none" stroke="#000000" d="M 424 272 L 571.2 272 L 571.2 287 L 424 287 L 424 272 Z Z" stroke-miterlimit="10"/></g><g transform="translate(-414,-206) scale(1,1)"><rect fill="#ffffff" stroke="none" x="424" y="286" width="368" height="170"/></g><g transform="translate(-414,-206) scale(1,1)"><path fill="none" stroke="#000000" d="M 424 286 L 792 286 L 792 456 L 424 456 L 424 286 Z Z" stroke-miterlimit="10"/></g><g transform="translate(-414,-206) scale(1,1)"><g><path fill="none" stroke="none"/><text fill="#000000" stroke="none" font-family="Arial" font-size="13px" font-style="normal" font-weight="bold" text-decoration="none" x="581.263671875" y="306.5">Inventory</text></g></g><g transform="translate(-414,-206) scale(1,1)"><rect fill="#C0C0C0" stroke="none" x="1103" y="223" width="304" height="15" opacity="0.2"/></g><g transform="translate(-414,-206) scale(1,1)"><rect fill="#C0C0C0" stroke="none" x="1103" y="237" width="760" height="1098" opacity="0.2"/></g><g transform="translate(-414,-206) scale(1,1)"><rect fill="#ffffff" stroke="none" x="1096" y="231" width="760" height="1097"/></g><g transform="translate(-414,-206) scale(1,1)"><path fill="none" stroke="#000000" d="M 1096 231 L 1856 231 L 1856 1328 L 1096 1328 L 1096 231 Z Z" stroke-miterlimit="10"/></g><g transform="translate(-414,-206) scale(1,1)"><rect fill="#ffffff" stroke="none" x="1096" y="216" width="304" height="15"/></g><g transform="translate(-414,-206) scale(1,1)"><path fill="none" stroke="#000000" d="M 1096 216 L 1400 216 L 1400 231 L 1096 231 L 1096 216 Z Z" stroke-miterlimit="10"/></g><g transform="translate(-414,-206) scale(1,1)"><rect fill="#ffffff" stroke="none" x="1096" y="230" width="760" height="1098"/></g><g transform="translate(-414,-206) scale(1,1)"><path fill="none" stroke="#000000" d="M 1096 230 L 1856 230 L 1856 1328 L 1096 1328 L 1096 230 Z Z" stroke-miterlimit="10"/></g><g transform="translate(-414,-206) scale(1,1)"><g><path fill="none" stroke="none"/><text fill="#000000" stroke="none" font-family="Arial" font-size="13px" font-style="normal" font-weight="bold" text-decoration="none" x="1453.595947265625" y="250.5">Catalog</text></g></g><g transform="translate(-414,-206) scale(1,1)"><rect fill="#C0C0C0" stroke="none" x="1319" y="439" width="400" height="168" opacity="0.2"/></g><g transform="translate(-414,-206) scale(1,1)"><rect fill="#ffffff" stroke="none" x="1312" y="432" width="400" height="168"/></g><g transform="translate(-414,-206) scale(1,1)"><path fill="none" stroke="#000000" d="M 1312 432 L 1712 432 L 1712 600 L 1312 600 L 1312 432 Z Z" stroke-miterlimit="10"/></g><g transform="translate(-414,-206) scale(1,1)"><path fill="none" stroke="#000000" d="M 1312 457 L 1712 457" stroke-miterlimit="10"/></g><g transform="translate(-414,-206) scale(1,1)"><path fill="none" stroke="#000000" d="M 1312 467 L 1712 467" stroke-miterlimit="10"/></g><g transform="translate(-414,-206) scale(1,1)"><g><path fill="none" stroke="none"/><text fill="#000000" stroke="none" font-family="Arial" font-size="13px" font-style="normal" font-weight="bold" text-decoration="none" x="1469.7373046875" y="451.5">BreakFastItem</text></g></g><g transform="translate(-414,-206) scale(1,1)"><g><path fill="none" stroke="none"/><text fill="#000000" stroke="none" font-family="Arial" font-size="13px" font-style="normal" font-weight="normal" text-decoration="none" x="1317" y="484.5">+BreakfastItem()</text></g></g><g transform="translate(-414,-206) scale(1,1)"><g><path fill="none" stroke="none"/><text fill="#000000" stroke="none" font-family="Arial" font-size="13px" font-style="normal" font-weight="normal" text-decoration="none" x="1317" y="499.5">+BreakfastItem(name: String, description: String, price: Money,</text><text fill="#000000" stroke="none" font-family="Arial" font-size="13px" font-style="normal" font-weight="normal" text-decoration="none" x="1317" y="512.5">type: Type)</text></g></g><g transform="translate(-414,-206) scale(1,1)"><rect fill="#C0C0C0" stroke="none" x="1519" y="527" width="95.72802734375" height="75" opacity="0.2"/></g><g transform="translate(-414,-206) scale(1,1)"><rect fill="#ffffff" stroke="none" x="1512" y="520" width="95.72802734375" height="75"/></g><g transform="translate(-414,-206) scale(1,1)"><path fill="none" stroke="#000000" d="M 1512 520 L 1607.72802734375 520 L 1607.72802734375 595 L 1512 595 L 1512 520 Z Z" stroke-miterlimit="10"/></g><g transform="translate(-414,-206) scale(1,1)"><path fill="none" stroke="#000000" d="M 1512 558 L 1607.72802734375 558" stroke-miterlimit="10"/></g><g transform="translate(-414,-206) scale(1,1)"><g><path fill="none" stroke="none"/><text fill="#000000" stroke="none" font-family="Arial" font-size="13px" font-style="normal" font-weight="normal" text-decoration="none" x="1516.5" y="537.5">«enumeration»</text></g></g><g transform="translate(-414,-206) scale(1,1)"><g><path fill="none" stroke="none"/><text fill="#000000" stroke="none" font-family="Arial" font-size="13px" font-style="normal" font-weight="bold" text-decoration="none" x="1545.772216796875" y="552.5">Type</text></g></g><g transform="translate(-414,-206) scale(1,1)"><g><path fill="none" stroke="none"/><text fill="#000000" stroke="none" font-family="Arial" font-size="13px" font-style="normal" font-weight="normal" text-decoration="none" x="1517" y="575.5">DISH</text></g></g><g transform="translate(-414,-206) scale(1,1)"><g><path fill="none" stroke="none"/><text fill="#000000" stroke="none" font-family="Arial" font-size="13px" font-style="normal" font-weight="normal" text-decoration="none" x="1517" y="590.5">BEVERAGE</text></g></g><g transform="translate(-414,-206) scale(1,1)"><rect fill="#C0C0C0" stroke="none" x="1311" y="263" width="448" height="168" opacity="0.2"/></g><g transform="translate(-414,-206) scale(1,1)"><rect fill="#ffffff" stroke="none" x="1304" y="256" width="448" height="168"/></g><g transform="translate(-414,-206) scale(1,1)"><path fill="none" stroke="#000000" d="M 1304 256 L 1752 256 L 1752 424 L 1304 424 L 1304 256 Z Z" stroke-miterlimit="10"/></g><g transform="translate(-414,-206) scale(1,1)"><path fill="none" stroke="#000000" d="M 1304 281 L 1752 281" stroke-miterlimit="10"/></g><g transform="translate(-414,-206) scale(1,1)"><path fill="none" stroke="#000000" d="M 1304 291 L 1752 291" stroke-miterlimit="10"/></g><g transform="translate(-414,-206) scale(1,1)"><g><path fill="none" stroke="none"/><text fill="#000000" stroke="none" font-family="Arial" font-size="13px" font-style="normal" font-weight="bold" text-decoration="none" x="1477.418701171875" y="275.5">CatalogController</text></g></g><g transform="translate(-414,-206) scale(1,1)"><g><path fill="none" stroke="none"/><text fill="#000000" stroke="none" font-family="Arial" font-size="13px" font-style="normal" font-weight="normal" text-decoration="none" x="1309" y="308.5">+CatalogController(catalog: MampfCatalog, inventory: Inventory)</text></g></g><g transform="translate(-414,-206) scale(1,1)"><g><path fill="none" stroke="none"/><text fill="#000000" stroke="none" font-family="Arial" font-size="13px" font-style="normal" font-weight="normal" text-decoration="none" x="1309" y="323.5">+itemsCatalog(model: Model): String</text></g></g><g transform="translate(-414,-206) scale(1,1)"><g><path fill="none" stroke="none"/><text fill="#000000" stroke="none" font-family="Arial" font-size="13px" font-style="normal" font-weight="normal" text-decoration="none" x="1309" y="338.5">+catalogDomain(domain: String, model: Model): String</text></g></g><g transform="translate(-414,-206) scale(1,1)"><g><path fill="none" stroke="none"/><text fill="#000000" stroke="none" font-family="Arial" font-size="13px" font-style="normal" font-weight="normal" text-decoration="none" x="1309" y="353.5">+mobileBreakfast(model: Model): String</text></g></g><g transform="translate(-414,-206) scale(1,1)"><g><path fill="none" stroke="none"/><text fill="#000000" stroke="none" font-family="Arial" font-size="13px" font-style="normal" font-weight="normal" text-decoration="none" x="1309" y="368.5">+detail(model: Model, item: Item): String</text></g></g><g transform="translate(-414,-206) scale(1,1)"><g><path fill="none" stroke="none"/><text fill="#000000" stroke="none" font-family="Arial" font-size="13px" font-style="normal" font-weight="normal" text-decoration="none" x="1309" y="383.5">+catalogCreate(model: Model): String</text></g></g><g transform="translate(-414,-206) scale(1,1)"><g><path fill="none" stroke="none"/><text fill="#000000" stroke="none" font-family="Arial" font-size="13px" font-style="normal" font-weight="normal" text-decoration="none" x="1309" y="398.5">+catalogCreateItemPost(form: CatalogItemForm): String</text></g></g><g transform="translate(-414,-206) scale(1,1)"><g><path fill="none" stroke="none"/><text fill="#000000" stroke="none" font-family="Arial" font-size="13px" font-style="normal" font-weight="normal" text-decoration="none" x="1309" y="413.5">+catalogEditItemPost(itemId: String, form: CatalogItemForm): String</text></g></g><g transform="translate(-414,-206) scale(1,1)"><rect fill="#C0C0C0" stroke="none" x="1319" y="639" width="400" height="320" opacity="0.2"/></g><g transform="translate(-414,-206) scale(1,1)"><rect fill="#ffffff" stroke="none" x="1312" y="632" width="400" height="320"/></g><g transform="translate(-414,-206) scale(1,1)"><path fill="none" stroke="#000000" d="M 1312 632 L 1712 632 L 1712 952 L 1312 952 L 1312 632 Z Z" stroke-miterlimit="10"/></g><g transform="translate(-414,-206) scale(1,1)"><g><path fill="none" stroke="none"/><text fill="#000000" stroke="none" font-family="Arial" font-size="13px" font-style="normal" font-weight="bold" text-decoration="none" x="1499.358642578125" y="651.5">Item</text></g></g><g transform="translate(-414,-206) scale(1,1)"><rect fill="#C0C0C0" stroke="none" x="1343" y="791" width="131.103515625" height="125" opacity="0.2"/></g><g transform="translate(-414,-206) scale(1,1)"><rect fill="#ffffff" stroke="none" x="1336" y="784" width="131.103515625" height="125"/></g><g transform="translate(-414,-206) scale(1,1)"><path fill="none" stroke="#000000" d="M 1336 784 L 1467.103515625 784 L 1467.103515625 909 L 1336 909 L 1336 784 Z Z" stroke-miterlimit="10"/></g><g transform="translate(-414,-206) scale(1,1)"><path fill="none" stroke="#000000" d="M 1336 890 L 1467.103515625 890" stroke-miterlimit="10"/></g><g transform="translate(-414,-206) scale(1,1)"><path fill="none" stroke="#000000" d="M 1336 900 L 1467.103515625 900" stroke-miterlimit="10"/></g><g transform="translate(-414,-206) scale(1,1)"><path fill="none" stroke="#000000" d="M 1336 822 L 1467.103515625 822" stroke-miterlimit="10"/></g><g transform="translate(-414,-206) scale(1,1)"><g><path fill="none" stroke="none"/><text fill="#000000" stroke="none" font-family="Arial" font-size="13px" font-style="normal" font-weight="normal" text-decoration="none" x="1358.187744140625" y="801.5">«enumeration»</text></g></g><g transform="translate(-414,-206) scale(1,1)"><g><path fill="none" stroke="none"/><text fill="#000000" stroke="none" font-family="Arial" font-size="13px" font-style="normal" font-weight="bold" text-decoration="none" x="1379.154052734375" y="816.5">Domain</text></g></g><g transform="translate(-414,-206) scale(1,1)"><g><path fill="none" stroke="none"/><text fill="#000000" stroke="none" font-family="Arial" font-size="13px" font-style="normal" font-weight="normal" text-decoration="none" x="1341" y="839.5">EVENTCATERING</text></g></g><g transform="translate(-414,-206) scale(1,1)"><g><path fill="none" stroke="none"/><text fill="#000000" stroke="none" font-family="Arial" font-size="13px" font-style="normal" font-weight="normal" text-decoration="none" x="1341" y="854.5">PARTYSERVICE</text></g></g><g transform="translate(-414,-206) scale(1,1)"><g><path fill="none" stroke="none"/><text fill="#000000" stroke="none" font-family="Arial" font-size="13px" font-style="normal" font-weight="normal" text-decoration="none" x="1341" y="869.5">OBILE_BREAKFAST</text></g></g><g transform="translate(-414,-206) scale(1,1)"><g><path fill="none" stroke="none"/><text fill="#000000" stroke="none" font-family="Arial" font-size="13px" font-style="normal" font-weight="normal" text-decoration="none" x="1341" y="884.5">ENT_A_COOK</text></g></g><g transform="translate(-414,-206) scale(1,1)"><rect fill="#C0C0C0" stroke="none" x="1543" y="767" width="132.5380859375" height="170" opacity="0.2"/></g><g transform="translate(-414,-206) scale(1,1)"><rect fill="#ffffff" stroke="none" x="1536" y="760" width="132.5380859375" height="170"/></g><g transform="translate(-414,-206) scale(1,1)"><path fill="none" stroke="#000000" d="M 1536 760 L 1668.5380859375 760 L 1668.5380859375 930 L 1536 930 L 1536 760 Z Z" stroke-miterlimit="10"/></g><g transform="translate(-414,-206) scale(1,1)"><path fill="none" stroke="#000000" d="M 1536 911 L 1668.5380859375 911" stroke-miterlimit="10"/></g><g transform="translate(-414,-206) scale(1,1)"><path fill="none" stroke="#000000" d="M 1536 921 L 1668.5380859375 921" stroke-miterlimit="10"/></g><g transform="translate(-414,-206) scale(1,1)"><path fill="none" stroke="#000000" d="M 1536 798 L 1668.5380859375 798" stroke-miterlimit="10"/></g><g transform="translate(-414,-206) scale(1,1)"><g><path fill="none" stroke="none"/><text fill="#000000" stroke="none" font-family="Arial" font-size="13px" font-style="normal" font-weight="normal" text-decoration="none" x="1558.905029296875" y="777.5">«enumeration»</text></g></g><g transform="translate(-414,-206) scale(1,1)"><g><path fill="none" stroke="none"/><text fill="#000000" stroke="none" font-family="Arial" font-size="13px" font-style="normal" font-weight="bold" text-decoration="none" x="1575.89453125" y="792.5">Category</text></g></g><g transform="translate(-414,-206) scale(1,1)"><g><path fill="none" stroke="none"/><text fill="#000000" stroke="none" font-family="Arial" font-size="13px" font-style="normal" font-weight="normal" text-decoration="none" x="1541" y="815.5">FOOD</text></g></g><g transform="translate(-414,-206) scale(1,1)"><g><path fill="none" stroke="none"/><text fill="#000000" stroke="none" font-family="Arial" font-size="13px" font-style="normal" font-weight="normal" text-decoration="none" x="1541" y="830.5">DECORATION</text></g></g><g transform="translate(-414,-206) scale(1,1)"><g><path fill="none" stroke="none"/><text fill="#000000" stroke="none" font-family="Arial" font-size="13px" font-style="normal" font-weight="normal" text-decoration="none" x="1541" y="845.5">EQUIPMENT</text></g></g><g transform="translate(-414,-206) scale(1,1)"><g><path fill="none" stroke="none"/><text fill="#000000" stroke="none" font-family="Arial" font-size="13px" font-style="normal" font-weight="normal" text-decoration="none" x="1541" y="860.5">STAFF</text></g></g><g transform="translate(-414,-206) scale(1,1)"><g><path fill="none" stroke="none"/><text fill="#000000" stroke="none" font-family="Arial" font-size="13px" font-style="normal" font-weight="normal" text-decoration="none" x="1541" y="875.5">BUFFET</text></g></g><g transform="translate(-414,-206) scale(1,1)"><g><path fill="none" stroke="none"/><text fill="#000000" stroke="none" font-family="Arial" font-size="13px" font-style="normal" font-weight="normal" text-decoration="none" x="1541" y="890.5">DINNER_EVENT</text></g></g><g transform="translate(-414,-206) scale(1,1)"><g><path fill="none" stroke="none"/><text fill="#000000" stroke="none" font-family="Arial" font-size="13px" font-style="normal" font-weight="normal" text-decoration="none" x="1541" y="905.5">SPEACIAL_OFFERS</text></g></g><g transform="translate(-414,-206) scale(1,1)"><rect fill="#C0C0C0" stroke="none" x="1335" y="983" width="360" height="57" opacity="0.2"/></g><g transform="translate(-414,-206) scale(1,1)"><rect fill="#ffffff" stroke="none" x="1328" y="976" width="360" height="57"/></g><g transform="translate(-414,-206) scale(1,1)"><path fill="none" stroke="#000000" d="M 1328 976 L 1688 976 L 1688 1033 L 1328 1033 L 1328 976 Z Z" stroke-miterlimit="10"/></g><g transform="translate(-414,-206) scale(1,1)"><path fill="none" stroke="#000000" d="M 1328 1001 L 1688 1001" stroke-miterlimit="10"/></g><g transform="translate(-414,-206) scale(1,1)"><path fill="none" stroke="#000000" d="M 1328 1011 L 1688 1011" stroke-miterlimit="10"/></g><g transform="translate(-414,-206) scale(1,1)"><g><path fill="none" stroke="none"/><text fill="#000000" stroke="none" font-family="Arial" font-size="13px" font-style="normal" font-weight="bold" text-decoration="none" x="1446.21826171875" y="995.5">CatalogDataInitializer</text></g></g><g transform="translate(-414,-206) scale(1,1)"><g><path fill="none" stroke="none"/><text fill="#000000" stroke="none" font-family="Arial" font-size="13px" font-style="normal" font-weight="normal" text-decoration="none" x="1333" y="1028.5">+intialize(): void</text></g></g><g transform="translate(-414,-206) scale(1,1)"><rect fill="#C0C0C0" stroke="none" x="1334.591796875" y="1191" width="352.1796875" height="124" opacity="0.2"/></g><g transform="translate(-414,-206) scale(1,1)"><rect fill="#ffffff" stroke="none" x="1327.591796875" y="1184" width="352.1796875" height="124"/></g><g transform="translate(-414,-206) scale(1,1)"><path fill="none" stroke="#000000" d="M 1327.591796875 1184 L 1679.771484375 1184 L 1679.771484375 1308 L 1327.591796875 1308 L 1327.591796875 1184 Z Z" stroke-miterlimit="10"/></g><g transform="translate(-414,-206) scale(1,1)"><path fill="#ffffff" stroke="none" d="M 1653.771484375 1201 C 1653.771484375 1196.0294368 1657.800921175 1192 1662.771484375 1192 C 1667.742047575 1192 1671.771484375 1196.0294368 1671.771484375 1201 C 1671.771484375 1205.9705632 1667.742047575 1210 1662.771484375 1210 C 1657.800921175 1210 1653.771484375 1205.9705632 1653.771484375 1201 Z"/></g><g transform="translate(-414,-206) scale(1,1)"><path fill="none" stroke="#000000" d="M 1653.771484375 1201 C 1653.771484375 1196.0294368 1657.800921175 1192 1662.771484375 1192 C 1667.742047575 1192 1671.771484375 1196.0294368 1671.771484375 1201 C 1671.771484375 1205.9705632 1667.742047575 1210 1662.771484375 1210 C 1657.800921175 1210 1653.771484375 1205.9705632 1653.771484375 1201 Z" stroke-miterlimit="10"/></g><g transform="translate(-414,-206) scale(1,1)"><path fill="none" stroke="#000000" d="M 1327.591796875 1218 L 1679.771484375 1218" stroke-miterlimit="10"/></g><g transform="translate(-414,-206) scale(1,1)"><path fill="none" stroke="#000000" d="M 1327.591796875 1241 L 1679.771484375 1241" stroke-miterlimit="10"/></g><g transform="translate(-414,-206) scale(1,1)"><g><path fill="none" stroke="none"/><text fill="#000000" stroke="none" font-family="Arial" font-size="13px" font-style="normal" font-weight="bold" text-decoration="none" x="1449.41259765625" y="1203.5">MampfCatalog</text></g></g><g transform="translate(-414,-206) scale(1,1)"><g><path fill="none" stroke="none"/><text fill="#000000" stroke="none" font-family="Arial" font-size="13px" font-style="normal" font-weight="normal" text-decoration="none" x="1332.591796875" y="1235.5">DEFAULT_SORT: Sort</text></g></g><g transform="translate(-414,-206) scale(1,1)"><g><path fill="none" stroke="none"/><text fill="#000000" stroke="none" font-family="Arial" font-size="13px" font-style="normal" font-weight="normal" text-decoration="none" x="1332.591796875" y="1258.5">findByCateogry(cat: Category, sort: Sort): ArrayList&lt;Item&gt;</text></g></g><g transform="translate(-414,-206) scale(1,1)"><g><path fill="none" stroke="none"/><text fill="#000000" stroke="none" font-family="Arial" font-size="13px" font-style="normal" font-weight="normal" text-decoration="none" x="1332.591796875" y="1273.5">findByCategory(cat: Category): ArrayList&lt;Item&gt;</text></g></g><g transform="translate(-414,-206) scale(1,1)"><g><path fill="none" stroke="none"/><text fill="#000000" stroke="none" font-family="Arial" font-size="13px" font-style="normal" font-weight="normal" text-decoration="none" x="1332.591796875" y="1288.5">findByDomain(domain: Domain, sort: Sort): ArrayList&lt;Item&gt;</text></g></g><g transform="translate(-414,-206) scale(1,1)"><g><path fill="none" stroke="none"/><text fill="#000000" stroke="none" font-family="Arial" font-size="13px" font-style="normal" font-weight="normal" text-decoration="none" x="1332.591796875" y="1303.5">findByDomain(domain: Domain): ArrayList&lt;Item&gt;</text></g></g><g transform="translate(-414,-206) scale(1,1)"><rect fill="#C0C0C0" stroke="none" x="1335" y="1063" width="360" height="111" opacity="0.2"/></g><g transform="translate(-414,-206) scale(1,1)"><rect fill="#ffffff" stroke="none" x="1328" y="1056" width="360" height="111"/></g><g transform="translate(-414,-206) scale(1,1)"><path fill="none" stroke="#000000" d="M 1328 1056 L 1688 1056 L 1688 1167 L 1328 1167 L 1328 1056 Z Z" stroke-miterlimit="10"/></g><g transform="translate(-414,-206) scale(1,1)"><path fill="none" stroke="#000000" d="M 1328 1081 L 1688 1081" stroke-miterlimit="10"/></g><g transform="translate(-414,-206) scale(1,1)"><path fill="none" stroke="#000000" d="M 1328 1091 L 1688 1091" stroke-miterlimit="10"/></g><g transform="translate(-414,-206) scale(1,1)"><g><path fill="none" stroke="none"/><text fill="#000000" stroke="none" font-family="Arial" font-size="13px" font-style="normal" font-weight="bold" text-decoration="none" x="1482.10791015625" y="1075.5">StaffItem</text></g></g><g transform="translate(-414,-206) scale(1,1)"><g><path fill="none" stroke="none"/><text fill="#000000" stroke="none" font-family="Arial" font-size="13px" font-style="normal" font-weight="normal" text-decoration="none" x="1333" y="1108.5">+StaffItem()</text></g></g><g transform="translate(-414,-206) scale(1,1)"><g><path fill="none" stroke="none"/><text fill="#000000" stroke="none" font-family="Arial" font-size="13px" font-style="normal" font-weight="normal" text-decoration="none" x="1333" y="1123.5">+StaffItem(name: Sring, price, Money, domain: Domain,</text><text fill="#000000" stroke="none" font-family="Arial" font-size="13px" font-style="normal" font-weight="normal" text-decoration="none" x="1333" y="1136.5">category: Category, description: String, type: Type)</text></g></g><g transform="translate(-414,-206) scale(1,1)"><rect fill="#C0C0C0" stroke="none" x="679" y="1167" width="352" height="53" opacity="0.2"/></g><g transform="translate(-414,-206) scale(1,1)"><rect fill="#ffffff" stroke="none" x="672" y="1160" width="352" height="53"/></g><g transform="translate(-414,-206) scale(1,1)"><path fill="none" stroke="#000000" d="M 672 1160 L 1024 1160 L 1024 1213 L 672 1213 L 672 1160 Z Z" stroke-miterlimit="10"/></g><g transform="translate(-414,-206) scale(1,1)"><path fill="#ffffff" stroke="none" d="M 998 1177 C 998 1172.0294368 1002.0294368 1168 1007 1168 C 1011.9705632 1168 1016 1172.0294368 1016 1177 C 1016 1181.9705632 1011.9705632 1186 1007 1186 C 1002.0294368 1186 998 1181.9705632 998 1177 Z"/></g><g transform="translate(-414,-206) scale(1,1)"><path fill="none" stroke="#000000" d="M 998 1177 C 998 1172.0294368 1002.0294368 1168 1007 1168 C 1011.9705632 1168 1016 1172.0294368 1016 1177 C 1016 1181.9705632 1011.9705632 1186 1007 1186 C 1002.0294368 1186 998 1181.9705632 998 1177 Z" stroke-miterlimit="10"/></g><g transform="translate(-414,-206) scale(1,1)"><g><path fill="none" stroke="none"/><text fill="#000000" stroke="none" font-family="Arial" font-size="13px" font-style="normal" font-weight="bold" text-decoration="none" x="709.9228515625" y="1179.5">org.salespointframework.cork.DataInitializer</text></g></g><g transform="translate(-414,-206) scale(1,1)"><rect fill="#C0C0C0" stroke="none" x="871" y="495" width="194.4150390625" height="44" opacity="0.2"/></g><g transform="translate(-414,-206) scale(1,1)"><rect fill="#ffffff" stroke="none" x="864" y="488" width="194.4150390625" height="44"/></g><g transform="translate(-414,-206) scale(1,1)"><path fill="none" stroke="#000000" d="M 864 488 L 1058.4150390625 488 L 1058.4150390625 532 L 864 532 L 864 488 Z Z" stroke-miterlimit="10"/></g><g transform="translate(-414,-206) scale(1,1)"><g><path fill="none" stroke="none"/><text fill="#000000" stroke="none" font-family="Arial" font-size="13px" font-style="normal" font-weight="bold" text-decoration="none" x="874.254150390625" y="507.5">org.javamoney.moneta.Money</text></g></g><g transform="translate(-414,-206) scale(1,1)"><path fill="none" stroke="#000000" d="M 1312 507 L 1058 507" stroke-miterlimit="10"/></g><g transform="translate(-414,-206) scale(1,1)"><path fill="none" stroke="#000000" d="M 1068.162674857624 502.790482243984 L 1058 507 L 1068.162674857624 511.209517756016" stroke-miterlimit="10"/></g><g transform="translate(-414,-206) scale(1,1)"><g><path fill="none" stroke="none"/><text fill="#000000" stroke="none" font-family="Arial" font-size="13px" font-style="normal" font-weight="normal" text-decoration="none" x="1105.13134765625" y="499.5">-BREAKFAST_PRICE</text></g></g><g transform="translate(-414,-206) scale(1,1)"><path fill="none" stroke="#000000" d="M 1712 448 L 1744 448 L 1744 576 L 1608 576" stroke-miterlimit="10"/></g><g transform="translate(-414,-206) scale(1,1)"><path fill="none" stroke="#000000" d="M 1618.162674857624 571.790482243984 L 1608 576 L 1618.162674857624 580.209517756016" stroke-miterlimit="10"/></g><g transform="translate(-414,-206) scale(1,1)"><g><path fill="none" stroke="none"/><text fill="#000000" stroke="none" font-family="Arial" font-size="13px" font-style="normal" font-weight="normal" text-decoration="none" x="1712.13134765625" y="444.5">-type</text></g></g><g transform="translate(-414,-206) scale(1,1)"><path fill="none" stroke="#000000" d="M 1752 352 L 1784 352 L 1784 1246 L 1680 1246" stroke-miterlimit="10"/></g><g transform="translate(-414,-206) scale(1,1)"><path fill="none" stroke="#000000" d="M 1690.162674857624 1241.7904822439841 L 1680 1246 L 1690.162674857624 1250.2095177560159" stroke-miterlimit="10"/></g><g transform="translate(-414,-206) scale(1,1)"><g><path fill="none" stroke="none"/><text fill="#000000" stroke="none" font-family="Arial" font-size="13px" font-style="normal" font-weight="normal" text-decoration="none" x="1776.13134765625" y="804.5">-catalog</text></g></g><g transform="translate(-414,-206) scale(1,1)"><path fill="none" stroke="#000000" d="M 1304 368 L 768 368" stroke-miterlimit="10"/></g><g transform="translate(-414,-206) scale(1,1)"><path fill="none" stroke="#000000" d="M 778.1626748576241 363.790482243984 L 768 368 L 778.1626748576241 372.209517756016" stroke-miterlimit="10"/></g><g transform="translate(-414,-206) scale(1,1)"><g><path fill="none" stroke="none"/><text fill="#000000" stroke="none" font-family="Arial" font-size="13px" font-style="normal" font-weight="normal" text-decoration="none" x="968.13134765625" y="339.5">-inventory</text></g></g><g transform="translate(-414,-206) scale(1,1)"><path fill="none" stroke="#000000" d="M 1312 648 L 1280 648 L 1280 800 L 1336 800" stroke-miterlimit="10"/></g><g transform="translate(-414,-206) scale(1,1)"><path fill="none" stroke="#000000" d="M 1325.837325142376 804.209517756016 L 1336 800 L 1325.837325142376 795.790482243984" stroke-miterlimit="10"/></g><g transform="translate(-414,-206) scale(1,1)"><g><path fill="none" stroke="none"/><text fill="#000000" stroke="none" font-family="Arial" font-size="13px" font-style="normal" font-weight="normal" text-decoration="none" x="1280.13134765625" y="779.5">-domain</text></g></g><g transform="translate(-414,-206) scale(1,1)"><path fill="none" stroke="#000000" d="M 1712 656 L 1760 656 L 1760 864 L 1669 864" stroke-miterlimit="10"/></g><g transform="translate(-414,-206) scale(1,1)"><path fill="none" stroke="#000000" d="M 1679.162674857624 859.790482243984 L 1669 864 L 1679.162674857624 868.209517756016" stroke-miterlimit="10"/></g><g transform="translate(-414,-206) scale(1,1)"><g><path fill="none" stroke="none"/><text fill="#000000" stroke="none" font-family="Arial" font-size="13px" font-style="normal" font-weight="normal" text-decoration="none" x="1705.13134765625" y="652.5">-category</text></g></g><g transform="translate(-414,-206) scale(1,1)"><path fill="none" stroke="#000000" d="M 1688 1000 L 1736 1000 L 1736 1208 L 1680 1208" stroke-miterlimit="10"/></g><g transform="translate(-414,-206) scale(1,1)"><path fill="none" stroke="#000000" d="M 1690.162674857624 1203.7904822439841 L 1680 1208 L 1690.162674857624 1212.2095177560159" stroke-miterlimit="10"/></g><g transform="translate(-414,-206) scale(1,1)"><g><path fill="none" stroke="none"/><text fill="#000000" stroke="none" font-family="Arial" font-size="13px" font-style="normal" font-weight="normal" text-decoration="none" x="1688.13134765625" y="1043.5">-mampfCatalog</text></g></g><g transform="translate(-414,-206) scale(1,1)"><path fill="none" stroke="#000000" d="M 1312 500 L 1264 500 L 1264 872 L 1312 872" stroke-miterlimit="10"/></g><g transform="translate(-414,-206) scale(1,1)"><path fill="#FFFFFF" stroke="none" d="M 1291.6746502847518 880.419035512032 L 1312 872 L 1291.6746502847516 863.580964487968"/></g><g transform="translate(-414,-206) scale(1,1)"><path fill="none" stroke="#000000" d="M 1291.6746502847518 880.419035512032 L 1312 872 L 1291.6746502847516 863.580964487968 L 1291.6746502847518 880.419035512032" stroke-miterlimit="10"/></g><g transform="translate(-414,-206) scale(1,1)"><path fill="none" stroke="#000000" d="M 1328 1004 L 1056 1004 L 1056 1186 L 1024 1186" stroke-miterlimit="10" stroke-dasharray="3"/></g><g transform="translate(-414,-206) scale(1,1)"><path fill="#FFFFFF" stroke="none" d="M 1044.3253497152482 1177.580964487968 L 1024 1186 L 1044.3253497152482 1194.419035512032"/></g><g transform="translate(-414,-206) scale(1,1)"><path fill="none" stroke="#000000" d="M 1044.3253497152482 1177.580964487968 L 1024 1186 L 1044.3253497152482 1194.419035512032 L 1044.3253497152482 1177.580964487968" stroke-miterlimit="10"/></g><g transform="translate(-414,-206) scale(1,1)"><path fill="none" stroke="#000000" d="M 1688 1080 L 1824 1080 L 1824 592 L 1608 592" stroke-miterlimit="10"/></g><g transform="translate(-414,-206) scale(1,1)"><path fill="none" stroke="#000000" d="M 1618.162674857624 587.790482243984 L 1608 592 L 1618.162674857624 596.209517756016" stroke-miterlimit="10"/></g><g transform="translate(-414,-206) scale(1,1)"><g><path fill="none" stroke="none"/><text fill="#000000" stroke="none" font-family="Arial" font-size="13px" font-style="normal" font-weight="normal" text-decoration="none" x="1808.13134765625" y="587.5">-type</text></g></g><g transform="translate(-414,-206) scale(1,1)"><rect fill="#C0C0C0" stroke="none" x="1407" y="1399" width="248.814453125" height="44" opacity="0.2"/></g><g transform="translate(-414,-206) scale(1,1)"><rect fill="#ffffff" stroke="none" x="1400" y="1392" width="248.814453125" height="44"/></g><g transform="translate(-414,-206) scale(1,1)"><path fill="none" stroke="#000000" d="M 1400 1392 L 1648.814453125 1392 L 1648.814453125 1436 L 1400 1436 L 1400 1392 Z Z" stroke-miterlimit="10"/></g><g transform="translate(-414,-206) scale(1,1)"><g><path fill="none" stroke="none"/><text fill="#000000" stroke="none" font-family="Arial" font-size="13px" font-style="normal" font-weight="bold" text-decoration="none" x="1413.8564453125" y="1411.5">org.springframework.data.domain.Sort</text></g></g><g transform="translate(-414,-206) scale(1,1)"><path fill="none" stroke="#000000" d="M 1513 1308 L 1513 1392" stroke-miterlimit="10"/></g><g transform="translate(-414,-206) scale(1,1)"><path fill="none" stroke="#000000" d="M 1508.7904822439841 1381.837325142376 L 1513 1392 L 1517.2095177560159 1381.837325142376" stroke-miterlimit="10"/></g><g transform="translate(-414,-206) scale(1,1)"><g><path fill="none" stroke="none"/><text fill="#000000" stroke="none" font-family="Arial" font-size="13px" font-style="normal" font-weight="normal" text-decoration="none" x="1472.2958984375" y="1373.5">DEFAULT_SORT</text></g></g><g transform="translate(-414,-206) scale(1,1)"><rect fill="#C0C0C0" stroke="none" x="1351" y="1481" width="318.00439453125" height="53" opacity="0.2"/></g><g transform="translate(-414,-206) scale(1,1)"><rect fill="#C0C0C0" stroke="none" x="1643.7216796875" y="1463" width="34.28271484375" height="22" opacity="0.2"/></g><g transform="translate(-414,-206) scale(1,1)"><rect fill="#ffffff" stroke="none" x="1344" y="1474" width="318.00439453125" height="53"/></g><g transform="translate(-414,-206) scale(1,1)"><path fill="none" stroke="#000000" d="M 1344 1474 L 1662.00439453125 1474 L 1662.00439453125 1527 L 1344 1527 L 1344 1474 Z Z" stroke-miterlimit="10"/></g><g transform="translate(-414,-206) scale(1,1)"><path fill="#ffffff" stroke="none" d="M 1636.00439453125 1491 C 1636.00439453125 1486.0294368 1640.03383133125 1482 1645.00439453125 1482 C 1649.97495773125 1482 1654.00439453125 1486.0294368 1654.00439453125 1491 C 1654.00439453125 1495.9705632 1649.97495773125 1500 1645.00439453125 1500 C 1640.03383133125 1500 1636.00439453125 1495.9705632 1636.00439453125 1491 Z"/></g><g transform="translate(-414,-206) scale(1,1)"><path fill="none" stroke="#000000" d="M 1636.00439453125 1491 C 1636.00439453125 1486.0294368 1640.03383133125 1482 1645.00439453125 1482 C 1649.97495773125 1482 1654.00439453125 1486.0294368 1654.00439453125 1491 C 1654.00439453125 1495.9705632 1649.97495773125 1500 1645.00439453125 1500 C 1640.03383133125 1500 1636.00439453125 1495.9705632 1636.00439453125 1491 Z" stroke-miterlimit="10"/></g><g transform="translate(-414,-206) scale(1,1)"><g><path fill="none" stroke="none"/><text fill="#000000" stroke="none" font-family="Arial" font-size="13px" font-style="normal" font-weight="bold" text-decoration="none" x="1378.21826171875" y="1493.5">org.salespointframework.catalog.Catalog</text></g></g><g transform="translate(-414,-206) scale(1,1)"><rect fill="#ffffff" stroke="none" x="1636.7216796875" y="1456" width="34.28271484375" height="22"/></g><g transform="translate(-414,-206) scale(1,1)"><path fill="none" stroke="#000000" d="M 1636.7216796875 1456 L 1671.00439453125 1456 L 1671.00439453125 1478 L 1636.7216796875 1478 L 1636.7216796875 1456 Z Z" stroke-miterlimit="10" stroke-dasharray="3"/></g><g transform="translate(-414,-206) scale(1,1)"><g><path fill="none" stroke="none"/><text fill="#000000" stroke="none" font-family="Arial" font-size="13px" font-style="normal" font-weight="normal" text-decoration="none" x="1641.7216796875" y="1473.5">Item</text></g></g><g transform="translate(-414,-206) scale(1,1)"><path fill="none" stroke="#000000" d="M 1376 1308 L 1376 1456" stroke-miterlimit="10"/></g><g transform="translate(-414,-206) scale(1,1)"><path fill="#FFFFFF" stroke="none" d="M 1367.580964487968 1435.6746502847518 L 1376 1456 L 1384.419035512032 1435.6746502847518"/></g><g transform="translate(-414,-206) scale(1,1)"><path fill="none" stroke="#000000" d="M 1367.580964487968 1435.6746502847518 L 1376 1456 L 1384.419035512032 1435.6746502847518 L 1367.580964487968 1435.6746502847518" stroke-miterlimit="10"/></g><g transform="translate(-414,-206) scale(1,1)"><rect fill="#C0C0C0" stroke="none" x="775" y="975" width="50.919921875" height="44" opacity="0.2"/></g><g transform="translate(-414,-206) scale(1,1)"><rect fill="#ffffff" stroke="none" x="768" y="968" width="50.919921875" height="44"/></g><g transform="translate(-414,-206) scale(1,1)"><path fill="none" stroke="#000000" d="M 768 968 L 818.919921875 968 L 818.919921875 1012 L 768 1012 L 768 968 Z Z" stroke-miterlimit="10"/></g><g transform="translate(-414,-206) scale(1,1)"><g><path fill="none" stroke="none"/><text fill="#000000" stroke="none" font-family="Arial" font-size="13px" font-style="normal" font-weight="bold" text-decoration="none" x="784.07177734375" y="987.5">Util</text></g></g><g transform="translate(-414,-206) scale(1,1)"><path fill="none" stroke="#000000" d="M 1095 894 L 820 981" stroke-miterlimit="10" stroke-dasharray="3"/></g><g transform="translate(-414,-206) scale(1,1)"><path fill="none" stroke="#000000" d="M 828.4196386580123 973.9211805455639 L 820 981 L 830.9590648292481 981.9481023511938" stroke-miterlimit="10"/></g><g transform="translate(-414,-206) scale(1,1)"><g><path fill="none" stroke="none"/><text fill="#000000" stroke="none" font-family="Arial" font-size="13px" font-style="normal" font-weight="normal" text-decoration="none" x="943.2958984375" y="957.5">«use»</text></g></g><g transform="translate(-414,-206) scale(1,1)"><rect fill="#C0C0C0" stroke="none" x="471" y="335" width="304" height="104" opacity="0.2"/></g><g transform="translate(-414,-206) scale(1,1)"><rect fill="#ffffff" stroke="none" x="464" y="328" width="304" height="104"/></g><g transform="translate(-414,-206) scale(1,1)"><path fill="none" stroke="#000000" d="M 464 328 L 768 328 L 768 432 L 464 432 L 464 328 Z Z" stroke-miterlimit="10"/></g><g transform="translate(-414,-206) scale(1,1)"><path fill="#ffffff" stroke="none" d="M 742 345 C 742 340.0294368 746.0294368 336 751 336 C 755.9705632 336 760 340.0294368 760 345 C 760 349.9705632 755.9705632 354 751 354 C 746.0294368 354 742 349.9705632 742 345 Z"/></g><g transform="translate(-414,-206) scale(1,1)"><path fill="none" stroke="#000000" d="M 742 345 C 742 340.0294368 746.0294368 336 751 336 C 755.9705632 336 760 340.0294368 760 345 C 760 349.9705632 755.9705632 354 751 354 C 746.0294368 354 742 349.9705632 742 345 Z" stroke-miterlimit="10"/></g><g transform="translate(-414,-206) scale(1,1)"><g><path fill="none" stroke="none"/><text fill="#000000" stroke="none" font-family="Arial" font-size="13px" font-style="normal" font-weight="bold" text-decoration="none" x="577.263671875" y="347.5">Inventory</text></g></g></g></svg>