<?xml version="1.0" encoding="UTF-8" standalone="no"?>
<svg
   xmlns:dc="http://purl.org/dc/elements/1.1/"
   xmlns:cc="http://creativecommons.org/ns#"
   xmlns:rdf="http://www.w3.org/1999/02/22-rdf-syntax-ns#"
   xmlns:svg="http://www.w3.org/2000/svg"
   xmlns="http://www.w3.org/2000/svg"
   xmlns:sodipodi="http://sodipodi.sourceforge.net/DTD/sodipodi-0.dtd"
   xmlns:inkscape="http://www.inkscape.org/namespaces/inkscape"
   version="1.1"
   width="711"
   height="611"
   id="svg458"
   sodipodi:docname="listAllOffers.svg"
   inkscape:version="0.92.5 (2060ec1f9f, 2020-04-08)">
  <metadata
     id="metadata462">
    <rdf:RDF>
      <cc:Work
         rdf:about="">
        <dc:format>image/svg+xml</dc:format>
        <dc:type
           rdf:resource="http://purl.org/dc/dcmitype/StillImage" />
        <dc:title></dc:title>
      </cc:Work>
    </rdf:RDF>
  </metadata>
  <sodipodi:namedview
     pagecolor="#ffffff"
     bordercolor="#666666"
     borderopacity="1"
     objecttolerance="10"
     gridtolerance="10"
     guidetolerance="10"
     inkscape:pageopacity="0"
     inkscape:pageshadow="2"
     inkscape:window-width="1848"
     inkscape:window-height="1026"
     id="namedview460"
     showgrid="false"
     inkscape:lockguides="true"
     inkscape:zoom="0.66009871"
     inkscape:cx="627.61337"
     inkscape:cy="386.28712"
     inkscape:window-x="72"
     inkscape:window-y="27"
     inkscape:window-maximized="1"
     inkscape:current-layer="svg458" />
  <defs
     id="defs2" />
  <g
     id="g456">
    <g
       transform="translate(2,2) scale(1,1)"
       id="g174">
      <path
         fill="none"
         stroke="#000000"
         d="M 8 8 L 699 8 L 699 599 L 8 599 L 8 8"
         stroke-miterlimit="10"
         id="path172" />
    </g>
    <g
       transform="translate(2,2) scale(1,1)"
       id="g178">
      <path
         fill="#ffffff"
         stroke="none"
         d="M 8 8 L 8 30 L 152.63525390625 30 L 163.63525390625 19 L 163.63525390625 8 L 8 8"
         id="path176" />
    </g>
    <g
       transform="translate(2,2) scale(1,1)"
       id="g182">
      <path
         fill="none"
         stroke="#000000"
         d="M 8 8 L 8 30 L 152.63525390625 30 L 163.63525390625 19 L 163.63525390625 8 L 8 8 L 8 8"
         stroke-miterlimit="10"
         id="path180" />
    </g>
    <g
       transform="translate(2,2) scale(1,1)"
       id="g190">
      <g
         id="g188">
        <path
           fill="none"
           stroke="none"
           id="path184" />
        <text
           fill="#000000"
           stroke="none"
           font-family="Arial"
           font-size="13px"
           font-style="normal"
           font-weight="normal"
           text-decoration="none"
           x="32.72998046875"
           y="25.5"
           id="text186">SequenceDiagram1</text>
      </g>
    </g>
    <g
       transform="translate(2,2) scale(1,1)"
       id="g198">
      <g
         id="g196">
        <path
           fill="none"
           stroke="none"
           id="path192" />
        <text
           fill="#000000"
           stroke="none"
           font-family="Arial"
           font-size="13px"
           font-style="normal"
           font-weight="bold"
           text-decoration="none"
           x="13"
           y="25.5"
           id="text194">sd</text>
      </g>
    </g>
    <g
       transform="translate(2,2) scale(1,1)"
       id="g202">
      <rect
         fill="#C0C0C0"
         stroke="none"
         x="127"
         y="47"
         width="127.3798828125"
         height="39"
         opacity="0.2"
         id="rect200" />
    </g>
    <g
       transform="translate(2,2) scale(1,1)"
       id="g206">
      <rect
         fill="#ffffff"
         stroke="none"
         x="120"
         y="40"
         width="127.3798828125"
         height="39"
         id="rect204" />
    </g>
    <g
       transform="translate(2,2) scale(1,1)"
       id="g210">
      <path
         fill="none"
         stroke="#000000"
         d="M 120 40 L 247.3798828125 40 L 247.3798828125 79 L 120 79 L 120 40 Z Z"
         stroke-miterlimit="10"
         id="path208" />
    </g>
    <g
       transform="translate(2,2) scale(1,1)"
       id="g218">
      <g
         id="g216">
        <path
           fill="none"
           stroke="none"
           id="path212" />
        <text
           fill="#000000"
           stroke="none"
           font-family="Arial"
           font-size="13px"
           font-style="normal"
           font-weight="bold"
           text-decoration="none"
           x="132.03271484375"
           y="59.5"
           id="text214">user: User_BOSS</text>
      </g>
    </g>
    <g
       transform="translate(2,2) scale(1,1)"
       id="g222">
      <path
         fill="none"
         stroke="#000000"
         d="M 184.5 80 L 184.5 310"
         stroke-miterlimit="10"
         stroke-dasharray="3"
         id="path220" />
    </g>
    <g
       transform="translate(2,2) scale(1,1)"
       id="g226">
      <rect
         fill="#C0C0C0"
         stroke="none"
         x="271"
         y="47"
         width="202.49169921875"
         height="39"
         opacity="0.2"
         id="rect224" />
    </g>
    <g
       transform="translate(2,2) scale(1,1)"
       id="g230">
      <rect
         fill="#ffffff"
         stroke="none"
         x="264"
         y="40"
         width="202.49169921875"
         height="39"
         id="rect228" />
    </g>
    <g
       transform="translate(2,2) scale(1,1)"
       id="g234">
      <path
         fill="none"
         stroke="#000000"
         d="M 264 40 L 466.49169921875 40 L 466.49169921875 79 L 264 79 L 264 40 Z Z"
         stroke-miterlimit="10"
         id="path232" />
    </g>
    <g
       transform="translate(2,2) scale(1,1)"
       id="g242">
      <g
         id="g240">
        <path
           fill="none"
           stroke="none"
           id="path236" />
        <text
           fill="#000000"
           stroke="none"
           font-family="Arial"
           font-size="13px"
           font-style="normal"
           font-weight="bold"
           text-decoration="none"
           x="278.536865234375"
           y="59.5"
           id="text238">orderManager: OrderManager</text>
      </g>
    </g>
    <g
       transform="translate(2,2) scale(1,1)"
       id="g246">
      <path
         fill="none"
         stroke="#000000"
         d="M 366.5 80 L 366.5 310"
         stroke-miterlimit="10"
         stroke-dasharray="3"
         id="path244" />
    </g>
    <g
       transform="translate(2,2) scale(1,1)"
       id="g250">
      <rect
         fill="#C0C0C0"
         stroke="none"
         x="487"
         y="47"
         width="77.5126953125"
         height="39"
         opacity="0.2"
         id="rect248" />
    </g>
    <g
       transform="translate(2,2) scale(1,1)"
       id="g254">
      <rect
         fill="#ffffff"
         stroke="none"
         x="480"
         y="40"
         width="77.5126953125"
         height="39"
         id="rect252" />
    </g>
    <g
       transform="translate(2,2) scale(1,1)"
       id="g258">
      <path
         fill="none"
         stroke="#000000"
         d="M 480 40 L 557.5126953125 40 L 557.5126953125 79 L 480 79 L 480 40 Z Z"
         stroke-miterlimit="10"
         id="path256" />
    </g>
    <g
       transform="translate(2,2) scale(1,1)"
       id="g266">
      <g
         id="g264">
        <path
           fill="none"
           stroke="none"
           id="path260" />
        <text
           fill="#000000"
           stroke="none"
           font-family="Arial"
           font-size="13px"
           font-style="normal"
           font-weight="bold"
           text-decoration="none"
           x="491.299560546875"
           y="59.5"
           id="text262">o1: Order</text>
      </g>
    </g>
    <g
       transform="translate(2,2) scale(1,1)"
       id="g270">
      <path
         fill="none"
         stroke="#000000"
         d="M 519.5 80 L 519.5 272"
         stroke-miterlimit="10"
         stroke-dasharray="3"
         id="path268" />
    </g>
    <g
       transform="translate(2,2) scale(1,1)"
       id="g274">
      <rect
         fill="#C0C0C0"
         stroke="none"
         x="575"
         y="47"
         width="77.5126953125"
         height="39"
         opacity="0.2"
         id="rect272" />
    </g>
    <g
       transform="translate(2,2) scale(1,1)"
       id="g278">
      <rect
         fill="#ffffff"
         stroke="none"
         x="568"
         y="40"
         width="77.5126953125"
         height="39"
         id="rect276" />
    </g>
    <g
       transform="translate(2,2) scale(1,1)"
       id="g282">
      <path
         fill="none"
         stroke="#000000"
         d="M 568 40 L 645.5126953125 40 L 645.5126953125 79 L 568 79 L 568 40 Z Z"
         stroke-miterlimit="10"
         id="path280" />
    </g>
    <g
       transform="translate(2,2) scale(1,1)"
       id="g290">
      <g
         id="g288">
        <path
           fill="none"
           stroke="none"
           id="path284" />
        <text
           fill="#000000"
           stroke="none"
           font-family="Arial"
           font-size="13px"
           font-style="normal"
           font-weight="bold"
           text-decoration="none"
           x="579.299560546875"
           y="59.5"
           id="text286">o2: Order</text>
      </g>
    </g>
    <g
       transform="translate(2,2) scale(1,1)"
       id="g294">
      <path
         fill="none"
         stroke="#000000"
         d="M 607.5 80 L 607.5 297"
         stroke-miterlimit="10"
         stroke-dasharray="3"
         id="path292" />
    </g>
    <g
       transform="translate(2,2) scale(1,1)"
       id="g298">
      <path
         fill="none"
         stroke="#000000"
         d="M 184 123 L 359 123"
         stroke-miterlimit="10"
         id="path296" />
    </g>
    <g
       transform="translate(2,2) scale(1,1)"
       id="g302">
      <path
         fill="#000000"
         stroke="none"
         d="M 348.83732514237585 127.20951775601598 L 359 123 L 348.83732514237585 118.79048224398402"
         id="path300" />
    </g>
    <g
       transform="translate(2,2) scale(1,1)"
       id="g306">
      <path
         fill="none"
         stroke="#000000"
         d="M 348.83732514237585 127.20951775601598 L 359 123 L 348.83732514237585 118.79048224398402 L 348.83732514237585 127.20951775601598"
         stroke-miterlimit="10"
         id="path304" />
    </g>
    <g
       transform="translate(2,2) scale(1,1)"
       id="g314">
      <g
         id="g312">
        <path
           fill="none"
           stroke="none"
           id="path308" />
        <text
           fill="#000000"
           stroke="none"
           font-family="Arial"
           font-size="13px"
           font-style="normal"
           font-weight="normal"
           text-decoration="none"
           x="229.5"
           y="119.5"
           id="text310">1 : viewOrders</text>
      </g>
    </g>
    <g
       transform="translate(2,2) scale(1,1)"
       id="g318">
      <rect
         fill="#ffffff"
         stroke="none"
         x="359"
         y="123"
         width="13"
         height="28"
         id="rect316" />
    </g>
    <g
       transform="translate(2,2) scale(1,1)"
       id="g322">
      <path
         fill="none"
         stroke="#000000"
         d="M 359 123 L 372 123 L 372 151 L 359 151 L 359 123 Z Z"
         stroke-miterlimit="10"
         id="path320" />
    </g>
    <g
       transform="translate(2,2) scale(1,1)"
       id="g326">
      <path
         fill="none"
         stroke="#000000"
         d="M 372 144 L 402 144 L 402 164 L 372 164"
         stroke-miterlimit="10"
         id="path324" />
    </g>
    <g
       transform="translate(2,2) scale(1,1)"
       id="g330">
      <path
         fill="#000000"
         stroke="none"
         d="M 382.16267485762415 159.790482243984 L 372 164 L 382.16267485762415 168.209517756016"
         id="path328" />
    </g>
    <g
       transform="translate(2,2) scale(1,1)"
       id="g334">
      <path
         fill="none"
         stroke="#000000"
         d="M 382.16267485762415 159.790482243984 L 372 164 L 382.16267485762415 168.209517756016 L 382.16267485762415 159.790482243984"
         stroke-miterlimit="10"
         id="path332" />
    </g>
    <g
       transform="translate(2,2) scale(1,1)"
       id="g342">
      <g
         id="g340">
        <path
           fill="none"
           stroke="none"
           id="path336" />
        <text
           fill="#000000"
           stroke="none"
           font-family="Arial"
           font-size="13px"
           font-style="normal"
           font-weight="normal"
           text-decoration="none"
           x="374.5"
           y="124.5"
           id="text338">2 : findOrdersByStatus</text>
      </g>
    </g>
    <g
       transform="translate(2,2) scale(1,1)"
       id="g346">
      <rect
         fill="#ffffff"
         stroke="none"
         x="359"
         y="164"
         width="13"
         height="28"
         id="rect344" />
    </g>
    <g
       transform="translate(2,2) scale(1,1)"
       id="g350">
      <path
         fill="none"
         stroke="#000000"
         d="M 359 164 L 372 164 L 372 192 L 359 192 L 359 164 Z Z"
         stroke-miterlimit="10"
         id="path348" />
    </g>
    <g
       transform="translate(2,2) scale(1,1)"
       id="g354">
      <path
         fill="none"
         stroke="#000000"
         d="M 372 184 L 512 184"
         stroke-miterlimit="10"
         id="path352" />
    </g>
    <g
       transform="translate(2,2) scale(1,1)"
       id="g358">
      <path
         fill="#000000"
         stroke="none"
         d="M 501.83732514237585 188.209517756016 L 512 184 L 501.83732514237585 179.790482243984"
         id="path356" />
    </g>
    <g
       transform="translate(2,2) scale(1,1)"
       id="g362">
      <path
         fill="none"
         stroke="#000000"
         d="M 501.83732514237585 188.209517756016 L 512 184 L 501.83732514237585 179.790482243984 L 501.83732514237585 188.209517756016"
         stroke-miterlimit="10"
         id="path360" />
    </g>
    <g
       transform="translate(2,2) scale(1,1)"
       id="g370">
      <g
         id="g368">
        <path
           fill="none"
           stroke="none"
           id="path364" />
        <text
           fill="#000000"
           stroke="none"
           font-family="Arial"
           font-size="13px"
           font-style="normal"
           font-weight="normal"
           text-decoration="none"
           x="405.0263671875"
           y="180.5"
           id="text366">3 : getStatus</text>
      </g>
    </g>
    <g
       transform="translate(2,2) scale(1,1)"
       id="g374">
      <rect
         fill="#ffffff"
         stroke="none"
         x="512"
         y="184"
         width="13"
         height="28"
         id="rect372" />
    </g>
    <g
       transform="translate(2,2) scale(1,1)"
       id="g378">
      <path
         fill="none"
         stroke="#000000"
         d="M 512 184 L 525 184 L 525 212 L 512 212 L 512 184 Z Z"
         stroke-miterlimit="10"
         id="path376" />
    </g>
    <g
       transform="translate(2,2) scale(1,1)"
       id="g382">
      <path
         fill="none"
         stroke="#000000"
         d="M 519 212 L 366 212"
         stroke-miterlimit="10"
         stroke-dasharray="3"
         id="path380" />
    </g>
    <g
       transform="translate(2,2) scale(1,1)"
       id="g386">
      <path
         fill="none"
         stroke="#000000"
         d="M 376.16267485762415 207.790482243984 L 366 212 L 376.16267485762415 216.209517756016"
         stroke-miterlimit="10"
         id="path384" />
    </g>
    <g
       transform="translate(2,2) scale(1,1)"
       id="g394">
      <g
         id="g392">
        <path
           fill="none"
           stroke="none"
           id="path388" />
        <text
           fill="#000000"
           stroke="none"
           font-family="Arial"
           font-size="13px"
           font-style="normal"
           font-weight="normal"
           text-decoration="none"
           x="414.5"
           y="228.5"
           id="text390">4 : status</text>
      </g>
    </g>
    <g
       transform="translate(2,2) scale(1,1)"
       id="g398">
      <path
         fill="none"
         stroke="#000000"
         d="M 366 248 L 600 248"
         stroke-miterlimit="10"
         id="path396" />
    </g>
    <g
       transform="translate(2,2) scale(1,1)"
       id="g402">
      <path
         fill="#000000"
         stroke="none"
         d="M 589.8373251423759 252.209517756016 L 600 248 L 589.8373251423758 243.790482243984"
         id="path400" />
    </g>
    <g
       transform="translate(2,2) scale(1,1)"
       id="g406">
      <path
         fill="none"
         stroke="#000000"
         d="M 589.8373251423759 252.209517756016 L 600 248 L 589.8373251423758 243.790482243984 L 589.8373251423759 252.209517756016"
         stroke-miterlimit="10"
         id="path404" />
    </g>
    <g
       transform="translate(2,2) scale(1,1)"
       id="g414">
      <g
         id="g412">
        <path
           fill="none"
           stroke="none"
           id="path408" />
        <text
           fill="#000000"
           stroke="none"
           font-family="Arial"
           font-size="13px"
           font-style="normal"
           font-weight="normal"
           text-decoration="none"
           x="446.0263671875"
           y="244.5"
           id="text410">5 : getStatus</text>
      </g>
    </g>
    <g
       transform="translate(2,2) scale(1,1)"
       id="g418">
      <rect
         fill="#ffffff"
         stroke="none"
         x="600"
         y="248"
         width="13"
         height="28"
         id="rect416" />
    </g>
    <g
       transform="translate(2,2) scale(1,1)"
       id="g422">
      <path
         fill="none"
         stroke="#000000"
         d="M 600 248 L 613 248 L 613 276 L 600 276 L 600 248 Z Z"
         stroke-miterlimit="10"
         id="path420" />
    </g>
    <g
       transform="translate(2,2) scale(1,1)"
       id="g426">
      <path
         fill="none"
         stroke="#000000"
         d="M 600 267 L 366 267"
         stroke-miterlimit="10"
         stroke-dasharray="3"
         id="path424" />
    </g>
    <g
       transform="translate(2,2) scale(1,1)"
       id="g430">
      <path
         fill="none"
         stroke="#000000"
         d="M 376.16267485762415 262.790482243984 L 366 267 L 376.16267485762415 271.209517756016"
         stroke-miterlimit="10"
         id="path428" />
    </g>
    <g
       transform="translate(2,2) scale(1,1)"
       id="g438">
      <g
         id="g436">
        <path
           fill="none"
           stroke="none"
           id="path432" />
        <text
           fill="#000000"
           stroke="none"
           font-family="Arial"
           font-size="13px"
           font-style="normal"
           font-weight="normal"
           text-decoration="none"
           x="457.5"
           y="283.5"
           id="text434">6 : staus</text>
      </g>
    </g>
    <g
       transform="translate(2,2) scale(1,1)"
       id="g442">
      <path
         fill="none"
         stroke="#000000"
         d="M 366 280 L 184 280"
         stroke-miterlimit="10"
         stroke-dasharray="3"
         id="path440" />
    </g>
    <g
       transform="translate(2,2) scale(1,1)"
       id="g446">
      <path
         fill="none"
         stroke="#000000"
         d="M 194.16267485762415 275.790482243984 L 184 280 L 194.16267485762415 284.209517756016"
         stroke-miterlimit="10"
         id="path444" />
    </g>
    <g
       transform="translate(2,2) scale(1,1)"
       id="g454">
      <g
         id="g452">
        <path
           fill="none"
           stroke="none"
           id="path448" />
        <text
           fill="#000000"
           stroke="none"
           font-family="Arial"
           font-size="13px"
           font-style="normal"
           font-weight="normal"
           text-decoration="none"
           x="246.5"
           y="296.5"
           id="text450">7 : orders</text>
      </g>
    </g>
  </g>
</svg>
