<svg version="1.1" xmlns="http://www.w3.org/2000/svg" xmlns:xlink="http://www.w3.org/1999/xlink" width="468"
  height="260">
  <defs />
  <g>
    <g transform="translate(2,2) scale(1,1)">
      <path fill="none" stroke="#000000" d="M 8 8 L 456 8 L 456 248 L 8 248 L 8 8" stroke-miterlimit="10" />
    </g>
    <g transform="translate(2,2) scale(1,1)">
      <path fill="#ffffff" stroke="none"
        d="M 8 8 L 8 30 L 229.23876953125 30 L 240.23876953125 19 L 240.23876953125 8 L 8 8" />
    </g>
    <g transform="translate(2,2) scale(1,1)">
      <path fill="none" stroke="#000000"
        d="M 8 8 L 8 30 L 229.23876953125 30 L 240.23876953125 19 L 240.23876953125 8 L 8 8 L 8 8"
        stroke-miterlimit="10" />
    </g>
    <g transform="translate(2,2) scale(1,1)">
      <g>
        <path fill="none" stroke="none" /><text fill="#000000" stroke="none" font-family="Arial" font-size="13px"
          font-style="normal" font-weight="normal" text-decoration="none" x="32.72998046875" y="25.5">Ansehen des
          Inventars [UC0320]</text></g>
    </g>
    <g transform="translate(2,2) scale(1,1)">
      <g>
        <path fill="none" stroke="none" /><text fill="#000000" stroke="none" font-family="Arial" font-size="13px"
          font-style="normal" font-weight="bold" text-decoration="none" x="13" y="25.5">sd</text></g>
    </g>
    <g transform="translate(2,2) scale(1,1)">
      <rect fill="#C0C0C0" stroke="none" x="31" y="47" width="199" height="39" opacity="0.2" />
    </g>
    <g transform="translate(2,2) scale(1,1)">
      <rect fill="#ffffff" stroke="none" x="24" y="40" width="199" height="39" />
    </g>
    <g transform="translate(2,2) scale(1,1)">
      <path fill="none" stroke="#000000" d="M 24 40 L 223 40 L 223 79 L 24 79 L 24 40 Z Z" stroke-miterlimit="10" />
    </g>
    <g transform="translate(2,2) scale(1,1)">
      <g>
        <path fill="none" stroke="none" /><text fill="#000000" stroke="none" font-family="Arial" font-size="13px"
          font-style="normal" font-weight="bold" text-decoration="none" x="81.59912109375" y="59.5">:
          Administrator</text></g>
    </g>
    <g transform="translate(2,2) scale(1,1)">
      <path fill="none" stroke="#000000" d="M 124.5 80 L 124.5 239" stroke-miterlimit="10" stroke-dasharray="3" />
    </g>
    <g transform="translate(2,2) scale(1,1)">
      <rect fill="#C0C0C0" stroke="none" x="239" y="47" width="207" height="39" opacity="0.2" />
    </g>
    <g transform="translate(2,2) scale(1,1)">
      <rect fill="#ffffff" stroke="none" x="232" y="40" width="207" height="39" />
    </g>
    <g transform="translate(2,2) scale(1,1)">
      <path fill="none" stroke="#000000" d="M 232 40 L 439 40 L 439 79 L 232 79 L 232 40 Z Z" stroke-miterlimit="10" />
    </g>
    <g transform="translate(2,2) scale(1,1)">
      <g>
        <path fill="none" stroke="none" /><text fill="#000000" stroke="none" font-family="Arial" font-size="13px"
          font-style="normal" font-weight="bold" text-decoration="none" x="278.77734375" y="59.5">inventory:
          Inventory</text></g>
    </g>
    <g transform="translate(2,2) scale(1,1)">
      <path fill="none" stroke="#000000" d="M 336.5 80 L 336.5 239" stroke-miterlimit="10" stroke-dasharray="3" />
    </g>
    <g transform="translate(2,2) scale(1,1)">
      <path fill="none" stroke="#000000" d="M 124 120 L 329 120" stroke-miterlimit="10" />
    </g>
    <g transform="translate(2,2) scale(1,1)">
      <path fill="#000000" stroke="none"
        d="M 318.83732514237585 124.20951775601598 L 329 120 L 318.83732514237585 115.79048224398402" />
    </g>
    <g transform="translate(2,2) scale(1,1)">
      <path fill="none" stroke="#000000"
        d="M 318.83732514237585 124.20951775601598 L 329 120 L 318.83732514237585 115.79048224398402 L 318.83732514237585 124.20951775601598"
        stroke-miterlimit="10" />
    </g>
    <g transform="translate(2,2) scale(1,1)">
      <g>
        <path fill="none" stroke="none" /><text fill="#000000" stroke="none" font-family="Arial" font-size="13px"
          font-style="normal" font-weight="normal" text-decoration="none" x="188.324951171875" y="116.5">1 :
          listItems()</text></g>
    </g>
    <g transform="translate(2,2) scale(1,1)">
      <rect fill="#ffffff" stroke="none" x="329" y="120" width="13" height="28" />
    </g>
    <g transform="translate(2,2) scale(1,1)">
      <path fill="none" stroke="#000000" d="M 329 120 L 342 120 L 342 148 L 329 148 L 329 120 Z Z"
        stroke-miterlimit="10" />
    </g>
    <g transform="translate(2,2) scale(1,1)">
      <path fill="none" stroke="#000000" d="M 329 141 L 124 141" stroke-miterlimit="10" stroke-dasharray="3" />
    </g>
    <g transform="translate(2,2) scale(1,1)">
      <path fill="none" stroke="#000000"
        d="M 134.16267485762415 136.790482243984 L 124 141 L 134.16267485762415 145.209517756016"
        stroke-miterlimit="10" />
    </g>
    <g transform="translate(2,2) scale(1,1)">
      <g>
        <path fill="none" stroke="none" /><text fill="#000000" stroke="none" font-family="Arial" font-size="13px"
          font-style="normal" font-weight="normal" text-decoration="none" x="215.5" y="157.5">2 : </text></g>
    </g>
  </g>
</svg>