<svg version="1.1" xmlns="http://www.w3.org/2000/svg" xmlns:xlink="http://www.w3.org/1999/xlink" width="868"
  height="300">
  <defs />
  <g>
    <g transform="translate(2,2) scale(1,1)">
      <path fill="none" stroke="#000000" d="M 8 8 L 856 8 L 856 288 L 8 288 L 8 8" stroke-miterlimit="10" />
    </g>
    <g transform="translate(2,2) scale(1,1)">
      <path fill="#ffffff" stroke="none"
        d="M 8 8 L 8 30 L 241.29931640625 30 L 252.29931640625 19 L 252.29931640625 8 L 8 8" />
    </g>
    <g transform="translate(2,2) scale(1,1)">
      <path fill="none" stroke="#000000"
        d="M 8 8 L 8 30 L 241.29931640625 30 L 252.29931640625 19 L 252.29931640625 8 L 8 8 L 8 8"
        stroke-miterlimit="10" />
    </g>
    <g transform="translate(2,2) scale(1,1)">
      <g>
        <path fill="none" stroke="none" /><text fill="#000000" stroke="none" font-family="Arial" font-size="13px"
          font-style="normal" font-weight="normal" text-decoration="none" x="32.72998046875" y="25.5">Angebotsdetails
          ansehen [UC0110]</text></g>
    </g>
    <g transform="translate(2,2) scale(1,1)">
      <g>
        <path fill="none" stroke="none" /><text fill="#000000" stroke="none" font-family="Arial" font-size="13px"
          font-style="normal" font-weight="bold" text-decoration="none" x="13" y="25.5">sd</text></g>
    </g>
    <g transform="translate(2,2) scale(1,1)">
      <rect fill="#C0C0C0" stroke="none" x="31" y="47" width="183" height="39" opacity="0.2" />
    </g>
    <g transform="translate(2,2) scale(1,1)">
      <rect fill="#ffffff" stroke="none" x="24" y="40" width="183" height="39" />
    </g>
    <g transform="translate(2,2) scale(1,1)">
      <path fill="none" stroke="#000000" d="M 24 40 L 207 40 L 207 79 L 24 79 L 24 40 Z Z" stroke-miterlimit="10" />
    </g>
    <g transform="translate(2,2) scale(1,1)">
      <g>
        <path fill="none" stroke="none" /><text fill="#000000" stroke="none" font-family="Arial" font-size="13px"
          font-style="normal" font-weight="bold" text-decoration="none" x="98.16455078125" y="59.5">: User</text></g>
    </g>
    <g transform="translate(2,2) scale(1,1)">
      <path fill="none" stroke="#000000" d="M 116.5 80 L 116.5 286" stroke-miterlimit="10" stroke-dasharray="3" />
    </g>
    <g transform="translate(2,2) scale(1,1)">
      <rect fill="#C0C0C0" stroke="none" x="231" y="47" width="201.76171875" height="39" opacity="0.2" />
    </g>
    <g transform="translate(2,2) scale(1,1)">
      <rect fill="#ffffff" stroke="none" x="224" y="40" width="201.76171875" height="39" />
    </g>
    <g transform="translate(2,2) scale(1,1)">
      <path fill="none" stroke="#000000" d="M 224 40 L 425.76171875 40 L 425.76171875 79 L 224 79 L 224 40 Z Z"
        stroke-miterlimit="10" />
    </g>
    <g transform="translate(2,2) scale(1,1)">
      <g>
        <path fill="none" stroke="none" /><text fill="#000000" stroke="none" font-family="Arial" font-size="13px"
          font-style="normal" font-weight="bold" text-decoration="none" x="239.609619140625" y="59.5">eventCatering:
          EventCatering</text></g>
    </g>
    <g transform="translate(2,2) scale(1,1)">
      <path fill="none" stroke="#000000" d="M 325.5 80 L 325.5 286" stroke-miterlimit="10" stroke-dasharray="3" />
    </g>
    <g transform="translate(2,2) scale(1,1)">
      <rect fill="#C0C0C0" stroke="none" x="447" y="47" width="199" height="39" opacity="0.2" />
    </g>
    <g transform="translate(2,2) scale(1,1)">
      <rect fill="#ffffff" stroke="none" x="440" y="40" width="199" height="39" />
    </g>
    <g transform="translate(2,2) scale(1,1)">
      <path fill="none" stroke="#000000" d="M 440 40 L 639 40 L 639 79 L 440 79 L 440 40 Z Z" stroke-miterlimit="10" />
    </g>
    <g transform="translate(2,2) scale(1,1)">
      <g>
        <path fill="none" stroke="none" /><text fill="#000000" stroke="none" font-family="Arial" font-size="13px"
          font-style="normal" font-weight="bold" text-decoration="none" x="482.77734375" y="59.5">inventory:
          Inventory</text></g>
    </g>
    <g transform="translate(2,2) scale(1,1)">
      <path fill="none" stroke="#000000" d="M 540.5 80 L 540.5 239" stroke-miterlimit="10" stroke-dasharray="3" />
    </g>
    <g transform="translate(2,2) scale(1,1)">
      <rect fill="#C0C0C0" stroke="none" x="663" y="47" width="183" height="39" opacity="0.2" />
    </g>
    <g transform="translate(2,2) scale(1,1)">
      <rect fill="#ffffff" stroke="none" x="656" y="40" width="183" height="39" />
    </g>
    <g transform="translate(2,2) scale(1,1)">
      <path fill="none" stroke="#000000" d="M 656 40 L 839 40 L 839 79 L 656 79 L 656 40 Z Z" stroke-miterlimit="10" />
    </g>
    <g transform="translate(2,2) scale(1,1)">
      <g>
        <path fill="none" stroke="none" /><text fill="#000000" stroke="none" font-family="Arial" font-size="13px"
          font-style="normal" font-weight="bold" text-decoration="none" x="699.451416015625" y="59.5">i1:
          InventoryItem</text></g>
    </g>
    <g transform="translate(2,2) scale(1,1)">
      <path fill="none" stroke="#000000" d="M 748.5 80 L 748.5 272" stroke-miterlimit="10" stroke-dasharray="3" />
    </g>
    <g transform="translate(2,2) scale(1,1)">
      <path fill="none" stroke="#000000" d="M 116 114 L 318 114" stroke-miterlimit="10" />
    </g>
    <g transform="translate(2,2) scale(1,1)">
      <path fill="#000000" stroke="none"
        d="M 307.83732514237585 118.20951775601598 L 318 114 L 307.83732514237585 109.79048224398402" />
    </g>
    <g transform="translate(2,2) scale(1,1)">
      <path fill="none" stroke="#000000"
        d="M 307.83732514237585 118.20951775601598 L 318 114 L 307.83732514237585 109.79048224398402 L 307.83732514237585 118.20951775601598"
        stroke-miterlimit="10" />
    </g>
    <g transform="translate(2,2) scale(1,1)">
      <g>
        <path fill="none" stroke="none" /><text fill="#000000" stroke="none" font-family="Arial" font-size="13px"
          font-style="normal" font-weight="normal" text-decoration="none" x="170.5" y="110.5">1 : findProduct()</text>
      </g>
    </g>
    <g transform="translate(2,2) scale(1,1)">
      <rect fill="#ffffff" stroke="none" x="318" y="114" width="13" height="150" />
    </g>
    <g transform="translate(2,2) scale(1,1)">
      <path fill="none" stroke="#000000" d="M 318 114 L 331 114 L 331 264 L 318 264 L 318 114 Z Z"
        stroke-miterlimit="10" />
    </g>
    <g transform="translate(2,2) scale(1,1)">
      <path fill="none" stroke="#000000" d="M 331 120 L 533 120" stroke-miterlimit="10" />
    </g>
    <g transform="translate(2,2) scale(1,1)">
      <path fill="#000000" stroke="none"
        d="M 522.8373251423759 124.20951775601598 L 533 120 L 522.8373251423758 115.79048224398402" />
    </g>
    <g transform="translate(2,2) scale(1,1)">
      <path fill="none" stroke="#000000"
        d="M 522.8373251423759 124.20951775601598 L 533 120 L 522.8373251423758 115.79048224398402 L 522.8373251423759 124.20951775601598"
        stroke-miterlimit="10" />
    </g>
    <g transform="translate(2,2) scale(1,1)">
      <g>
        <path fill="none" stroke="none" /><text fill="#000000" stroke="none" font-family="Arial" font-size="13px"
          font-style="normal" font-weight="normal" text-decoration="none" x="395.0390625" y="116.5">2 :
          findItem()</text></g>
    </g>
    <g transform="translate(2,2) scale(1,1)">
      <rect fill="#ffffff" stroke="none" x="533" y="120" width="13" height="56" />
    </g>
    <g transform="translate(2,2) scale(1,1)">
      <path fill="none" stroke="#000000" d="M 533 120 L 546 120 L 546 176 L 533 176 L 533 120 Z Z"
        stroke-miterlimit="10" />
    </g>
    <g transform="translate(2,2) scale(1,1)">
      <path fill="none" stroke="#000000" d="M 533 170 L 331 170" stroke-miterlimit="10" stroke-dasharray="3" />
    </g>
    <g transform="translate(2,2) scale(1,1)">
      <path fill="none" stroke="#000000"
        d="M 341.16267485762415 165.790482243984 L 331 170 L 341.16267485762415 174.209517756016"
        stroke-miterlimit="10" />
    </g>
    <g transform="translate(2,2) scale(1,1)">
      <g>
        <path fill="none" stroke="none" /><text fill="#000000" stroke="none" font-family="Arial" font-size="13px"
          font-style="normal" font-weight="normal" text-decoration="none" x="421.5" y="186.5">3 : </text></g>
    </g>
    <g transform="translate(2,2) scale(1,1)">
      <path fill="none" stroke="#000000" d="M 331 209 L 741 209" stroke-miterlimit="10" />
    </g>
    <g transform="translate(2,2) scale(1,1)">
      <path fill="#000000" stroke="none"
        d="M 730.8373251423759 213.209517756016 L 741 209 L 730.8373251423758 204.790482243984" />
    </g>
    <g transform="translate(2,2) scale(1,1)">
      <path fill="none" stroke="#000000"
        d="M 730.8373251423759 213.209517756016 L 741 209 L 730.8373251423758 204.790482243984 L 730.8373251423759 213.209517756016"
        stroke-miterlimit="10" />
    </g>
    <g transform="translate(2,2) scale(1,1)">
      <g>
        <path fill="none" stroke="none" /><text fill="#000000" stroke="none" font-family="Arial" font-size="13px"
          font-style="normal" font-weight="normal" text-decoration="none" x="489.5" y="205.5">4 : getQuantity()</text>
      </g>
    </g>
    <g transform="translate(2,2) scale(1,1)">
      <rect fill="#ffffff" stroke="none" x="741" y="209" width="13" height="39" />
    </g>
    <g transform="translate(2,2) scale(1,1)">
      <path fill="none" stroke="#000000" d="M 741 209 L 754 209 L 754 248 L 741 248 L 741 209 Z Z"
        stroke-miterlimit="10" />
    </g>
    <g transform="translate(2,2) scale(1,1)">
      <path fill="none" stroke="#000000" d="M 741 242 L 331 242" stroke-miterlimit="10" stroke-dasharray="3" />
    </g>
    <g transform="translate(2,2) scale(1,1)">
      <path fill="none" stroke="#000000"
        d="M 341.16267485762415 237.790482243984 L 331 242 L 341.16267485762415 246.209517756016"
        stroke-miterlimit="10" />
    </g>
    <g transform="translate(2,2) scale(1,1)">
      <g>
        <path fill="none" stroke="none" /><text fill="#000000" stroke="none" font-family="Arial" font-size="13px"
          font-style="normal" font-weight="normal" text-decoration="none" x="525.5" y="258.5">5 : </text></g>
    </g>
    <g transform="translate(2,2) scale(1,1)">
      <path fill="none" stroke="#000000" d="M 318 256 L 116 256" stroke-miterlimit="10" stroke-dasharray="3" />
    </g>
    <g transform="translate(2,2) scale(1,1)">
      <path fill="none" stroke="#000000"
        d="M 126.16267485762415 251.790482243984 L 116 256 L 126.16267485762415 260.209517756016"
        stroke-miterlimit="10" />
    </g>
    <g transform="translate(2,2) scale(1,1)">
      <g>
        <path fill="none" stroke="none" /><text fill="#000000" stroke="none" font-family="Arial" font-size="13px"
          font-style="normal" font-weight="normal" text-decoration="none" x="206.5" y="272.5">6 : </text></g>
    </g>
  </g>
</svg>