<svg version="1.1" xmlns="http://www.w3.org/2000/svg" xmlns:xlink="http://www.w3.org/1999/xlink" width="452"
  height="260">
  <defs />
  <g>
    <g transform="translate(2,2) scale(1,1)">
      <path fill="none" stroke="#000000" d="M 8 8 L 440 8 L 440 248 L 8 248 L 8 8" stroke-miterlimit="10" />
    </g>
    <g transform="translate(2,2) scale(1,1)">
      <path fill="#ffffff" stroke="none"
        d="M 8 8 L 8 30 L 244.40966796875 30 L 255.40966796875 19 L 255.40966796875 8 L 8 8" />
    </g>
    <g transform="translate(2,2) scale(1,1)">
      <path fill="none" stroke="#000000"
        d="M 8 8 L 8 30 L 244.40966796875 30 L 255.40966796875 19 L 255.40966796875 8 L 8 8 L 8 8"
        stroke-miterlimit="10" />
    </g>
    <g transform="translate(2,2) scale(1,1)">
      <g>
        <path fill="none" stroke="none" /><text fill="#000000" stroke="none" font-family="Arial" font-size="13px"
          font-style="normal" font-weight="normal" text-decoration="none" x="32.72998046875" y="25.5">Bestellübersicht
          anzeigen [UC0243]</text></g>
    </g>
    <g transform="translate(2,2) scale(1,1)">
      <g>
        <path fill="none" stroke="none" /><text fill="#000000" stroke="none" font-family="Arial" font-size="13px"
          font-style="normal" font-weight="bold" text-decoration="none" x="13" y="25.5">sd</text></g>
    </g>
    <g transform="translate(2,2) scale(1,1)">
      <rect fill="#C0C0C0" stroke="none" x="31" y="47" width="183" height="39" opacity="0.2" />
    </g>
    <g transform="translate(2,2) scale(1,1)">
      <rect fill="#ffffff" stroke="none" x="24" y="40" width="183" height="39" />
    </g>
    <g transform="translate(2,2) scale(1,1)">
      <path fill="none" stroke="#000000" d="M 24 40 L 207 40 L 207 79 L 24 79 L 24 40 Z Z" stroke-miterlimit="10" />
    </g>
    <g transform="translate(2,2) scale(1,1)">
      <g>
        <path fill="none" stroke="none" /><text fill="#000000" stroke="none" font-family="Arial" font-size="13px"
          font-style="normal" font-weight="bold" text-decoration="none" x="67.45458984375" y="59.5">: registered
          User</text></g>
    </g>
    <g transform="translate(2,2) scale(1,1)">
      <path fill="none" stroke="#000000" d="M 116.5 80 L 116.5 239" stroke-miterlimit="10" stroke-dasharray="3" />
    </g>
    <g transform="translate(2,2) scale(1,1)">
      <rect fill="#C0C0C0" stroke="none" x="231" y="47" width="191" height="39" opacity="0.2" />
    </g>
    <g transform="translate(2,2) scale(1,1)">
      <rect fill="#ffffff" stroke="none" x="224" y="40" width="191" height="39" />
    </g>
    <g transform="translate(2,2) scale(1,1)">
      <path fill="none" stroke="#000000" d="M 224 40 L 415 40 L 415 79 L 224 79 L 224 40 Z Z" stroke-miterlimit="10" />
    </g>
    <g transform="translate(2,2) scale(1,1)">
      <g>
        <path fill="none" stroke="none" /><text fill="#000000" stroke="none" font-family="Arial" font-size="13px"
          font-style="normal" font-weight="bold" text-decoration="none" x="244.35009765625" y="59.5">oManager:
          OrderManager</text></g>
    </g>
    <g transform="translate(2,2) scale(1,1)">
      <path fill="none" stroke="#000000" d="M 320.5 80 L 320.5 239" stroke-miterlimit="10" stroke-dasharray="3" />
    </g>
    <g transform="translate(2,2) scale(1,1)">
      <path fill="none" stroke="#000000" d="M 116 113 L 313 113" stroke-miterlimit="10" />
    </g>
    <g transform="translate(2,2) scale(1,1)">
      <path fill="#000000" stroke="none"
        d="M 302.83732514237585 117.20951775601598 L 313 113 L 302.83732514237585 108.79048224398402" />
    </g>
    <g transform="translate(2,2) scale(1,1)">
      <path fill="none" stroke="#000000"
        d="M 302.83732514237585 117.20951775601598 L 313 113 L 302.83732514237585 108.79048224398402 L 302.83732514237585 117.20951775601598"
        stroke-miterlimit="10" />
    </g>
    <g transform="translate(2,2) scale(1,1)">
      <g>
        <path fill="none" stroke="none" /><text fill="#000000" stroke="none" font-family="Arial" font-size="13px"
          font-style="normal" font-weight="normal" text-decoration="none" x="145.5" y="109.5">1 :
          findByUserAccount()</text></g>
    </g>
    <g transform="translate(2,2) scale(1,1)">
      <rect fill="#ffffff" stroke="none" x="313" y="113" width="13" height="28" />
    </g>
    <g transform="translate(2,2) scale(1,1)">
      <path fill="none" stroke="#000000" d="M 313 113 L 326 113 L 326 141 L 313 141 L 313 113 Z Z"
        stroke-miterlimit="10" />
    </g>
    <g transform="translate(2,2) scale(1,1)">
      <path fill="none" stroke="#000000" d="M 320 141 L 116 141" stroke-miterlimit="10" stroke-dasharray="3" />
    </g>
    <g transform="translate(2,2) scale(1,1)">
      <path fill="none" stroke="#000000"
        d="M 126.16267485762415 136.790482243984 L 116 141 L 126.16267485762415 145.209517756016"
        stroke-miterlimit="10" />
    </g>
    <g transform="translate(2,2) scale(1,1)">
      <g>
        <path fill="none" stroke="none" /><text fill="#000000" stroke="none" font-family="Arial" font-size="13px"
          font-style="normal" font-weight="normal" text-decoration="none" x="207.5" y="157.5">2 : </text></g>
    </g>
  </g>
</svg>