<svg version="1.1" xmlns="http://www.w3.org/2000/svg" xmlns:xlink="http://www.w3.org/1999/xlink" width="596" height="300"><defs/><g><g transform="translate(10,2) scale(1,1)"><path fill="none" stroke="#000000" d="M 0 8 L 576 8 L 576 288 L 0 288 L 0 8" stroke-miterlimit="10"/></g><g transform="translate(10,2) scale(1,1)"><path fill="#ffffff" stroke="none" d="M 0 8 L 0 30 L 158.365234375 30 L 169.365234375 19 L 169.365234375 8 L 0 8"/></g><g transform="translate(10,2) scale(1,1)"><path fill="none" stroke="#000000" d="M 0 8 L 0 30 L 158.365234375 30 L 169.365234375 19 L 169.365234375 8 L 0 8 L 0 8" stroke-miterlimit="10"/></g><g transform="translate(10,2) scale(1,1)"><g><path fill="none" stroke="none"/><text fill="#000000" stroke="none" font-family="Arial" font-size="13px" font-style="normal" font-weight="normal" text-decoration="none" x="24.72998046875" y="25.5">ListeAllerBestellungen</text></g></g><g transform="translate(10,2) scale(1,1)"><g><path fill="none" stroke="none"/><text fill="#000000" stroke="none" font-family="Arial" font-size="13px" font-style="normal" font-weight="bold" text-decoration="none" x="5" y="25.5">sd</text></g></g><g transform="translate(10,2) scale(1,1)"><rect fill="#C0C0C0" stroke="none" x="63" y="47" width="91.24267578125" height="39" opacity="0.2"/></g><g transform="translate(10,2) scale(1,1)"><rect fill="#ffffff" stroke="none" x="56" y="40" width="91.24267578125" height="39"/></g><g transform="translate(10,2) scale(1,1)"><path fill="none" stroke="#000000" d="M 56 40 L 147.24267578125 40 L 147.24267578125 79 L 56 79 L 56 40 Z Z" stroke-miterlimit="10"/></g><g transform="translate(10,2) scale(1,1)"><g><path fill="none" stroke="none"/><text fill="#000000" stroke="none" font-family="Arial" font-size="13px" font-style="normal" font-weight="bold" text-decoration="none" x="67.302734375" y="59.5">user: BOSS</text></g></g><g transform="translate(10,2) scale(1,1)"><path fill="none" stroke="#000000" d="M 102.5 80 L 102.5 239" stroke-miterlimit="10" stroke-dasharray="3"/></g><g transform="translate(10,2) scale(1,1)"><rect fill="#C0C0C0" stroke="none" x="167" y="47" width="202.49169921875" height="39" opacity="0.2"/></g><g transform="translate(10,2) scale(1,1)"><rect fill="#ffffff" stroke="none" x="160" y="40" width="202.49169921875" height="39"/></g><g transform="translate(10,2) scale(1,1)"><path fill="none" stroke="#000000" d="M 160 40 L 362.49169921875 40 L 362.49169921875 79 L 160 79 L 160 40 Z Z" stroke-miterlimit="10"/></g><g transform="translate(10,2) scale(1,1)"><g><path fill="none" stroke="none"/><text fill="#000000" stroke="none" font-family="Arial" font-size="13px" font-style="normal" font-weight="bold" text-decoration="none" x="174.536865234375" y="59.5">orderManager: OrderManager</text></g></g><g transform="translate(10,2) scale(1,1)"><path fill="none" stroke="#000000" d="M 262.5 80 L 262.5 239" stroke-miterlimit="10" stroke-dasharray="3"/></g><g transform="translate(10,2) scale(1,1)"><rect fill="#C0C0C0" stroke="none" x="383" y="47" width="149.01904296875" height="39" opacity="0.2"/></g><g transform="translate(10,2) scale(1,1)"><rect fill="#ffffff" stroke="none" x="376" y="40" width="149.01904296875" height="39"/></g><g transform="translate(10,2) scale(1,1)"><path fill="none" stroke="#000000" d="M 376 40 L 525.01904296875 40 L 525.01904296875 79 L 376 79 L 376 40 Z Z" stroke-miterlimit="10"/></g><g transform="translate(10,2) scale(1,1)"><g><path fill="none" stroke="none"/><text fill="#000000" stroke="none" font-family="Arial" font-size="13px" font-style="normal" font-weight="bold" text-decoration="none" x="390.530517578125" y="59.5">orderLine: OrderLine</text></g></g><g transform="translate(10,2) scale(1,1)"><path fill="none" stroke="#000000" d="M 451.5 80 L 451.5 239" stroke-miterlimit="10" stroke-dasharray="3"/></g><g transform="translate(10,2) scale(1,1)"><path fill="none" stroke="#000000" d="M 102 113 L 255 113" stroke-miterlimit="10"/></g><g transform="translate(10,2) scale(1,1)"><path fill="#000000" stroke="none" d="M 244.83732514237585 117.20951775601598 L 255 113 L 244.83732514237585 108.79048224398402"/></g><g transform="translate(10,2) scale(1,1)"><path fill="none" stroke="#000000" d="M 244.83732514237585 117.20951775601598 L 255 113 L 244.83732514237585 108.79048224398402 L 244.83732514237585 117.20951775601598" stroke-miterlimit="10"/></g><g transform="translate(10,2) scale(1,1)"><g><path fill="none" stroke="none"/><text fill="#000000" stroke="none" font-family="Arial" font-size="13px" font-style="normal" font-weight="normal" text-decoration="none" x="131.5" y="109.5">1 : getOrderLine</text></g></g><g transform="translate(10,2) scale(1,1)"><rect fill="#ffffff" stroke="none" x="255" y="113" width="13" height="28"/></g><g transform="translate(10,2) scale(1,1)"><path fill="none" stroke="#000000" d="M 255 113 L 268 113 L 268 141 L 255 141 L 255 113 Z Z" stroke-miterlimit="10"/></g><g transform="translate(10,2) scale(1,1)"><path fill="none" stroke="#000000" d="M 262 151 L 102 151" stroke-miterlimit="10" stroke-dasharray="3"/></g><g transform="translate(10,2) scale(1,1)"><path fill="none" stroke="#000000" d="M 112.16267485762415 146.790482243984 L 102 151 L 112.16267485762415 155.209517756016" stroke-miterlimit="10"/></g><g transform="translate(10,2) scale(1,1)"><g><path fill="none" stroke="none"/><text fill="#000000" stroke="none" font-family="Arial" font-size="13px" font-style="normal" font-weight="normal" text-decoration="none" x="144.5" y="167.5">2 : orderLine</text></g></g><g transform="translate(10,2) scale(1,1)"><path fill="none" stroke="#000000" d="M 102 181 L 444 181" stroke-miterlimit="10"/></g><g transform="translate(10,2) scale(1,1)"><path fill="#000000" stroke="none" d="M 433.83732514237585 185.209517756016 L 444 181 L 433.83732514237585 176.790482243984"/></g><g transform="translate(10,2) scale(1,1)"><path fill="none" stroke="#000000" d="M 433.83732514237585 185.209517756016 L 444 181 L 433.83732514237585 176.790482243984 L 433.83732514237585 185.209517756016" stroke-miterlimit="10"/></g><g transform="translate(10,2) scale(1,1)"><g><path fill="none" stroke="none"/><text fill="#000000" stroke="none" font-family="Arial" font-size="13px" font-style="normal" font-weight="normal" text-decoration="none" x="227.5" y="177.5">3 : getAllOrders</text></g></g><g transform="translate(10,2) scale(1,1)"><rect fill="#ffffff" stroke="none" x="444" y="181" width="13" height="28"/></g><g transform="translate(10,2) scale(1,1)"><path fill="none" stroke="#000000" d="M 444 181 L 457 181 L 457 209 L 444 209 L 444 181 Z Z" stroke-miterlimit="10"/></g><g transform="translate(10,2) scale(1,1)"><path fill="none" stroke="#000000" d="M 444 204 L 102 204" stroke-miterlimit="10" stroke-dasharray="3"/></g><g transform="translate(10,2) scale(1,1)"><path fill="none" stroke="#000000" d="M 112.16267485762415 199.790482243984 L 102 204 L 112.16267485762415 208.209517756016" stroke-miterlimit="10"/></g><g transform="translate(10,2) scale(1,1)"><g><path fill="none" stroke="none"/><text fill="#000000" stroke="none" font-family="Arial" font-size="13px" font-style="normal" font-weight="normal" text-decoration="none" x="244.5" y="220.5">4 : orders</text></g></g></g></svg>